<svg width="375" height="203" viewBox="0 0 375 203" fill="none" xmlns="http://www.w3.org/2000/svg">
<path d="M6.65691 192.732C7.04743 193.123 7.6806 193.123 8.07112 192.732L14.4351 186.368C14.8256 185.978 14.8256 185.344 14.4351 184.954C14.0446 184.563 13.4114 184.563 13.0209 184.954L7.36401 190.611L1.70716 184.954C1.31664 184.563 0.68347 184.563 0.292946 184.954C-0.0975784 185.344 -0.0975784 185.978 0.292946 186.368L6.65691 192.732ZM7.36401 12H6.36401L6.36401 192.025H7.36401H8.36401L8.36401 12H7.36401Z" fill="white"/>
<path d="M48.948 15.42L49.074 13.26C50.226 13.656 51.432 13.854 52.584 13.962C52.692 13.17 52.782 12.342 52.89 11.532C51.648 11.406 50.388 11.19 49.344 10.902L49.47 8.832C50.496 9.174 51.828 9.39 53.124 9.498C53.196 8.958 53.232 8.472 53.268 8.076C53.286 7.734 53.322 7.392 53.322 6.996C53.322 6.834 53.322 6.672 53.304 6.492L55.806 6.636C55.662 7.284 55.572 7.752 55.5 8.22C55.446 8.526 55.392 8.994 55.302 9.57C56.58 9.552 57.732 9.48 58.578 9.354L58.506 11.478C57.444 11.586 56.472 11.64 55.032 11.64C54.924 12.432 54.816 13.278 54.726 14.07H54.852C55.95 14.07 57.264 13.98 58.434 13.854L58.38 15.978C57.372 16.068 56.328 16.14 55.23 16.14H54.51C54.474 16.662 54.438 17.112 54.438 17.436C54.438 18.894 55.338 19.704 57.102 19.704C59.586 19.704 60.954 18.57 60.954 17.094C60.954 15.888 60.27 14.736 59.118 13.638L61.62 13.098C62.808 14.61 63.348 15.87 63.348 17.382C63.348 20.064 60.936 22.008 57.03 22.008C54.222 22.008 52.242 20.784 52.242 17.814C52.242 17.382 52.296 16.752 52.368 16.014C51.072 15.888 49.902 15.69 48.948 15.42ZM69.198 6.744L72.078 6.78C71.952 7.536 71.862 8.436 71.844 9.156C71.754 11.064 71.628 15.06 71.628 17.274C71.628 19.074 72.708 19.65 74.076 19.65C77.028 19.65 78.9 17.958 80.178 16.014L81.798 18.012C80.646 19.704 78.126 22.08 74.058 22.08C71.142 22.08 69.252 20.802 69.252 17.76C69.252 15.366 69.432 10.686 69.432 9.156C69.432 8.31 69.36 7.446 69.198 6.744ZM91.284 5.754H93.462V14.484C93.462 15.618 93.246 16.23 92.472 16.554C91.698 16.896 90.6 16.968 89.142 16.968C89.052 16.338 88.71 15.366 88.386 14.754C89.412 14.79 90.528 14.79 90.852 14.772C91.176 14.772 91.284 14.7 91.284 14.448V5.754ZM95.154 8.76L97.152 7.734C98.61 9.516 100.266 11.928 100.896 13.656L98.7 14.826C98.16 13.17 96.63 10.65 95.154 8.76ZM95.982 13.314L98.286 13.98C96.522 19.524 92.94 21.612 86.442 22.638C86.226 21.954 85.758 21.054 85.308 20.496C91.266 19.83 94.524 18.12 95.982 13.314ZM87.18 8.004L89.574 8.562C88.71 10.83 87.396 13.422 85.848 15.006C85.344 14.61 84.444 14.034 83.904 13.746C85.398 12.324 86.622 9.894 87.18 8.004ZM105.198 6.744L108.078 6.78C107.952 7.536 107.862 8.436 107.844 9.156C107.754 11.064 107.628 15.06 107.628 17.274C107.628 19.074 108.708 19.65 110.076 19.65C113.028 19.65 114.9 17.958 116.178 16.014L117.798 18.012C116.646 19.704 114.126 22.08 110.058 22.08C107.142 22.08 105.252 20.802 105.252 17.76C105.252 15.366 105.432 10.686 105.432 9.156C105.432 8.31 105.36 7.446 105.198 6.744ZM120.133 8.652C120.853 8.634 121.537 8.598 121.879 8.562C123.373 8.436 126.325 8.166 129.583 7.878C131.419 7.734 133.363 7.626 134.623 7.572L134.641 9.876C133.687 9.876 132.157 9.894 131.203 10.11C129.043 10.686 127.441 12.99 127.441 15.096C127.441 18.03 130.177 19.092 133.201 19.236L132.373 21.702C128.629 21.468 125.101 19.452 125.101 15.582C125.101 13.008 126.523 10.992 127.729 10.092C126.181 10.254 122.437 10.65 120.367 11.1L120.133 8.652ZM130.807 12.162L132.139 11.604C132.571 12.252 133.237 13.332 133.579 14.052L132.211 14.664C131.761 13.674 131.383 12.972 130.807 12.162ZM132.841 11.388L134.155 10.776C134.605 11.406 135.289 12.468 135.667 13.17L134.317 13.818C133.831 12.846 133.417 12.18 132.841 11.388ZM138.403 15.42L138.529 13.26C139.681 13.656 140.887 13.854 142.039 13.962C142.147 13.17 142.237 12.342 142.345 11.532C141.103 11.406 139.843 11.19 138.799 10.902L138.925 8.832C139.951 9.174 141.283 9.39 142.579 9.498C142.651 8.958 142.687 8.472 142.723 8.076C142.741 7.734 142.777 7.392 142.777 6.996C142.777 6.834 142.777 6.672 142.759 6.492L145.261 6.636C145.117 7.284 145.027 7.752 144.955 8.22C144.901 8.526 144.847 8.994 144.757 9.57C146.035 9.552 147.187 9.48 148.033 9.354L147.961 11.478C146.899 11.586 145.927 11.64 144.487 11.64C144.379 12.432 144.271 13.278 144.181 14.07H144.307C145.405 14.07 146.719 13.98 147.889 13.854L147.835 15.978C146.827 16.068 145.783 16.14 144.685 16.14H143.965C143.929 16.662 143.893 17.112 143.893 17.436C143.893 18.894 144.793 19.704 146.557 19.704C149.041 19.704 150.409 18.57 150.409 17.094C150.409 15.888 149.725 14.736 148.573 13.638L151.075 13.098C152.263 14.61 152.803 15.87 152.803 17.382C152.803 20.064 150.391 22.008 146.485 22.008C143.677 22.008 141.697 20.784 141.697 17.814C141.697 17.382 141.751 16.752 141.823 16.014C140.527 15.888 139.357 15.69 138.403 15.42ZM156.142 13.566C157.096 13.476 158.338 13.314 159.256 13.206C160.858 12.162 163.18 10.146 164.278 9.156C163.558 9.21 161.362 9.318 160.642 9.39C160.192 9.426 159.598 9.498 159.04 9.552L158.932 7.266C159.49 7.32 160.012 7.338 160.624 7.338C161.38 7.338 164.728 7.176 165.808 7.05C166.384 6.996 166.798 6.906 167.05 6.834L168.454 8.472C168.094 8.724 167.428 9.156 167.068 9.462C165.79 10.47 164.026 11.946 162.82 12.9C165.214 12.648 168.148 12.468 170.326 12.468V14.574C169.534 14.52 168.724 14.502 167.968 14.502C167.104 14.502 166.33 14.538 165.754 14.61C164.116 14.844 162.748 15.996 162.748 17.454C162.748 18.858 163.846 19.398 165.448 19.596C165.97 19.65 166.528 19.668 167.014 19.668C167.464 19.668 167.86 19.65 168.166 19.632L167.698 21.972C167.41 21.99 167.122 21.99 166.852 21.99C162.802 21.99 160.462 20.622 160.462 17.832C160.462 16.734 161.11 15.636 161.758 15.024C160.138 15.15 158.14 15.42 156.358 15.726L156.142 13.566ZM175.132 11.892C175.726 11.838 176.5 11.712 177.076 11.586C178.39 11.298 180.388 10.776 182.458 10.776C185.284 10.776 187.264 12.378 187.264 15.168C187.264 18.984 183.736 21.36 178.786 22.044L177.49 19.812C181.918 19.308 184.744 17.868 184.744 15.078C184.744 13.926 183.862 12.954 182.224 12.954H182.17C180.208 12.954 178.444 13.548 177.526 13.818C177.004 13.98 176.32 14.25 175.798 14.43L175.132 11.892ZM177.4 8.67L177.76 6.51C179.83 6.96 183.88 7.32 185.77 7.32L185.41 9.516C183.322 9.372 179.452 9.03 177.4 8.67ZM198.334 14.682V13.548H196.696V14.682H198.334ZM194.5 9.12V10.164C194.5 12.378 194.158 15.51 192.448 17.544C192.142 17.166 191.314 16.464 190.9 16.248C192.376 14.466 192.538 11.946 192.538 10.128V7.428H200.188C200.134 6.87 200.098 6.312 200.08 5.754H202.096C202.114 6.312 202.15 6.888 202.204 7.428H204.112C203.644 7.176 203.122 6.942 202.654 6.762L203.716 5.592C204.562 5.844 205.66 6.33 206.218 6.78L205.678 7.428H207.334V9.12H202.438C202.618 10.146 202.888 11.1 203.176 11.928C203.626 11.208 204.004 10.416 204.274 9.57L206.254 10.038C205.75 11.496 205.03 12.81 204.166 13.962C204.652 14.7 205.156 15.114 205.66 15.114C206.056 15.096 206.2 14.502 206.29 12.954C206.74 13.35 207.406 13.728 207.91 13.89C207.604 16.446 206.992 17.04 205.552 17.04C204.526 17.04 203.608 16.464 202.834 15.492C202.294 16.014 201.736 16.482 201.142 16.878C200.926 16.572 200.476 16.104 200.08 15.744V16.068H198.928C199.882 16.59 200.944 17.4 201.484 18.03L200.008 19.29C199.486 18.606 198.316 17.688 197.326 17.094L198.55 16.068H194.986V12.18H200.08V15.132C200.692 14.736 201.25 14.268 201.772 13.746C201.178 12.45 200.71 10.866 200.422 9.12H194.5ZM200.206 9.948V11.316H194.914V9.948H200.206ZM192.826 22.188L191.062 21C192.124 20.172 192.898 18.894 193.258 17.562L195.166 18.246C194.752 19.74 194.05 21.234 192.826 22.188ZM198.766 20.424H201.214C201.916 20.424 202.024 20.244 202.114 18.822C202.51 19.146 203.428 19.452 203.986 19.578C203.752 21.792 203.158 22.332 201.412 22.332H198.532C196.21 22.332 195.67 21.756 195.67 19.902V17.58H197.794V19.884C197.794 20.37 197.938 20.424 198.766 20.424ZM203.212 18.192L205.012 17.292C206.182 18.354 207.424 19.866 207.892 21.036L205.948 22.008C205.552 20.91 204.382 19.326 203.212 18.192ZM212.014 6.762L214.894 6.78C214.768 7.536 214.678 8.454 214.66 9.156C214.57 11.082 214.444 15.06 214.444 17.274C214.444 19.074 215.524 19.668 216.892 19.668C219.844 19.668 221.716 17.976 222.994 16.032L224.614 18.012C223.462 19.722 220.942 22.08 216.874 22.08C213.958 22.08 212.068 20.802 212.068 17.76C212.068 15.366 212.248 10.704 212.248 9.156C212.248 8.31 212.176 7.464 212.014 6.762ZM217.954 8.85L219.52 8.184C220.024 8.94 220.816 10.254 221.212 11.082L219.592 11.784C219.07 10.632 218.602 9.768 217.954 8.85ZM220.384 7.914L221.932 7.212C222.454 7.932 223.282 9.21 223.678 10.02L222.112 10.776C221.536 9.642 221.05 8.814 220.384 7.914ZM227.836 8.652C228.538 8.634 229.222 8.598 229.582 8.562C231.058 8.418 234.01 8.166 237.268 7.878C239.104 7.734 241.066 7.626 242.308 7.572L242.326 9.876C241.372 9.876 239.842 9.894 238.888 10.11C236.746 10.686 235.126 12.99 235.126 15.096C235.126 18.03 237.88 19.074 240.886 19.236L240.058 21.702C236.314 21.45 232.786 19.434 232.786 15.582C232.786 13.008 234.226 10.992 235.414 10.092C233.884 10.254 230.122 10.65 228.052 11.1L227.836 8.652ZM246.448 8.148L249.184 8.184C249.058 8.814 248.968 9.858 248.968 10.344V11.118C248.968 12.072 248.986 13.116 249.076 14.124C249.328 16.698 249.868 18.444 250.984 18.444C251.83 18.444 252.532 16.356 252.874 14.952L254.674 17.112C253.486 20.208 252.37 21.306 250.93 21.306C248.986 21.306 247.276 19.542 246.772 14.754C246.61 13.116 246.574 11.046 246.574 9.948C246.574 9.444 246.556 8.688 246.448 8.148ZM255.826 9.318L258.094 8.562C259.786 10.632 261.154 14.934 261.352 17.67L258.994 18.57C258.724 15.708 257.77 11.514 255.826 9.318ZM264.124 16.122C265.384 15.096 267.526 13.278 268.588 12.414C269.578 11.586 271.432 10.092 272.314 9.318C271.396 9.336 268.948 9.444 268.012 9.516C267.526 9.534 266.968 9.588 266.554 9.66L266.482 7.338C266.986 7.392 267.598 7.428 268.102 7.428C269.038 7.428 272.854 7.338 273.862 7.248C274.6 7.194 275.014 7.122 275.23 7.068L276.382 8.652C275.95 8.922 275.536 9.192 275.14 9.462C274.186 10.128 272.314 11.712 271.198 12.612C271.792 12.45 272.296 12.414 272.872 12.414C275.896 12.414 278.2 14.304 278.2 16.896C278.2 19.704 276.058 21.936 271.756 21.936C269.272 21.936 267.4 20.802 267.4 19.02C267.4 17.58 268.714 16.248 270.604 16.248C272.8 16.248 274.132 17.598 274.402 19.29C275.374 18.768 275.86 17.94 275.86 16.86C275.86 15.258 274.24 14.178 272.17 14.178C269.434 14.178 267.652 15.636 265.744 17.796L264.124 16.122ZM269.506 18.804C269.506 19.47 270.262 19.92 271.306 19.92C271.684 19.92 272.026 19.902 272.35 19.866C272.242 18.714 271.576 17.958 270.604 17.958C269.938 17.958 269.506 18.354 269.506 18.804ZM281.71 17.652C283.15 15.906 284.554 13.278 285.346 11.352C285.04 11.37 284.734 11.37 284.428 11.37C283.69 11.37 282.97 11.352 282.196 11.316L282.034 9.228C282.808 9.318 283.762 9.354 284.41 9.354C284.932 9.354 285.472 9.336 286.012 9.3C286.264 8.31 286.462 7.23 286.498 6.312L288.964 6.564C288.82 7.14 288.604 8.04 288.352 8.994C289.216 8.85 290.044 8.652 290.746 8.436L290.8 10.506C289.99 10.722 288.892 10.956 287.704 11.118C286.858 13.62 285.328 16.716 283.888 18.75L281.71 17.652ZM285.94 19.11C285.94 17.364 287.398 16.014 289.882 16.014C290.296 16.014 290.71 16.05 291.088 16.086C291.034 14.754 290.944 13.188 290.89 12.108H293.14C293.122 12.396 293.104 12.702 293.104 12.99C293.104 13.44 293.122 13.908 293.14 14.394C293.158 14.898 293.194 15.762 293.248 16.644C294.778 17.22 296.038 18.12 296.938 18.93L295.75 20.838C295.12 20.262 294.31 19.542 293.338 18.948V19.11C293.338 20.766 292.438 22.062 289.9 22.062C287.686 22.062 285.94 21.072 285.94 19.11ZM288.046 18.894C288.046 19.56 288.604 20.01 289.576 20.01C290.782 20.01 291.178 19.308 291.178 18.354V18.012C290.71 17.904 290.242 17.832 289.738 17.832C288.712 17.832 288.046 18.264 288.046 18.894ZM291.916 10.524L293.068 8.76C294.346 9.318 296.56 10.524 297.46 11.172L296.2 13.062C295.174 12.234 293.14 11.064 291.916 10.524ZM301.33 17.256C301.672 15.51 302.104 12.036 302.212 9.822L304.624 10.146C304.39 11.136 304.084 13.278 303.958 14.304C305.578 13.134 307.342 12.612 309.196 12.612C312.328 12.612 314.146 14.538 314.146 16.698C314.146 19.614 312.094 21.918 306.37 21.918C305.686 21.918 304.948 21.882 304.156 21.81L303.472 19.47C304.498 19.614 305.434 19.686 306.28 19.686C309.808 19.686 311.644 18.48 311.644 16.644C311.644 15.492 310.546 14.646 308.98 14.646C306.964 14.646 305.182 15.384 304.066 16.734C303.742 17.13 303.544 17.418 303.4 17.778L301.33 17.256ZM303.94 8.724L304.516 6.564C306.208 7.086 310.078 7.77 311.644 7.95L311.104 10.146C309.304 9.912 305.326 9.084 303.94 8.724ZM317.242 18.192L318.934 16.734C320.212 17.778 321.904 19.524 322.876 20.694L321.148 22.17C320.032 20.802 318.502 19.254 317.242 18.192ZM60.738 38.156V37.382H58.956V38.156H60.738ZM60.738 40.262V39.47H58.956V40.262H60.738ZM51.738 39.47V40.262H53.484V39.47H51.738ZM51.738 37.382V38.156H53.484V37.382H51.738ZM57.12 39.47H55.284V40.262H57.12V39.47ZM57.12 37.382H55.284V38.156H57.12V37.382ZM62.79 35.978V41.684H49.776V35.978H53.484V34.754H55.284V35.978H57.12V34.754H58.956V35.978H62.79ZM64.212 42.278V43.79H48.552V42.278H64.212ZM58.578 48.146H54.114C54.42 48.614 54.708 49.136 54.834 49.55L54.456 49.676H58.002L57.75 49.586C58.002 49.19 58.326 48.65 58.578 48.146ZM52.602 45.77V46.778H59.982V45.77H52.602ZM59.802 49.676H64.374V51.296H48.354V49.676H52.728C52.548 49.226 52.278 48.722 52.026 48.308L52.602 48.146H50.532V44.402H62.196V48.146H60.198L60.666 48.308C60.378 48.794 60.072 49.262 59.802 49.676ZM75.336 48.11H79.656V44.114H75.336V48.11ZM69.018 44.114V48.11H73.158V44.114H69.018ZM73.158 38.012H69.018V41.972H73.158V38.012ZM79.656 41.972V38.012H75.336V41.972H79.656ZM66.876 35.942H81.888V51.368H79.656V50.27H69.018V51.368H66.876V35.942ZM88.494 34.988L90.618 35.69C90.096 36.914 89.466 38.138 88.746 39.326V51.53H86.604V42.35C86.028 43.052 85.416 43.7 84.822 44.258C84.588 43.718 83.976 42.53 83.58 41.99C85.524 40.352 87.414 37.706 88.494 34.988ZM95.118 49.352H97.764C98.628 49.352 98.772 48.74 98.916 46.202C99.42 46.58 100.32 46.994 100.896 47.12C100.644 50.216 100.086 51.35 97.962 51.35H94.884C92.616 51.35 91.968 50.63 91.968 48.092V35.222H94.128V41.378C95.82 40.406 97.476 39.254 98.664 38.228L100.248 40.1C98.466 41.36 96.234 42.566 94.128 43.574V48.11C94.128 49.172 94.254 49.352 95.118 49.352ZM104.622 39.488V41.972H102.606V37.598H105.054C104.73 37.004 104.244 36.302 103.812 35.744L105.63 34.934C106.26 35.636 106.98 36.59 107.268 37.292L106.62 37.598H109.446C109.194 36.896 108.744 36.032 108.312 35.348L110.202 34.664C110.778 35.438 111.372 36.536 111.606 37.256L110.742 37.598H113.46C114.054 36.752 114.666 35.708 115.008 34.862L117.33 35.564C116.844 36.266 116.322 36.968 115.818 37.598H118.212V41.972H116.106V39.488H104.622ZM118.392 44.888V46.868H111.462V49.262C111.462 50.378 111.228 50.936 110.346 51.242C109.5 51.548 108.384 51.584 106.854 51.584C106.71 50.972 106.296 50.072 105.972 49.496C107.124 49.55 108.456 49.55 108.816 49.532C109.194 49.532 109.284 49.46 109.284 49.208V46.868H102.372V44.888H109.284V43.718H110.31C110.778 43.43 111.264 43.088 111.696 42.728H105.594V40.874H113.676L114.144 40.766L115.494 41.81C114.486 42.908 113.082 44.042 111.624 44.888H118.392ZM121.128 45.122C121.128 42.422 121.65 39.056 121.866 37.688C121.938 37.184 122.028 36.5 122.028 35.942L124.512 36.158C124.368 36.518 124.152 37.418 124.08 37.742C123.81 38.93 123.234 42.854 123.234 44.636C123.234 44.996 123.252 45.428 123.306 45.788C123.54 45.158 123.828 44.564 124.098 43.97L125.196 44.852C124.692 46.31 124.116 48.128 123.918 49.1C123.864 49.316 123.828 49.622 123.828 49.838C123.828 50.072 123.828 50.36 123.846 50.666L121.83 50.81C121.47 49.568 121.128 47.534 121.128 45.122ZM125.808 47.822C125.808 46.004 127.338 44.762 129.768 44.762C130.182 44.762 130.578 44.78 130.938 44.834C130.884 43.736 130.83 42.44 130.812 41.18C130.38 41.198 129.948 41.198 129.534 41.198C128.49 41.198 127.482 41.162 126.42 41.09V38.966C127.446 39.074 128.472 39.128 129.534 39.128C129.948 39.128 130.38 39.128 130.794 39.11C130.776 38.228 130.776 37.508 130.758 37.13C130.758 36.86 130.704 36.32 130.65 35.96H133.206C133.152 36.302 133.116 36.734 133.098 37.112C133.08 37.508 133.044 38.174 133.044 38.966C134.016 38.858 134.952 38.732 135.798 38.552V40.766C134.934 40.892 133.998 41 133.026 41.072C133.062 42.8 133.152 44.222 133.224 45.428C134.718 46.04 135.834 46.958 136.662 47.732L135.456 49.604C134.718 48.902 133.998 48.308 133.296 47.822C133.188 49.514 132.216 50.738 129.804 50.738C127.356 50.738 125.808 49.694 125.808 47.822ZM127.896 47.588C127.896 48.308 128.616 48.632 129.552 48.632C130.65 48.632 131.028 48.056 131.028 47.012V46.706C130.56 46.58 130.074 46.508 129.588 46.508C128.58 46.508 127.896 46.922 127.896 47.588ZM140.064 40.766C141.45 40.892 142.782 40.964 144.006 40.964C145.14 40.964 146.202 40.91 147.174 40.802C146.922 40.262 146.76 39.794 146.508 39.254C145.716 39.326 144.834 39.362 143.898 39.362C142.764 39.362 141.558 39.308 140.37 39.182L140.244 37.148C141.684 37.31 143.016 37.382 144.24 37.382C144.726 37.382 145.176 37.364 145.626 37.346C145.356 36.752 145.104 36.284 144.798 35.798L147.354 35.312C147.498 35.852 147.678 36.464 147.912 37.076C149.1 36.878 150.252 36.626 151.314 36.266L151.692 38.264C150.774 38.534 149.784 38.786 148.65 38.984C148.866 39.506 149.028 39.884 149.298 40.478C150.684 40.208 151.71 39.902 152.502 39.614L152.934 41.63C152.196 41.882 151.242 42.116 150.18 42.332C150.63 43.286 151.224 44.528 151.728 45.482L150.666 46.832C149.496 46.526 147.3 46.058 145.464 46.058C143.898 46.058 142.548 46.364 142.548 47.336C142.548 48.218 143.952 48.74 145.95 48.74C147.678 48.74 149.766 48.56 150.972 48.272L150.9 50.558C149.928 50.774 147.804 50.972 146.004 50.972C142.602 50.972 140.334 49.946 140.334 47.174C140.334 45.032 142.314 43.898 145.176 43.898C146.238 43.898 147.642 44.06 148.704 44.33C148.632 44.168 148.11 42.98 147.984 42.71C146.706 42.872 145.212 42.944 143.664 42.944C142.494 42.944 141.306 42.89 140.154 42.818L140.064 40.766ZM157.289 42.35C157.811 42.26 158.639 42.062 159.179 41.882C160.385 41.522 163.409 40.496 165.569 40.496C168.377 40.496 170.267 42.17 170.267 44.87C170.267 48.092 167.441 50.306 161.771 50.648L160.835 48.434C164.885 48.326 167.909 47.264 167.909 44.834C167.909 43.502 166.901 42.566 165.353 42.566C163.283 42.566 159.737 44.042 158.207 44.69L157.289 42.35ZM175.559 46.634C175.559 44.672 176.765 43.214 178.511 41.936C177.683 40.442 177.377 38.264 177.143 36.086L179.555 35.708C179.681 37.832 180.131 39.416 180.725 40.928C182.255 40.298 183.875 39.848 184.739 39.578C185.423 39.362 186.143 39.164 186.683 38.894L187.295 41.27C186.665 41.396 186.125 41.558 185.189 41.81C183.893 42.17 182.237 42.656 180.599 43.412C179.141 44.078 178.025 45.104 178.025 46.364C178.025 47.642 179.231 48.326 181.715 48.326C183.551 48.326 185.963 48.038 187.547 47.678L187.511 50.252C185.999 50.504 184.109 50.684 181.787 50.684C178.241 50.684 175.559 49.694 175.559 46.634ZM192.353 47.552C192.353 45.284 194.243 42.872 196.727 41.702C196.781 40.946 196.835 40.19 196.907 39.47H196.331C195.395 39.47 194.009 39.398 193.181 39.362L193.109 37.292C193.739 37.382 195.305 37.526 196.403 37.526H197.087L197.195 36.572C197.231 36.302 197.249 35.978 197.249 35.69V35.51L199.589 35.564C199.463 35.924 199.391 36.248 199.337 36.518C199.265 36.806 199.211 37.13 199.157 37.472C201.317 37.4 203.243 37.184 205.205 36.716L205.223 38.768C203.477 39.092 201.083 39.308 198.887 39.416C198.833 39.938 198.779 40.478 198.761 41.018C199.607 40.82 200.543 40.694 201.425 40.694H201.731C201.803 40.334 201.875 39.884 201.893 39.632L204.089 40.136C203.999 40.334 203.873 40.712 203.765 41.054C205.835 41.738 207.203 43.34 207.203 45.428C207.203 47.93 205.709 50.396 201.335 51.044L200.147 49.172C203.585 48.794 204.989 47.066 204.989 45.32C204.989 44.24 204.359 43.286 203.153 42.818C202.163 45.248 200.741 47.102 199.391 48.218C199.517 48.686 199.661 49.118 199.805 49.55L197.753 50.162C197.681 49.946 197.591 49.694 197.519 49.442C196.655 49.874 195.701 50.162 194.765 50.162C193.451 50.162 192.353 49.37 192.353 47.552ZM194.459 47.12C194.459 47.678 194.711 47.984 195.287 47.984C195.791 47.984 196.403 47.786 197.069 47.408C196.871 46.292 196.727 45.068 196.691 43.844C195.359 44.744 194.459 46.112 194.459 47.12ZM198.689 42.944C198.689 44.042 198.761 45.014 198.887 45.896C199.751 45.032 200.543 43.952 201.137 42.512C200.201 42.53 199.373 42.692 198.689 42.908V42.944ZM209.885 46.652C211.325 44.906 212.729 42.278 213.521 40.352C213.215 40.37 212.909 40.37 212.603 40.37C211.865 40.37 211.145 40.352 210.371 40.316L210.209 38.228C210.983 38.318 211.937 38.354 212.585 38.354C213.107 38.354 213.647 38.336 214.187 38.3C214.439 37.31 214.637 36.23 214.673 35.312L217.139 35.564C216.995 36.14 216.779 37.04 216.527 37.994C217.391 37.85 218.219 37.652 218.921 37.436L218.975 39.506C218.165 39.722 217.067 39.956 215.879 40.118C215.033 42.62 213.503 45.716 212.063 47.75L209.885 46.652ZM214.115 48.11C214.115 46.364 215.573 45.014 218.057 45.014C218.471 45.014 218.885 45.05 219.263 45.086C219.209 43.754 219.119 42.188 219.065 41.108H221.315C221.297 41.396 221.279 41.702 221.279 41.99C221.279 42.44 221.297 42.908 221.315 43.394C221.333 43.898 221.369 44.762 221.423 45.644C222.953 46.22 224.213 47.12 225.113 47.93L223.925 49.838C223.295 49.262 222.485 48.542 221.513 47.948V48.11C221.513 49.766 220.613 51.062 218.075 51.062C215.861 51.062 214.115 50.072 214.115 48.11ZM216.221 47.894C216.221 48.56 216.779 49.01 217.751 49.01C218.957 49.01 219.353 48.308 219.353 47.354V47.012C218.885 46.904 218.417 46.832 217.913 46.832C216.887 46.832 216.221 47.264 216.221 47.894ZM220.091 39.524L221.243 37.76C222.521 38.318 224.735 39.524 225.635 40.172L224.375 42.062C223.349 41.234 221.315 40.064 220.091 39.524ZM228.317 49.982C229.379 48.2 230.729 44.456 231.395 41.954C231.521 41.486 231.647 40.982 231.773 40.478C231.359 40.496 230.963 40.514 230.603 40.514C229.739 40.514 229.073 40.478 228.443 40.442L228.389 38.21C229.307 38.318 229.901 38.354 230.639 38.354C231.161 38.354 231.683 38.336 232.223 38.3C232.295 37.904 232.349 37.562 232.385 37.274C232.439 36.824 232.475 36.338 232.475 35.942C232.475 35.762 232.475 35.6 232.457 35.474L235.175 35.69C235.049 36.176 234.887 36.968 234.797 37.364L234.653 38.048C235.661 37.886 236.669 37.688 237.641 37.454V39.704C236.579 39.938 235.373 40.136 234.185 40.28C234.023 41.054 233.843 41.846 233.645 42.566C232.997 45.068 231.791 48.722 230.819 50.81L228.317 49.982ZM234.833 47.732C234.833 46.922 234.995 46.058 235.139 45.356L237.281 45.554C237.137 46.058 237.029 46.652 237.029 47.048C237.029 47.822 237.479 48.398 239.387 48.398C240.575 48.398 241.817 48.272 243.095 48.038L243.005 50.324C241.997 50.45 240.791 50.576 239.369 50.576C236.363 50.576 234.833 49.532 234.833 47.732ZM236.237 43.178V41.072C237.227 40.982 238.505 40.892 239.657 40.892C240.665 40.892 241.745 40.946 242.789 41.054L242.735 43.196C241.853 43.088 240.755 42.98 239.675 42.98C238.433 42.98 237.353 43.034 236.237 43.178ZM245.849 44.312C245.849 40.208 249.431 36.68 254.057 36.68C258.467 36.68 261.257 39.758 261.257 43.646C261.257 47.39 258.953 50.054 254.453 50.738L253.121 48.632C253.805 48.542 254.309 48.452 254.777 48.344C257.063 47.804 258.827 46.166 258.827 43.574C258.827 41.108 257.495 39.272 255.101 38.858C254.849 40.37 254.543 42.026 254.039 43.7C252.977 47.3 251.429 49.496 249.485 49.496C247.523 49.496 245.849 47.318 245.849 44.312ZM248.171 44.078C248.171 45.878 248.891 46.76 249.557 46.76C250.295 46.76 251.015 45.644 251.735 43.232C252.149 41.918 252.473 40.388 252.689 38.912C249.737 39.524 248.171 42.116 248.171 44.078ZM268.925 41.432V42.548H274.271V41.432H268.925ZM278.375 45.14V48.83C278.375 49.82 278.177 50.342 277.457 50.666C276.755 50.972 275.765 50.972 274.487 50.972C274.379 50.378 274.091 49.568 273.803 49.028C274.613 49.064 275.567 49.064 275.819 49.064C276.089 49.064 276.179 48.992 276.179 48.794V47.048H272.939V51.584H270.725V47.048H267.341V50.774H265.163V45.14H270.725V44.06H266.873V39.92H276.449V44.06H272.939V45.14H278.375ZM276.683 37.202H279.419V41.54H277.277V39.056H266.009V41.54H263.957V37.202H266.387C266.117 36.68 265.739 36.086 265.379 35.636L267.323 34.844C267.845 35.438 268.403 36.23 268.637 36.77L267.665 37.202H270.527V34.736H272.741V37.202H275.567L274.559 36.842C275.009 36.302 275.549 35.474 275.855 34.88L278.159 35.564C277.637 36.194 277.133 36.752 276.683 37.202ZM286.439 35.312V36.932H282.029V35.312H286.439ZM286.889 37.724V39.416H281.237V37.724H286.889ZM286.457 40.226V41.864H281.939V40.226H286.457ZM281.939 44.294V42.692H286.457V44.294H281.939ZM284.837 46.85H283.505V48.92H284.837V46.85ZM286.511 45.176V50.594H283.505V51.314H281.885V45.176H286.511ZM289.049 48.092H290.813V47.138H289.049V48.092ZM290.813 44.798H289.049V45.698H290.813V44.798ZM296.123 43.268L297.707 44.15C297.185 45.59 296.465 46.886 295.637 48.038C295.853 48.812 296.141 49.262 296.501 49.298C296.735 49.316 296.915 48.524 296.987 47.246C297.293 47.678 297.995 48.254 298.301 48.452C297.851 51.008 297.077 51.638 296.393 51.602C295.439 51.53 294.755 50.864 294.287 49.64C293.549 50.396 292.739 51.044 291.929 51.566C291.677 51.206 291.119 50.684 290.723 50.378C291.119 50.144 291.515 49.874 291.893 49.568H289.049V50.252H287.447V43.322H292.541V49.01C292.973 48.596 293.387 48.164 293.783 47.678C293.531 46.292 293.387 44.564 293.297 42.512H286.745V40.802H288.095C288.059 40.154 287.897 39.218 287.663 38.498L289.085 38.192C289.373 38.912 289.589 39.884 289.607 40.514L288.401 40.802H291.317L290.381 40.604C290.525 39.902 290.687 38.858 290.759 38.138H287.123V36.536H289.031V34.772H290.993V36.536H292.865V38.138H290.867L292.487 38.39C292.253 39.254 292.037 40.154 291.857 40.802H293.243C293.207 39.002 293.189 36.986 293.189 34.772H295.007L294.989 36.428L296.501 35.852C297.221 36.824 297.851 38.174 298.103 39.074L296.393 39.776C296.195 38.876 295.637 37.58 294.989 36.59C294.971 38.102 294.971 39.506 295.007 40.802H297.941V42.512H295.043C295.079 43.61 295.151 44.582 295.223 45.446C295.565 44.762 295.871 44.042 296.123 43.268ZM299.993 44.366C301.865 42.638 303.125 41.054 303.917 39.47H303.701C302.981 39.47 301.667 39.434 300.695 39.344V37.256C301.595 37.4 302.927 37.454 303.827 37.454H304.691C304.907 36.644 305.033 35.924 305.051 35.42L307.391 35.618C307.301 36.05 307.175 36.662 306.959 37.382C308.633 37.292 310.433 37.148 311.999 36.86L311.981 38.948C310.271 39.2 308.075 39.344 306.167 39.416C305.879 40.046 305.519 40.694 305.141 41.216C305.609 40.982 306.563 40.856 307.157 40.856C308.237 40.856 309.137 41.324 309.533 42.242C310.451 41.81 311.207 41.504 311.945 41.18C312.629 40.874 313.259 40.568 313.907 40.262L314.807 42.332C314.231 42.476 313.295 42.836 312.683 43.088C311.891 43.394 310.883 43.79 309.785 44.294C309.803 45.284 309.839 46.598 309.857 47.408H307.715C307.751 46.886 307.769 46.058 307.787 45.284C306.473 46.004 305.753 46.706 305.753 47.588C305.753 48.578 306.599 48.848 308.345 48.848C309.857 48.848 311.837 48.65 313.403 48.326L313.331 50.648C312.143 50.792 309.965 50.936 308.291 50.936C305.501 50.936 303.395 50.27 303.395 47.966C303.395 45.698 305.555 44.258 307.589 43.214C307.301 42.764 306.833 42.602 306.347 42.602C305.339 42.602 304.241 43.178 303.557 43.826C303.017 44.366 302.513 45.014 301.901 45.788L299.993 44.366ZM49.038 66.364C49.344 66.364 49.704 66.346 50.046 66.31C51.918 66.166 54.906 65.68 56.076 65.284L56.742 67.264C56.49 67.372 56.112 67.498 55.86 67.66C54.636 68.614 52.17 71.764 52.17 74.77C52.17 76.732 53.448 77.632 54.996 77.632C57.678 77.632 59.46 75.166 59.46 71.026C59.46 69.82 59.298 68.47 58.974 66.994C58.848 66.652 58.722 66.31 58.596 65.95L60.756 65.284C61.242 67.516 62.25 70.306 64.59 72.664L62.934 74.446C62.376 73.726 61.836 72.934 61.314 72.034C61.314 72.196 61.332 72.34 61.332 72.502C61.332 76.426 59.352 80.044 54.888 80.044C51.918 80.044 49.884 78.136 49.884 75.076C49.884 72.394 51.27 69.694 52.692 68.074C52.008 68.164 51.018 68.326 50.388 68.452C50.046 68.524 49.758 68.596 49.344 68.686L49.038 66.364ZM68.01 71.35C68.532 71.26 69.36 71.062 69.9 70.882C71.106 70.522 74.13 69.496 76.29 69.496C79.098 69.496 80.988 71.17 80.988 73.87C80.988 77.092 78.162 79.306 72.492 79.648L71.556 77.434C75.606 77.326 78.63 76.264 78.63 73.834C78.63 72.502 77.622 71.566 76.074 71.566C74.004 71.566 70.458 73.042 68.928 73.69L68.01 71.35ZM86.622 72.07C86.622 71.422 87.108 70.792 88.044 70.018C89.43 68.884 91.878 66.904 93.084 65.716C93.588 65.23 94.164 64.636 94.452 64.222L96.54 66.076C95.982 66.49 95.388 66.958 94.974 67.282C93.822 68.218 91.464 70.036 90.276 71.062C89.808 71.458 89.574 71.71 89.574 71.962C89.574 72.214 89.826 72.484 90.312 72.898C91.644 74.032 95.082 76.75 96.846 78.46L94.776 80.368C94.272 79.81 93.714 79.252 93.21 78.712C92.238 77.686 89.52 75.364 87.882 73.978C87.036 73.258 86.622 72.664 86.622 72.07ZM104.802 72.07C104.802 70.414 105.036 68.2 105.306 66.364C105.396 65.716 105.432 64.996 105.45 64.492L107.898 64.6C107.646 65.482 107.286 67.3 107.178 68.29C108.024 66.922 109.572 65.41 111.588 65.41C114.072 65.41 115.998 67.84 115.998 71.764C115.998 76.804 112.902 79.216 108.186 80.08L106.836 78.01C110.796 77.398 113.568 76.102 113.568 71.782C113.568 69.028 112.65 67.498 111.174 67.498C109.068 67.498 107.232 70.666 107.142 73.006V73.456C107.142 73.852 107.16 74.302 107.232 74.896L105.018 75.04C104.928 74.356 104.802 73.258 104.802 72.07ZM133.08 70.036H130.146C130.524 71.008 131.028 71.89 131.658 72.664C132.252 71.89 132.72 71.008 133.08 70.036ZM134.322 68.074L135.69 68.506C135.204 70.828 134.34 72.7 133.188 74.158C134.196 74.932 135.384 75.508 136.806 75.886C136.338 76.3 135.726 77.164 135.438 77.74C133.962 77.272 132.738 76.588 131.694 75.706C130.704 76.534 129.57 77.182 128.31 77.686C128.058 77.146 127.518 76.3 127.104 75.886C128.256 75.508 129.318 74.914 130.218 74.158C129.372 73.06 128.706 71.782 128.202 70.306C128.058 72.646 127.59 75.418 126.132 77.326C125.754 76.966 124.836 76.372 124.332 76.174C126.024 74.032 126.186 70.9 126.186 68.632V64.456H136.086V66.454H128.238V68.128H133.926L134.322 68.074ZM124.746 66.922L123.036 68.326C122.514 67.48 121.254 66.256 120.21 65.446L121.812 64.168C122.856 64.924 124.152 66.076 124.746 66.922ZM124.278 70.738V76.39C125.034 77.596 126.402 78.082 128.292 78.154C130.398 78.244 134.484 78.19 136.878 78.01C136.626 78.514 136.302 79.558 136.212 80.17C134.034 80.278 130.416 80.314 128.256 80.224C126.024 80.134 124.53 79.63 123.36 78.226C122.586 78.928 121.812 79.63 120.858 80.386L119.814 78.154C120.534 77.722 121.416 77.11 122.19 76.498V72.7H120.21V70.738H124.278ZM139.02 66.76C141.054 66.76 144.294 66.67 146.688 66.634C146.688 66.418 146.688 66.22 146.67 66.094C146.634 65.518 146.58 64.834 146.508 64.546H149.1C149.046 64.834 148.992 65.788 148.974 66.076C148.974 66.22 148.956 66.4 148.956 66.616H152.772H154.122L154.104 68.722C153.024 68.668 151.35 68.632 148.938 68.632C148.956 69.532 148.956 70.504 148.956 71.278C149.406 71.944 149.622 72.808 149.622 73.744C149.622 76.066 148.254 79.018 143.898 80.242L142.008 78.334C143.808 77.956 145.374 77.362 146.364 76.3C146.112 76.354 145.842 76.39 145.554 76.39C144.168 76.39 142.476 75.292 142.476 73.114C142.476 71.098 144.096 69.784 146.04 69.784C146.292 69.784 146.526 69.802 146.742 69.838L146.724 68.65C144.024 68.686 141.27 68.794 139.074 68.92L139.02 66.76ZM144.618 73.078C144.618 73.906 145.284 74.41 145.986 74.41C146.616 74.41 147.21 73.996 147.21 72.898C147.21 72.718 147.192 72.52 147.156 72.304C146.904 71.872 146.49 71.674 145.986 71.674C145.302 71.674 144.618 72.142 144.618 73.078ZM161.052 69.154H167.802C166.416 68.11 165.174 66.94 164.346 65.824C163.572 66.922 162.42 68.092 161.052 69.154ZM160.17 71.116V69.802C159.216 70.486 158.172 71.098 157.128 71.602C156.876 71.08 156.318 70.27 155.868 69.802C158.946 68.452 161.79 65.896 163.14 63.772H165.372C167.28 66.418 170.142 68.47 172.986 69.478C172.446 70.036 171.978 70.81 171.6 71.44C170.61 70.972 169.566 70.378 168.576 69.694V71.116H160.17ZM156.984 74.59V72.61H171.87V74.59H163.806C163.284 75.652 162.69 76.768 162.15 77.776C163.878 77.722 165.732 77.65 167.568 77.578C167.01 76.93 166.398 76.282 165.804 75.742L167.694 74.752C169.296 76.156 170.97 78.028 171.816 79.378L169.818 80.584C169.638 80.242 169.386 79.864 169.098 79.468C164.868 79.702 160.422 79.882 157.362 80.026L157.074 77.938L159.792 77.848C160.278 76.84 160.782 75.652 161.16 74.59H156.984ZM181.914 73.924L180.618 75.67C180.24 75.166 179.628 74.446 179.016 73.78V80.566H176.892V74.356C176.172 75.022 175.416 75.616 174.66 76.084C174.48 75.508 173.976 74.464 173.652 74.05C175.614 72.988 177.504 71.098 178.692 69.01H174.336V67.084H176.892V63.772H179.016V67.084H179.826L180.204 66.994L181.41 67.768C180.87 69.136 180.15 70.432 179.286 71.62C180.15 72.322 181.536 73.564 181.914 73.924ZM187.098 77.956H190.932V80.044H180.744V77.956H184.902V71.368H181.482V69.298H184.902V63.916H187.098V69.298H190.5V71.368H187.098V77.956ZM192.678 66.652C193.398 66.634 194.082 66.598 194.424 66.562C195.918 66.436 198.87 66.166 202.128 65.878C203.964 65.734 205.908 65.626 207.168 65.572L207.186 67.876C206.232 67.876 204.702 67.894 203.748 68.11C201.588 68.686 199.986 70.99 199.986 73.096C199.986 76.03 202.722 77.092 205.746 77.236L204.918 79.702C201.174 79.468 197.646 77.452 197.646 73.582C197.646 71.008 199.068 68.992 200.274 68.092C198.726 68.254 194.982 68.65 192.912 69.1L192.678 66.652ZM203.352 70.162L204.684 69.604C205.116 70.252 205.782 71.332 206.124 72.052L204.756 72.664C204.306 71.674 203.928 70.972 203.352 70.162ZM205.386 69.388L206.7 68.776C207.15 69.406 207.834 70.468 208.212 71.17L206.862 71.818C206.376 70.846 205.962 70.18 205.386 69.388ZM211.02 66.76C213.054 66.76 216.294 66.67 218.688 66.634C218.688 66.418 218.688 66.22 218.67 66.094C218.634 65.518 218.58 64.834 218.508 64.546H221.1C221.046 64.834 220.992 65.788 220.974 66.076C220.974 66.22 220.956 66.4 220.956 66.616H224.772H226.122L226.104 68.722C225.024 68.668 223.35 68.632 220.938 68.632C220.956 69.532 220.956 70.504 220.956 71.278C221.406 71.944 221.622 72.808 221.622 73.744C221.622 76.066 220.254 79.018 215.898 80.242L214.008 78.334C215.808 77.956 217.374 77.362 218.364 76.3C218.112 76.354 217.842 76.39 217.554 76.39C216.168 76.39 214.476 75.292 214.476 73.114C214.476 71.098 216.096 69.784 218.04 69.784C218.292 69.784 218.526 69.802 218.742 69.838L218.724 68.65C216.024 68.686 213.27 68.794 211.074 68.92L211.02 66.76ZM216.618 73.078C216.618 73.906 217.284 74.41 217.986 74.41C218.616 74.41 219.21 73.996 219.21 72.898C219.21 72.718 219.192 72.52 219.156 72.304C218.904 71.872 218.49 71.674 217.986 71.674C217.302 71.674 216.618 72.142 216.618 73.078ZM226.201 77.416C226.201 75.832 227.479 74.554 229.045 74.554C230.629 74.554 231.925 75.832 231.925 77.416C231.925 79 230.629 80.296 229.045 80.296C227.479 80.296 226.201 79 226.201 77.416ZM227.389 77.416C227.389 78.352 228.145 79.09 229.045 79.09C229.981 79.09 230.719 78.352 230.719 77.416C230.719 76.498 229.981 75.76 229.045 75.76C228.145 75.76 227.389 76.498 227.389 77.416ZM50.136 133.868C50.136 132.824 50.478 131.816 51.45 130.664L53.358 131.528C52.89 132.032 52.548 132.698 52.548 133.31C52.548 134.444 53.61 135.272 56.184 135.272C58.596 135.272 60.864 135.002 62.448 134.57L62.466 137.072C60.918 137.45 58.776 137.684 56.274 137.684C52.188 137.684 50.136 136.316 50.136 133.868ZM51.324 126.326V123.95C52.638 124.094 54.312 124.166 56.184 124.166C57.948 124.166 59.982 124.058 61.35 123.914V126.308C59.64 126.812 58.362 127.568 56.868 128.576L55.302 127.406C55.5 127.262 56.31 126.758 57.12 126.488C56.922 126.506 56.418 126.524 56.202 126.524C54.33 126.524 52.782 126.434 51.324 126.326ZM68.136 133.868C68.136 132.824 68.478 131.816 69.45 130.664L71.358 131.528C70.89 132.032 70.548 132.698 70.548 133.31C70.548 134.444 71.61 135.272 74.184 135.272C76.596 135.272 78.864 135.002 80.448 134.57L80.466 137.072C78.918 137.45 76.776 137.684 74.274 137.684C70.188 137.684 68.136 136.316 68.136 133.868ZM69.324 126.326V123.95C70.638 124.094 72.312 124.166 74.184 124.166C75.948 124.166 77.982 124.058 79.35 123.914V126.308C77.64 126.812 76.362 127.568 74.868 128.576L73.302 127.406C73.5 127.262 74.31 126.758 75.12 126.488C74.922 126.506 74.418 126.524 74.202 126.524C72.33 126.524 70.782 126.434 69.324 126.326ZM85.272 131.852C85.272 129.17 85.812 126.164 86.01 124.796C86.082 124.292 86.19 123.608 86.19 123.05L88.692 123.266C88.548 123.626 88.332 124.526 88.26 124.85C88.008 126.038 87.396 129.602 87.396 131.384C87.396 131.726 87.414 132.158 87.468 132.536C87.72 131.906 88.008 131.312 88.26 130.736L89.376 131.6C88.872 133.094 88.278 135.02 88.098 135.974C88.044 136.226 87.99 136.622 87.99 136.802C88.008 137 88.008 137.288 88.026 137.54L85.974 137.684C85.614 136.442 85.272 134.264 85.272 131.852ZM90.51 134.192C90.51 133.454 90.636 132.698 90.816 131.87L92.868 132.068C92.724 132.644 92.652 133.076 92.652 133.562C92.652 134.354 93.336 134.822 95.136 134.822C96.738 134.822 98.052 134.678 99.6 134.354L99.654 136.766C98.502 136.982 97.062 137.126 95.046 137.126C91.968 137.126 90.51 136.01 90.51 134.192ZM91.428 124.436C92.454 124.58 93.768 124.634 95.082 124.634C96.576 124.634 98.07 124.562 99.096 124.436V126.74C97.998 126.848 96.648 126.884 95.28 126.884C93.912 126.884 92.562 126.848 91.446 126.74L91.428 124.436ZM103.128 132.122C103.128 129.422 103.65 126.056 103.866 124.688C103.938 124.184 104.028 123.5 104.028 122.942L106.512 123.158C106.368 123.518 106.152 124.418 106.08 124.742C105.81 125.93 105.234 129.854 105.234 131.636C105.234 131.996 105.252 132.428 105.306 132.788C105.54 132.158 105.828 131.564 106.098 130.97L107.196 131.852C106.692 133.31 106.116 135.128 105.918 136.1C105.864 136.316 105.828 136.622 105.828 136.838C105.828 137.072 105.828 137.36 105.846 137.666L103.83 137.81C103.47 136.568 103.128 134.534 103.128 132.122ZM107.808 134.822C107.808 133.004 109.338 131.762 111.768 131.762C112.182 131.762 112.578 131.78 112.938 131.834C112.884 130.736 112.83 129.44 112.812 128.18C112.38 128.198 111.948 128.198 111.534 128.198C110.49 128.198 109.482 128.162 108.42 128.09V125.966C109.446 126.074 110.472 126.128 111.534 126.128C111.948 126.128 112.38 126.128 112.794 126.11C112.776 125.228 112.776 124.508 112.758 124.13C112.758 123.86 112.704 123.32 112.65 122.96H115.206C115.152 123.302 115.116 123.734 115.098 124.112C115.08 124.508 115.044 125.174 115.044 125.966C116.016 125.858 116.952 125.732 117.798 125.552V127.766C116.934 127.892 115.998 128 115.026 128.072C115.062 129.8 115.152 131.222 115.224 132.428C116.718 133.04 117.834 133.958 118.662 134.732L117.456 136.604C116.718 135.902 115.998 135.308 115.296 134.822C115.188 136.514 114.216 137.738 111.804 137.738C109.356 137.738 107.808 136.694 107.808 134.822ZM109.896 134.588C109.896 135.308 110.616 135.632 111.552 135.632C112.65 135.632 113.028 135.056 113.028 134.012V133.706C112.56 133.58 112.074 133.508 111.588 133.508C110.58 133.508 109.896 133.922 109.896 134.588ZM120.138 134.192L121.83 132.734C123.108 133.778 124.8 135.524 125.772 136.694L124.044 138.17C122.928 136.802 121.398 135.254 120.138 134.192ZM139.038 136.982C140.1 135.2 141.45 131.456 142.116 128.954C142.242 128.486 142.368 127.982 142.494 127.478C142.08 127.496 141.684 127.514 141.324 127.514C140.46 127.514 139.794 127.478 139.164 127.442L139.11 125.21C140.028 125.318 140.622 125.354 141.36 125.354C141.882 125.354 142.404 125.336 142.944 125.3C143.016 124.904 143.07 124.562 143.106 124.274C143.16 123.824 143.196 123.338 143.196 122.942C143.196 122.762 143.196 122.6 143.178 122.474L145.896 122.69C145.77 123.176 145.608 123.968 145.518 124.364L145.374 125.048C146.382 124.886 147.39 124.688 148.362 124.454V126.704C147.3 126.938 146.094 127.136 144.906 127.28C144.744 128.054 144.564 128.846 144.366 129.566C143.718 132.068 142.512 135.722 141.54 137.81L139.038 136.982ZM145.554 134.732C145.554 133.922 145.716 133.058 145.86 132.356L148.002 132.554C147.858 133.058 147.75 133.652 147.75 134.048C147.75 134.822 148.2 135.398 150.108 135.398C151.296 135.398 152.538 135.272 153.816 135.038L153.726 137.324C152.718 137.45 151.512 137.576 150.09 137.576C147.084 137.576 145.554 136.532 145.554 134.732ZM146.958 130.178V128.072C147.948 127.982 149.226 127.892 150.378 127.892C151.386 127.892 152.466 127.946 153.51 128.054L153.456 130.196C152.574 130.088 151.476 129.98 150.396 129.98C149.154 129.98 148.074 130.034 146.958 130.178ZM156.498 136.982C157.56 135.182 158.91 131.456 159.576 128.954C159.702 128.468 159.846 127.964 159.954 127.46C159.54 127.478 159.144 127.496 158.784 127.496C157.92 127.496 157.254 127.46 156.624 127.424L156.57 125.21C157.488 125.318 158.082 125.336 158.82 125.336C159.342 125.336 159.864 125.318 160.404 125.282C160.476 124.904 160.53 124.544 160.566 124.274C160.62 123.824 160.656 123.338 160.656 122.942C160.656 122.762 160.656 122.6 160.638 122.456L163.356 122.672C163.23 123.176 163.068 123.968 162.978 124.364L162.834 125.03C163.842 124.886 164.85 124.688 165.822 124.454V126.686C164.76 126.938 163.554 127.136 162.366 127.28C162.204 128.036 162.024 128.828 161.826 129.566C161.178 132.068 159.972 135.704 159 137.81L156.498 136.982ZM163.014 134.732C163.014 133.904 163.176 133.04 163.32 132.356L165.462 132.536C165.318 133.058 165.21 133.634 165.21 134.03C165.21 134.804 165.66 135.398 167.568 135.398C168.756 135.398 169.998 135.254 171.276 135.038L171.186 137.324C170.178 137.45 168.972 137.576 167.55 137.576C164.544 137.576 163.014 136.532 163.014 134.732ZM164.418 130.16V128.072C165.408 127.964 166.686 127.892 167.838 127.892C168.846 127.892 169.926 127.928 170.97 128.036L170.916 130.196C170.034 130.088 168.936 129.962 167.856 129.962C166.614 129.962 165.534 130.034 164.418 130.16ZM167.694 123.734L169.116 123.14C169.566 123.806 170.214 124.94 170.538 125.606L169.098 126.236C168.738 125.498 168.18 124.418 167.694 123.734ZM169.818 122.906L171.24 122.33C171.726 123.014 172.392 124.148 172.698 124.778L171.276 125.39C170.898 124.634 170.322 123.59 169.818 122.906ZM174.57 131.312C174.57 127.208 178.152 123.68 182.778 123.68C187.188 123.68 189.978 126.758 189.978 130.646C189.978 134.39 187.674 137.054 183.174 137.738L181.842 135.632C182.526 135.542 183.03 135.452 183.498 135.344C185.784 134.804 187.548 133.166 187.548 130.574C187.548 128.108 186.216 126.272 183.822 125.858C183.57 127.37 183.264 129.026 182.76 130.7C181.698 134.3 180.15 136.496 178.206 136.496C176.244 136.496 174.57 134.318 174.57 131.312ZM176.892 131.078C176.892 132.878 177.612 133.76 178.278 133.76C179.016 133.76 179.736 132.644 180.456 130.232C180.87 128.918 181.194 127.388 181.41 125.912C178.458 126.524 176.892 129.116 176.892 131.078ZM202.938 135.524V121.7H208.824V123.464H204.864V135.524H202.938ZM212.928 125.336V127.586H210.75V123.356H217.176V121.754H219.444V123.356H226.05V127.586H223.764V125.336H212.928ZM220.902 130.448H216.708C216.33 131.204 215.934 131.942 215.574 132.644C216.654 132.95 217.824 133.346 219.012 133.778C219.894 132.914 220.524 131.834 220.902 130.448ZM226.374 130.448H223.386C222.864 132.158 222.126 133.508 221.154 134.606C222.9 135.326 224.52 136.082 225.654 136.784L223.944 138.53C222.846 137.792 221.19 136.946 219.372 136.154C217.464 137.432 215.016 138.134 211.992 138.566C211.794 138.062 211.182 137.09 210.768 136.622C213.288 136.37 215.34 135.938 216.96 135.164C216.168 134.876 215.394 134.588 214.638 134.354L214.314 134.93L212.064 134.318C212.712 133.274 213.468 131.906 214.242 130.448H210.372V128.432H215.268C215.736 127.514 216.168 126.596 216.528 125.768L218.778 126.236C218.454 126.938 218.094 127.676 217.716 128.432H226.374V130.448ZM230.784 125.606V128.072H228.678V123.572H235.212V121.772H237.48V123.572H244.068V128.072H241.854V125.606H230.784ZM237.462 133.454V136.136C238.11 136.208 238.794 136.244 239.514 136.244C240.486 136.244 243.456 136.244 244.662 136.19C244.356 136.712 244.014 137.738 243.906 138.368H239.406C236.076 138.368 233.61 137.828 231.99 135.254C231.396 136.64 230.604 137.792 229.578 138.674C229.218 138.296 228.318 137.54 227.814 137.216C229.758 135.776 230.64 133.292 230.964 130.214L233.196 130.43C233.088 131.24 232.962 131.996 232.8 132.716C233.34 134.156 234.186 135.02 235.248 135.542V129.188H231.414V127.154H241.314V129.188H237.462V131.438H242.412V133.454H237.462ZM245.904 136.856H249.864V124.796H251.79V138.62H245.904V136.856ZM264.498 136.982C265.56 135.182 266.91 131.456 267.576 128.954C267.702 128.468 267.846 127.964 267.954 127.46C267.54 127.478 267.144 127.496 266.784 127.496C265.92 127.496 265.254 127.46 264.624 127.424L264.57 125.21C265.488 125.318 266.082 125.336 266.82 125.336C267.342 125.336 267.864 125.318 268.404 125.282C268.476 124.904 268.53 124.544 268.566 124.274C268.62 123.824 268.656 123.338 268.656 122.942C268.656 122.762 268.656 122.6 268.638 122.456L271.356 122.672C271.23 123.176 271.068 123.968 270.978 124.364L270.834 125.03C271.842 124.886 272.85 124.688 273.822 124.454V126.686C272.76 126.938 271.554 127.136 270.366 127.28C270.204 128.036 270.024 128.828 269.826 129.566C269.178 132.068 267.972 135.704 267 137.81L264.498 136.982ZM271.014 134.732C271.014 133.904 271.176 133.04 271.32 132.356L273.462 132.536C273.318 133.058 273.21 133.634 273.21 134.03C273.21 134.804 273.66 135.398 275.568 135.398C276.756 135.398 277.998 135.254 279.276 135.038L279.186 137.324C278.178 137.45 276.972 137.576 275.55 137.576C272.544 137.576 271.014 136.532 271.014 134.732ZM272.418 130.16V128.072C273.408 127.964 274.686 127.892 275.838 127.892C276.846 127.892 277.926 127.928 278.97 128.036L278.916 130.196C278.034 130.088 276.936 129.962 275.856 129.962C274.614 129.962 273.534 130.034 272.418 130.16ZM275.694 123.734L277.116 123.14C277.566 123.806 278.214 124.94 278.538 125.606L277.098 126.236C276.738 125.498 276.18 124.418 275.694 123.734ZM277.818 122.906L279.24 122.33C279.726 123.014 280.392 124.148 280.698 124.778L279.276 125.39C278.898 124.634 278.322 123.59 277.818 122.906ZM283.11 131.438C283.11 128.522 283.47 125.768 283.704 124.328C283.794 123.824 283.812 123.23 283.812 122.78L286.458 123.05C286.314 123.482 286.116 124.112 286.044 124.49C285.72 125.966 285.288 128.45 285.288 130.52C285.288 131.204 285.342 131.852 285.45 132.41C285.684 131.87 285.99 131.006 286.278 130.358L287.412 131.06C286.89 132.608 286.422 134.408 286.206 135.416C286.134 135.686 286.08 136.082 286.08 136.28C286.098 136.46 286.116 136.766 286.134 137.018L284.136 137.216C283.758 136.136 283.11 133.652 283.11 131.438ZM288.294 128.486V126.218C289.176 126.344 290.04 126.398 290.994 126.398C291.642 126.398 292.326 126.38 293.01 126.362C292.992 125.372 292.956 124.454 292.92 123.968C292.884 123.59 292.812 123.05 292.722 122.744H295.332C295.26 123.14 295.26 123.554 295.242 123.95C295.224 124.346 295.224 125.264 295.224 126.236C296.232 126.164 297.168 126.056 297.906 125.912L297.888 128.234C297.168 128.324 296.25 128.396 295.242 128.45V129.188C295.242 133.4 294.918 135.974 291.372 138.242L289.302 136.622C289.986 136.316 290.886 135.758 291.39 135.2C292.758 133.778 293.046 132.194 293.046 129.188V128.54C292.38 128.558 291.696 128.576 291.048 128.576C290.274 128.576 289.176 128.522 288.294 128.486ZM300.678 124.652C301.398 124.634 302.082 124.598 302.424 124.562C303.918 124.436 306.87 124.166 310.128 123.878C311.964 123.734 313.908 123.626 315.168 123.572L315.186 125.876C314.232 125.876 312.702 125.894 311.748 126.11C309.588 126.686 307.986 128.99 307.986 131.096C307.986 134.03 310.722 135.092 313.746 135.236L312.918 137.702C309.174 137.468 305.646 135.452 305.646 131.582C305.646 129.008 307.068 126.992 308.274 126.092C306.726 126.254 302.982 126.65 300.912 127.1L300.678 124.652ZM311.352 128.162L312.684 127.604C313.116 128.252 313.782 129.332 314.124 130.052L312.756 130.664C312.306 129.674 311.928 128.972 311.352 128.162ZM313.386 127.388L314.7 126.776C315.15 127.406 315.834 128.468 316.212 129.17L314.862 129.818C314.376 128.846 313.962 128.18 313.386 127.388ZM319.128 132.122C319.128 129.422 319.65 126.056 319.866 124.688C319.938 124.184 320.028 123.5 320.028 122.942L322.512 123.158C322.368 123.518 322.152 124.418 322.08 124.742C321.81 125.93 321.234 129.854 321.234 131.636C321.234 131.996 321.252 132.428 321.306 132.788C321.54 132.158 321.828 131.564 322.098 130.97L323.196 131.852C322.692 133.31 322.116 135.128 321.918 136.1C321.864 136.316 321.828 136.622 321.828 136.838C321.828 137.072 321.828 137.36 321.846 137.666L319.83 137.81C319.47 136.568 319.128 134.534 319.128 132.122ZM323.808 134.822C323.808 133.004 325.338 131.762 327.768 131.762C328.182 131.762 328.578 131.78 328.938 131.834C328.884 130.736 328.83 129.44 328.812 128.18C328.38 128.198 327.948 128.198 327.534 128.198C326.49 128.198 325.482 128.162 324.42 128.09V125.966C325.446 126.074 326.472 126.128 327.534 126.128C327.948 126.128 328.38 126.128 328.794 126.11C328.776 125.228 328.776 124.508 328.758 124.13C328.758 123.86 328.704 123.32 328.65 122.96H331.206C331.152 123.302 331.116 123.734 331.098 124.112C331.08 124.508 331.044 125.174 331.044 125.966C332.016 125.858 332.952 125.732 333.798 125.552V127.766C332.934 127.892 331.998 128 331.026 128.072C331.062 129.8 331.152 131.222 331.224 132.428C332.718 133.04 333.834 133.958 334.662 134.732L333.456 136.604C332.718 135.902 331.998 135.308 331.296 134.822C331.188 136.514 330.216 137.738 327.804 137.738C325.356 137.738 323.808 136.694 323.808 134.822ZM325.896 134.588C325.896 135.308 326.616 135.632 327.552 135.632C328.65 135.632 329.028 135.056 329.028 134.012V133.706C328.56 133.58 328.074 133.508 327.588 133.508C326.58 133.508 325.896 133.922 325.896 134.588ZM336.606 133.652C338.046 131.906 339.45 129.278 340.242 127.352C339.936 127.37 339.63 127.37 339.324 127.37C338.586 127.37 337.866 127.352 337.092 127.316L336.93 125.228C337.704 125.318 338.658 125.354 339.306 125.354C339.828 125.354 340.368 125.336 340.908 125.3C341.16 124.31 341.358 123.23 341.394 122.312L343.86 122.564C343.716 123.14 343.5 124.04 343.248 124.994C344.112 124.85 344.94 124.652 345.642 124.436L345.696 126.506C344.886 126.722 343.788 126.956 342.6 127.118C341.754 129.62 340.224 132.716 338.784 134.75L336.606 133.652ZM340.836 135.11C340.836 133.364 342.294 132.014 344.778 132.014C345.192 132.014 345.606 132.05 345.984 132.086C345.93 130.754 345.84 129.188 345.786 128.108H348.036C348.018 128.396 348 128.702 348 128.99C348 129.44 348.018 129.908 348.036 130.394C348.054 130.898 348.09 131.762 348.144 132.644C349.674 133.22 350.934 134.12 351.834 134.93L350.646 136.838C350.016 136.262 349.206 135.542 348.234 134.948V135.11C348.234 136.766 347.334 138.062 344.796 138.062C342.582 138.062 340.836 137.072 340.836 135.11ZM342.942 134.894C342.942 135.56 343.5 136.01 344.472 136.01C345.678 136.01 346.074 135.308 346.074 134.354V134.012C345.606 133.904 345.138 133.832 344.634 133.832C343.608 133.832 342.942 134.264 342.942 134.894ZM346.812 126.524L347.964 124.76C349.242 125.318 351.456 126.524 352.356 127.172L351.096 129.062C350.07 128.234 348.036 127.064 346.812 126.524ZM49.344 153.148L52.08 153.184C51.954 153.814 51.864 154.858 51.864 155.344V156.118C51.864 157.072 51.882 158.116 51.972 159.124C52.224 161.698 52.764 163.444 53.88 163.444C54.726 163.444 55.428 161.356 55.77 159.952L57.57 162.112C56.382 165.208 55.266 166.306 53.826 166.306C51.882 166.306 50.172 164.542 49.668 159.754C49.506 158.116 49.47 156.046 49.47 154.948C49.47 154.444 49.452 153.688 49.344 153.148ZM58.722 154.318L60.99 153.562C62.682 155.632 64.05 159.934 64.248 162.67L61.89 163.57C61.62 160.708 60.666 156.514 58.722 154.318ZM66.138 163.192L67.83 161.734C69.108 162.778 70.8 164.524 71.772 165.694L70.044 167.17C68.928 165.802 67.398 164.254 66.138 163.192ZM194.714 160.366C196.586 158.638 197.846 157.054 198.638 155.47H198.422C197.702 155.47 196.388 155.434 195.416 155.344V153.256C196.316 153.4 197.648 153.454 198.548 153.454H199.412C199.628 152.644 199.754 151.924 199.772 151.42L202.112 151.618C202.022 152.05 201.896 152.662 201.68 153.382C203.354 153.292 205.154 153.148 206.72 152.86L206.702 154.948C204.992 155.2 202.796 155.344 200.888 155.416C200.6 156.046 200.24 156.694 199.862 157.216C200.33 156.982 201.284 156.856 201.878 156.856C202.958 156.856 203.858 157.324 204.254 158.242C205.172 157.81 205.928 157.504 206.666 157.18C207.35 156.874 207.98 156.568 208.628 156.262L209.528 158.332C208.952 158.476 208.016 158.836 207.404 159.088C206.612 159.394 205.604 159.79 204.506 160.294C204.524 161.284 204.56 162.598 204.578 163.408H202.436C202.472 162.886 202.49 162.058 202.508 161.284C201.194 162.004 200.474 162.706 200.474 163.588C200.474 164.578 201.32 164.848 203.066 164.848C204.578 164.848 206.558 164.65 208.124 164.326L208.052 166.648C206.864 166.792 204.686 166.936 203.012 166.936C200.222 166.936 198.116 166.27 198.116 163.966C198.116 161.698 200.276 160.258 202.31 159.214C202.022 158.764 201.554 158.602 201.068 158.602C200.06 158.602 198.962 159.178 198.278 159.826C197.738 160.366 197.234 161.014 196.622 161.788L194.714 160.366ZM221.894 164.65V163.48H218.78V164.65H221.894ZM227.654 159.466V165.298C227.654 166.288 227.456 166.864 226.754 167.188C226.088 167.512 225.134 167.53 223.838 167.53C223.784 167.116 223.622 166.558 223.424 166.09H218.78V166.9H216.908V162.058H223.784V165.55C224.396 165.568 224.954 165.568 225.152 165.55C225.422 165.532 225.494 165.478 225.494 165.262V161.248H215.306V167.566H213.218V159.466H227.654ZM223.1 157.27V156.172H217.484V157.27H223.1ZM215.45 154.75H225.278V158.71H215.45V154.75ZM221.336 152.248H228.23V154.066H212.498V152.248H219.158V150.736H221.336V152.248ZM230.606 162.184C230.606 160.132 231.632 157.972 233.234 156.55C233.072 156.082 232.91 155.596 232.766 155.11C232.568 154.462 232.352 153.904 232.046 153.256L234.386 152.536C234.494 153.112 234.638 153.706 234.782 154.228C234.872 154.57 234.98 154.948 235.106 155.326C236.456 154.624 237.77 154.318 239.138 154.264C239.21 153.958 239.264 153.67 239.318 153.4C239.39 152.95 239.444 152.32 239.444 151.888V151.708L241.91 151.942C241.766 152.428 241.604 153.292 241.496 153.742L241.334 154.426C244.124 155.056 246.014 157.306 246.014 160.438C246.014 164.218 243.314 166.378 239.588 166.936L238.22 164.884C242.144 164.542 243.674 162.544 243.674 160.312C243.674 158.332 242.594 156.874 240.794 156.388C240.182 158.458 239.408 160.51 238.382 162.058C238.706 162.436 239.03 162.796 239.354 163.12L237.572 164.542C237.356 164.308 237.14 164.074 236.96 163.84C235.754 165.136 234.764 165.748 233.45 165.748C231.974 165.748 230.606 164.488 230.606 162.184ZM232.712 162.004C232.712 162.868 233.072 163.426 233.72 163.426C234.35 163.426 235.016 162.886 235.664 162.076C235.106 161.212 234.53 160.006 234.008 158.656C233.18 159.646 232.712 160.906 232.712 162.004ZM235.754 157.27C236.15 158.368 236.6 159.394 237.014 160.096C237.644 158.962 238.184 157.594 238.598 156.28C237.518 156.406 236.582 156.766 235.754 157.27ZM249.02 161.122C250.28 160.096 252.422 158.278 253.484 157.414C254.474 156.586 256.328 155.092 257.21 154.318C256.292 154.336 253.844 154.444 252.908 154.516C252.422 154.534 251.864 154.588 251.45 154.66L251.378 152.338C251.882 152.392 252.494 152.428 252.998 152.428C253.934 152.428 257.75 152.338 258.758 152.248C259.496 152.194 259.91 152.122 260.126 152.068L261.278 153.652C260.846 153.922 260.432 154.192 260.036 154.462C259.082 155.128 257.21 156.712 256.094 157.612C256.688 157.45 257.192 157.414 257.768 157.414C260.792 157.414 263.096 159.304 263.096 161.896C263.096 164.704 260.954 166.936 256.652 166.936C254.168 166.936 252.296 165.802 252.296 164.02C252.296 162.58 253.61 161.248 255.5 161.248C257.696 161.248 259.028 162.598 259.298 164.29C260.27 163.768 260.756 162.94 260.756 161.86C260.756 160.258 259.136 159.178 257.066 159.178C254.33 159.178 252.548 160.636 250.64 162.796L249.02 161.122ZM254.402 163.804C254.402 164.47 255.158 164.92 256.202 164.92C256.58 164.92 256.922 164.902 257.246 164.866C257.138 163.714 256.472 162.958 255.5 162.958C254.834 162.958 254.402 163.354 254.402 163.804ZM265.886 164.65L267.128 162.994C267.992 163.84 269.054 164.524 270.44 164.524C271.97 164.524 273.014 163.732 273.014 162.346C273.014 160.852 272.096 159.898 268.91 159.898V158.008C271.646 158.008 272.546 157.018 272.546 155.65C272.546 154.462 271.772 153.742 270.476 153.724C269.414 153.742 268.532 154.246 267.686 155.038L266.354 153.436C267.56 152.374 268.91 151.672 270.602 151.672C273.302 151.672 275.174 153.022 275.174 155.47C275.174 157.072 274.256 158.206 272.708 158.8V158.908C274.364 159.358 275.642 160.564 275.642 162.49C275.642 165.118 273.392 166.666 270.674 166.666C268.406 166.666 266.876 165.766 265.886 164.65ZM277.746 156.136C278.394 156.028 279.276 155.794 279.924 155.596C281.31 155.182 284.928 153.904 287.538 153.904C290.76 153.904 293.298 155.758 293.298 159.052C293.298 163.084 289.446 165.676 283.164 166L282.138 163.624C286.962 163.516 290.742 162.112 290.742 159.016C290.742 157.342 289.59 156.064 287.448 156.064C284.82 156.064 280.608 157.828 278.754 158.656L277.746 156.136ZM295.89 160.312C295.89 156.208 299.472 152.68 304.098 152.68C308.508 152.68 311.298 155.758 311.298 159.646C311.298 163.39 308.994 166.054 304.494 166.738L303.162 164.632C303.846 164.542 304.35 164.452 304.818 164.344C307.104 163.804 308.868 162.166 308.868 159.574C308.868 157.108 307.536 155.272 305.142 154.858C304.89 156.37 304.584 158.026 304.08 159.7C303.018 163.3 301.47 165.496 299.526 165.496C297.564 165.496 295.89 163.318 295.89 160.312ZM298.212 160.078C298.212 161.878 298.932 162.76 299.598 162.76C300.336 162.76 301.056 161.644 301.776 159.232C302.19 157.918 302.514 156.388 302.73 154.912C299.778 155.524 298.212 158.116 298.212 160.078ZM323.88 154.03H319.326C319.974 154.696 320.784 155.29 321.702 155.812C322.548 155.29 323.286 154.696 323.88 154.03ZM325.752 152.122L327.21 152.95C326.4 154.498 325.23 155.758 323.844 156.802C325.662 157.486 327.768 157.954 330.072 158.206C329.64 158.674 329.082 159.574 328.812 160.114C326.166 159.754 323.808 159.07 321.792 158.08C319.65 159.214 317.148 159.97 314.574 160.438C314.376 159.862 313.926 158.998 313.584 158.53C315.744 158.224 317.868 157.666 319.74 156.856C319.056 156.37 318.426 155.83 317.85 155.236C317.112 155.794 316.284 156.334 315.366 156.82C315.042 156.316 314.34 155.578 313.854 155.236C316.5 154.048 318.228 152.338 319.128 150.736L321.486 151.15C321.27 151.51 321.036 151.87 320.784 152.212H325.374L325.752 152.122ZM329.694 162.598H324.42C325.914 163.858 328.074 164.92 330.144 165.478C329.676 165.91 329.028 166.756 328.722 167.26C326.58 166.522 324.366 165.154 322.746 163.534V167.566H320.586V163.552C318.984 165.226 316.788 166.594 314.646 167.368C314.322 166.846 313.71 166.054 313.26 165.622C315.348 165.046 317.526 163.912 319.002 162.598H313.692V160.708H320.586V159.214H322.746V160.708H329.694V162.598ZM335.076 150.826L337.11 151.474C336.624 152.752 336.03 154.066 335.346 155.308V167.548H333.312V158.494C332.952 158.944 332.592 159.394 332.232 159.79C332.034 159.25 331.44 158.098 331.08 157.558C332.664 155.938 334.194 153.382 335.076 150.826ZM348.018 159.43V161.518H343.41V167.566H341.25V161.518H336.39V159.43H341.25V156.334H339.054C338.73 157.216 338.334 158.026 337.938 158.656C337.542 158.368 336.606 157.864 336.084 157.63C337.056 156.226 337.794 153.94 338.208 151.744L340.278 152.176C340.134 152.878 339.954 153.562 339.756 154.246H341.25V150.988H343.41V154.246H347.172V156.334H343.41V159.43H348.018ZM349.656 155.488C349.908 155.506 350.142 155.524 350.394 155.524C350.772 155.524 351.15 155.506 351.546 155.488C352.104 155.47 352.95 155.416 353.85 155.344C354.084 154.048 354.228 152.842 354.228 151.762V151.564L356.874 151.834C356.766 152.302 356.658 152.86 356.568 153.31C356.46 153.85 356.316 154.498 356.19 155.146C356.784 155.11 357.324 155.074 357.684 155.074C359.574 155.074 360.906 155.92 360.906 158.476C360.906 160.582 360.654 163.426 359.898 164.974C359.304 166.216 358.332 166.612 356.964 166.612C356.298 166.612 355.434 166.504 354.84 166.36L354.444 164.002C355.128 164.2 356.172 164.38 356.64 164.38C357.234 164.38 357.684 164.2 357.972 163.606C358.458 162.616 358.692 160.492 358.692 158.728C358.692 157.306 358.08 157.108 356.964 157.108C356.676 157.108 356.244 157.144 355.74 157.18C355.038 159.88 353.742 164.074 352.104 166.702L349.782 165.766C351.51 163.426 352.734 159.862 353.364 157.432C352.734 157.504 352.176 157.576 351.834 157.63C351.33 157.684 350.412 157.81 349.854 157.9L349.656 155.488ZM360.888 154.516L362.544 153.814C362.184 153.13 361.734 152.266 361.32 151.69L362.742 151.096C363.192 151.762 363.822 152.896 364.182 153.562L363.264 153.958C364.308 155.596 365.64 158.602 366.162 160.168L363.894 161.23C363.426 159.25 362.166 156.1 360.888 154.516ZM363.444 150.88L364.866 150.286C365.352 150.97 366.018 152.104 366.324 152.734L364.902 153.364C364.524 152.608 363.948 151.546 363.444 150.88ZM49.074 192.552C49.074 190.284 50.964 187.872 53.448 186.702C53.502 185.946 53.556 185.19 53.628 184.47H53.052C52.116 184.47 50.73 184.398 49.902 184.362L49.83 182.292C50.46 182.382 52.026 182.526 53.124 182.526H53.808L53.916 181.572C53.952 181.302 53.97 180.978 53.97 180.69V180.51L56.31 180.564C56.184 180.924 56.112 181.248 56.058 181.518C55.986 181.806 55.932 182.13 55.878 182.472C58.038 182.4 59.964 182.184 61.926 181.716L61.944 183.768C60.198 184.092 57.804 184.308 55.608 184.416C55.554 184.938 55.5 185.478 55.482 186.018C56.328 185.82 57.264 185.694 58.146 185.694H58.452C58.524 185.334 58.596 184.884 58.614 184.632L60.81 185.136C60.72 185.334 60.594 185.712 60.486 186.054C62.556 186.738 63.924 188.34 63.924 190.428C63.924 192.93 62.43 195.396 58.056 196.044L56.868 194.172C60.306 193.794 61.71 192.066 61.71 190.32C61.71 189.24 61.08 188.286 59.874 187.818C58.884 190.248 57.462 192.102 56.112 193.218C56.238 193.686 56.382 194.118 56.526 194.55L54.474 195.162C54.402 194.946 54.312 194.694 54.24 194.442C53.376 194.874 52.422 195.162 51.486 195.162C50.172 195.162 49.074 194.37 49.074 192.552ZM51.18 192.12C51.18 192.678 51.432 192.984 52.008 192.984C52.512 192.984 53.124 192.786 53.79 192.408C53.592 191.292 53.448 190.068 53.412 188.844C52.08 189.744 51.18 191.112 51.18 192.12ZM55.41 187.944C55.41 189.042 55.482 190.014 55.608 190.896C56.472 190.032 57.264 188.952 57.858 187.512C56.922 187.53 56.094 187.692 55.41 187.908V187.944ZM68.802 188.07C68.802 186.414 69.036 184.2 69.306 182.364C69.396 181.716 69.432 180.996 69.45 180.492L71.898 180.6C71.646 181.482 71.286 183.3 71.178 184.29C72.024 182.922 73.572 181.41 75.588 181.41C78.072 181.41 79.998 183.84 79.998 187.764C79.998 192.804 76.902 195.216 72.186 196.08L70.836 194.01C74.796 193.398 77.568 192.102 77.568 187.782C77.568 185.028 76.65 183.498 75.174 183.498C73.068 183.498 71.232 186.666 71.142 189.006V189.456C71.142 189.852 71.16 190.302 71.232 190.896L69.018 191.04C68.928 190.356 68.802 189.258 68.802 188.07ZM86.352 192.984C86.352 191.184 88.008 189.924 90.762 189.924C91.122 189.924 91.482 189.96 91.842 189.996C91.842 189.762 91.788 188.574 91.788 188.358H90.87C89.826 188.358 87.774 188.268 86.586 188.124L86.604 186.018C87.63 186.234 89.952 186.342 90.906 186.342H91.752C91.752 186.108 91.77 184.74 91.77 184.488H90.816C89.682 184.488 87.414 184.326 86.388 184.164L86.37 182.112C87.486 182.328 89.7 182.526 90.798 182.526H91.77V181.716C91.77 181.392 91.734 180.834 91.68 180.492H94.11C94.056 180.852 94.002 181.302 93.984 181.752C93.984 181.806 93.966 182.328 93.966 182.454C95.352 182.382 97.278 182.184 98.808 181.95L98.862 184.02C97.674 184.146 95.622 184.344 93.948 184.416C93.948 184.65 93.93 186.054 93.93 186.288C95.712 186.198 97.224 186.054 98.682 185.856L98.7 187.962C97.098 188.142 95.676 188.25 93.984 188.304C94.02 189.006 94.056 189.726 94.092 190.392C96.324 191.04 98.052 192.246 99.078 193.092L97.8 195.09C96.864 194.208 95.658 193.29 94.236 192.66C94.236 192.804 94.254 193.074 94.254 193.254C94.254 194.802 93.048 195.972 90.708 195.972C87.864 195.972 86.352 194.874 86.352 192.984ZM88.53 192.858C88.53 193.542 89.16 193.956 90.384 193.956C91.338 193.956 91.95 193.668 91.95 192.642C91.95 192.444 91.95 192.21 91.932 191.904C91.464 191.814 90.96 191.76 90.456 191.76C89.214 191.76 88.53 192.246 88.53 192.858ZM103.02 182.76C105.054 182.76 108.294 182.67 110.688 182.634C110.688 182.418 110.688 182.22 110.67 182.094C110.634 181.518 110.58 180.834 110.508 180.546H113.1C113.046 180.834 112.992 181.788 112.974 182.076C112.974 182.22 112.956 182.4 112.956 182.616H116.772H118.122L118.104 184.722C117.024 184.668 115.35 184.632 112.938 184.632C112.956 185.532 112.956 186.504 112.956 187.278C113.406 187.944 113.622 188.808 113.622 189.744C113.622 192.066 112.254 195.018 107.898 196.242L106.008 194.334C107.808 193.956 109.374 193.362 110.364 192.3C110.112 192.354 109.842 192.39 109.554 192.39C108.168 192.39 106.476 191.292 106.476 189.114C106.476 187.098 108.096 185.784 110.04 185.784C110.292 185.784 110.526 185.802 110.742 185.838L110.724 184.65C108.024 184.686 105.27 184.794 103.074 184.92L103.02 182.76ZM108.618 189.078C108.618 189.906 109.284 190.41 109.986 190.41C110.616 190.41 111.21 189.996 111.21 188.898C111.21 188.718 111.192 188.52 111.156 188.304C110.904 187.872 110.49 187.674 109.986 187.674C109.302 187.674 108.618 188.142 108.618 189.078ZM118.201 193.416C118.201 191.832 119.479 190.554 121.045 190.554C122.629 190.554 123.925 191.832 123.925 193.416C123.925 195 122.629 196.296 121.045 196.296C119.479 196.296 118.201 195 118.201 193.416ZM119.389 193.416C119.389 194.352 120.145 195.09 121.045 195.09C121.981 195.09 122.719 194.352 122.719 193.416C122.719 192.498 121.981 191.76 121.045 191.76C120.145 191.76 119.389 192.498 119.389 193.416Z" fill="white"/>
<path d="M92.648 147.388H95.662C95.64 148.312 95.596 149.5 95.508 150.82C95.816 153.79 97.158 162.084 104.836 165.472C104.022 166.11 103.274 166.99 102.922 167.738C98.038 165.406 95.596 161.116 94.32 157.332C93.11 161.204 90.8 165.186 86.224 167.87C85.762 167.166 84.926 166.33 84.046 165.736C92.978 160.962 92.56 151.106 92.648 147.388ZM117.772 164.724H126.308V167.298H106.53V164.724H115.022V160.302H109.06V157.772H115.022V153.9H110.468C109.83 155.11 109.148 156.232 108.422 157.09C107.894 156.672 106.728 155.88 106.068 155.528C107.784 153.68 109.214 150.644 109.962 147.652L112.668 148.246C112.36 149.302 112.008 150.336 111.634 151.348H115.022V147.388H117.772V151.348H125.186V153.9H117.772V157.772H124.35V160.302H117.772V164.724ZM128.838 159.048C128.838 154.032 133.216 149.72 138.87 149.72C144.26 149.72 147.67 153.482 147.67 158.234C147.67 162.81 144.854 166.066 139.354 166.902L137.726 164.328C138.562 164.218 139.178 164.108 139.75 163.976C142.544 163.316 144.7 161.314 144.7 158.146C144.7 155.132 143.072 152.888 140.146 152.382C139.838 154.23 139.464 156.254 138.848 158.3C137.55 162.7 135.658 165.384 133.282 165.384C130.884 165.384 128.838 162.722 128.838 159.048ZM131.676 158.762C131.676 160.962 132.556 162.04 133.37 162.04C134.272 162.04 135.152 160.676 136.032 157.728C136.538 156.122 136.934 154.252 137.198 152.448C133.59 153.196 131.676 156.364 131.676 158.762ZM154.468 147.41L156.822 148.158C156.272 149.61 155.59 151.084 154.842 152.492V167.892H152.378V156.408C151.938 157.002 151.498 157.552 151.036 158.036C150.794 157.42 150.112 156.034 149.694 155.396C151.586 153.482 153.39 150.446 154.468 147.41ZM164.016 154.604V151.854H162.564V154.604H164.016ZM167.69 163.932V156.87H166.216V163.932H167.69ZM158.978 156.87V163.932H160.342V156.87H158.978ZM164.016 156.87H162.542V163.932H164.016V156.87ZM170.308 151.854H166.48V154.604H170.198V167.298H167.69V166.176H158.978V167.43H156.558V154.604H160.1V151.854H156.338V149.522H170.308V151.854ZM188.942 155.836V154.714H185.026V155.836H188.942ZM188.942 158.718V157.596H185.026V158.718H188.942ZM188.942 161.622V160.478H185.026V161.622H188.942ZM182.606 152.822H184.718C184.762 152.448 184.806 152.03 184.85 151.612H179.372V149.368H185.026C185.07 148.686 185.114 148.004 185.136 147.388L187.754 147.498C187.71 148.092 187.644 148.73 187.578 149.368H192.374V151.612H187.336C187.27 152.03 187.226 152.448 187.16 152.822H191.472V163.514H182.606V152.822ZM176.622 147.432L179.108 148.224C178.536 149.742 177.81 151.282 176.996 152.756V167.87H174.51V156.628C174.026 157.266 173.52 157.86 173.014 158.388C172.772 157.75 172.068 156.298 171.628 155.682C173.608 153.702 175.5 150.578 176.622 147.432ZM192.506 164.658V166.902H181.286V167.892H178.866V154.098H181.286V164.658H192.506Z" fill="#EBE778"/>
</svg>
