<svg width="237" height="60" viewBox="0 0 237 60" fill="none" xmlns="http://www.w3.org/2000/svg">
<g filter="url(#filter0_d_471_13)">
<rect x="4" width="229" height="49" rx="24.5" fill="#78EB7B"/>
<path d="M36.2627 32.44V16.38H39.1627V29.98H45.8027V32.44H36.2627ZM48.5869 32.44V16.38H51.4869V32.44H48.5869ZM55.5205 32.44V16.38H58.4805L63.4405 25.32L65.0805 28.74H65.2005C65.0205 27.08 64.8005 25.04 64.8005 23.26V16.38H67.5805V32.44H64.6005L59.6805 23.46L58.0205 20.06H57.9205C58.0605 21.76 58.2805 23.7 58.2805 25.5V32.44H55.5205ZM71.6142 32.44V16.38H81.2942V18.82H74.5142V22.86H80.2542V25.3H74.5142V29.98H81.5342V32.44H71.6142ZM95.1373 29.04H90.4973C90.9373 29.72 91.2973 30.56 91.4573 31.16L90.6973 31.38H94.6373L94.0973 31.26C94.4373 30.66 94.8573 29.76 95.1373 29.04ZM89.2973 25.38V27.16H96.1173V25.38H89.2973ZM96.7773 29.04L97.5573 29.2C97.1373 30.02 96.7373 30.8 96.3973 31.38H101.417V33.34H84.2173V31.38H89.0573C88.8573 30.72 88.5173 29.92 88.1373 29.3L89.1773 29.04H86.9973V23.5H98.5773V29.04H96.7773ZM100.037 17.56L101.777 18.8C100.977 19.5 100.057 20.24 99.1973 20.82C100.157 21.54 101.217 22.14 102.337 22.58C101.797 23.02 101.117 23.94 100.757 24.56C99.1573 23.84 97.7173 22.8 96.4773 21.54V22.36H89.1173V21.68C87.7573 23 86.1973 24.06 84.5973 24.84C84.2773 24.32 83.6573 23.5 83.1773 23.1C84.3373 22.62 85.4973 21.9 86.5573 21.04C85.9973 20.48 85.1373 19.82 84.4173 19.36L85.7173 18.06C86.4773 18.5 87.4173 19.12 87.9773 19.68C88.5573 19.06 89.0573 18.38 89.4773 17.7H85.3773V15.78H90.6173L91.0173 15.68L92.5573 16.48C92.0173 17.94 91.2373 19.24 90.2973 20.38H95.4373C94.3373 19.02 93.4173 17.46 92.6973 15.76L94.7373 15.12C95.0373 15.82 95.3773 16.5 95.7973 17.14C96.5373 16.54 97.2773 15.84 97.7973 15.24L99.5973 16.52C98.7373 17.24 97.7373 18 96.8573 18.6C97.1573 18.96 97.4773 19.3 97.7973 19.62C98.6173 18.98 99.4773 18.2 100.037 17.56ZM105.857 20.02H110.077C109.517 19.2 108.637 18.08 107.797 17.28C107.297 18.14 106.657 19.08 105.857 20.02ZM111.057 29.88L111.097 30.28C112.097 29.7 113.417 28.86 114.717 28L115.437 29.8C114.257 30.7 112.977 31.62 111.837 32.4L111.177 31.26L111.237 31.84C108.757 32.36 106.117 32.92 104.097 33.3L103.657 31.14C104.497 31.02 105.497 30.86 106.597 30.68V25.46H103.877V23.46H106.597V22H104.837V21.1C104.717 21.22 104.577 21.34 104.457 21.46C104.157 21 103.497 20.22 103.037 19.92C104.717 18.5 105.877 16.62 106.497 15.08H108.457C109.637 16.06 111.097 17.48 111.797 18.52L110.537 20.02H110.717V22H108.657V23.46H111.137V25.46H108.657V30.3L111.057 29.88ZM119.717 27.66L118.777 27.04C119.617 28.52 120.817 29.92 122.437 30.76C121.957 31.18 121.257 32.1 120.917 32.72C119.497 31.8 118.417 30.36 117.637 28.86V31.48C117.637 32.48 117.497 33.04 116.877 33.36C116.257 33.7 115.477 33.74 114.357 33.74C114.297 33.14 114.057 32.3 113.797 31.68C114.357 31.72 114.957 31.7 115.157 31.7C115.377 31.7 115.437 31.64 115.437 31.44V23.6H111.317V21.58H118.277V20.56H112.717V18.76H118.277V17.68H112.277V15.72H120.477V21.58H121.957V23.6H117.637V24.26C117.837 24.94 118.097 25.68 118.457 26.4C119.077 25.72 119.817 24.74 120.257 24L122.117 25.14C121.317 26.06 120.417 27 119.717 27.66ZM104.077 26.6L105.597 26.22C105.917 27.32 106.197 28.74 106.297 29.66L104.697 30.1C104.657 29.14 104.377 27.7 104.077 26.6ZM110.317 29.7L108.877 29.3C109.137 28.42 109.457 27 109.577 26.06L111.297 26.48C110.937 27.6 110.617 28.88 110.317 29.7ZM111.417 25.3L112.977 24.3C113.777 25 114.657 26.06 115.037 26.82L113.377 27.92C113.037 27.18 112.177 26.08 111.417 25.3ZM124.737 26.58C124.737 23.58 125.317 19.84 125.557 18.32C125.637 17.76 125.737 17 125.737 16.38L128.497 16.62C128.337 17.02 128.097 18.02 128.017 18.38C127.717 19.7 127.077 24.06 127.077 26.04C127.077 26.44 127.097 26.92 127.157 27.32C127.417 26.62 127.737 25.96 128.037 25.3L129.257 26.28C128.697 27.9 128.057 29.92 127.837 31C127.777 31.24 127.737 31.58 127.737 31.82C127.737 32.08 127.737 32.4 127.757 32.74L125.517 32.9C125.117 31.52 124.737 29.26 124.737 26.58ZM129.937 29.58C129.937 27.56 131.637 26.18 134.337 26.18C134.797 26.18 135.237 26.2 135.637 26.26C135.577 25.04 135.517 23.6 135.497 22.2C135.017 22.22 134.537 22.22 134.077 22.22C132.917 22.22 131.797 22.18 130.617 22.1V19.74C131.757 19.86 132.897 19.92 134.077 19.92C134.537 19.92 135.017 19.92 135.477 19.9C135.457 18.92 135.457 18.12 135.437 17.7C135.437 17.4 135.377 16.8 135.317 16.4H138.157C138.097 16.78 138.057 17.26 138.037 17.68C138.017 18.12 137.977 18.86 137.977 19.74C139.057 19.62 140.097 19.48 141.037 19.28V21.74C140.077 21.88 139.037 22 137.957 22.08C137.997 24 138.097 25.58 138.177 26.92C139.837 27.6 141.077 28.62 141.997 29.48L140.657 31.56C139.837 30.78 139.037 30.12 138.257 29.58C138.137 31.46 137.057 32.82 134.377 32.82C131.657 32.82 129.937 31.66 129.937 29.58ZM132.257 29.32C132.257 30.12 133.057 30.48 134.097 30.48C135.317 30.48 135.737 29.84 135.737 28.68V28.34C135.217 28.2 134.677 28.12 134.137 28.12C133.017 28.12 132.257 28.58 132.257 29.32ZM145.857 28.52C145.857 27.36 146.237 26.24 147.317 24.96L149.437 25.92C148.917 26.48 148.537 27.22 148.537 27.9C148.537 29.16 149.717 30.08 152.577 30.08C155.257 30.08 157.777 29.78 159.537 29.3L159.557 32.08C157.837 32.5 155.457 32.76 152.677 32.76C148.137 32.76 145.857 31.24 145.857 28.52ZM147.177 20.14V17.5C148.637 17.66 150.497 17.74 152.577 17.74C154.537 17.74 156.797 17.62 158.317 17.46V20.12C156.417 20.68 154.997 21.52 153.337 22.64L151.597 21.34C151.817 21.18 152.717 20.62 153.617 20.32C153.397 20.34 152.837 20.36 152.597 20.36C150.517 20.36 148.797 20.26 147.177 20.14ZM164.937 20.88V18.42C166.117 18.62 167.617 18.78 168.817 18.8C168.857 18.5 168.917 18.24 168.937 18C169.017 17.34 169.037 16.9 169.037 16.42V16L171.837 16.12C171.617 16.82 171.517 17.48 171.377 18.14L171.257 18.74C173.517 18.62 176.197 18.32 178.577 17.8L178.617 20.2C176.557 20.52 173.417 20.9 170.757 21.04C170.497 22.24 170.177 23.5 169.857 24.46C171.457 23.58 172.957 23.22 174.777 23.22C177.977 23.22 180.097 24.94 180.097 27.46C180.097 31.26 176.977 33 172.077 33C171.237 33 170.357 32.94 169.417 32.84L168.717 30.28C169.817 30.46 170.937 30.56 171.977 30.56C175.017 30.56 177.437 29.72 177.437 27.54C177.437 26.36 176.397 25.36 174.477 25.36C172.197 25.36 170.177 26.18 168.997 27.7C168.777 27.96 168.637 28.22 168.437 28.56L166.097 27.72C167.037 25.9 167.837 23.26 168.357 21.08C167.097 21.06 165.937 20.98 164.937 20.88ZM185.957 27.84C186.337 25.9 186.817 22.04 186.937 19.58L189.617 19.94C189.357 21.04 189.017 23.42 188.877 24.56C190.677 23.26 192.637 22.68 194.697 22.68C198.177 22.68 200.197 24.82 200.197 27.22C200.197 30.46 197.917 33.02 191.557 33.02C190.797 33.02 189.977 32.98 189.097 32.9L188.337 30.3C189.477 30.46 190.517 30.54 191.457 30.54C195.377 30.54 197.417 29.2 197.417 27.16C197.417 25.88 196.197 24.94 194.457 24.94C192.217 24.94 190.237 25.76 188.997 27.26C188.637 27.7 188.417 28.02 188.257 28.42L185.957 27.84ZM188.857 18.36L189.497 15.96C191.377 16.54 195.677 17.3 197.417 17.5L196.817 19.94C194.817 19.68 190.397 18.76 188.857 18.36Z" fill="black"/>
</g>
<defs>
<filter id="filter0_d_471_13" x="0" y="0" width="237" height="60" filterUnits="userSpaceOnUse" color-interpolation-filters="sRGB">
<feFlood flood-opacity="0" result="BackgroundImageFix"/>
<feColorMatrix in="SourceAlpha" type="matrix" values="0 0 0 0 0 0 0 0 0 0 0 0 0 0 0 0 0 0 127 0" result="hardAlpha"/>
<feOffset dy="7"/>
<feGaussianBlur stdDeviation="2"/>
<feComposite in2="hardAlpha" operator="out"/>
<feColorMatrix type="matrix" values="0 0 0 0 0 0 0 0 0 0 0 0 0 0 0 0 0 0 0.25 0"/>
<feBlend mode="normal" in2="BackgroundImageFix" result="effect1_dropShadow_471_13"/>
<feBlend mode="normal" in="SourceGraphic" in2="effect1_dropShadow_471_13" result="shape"/>
</filter>
</defs>
</svg>
