<svg width="215" height="26" viewBox="0 0 215 26" fill="none" xmlns="http://www.w3.org/2000/svg">
<path d="M12.393 15.2278L10.449 17.8468C9.88199 17.0908 8.96399 16.0108 8.04599 15.0118V25.1908H4.85999V15.8758C3.77999 16.8748 2.64599 17.7658 1.51199 18.4678C1.24199 17.6038 0.485993 16.0378 -6.81542e-06 15.4168C2.94299 13.8238 5.77799 10.9888 7.55999 7.8568H1.02599V4.9678H4.85999V-0.00020355H8.04599V4.9678H9.26099L9.82799 4.8328L11.637 5.9938C10.827 8.0458 9.74699 9.9898 8.45099 11.7718C9.74699 12.8248 11.826 14.6878 12.393 15.2278ZM20.169 21.2758H25.92V24.4078H10.638V21.2758H16.875V11.3938H11.745V8.2888H16.875V0.215795H20.169V8.2888H25.272V11.3938H20.169V21.2758ZM48.411 15.4978H42.147C42.741 16.5508 43.443 17.4688 44.28 18.3058C45.711 17.4688 47.25 16.4158 48.411 15.4978ZM49.356 15.4978L51.435 16.9558C49.896 18.0628 48.087 19.1428 46.467 20.0068C48.195 21.0868 50.274 21.8698 52.758 22.3288C52.083 23.0308 51.165 24.3538 50.733 25.2178C44.631 23.8138 41.04 20.6008 38.799 15.4978H35.694V21.2218C37.584 20.9518 39.582 20.6548 41.526 20.3578L41.661 23.1928C37.53 23.8678 33.075 24.5428 29.808 25.0288L29.079 22.0858C30.051 21.9778 31.158 21.8158 32.373 21.6808V15.4978H27.918V12.6628H32.4V0.890796H49.437V3.5098H35.694V4.9408H48.681V7.4248H35.694V8.7748H48.681V11.2588H35.694V12.6628H52.245V15.4978H49.356ZM55.215 7.0738C55.593 7.1008 55.944 7.1278 56.322 7.1278C56.889 7.1278 57.456 7.1008 58.05 7.0738C58.887 7.0468 60.156 6.9658 61.506 6.8578C61.857 4.9138 62.073 3.1048 62.073 1.4848V1.1878L66.042 1.5928C65.88 2.2948 65.691 3.1318 65.556 3.8068C65.421 4.6168 65.205 5.5888 65.016 6.5608C65.907 6.5068 66.717 6.4528 67.257 6.4528C70.092 6.4528 72.09 7.7218 72.09 11.5558C72.09 14.7148 71.712 18.9808 70.578 21.3028C69.687 23.1658 68.202 23.7598 66.177 23.7598C65.151 23.7598 63.882 23.5978 62.991 23.3818L62.397 19.8448C63.423 20.1418 64.962 20.4118 65.664 20.4118C66.555 20.4118 67.257 20.1418 67.662 19.2508C68.418 17.7658 68.769 14.5798 68.769 11.9338C68.769 9.8008 67.851 9.5038 66.15 9.5038C65.718 9.5038 65.07 9.5578 64.314 9.6118C63.288 13.6618 61.344 19.9528 58.887 23.8948L55.377 22.4908C57.996 18.9808 59.805 13.6348 60.777 9.9898C59.832 10.0978 58.995 10.2058 58.482 10.2868C57.726 10.3678 56.349 10.5568 55.512 10.6918L55.215 7.0738ZM72.036 5.4538L75.276 4.1038C76.896 6.3988 79.137 11.5018 79.947 14.0398L76.572 15.6328C75.87 12.6628 73.953 7.8298 72.036 5.4538ZM84.861 17.2258C85.374 14.6068 86.022 9.3958 86.184 6.0748L89.802 6.5608C89.451 8.0458 88.992 11.2588 88.803 12.7978C91.233 11.0428 93.879 10.2598 96.66 10.2598C101.358 10.2598 104.085 13.1488 104.085 16.3888C104.085 20.7628 101.007 24.2188 92.421 24.2188C91.395 24.2188 90.288 24.1648 89.1 24.0568L88.074 20.5468C89.613 20.7628 91.017 20.8708 92.286 20.8708C97.578 20.8708 100.332 19.0618 100.332 16.3078C100.332 14.5798 98.685 13.3108 96.336 13.3108C93.312 13.3108 90.639 14.4178 88.965 16.4428C88.479 17.0368 88.182 17.4688 87.966 18.0088L84.861 17.2258ZM88.776 4.4278L89.64 1.1878C92.178 1.9708 97.983 2.9968 100.332 3.2668L99.522 6.5608C96.822 6.2098 90.855 4.9678 88.776 4.4278ZM110.133 19.1698C110.133 15.7678 112.968 12.1498 116.694 10.3948C116.775 9.2608 116.856 8.1268 116.964 7.0468H116.1C114.696 7.0468 112.617 6.9388 111.375 6.8848L111.267 3.7798C112.212 3.9148 114.561 4.1308 116.208 4.1308H117.234L117.396 2.6998C117.45 2.2948 117.477 1.8088 117.477 1.3768V1.1068L120.987 1.1878C120.798 1.7278 120.69 2.2138 120.609 2.6188C120.501 3.0508 120.42 3.5368 120.339 4.0498C123.579 3.9418 126.468 3.6178 129.411 2.9158L129.438 5.9938C126.819 6.4798 123.228 6.8038 119.934 6.9658C119.853 7.7488 119.772 8.5588 119.745 9.3688C121.014 9.0718 122.418 8.8828 123.741 8.8828H124.2C124.308 8.3428 124.416 7.6678 124.443 7.2898L127.737 8.0458C127.602 8.3428 127.413 8.9098 127.251 9.4228C130.356 10.4488 132.408 12.8518 132.408 15.9838C132.408 19.7368 130.167 23.4358 123.606 24.4078L121.824 21.5998C126.981 21.0328 129.087 18.4408 129.087 15.8218C129.087 14.2018 128.142 12.7708 126.333 12.0688C124.848 15.7138 122.715 18.4948 120.69 20.1688C120.879 20.8708 121.095 21.5188 121.311 22.1668L118.233 23.0848C118.125 22.7608 117.99 22.3828 117.882 22.0048C116.586 22.6528 115.155 23.0848 113.751 23.0848C111.78 23.0848 110.133 21.8968 110.133 19.1698ZM113.292 18.5218C113.292 19.3588 113.67 19.8178 114.534 19.8178C115.29 19.8178 116.208 19.5208 117.207 18.9538C116.91 17.2798 116.694 15.4438 116.64 13.6078C114.642 14.9578 113.292 17.0098 113.292 18.5218ZM119.637 12.2578C119.637 13.9048 119.745 15.3628 119.934 16.6858C121.23 15.3898 122.418 13.7698 123.309 11.6098C121.905 11.6368 120.663 11.8798 119.637 12.2038V12.2578ZM136.431 17.8198C138.591 15.2008 140.697 11.2588 141.885 8.3698C141.426 8.3968 140.967 8.3968 140.508 8.3968C139.401 8.3968 138.321 8.3698 137.16 8.3158L136.917 5.1838C138.078 5.3188 139.509 5.3728 140.481 5.3728C141.264 5.3728 142.074 5.3458 142.884 5.2918C143.262 3.8068 143.559 2.1868 143.613 0.809796L147.312 1.1878C147.096 2.0518 146.772 3.4018 146.394 4.8328C147.69 4.6168 148.932 4.3198 149.985 3.9958L150.066 7.1008C148.851 7.4248 147.204 7.7758 145.422 8.0188C144.153 11.7718 141.858 16.4158 139.698 19.4668L136.431 17.8198ZM142.776 20.0068C142.776 17.3878 144.963 15.3628 148.689 15.3628C149.31 15.3628 149.931 15.4168 150.498 15.4708C150.417 13.4728 150.282 11.1238 150.201 9.5038H153.576C153.549 9.9358 153.522 10.3948 153.522 10.8268C153.522 11.5018 153.549 12.2038 153.576 12.9328C153.603 13.6888 153.657 14.9848 153.738 16.3078C156.033 17.1718 157.923 18.5218 159.273 19.7368L157.491 22.5988C156.546 21.7348 155.331 20.6548 153.873 19.7638V20.0068C153.873 22.4908 152.523 24.4348 148.716 24.4348C145.395 24.4348 142.776 22.9498 142.776 20.0068ZM145.935 19.6828C145.935 20.6818 146.772 21.3568 148.23 21.3568C150.039 21.3568 150.633 20.3038 150.633 18.8728V18.3598C149.931 18.1978 149.229 18.0898 148.473 18.0898C146.934 18.0898 145.935 18.7378 145.935 19.6828ZM151.74 7.1278L153.468 4.4818C155.385 5.3188 158.706 7.1278 160.056 8.0998L158.166 10.9348C156.627 9.6928 153.576 7.9378 151.74 7.1278ZM164.079 22.8148C165.672 20.1418 167.697 14.5258 168.696 10.7728C168.885 10.0708 169.074 9.3148 169.263 8.5588C168.642 8.5858 168.048 8.6128 167.508 8.6128C166.212 8.6128 165.213 8.5588 164.268 8.5048L164.187 5.1568C165.564 5.3188 166.455 5.3728 167.562 5.3728C168.345 5.3728 169.128 5.3458 169.938 5.2918C170.046 4.6978 170.127 4.1848 170.181 3.7528C170.262 3.0778 170.316 2.3488 170.316 1.7548C170.316 1.4848 170.316 1.2418 170.289 1.0528L174.366 1.3768C174.177 2.1058 173.934 3.2938 173.799 3.8878L173.583 4.9138C175.095 4.6708 176.607 4.3738 178.065 4.0228V7.3978C176.472 7.7488 174.663 8.0458 172.881 8.2618C172.638 9.4228 172.368 10.6108 172.071 11.6908C171.099 15.4438 169.29 20.9248 167.832 24.0568L164.079 22.8148ZM173.853 19.4398C173.853 18.2248 174.096 16.9288 174.312 15.8758L177.525 16.1728C177.309 16.9288 177.147 17.8198 177.147 18.4138C177.147 19.5748 177.822 20.4388 180.684 20.4388C182.466 20.4388 184.329 20.2498 186.246 19.8988L186.111 23.3278C184.599 23.5168 182.79 23.7058 180.657 23.7058C176.148 23.7058 173.853 22.1398 173.853 19.4398ZM175.959 12.6088V9.4498C177.444 9.3148 179.361 9.1798 181.089 9.1798C182.601 9.1798 184.221 9.2608 185.787 9.4228L185.706 12.6358C184.383 12.4738 182.736 12.3118 181.116 12.3118C179.253 12.3118 177.633 12.3928 175.959 12.6088ZM189.702 14.7418C190.485 14.0938 191.133 13.4998 191.943 12.6358C193.185 11.3668 195.264 8.6128 196.911 6.6958C197.91 5.5348 198.882 4.9678 199.881 4.9678C200.718 4.9678 201.582 5.3998 202.473 6.2638C204.282 8.0458 206.415 10.7998 208.008 12.5278C209.709 14.3908 211.977 16.7938 214.542 19.0888L211.788 22.2478C209.871 20.4388 207.576 17.8738 205.875 15.8758C204.201 13.9318 202.23 11.3668 200.961 9.9628C200.502 9.4768 200.178 9.2608 199.854 9.2608C199.503 9.2608 199.152 9.5308 198.747 10.0438C197.694 11.3938 195.777 14.0398 194.643 15.5518C194.022 16.4158 193.428 17.3878 192.942 18.0898L189.702 14.7418Z" fill="black"/>
</svg>
