<svg width="349" height="128" viewBox="0 0 349 128" fill="none" xmlns="http://www.w3.org/2000/svg">
<path d="M321.966 120.396C323.086 119.038 324.178 116.994 324.794 115.496C324.556 115.51 324.318 115.51 324.08 115.51C323.506 115.51 322.946 115.496 322.344 115.468L322.218 113.844C322.82 113.914 323.562 113.942 324.066 113.942C324.472 113.942 324.892 113.928 325.312 113.9C325.508 113.13 325.662 112.29 325.69 111.576L327.608 111.772C327.496 112.22 327.328 112.92 327.132 113.662C327.804 113.55 328.448 113.396 328.994 113.228L329.036 114.838C328.406 115.006 327.552 115.188 326.628 115.314C325.97 117.26 324.78 119.668 323.66 121.25L321.966 120.396ZM325.256 121.53C325.256 120.172 326.39 119.122 328.322 119.122C328.644 119.122 328.966 119.15 329.26 119.178C329.218 118.142 329.148 116.924 329.106 116.084H330.856C330.842 116.308 330.828 116.546 330.828 116.77C330.828 117.12 330.842 117.484 330.856 117.862C330.87 118.254 330.898 118.926 330.94 119.612C332.13 120.06 333.11 120.76 333.81 121.39L332.886 122.874C332.396 122.426 331.766 121.866 331.01 121.404V121.53C331.01 122.818 330.31 123.826 328.336 123.826C326.614 123.826 325.256 123.056 325.256 121.53ZM326.894 121.362C326.894 121.88 327.328 122.23 328.084 122.23C329.022 122.23 329.33 121.684 329.33 120.942V120.676C328.966 120.592 328.602 120.536 328.21 120.536C327.412 120.536 326.894 120.872 326.894 121.362ZM329.904 114.852L330.8 113.48C331.794 113.914 333.516 114.852 334.216 115.356L333.236 116.826C332.438 116.182 330.856 115.272 329.904 114.852ZM337.002 120.382C337.002 118.856 337.94 117.722 339.298 116.728C338.654 115.566 338.416 113.872 338.234 112.178L340.11 111.884C340.208 113.536 340.558 114.768 341.02 115.944C342.21 115.454 343.47 115.104 344.142 114.894C344.674 114.726 345.234 114.572 345.654 114.362L346.13 116.21C345.64 116.308 345.22 116.434 344.492 116.63C343.484 116.91 342.196 117.288 340.922 117.876C339.788 118.394 338.92 119.192 338.92 120.172C338.92 121.166 339.858 121.698 341.79 121.698C343.218 121.698 345.094 121.474 346.326 121.194L346.298 123.196C345.122 123.392 343.652 123.532 341.846 123.532C339.088 123.532 337.002 122.762 337.002 120.382ZM343.568 112.122L344.674 111.674C345.024 112.192 345.528 113.074 345.794 113.592L344.66 114.082C344.366 113.508 343.946 112.668 343.568 112.122ZM345.22 111.492L346.34 111.044C346.704 111.576 347.222 112.458 347.474 112.948L346.354 113.424C346.06 112.836 345.612 112.024 345.22 111.492Z" fill="#004677"/>
<circle cx="38.5" cy="38.5" r="38.5" fill="white"/>
<path d="M24.614 98.164V99.383H22.222V96.232H36.666V99.383H34.136V98.164H24.614ZM25.626 107.548H27.972V106.651H25.626V107.548ZM25.626 104.167V105.064H27.972V104.167H25.626ZM33.078 104.167H30.64V105.064H33.078V104.167ZM33.078 107.548V106.651H30.64V107.548H33.078ZM27.972 113.551V112.033H22.015V110.055H27.972V109.204H23.303V102.465H27.972V101.66H22.866V99.774H27.972V98.578H30.64V99.774H35.907V101.66H30.64V102.465H35.516V109.204H30.64V110.055H36.896V112.033H30.64V113.551H27.972ZM21.739 99.751L19.485 101.476C18.841 100.349 17.323 98.762 16.035 97.658L18.128 96.094C19.416 97.129 21.003 98.647 21.739 99.751ZM21.118 104.443V111.78C22.015 113.321 23.625 113.965 25.971 114.057C28.731 114.172 34.159 114.103 37.333 113.85C37.011 114.494 36.62 115.759 36.482 116.518C33.63 116.656 28.754 116.702 25.948 116.587C23.211 116.472 21.371 115.805 19.991 114.034C19.071 114.931 18.128 115.805 16.955 116.794L15.667 114.08C16.564 113.505 17.599 112.746 18.519 111.964V106.95H15.943V104.443H21.118ZM59.919 106.651H54.399C55.411 108.813 57.251 110.331 59.988 111.044C59.413 111.573 58.631 112.631 58.263 113.344C55.664 112.447 53.893 110.86 52.72 108.606C51.8 110.331 50.121 112.01 47.131 113.298C46.786 112.723 45.935 111.78 45.314 111.32C48.81 110.032 50.144 108.307 50.65 106.651H45.314V104.19H50.949V101.982H46.096V99.567H48.396C48.028 98.647 47.384 97.451 46.694 96.508L49.017 95.542C49.868 96.6 50.719 98.026 51.018 99.038L49.799 99.567H54.928L53.755 99.153C54.422 98.141 55.227 96.623 55.664 95.519L58.47 96.37C57.734 97.543 56.952 98.693 56.285 99.567H59.16V101.982H53.686V104.19H59.919V106.651ZM44.969 99.521L42.807 101.338C42.094 100.234 40.461 98.716 39.104 97.704L41.128 96.048C42.508 97.014 44.187 98.44 44.969 99.521ZM44.394 104.443V111.665C45.337 113.206 47.062 113.827 49.454 113.919C52.145 114.034 57.32 113.965 60.379 113.735C60.08 114.379 59.666 115.713 59.528 116.495C56.768 116.633 52.145 116.679 49.408 116.564C46.579 116.449 44.693 115.805 43.198 114.011C42.186 114.908 41.174 115.805 39.909 116.771L38.575 113.919C39.564 113.344 40.714 112.585 41.726 111.803V106.95H39.081V104.443H44.394Z" fill="#004677"/>
<circle cx="38" cy="38" r="34" fill="#005794"/>
<path d="M51.5 52.5418C53.2292 52.5418 54.625 51.146 54.625 49.4168C54.625 47.6877 53.2292 46.2918 51.5 46.2918C49.7709 46.2918 48.375 47.6877 48.375 49.4168C48.375 51.146 49.7709 52.5418 51.5 52.5418ZM54.625 33.7918H49.4167V39.0002H58.7084L54.625 33.7918ZM26.5 52.5418C28.2292 52.5418 29.625 51.146 29.625 49.4168C29.625 47.6877 28.2292 46.2918 26.5 46.2918C24.7709 46.2918 23.375 47.6877 23.375 49.4168C23.375 51.146 24.7709 52.5418 26.5 52.5418ZM55.6667 30.6668L61.9167 39.0002V49.4168H57.75C57.75 52.8752 54.9584 55.6668 51.5 55.6668C48.0417 55.6668 45.25 52.8752 45.25 49.4168H32.75C32.75 52.8752 29.9584 55.6668 26.5 55.6668C23.0417 55.6668 20.25 52.8752 20.25 49.4168H16.0834V26.5002C16.0834 24.1877 17.9375 22.3335 20.25 22.3335H49.4167V30.6668H55.6667ZM20.25 26.5002V45.2502H21.8334C22.9792 43.9793 24.6459 43.1668 26.5 43.1668C28.3542 43.1668 30.0209 43.9793 31.1667 45.2502H45.25V26.5002H20.25Z" fill="white"/>
<circle cx="168.5" cy="38.5" r="38.5" fill="white"/>
<path d="M162.02 113.919V111.918H151.233V113.919H162.02ZM153.096 104.558V106.168H159.927V104.558H153.096ZM162.572 108.169H157.719C157.535 108.675 157.328 109.135 157.121 109.572H164.734V117.047H162.02V116.288H151.233V117.047H148.634V109.572H154.407C154.522 109.112 154.66 108.629 154.752 108.169H150.566V102.534H162.572V108.169ZM163.17 99.084H166.39V103.983H163.745V101.407H149.37V103.983H146.886V99.084H149.669C149.255 98.348 148.68 97.52 148.151 96.83L150.52 95.818C151.279 96.692 152.176 97.911 152.567 98.762L151.831 99.084H155.373C155.051 98.256 154.43 97.129 153.878 96.255L156.27 95.45C156.937 96.347 157.696 97.658 158.018 98.486L156.408 99.084H160.18C160.916 98.095 161.79 96.692 162.227 95.611L165.171 96.531C164.504 97.405 163.814 98.325 163.17 99.084ZM182.329 101.499H176.832C177.154 102.097 177.453 102.764 177.614 103.27L177.223 103.339H181.524C181.8 102.787 182.076 102.12 182.329 101.499ZM189.758 111.757H183.088C185.043 112.953 187.711 113.85 190.379 114.264C189.758 114.862 188.953 116.012 188.539 116.748C185.71 116.035 182.927 114.655 180.811 112.861V117.001H178.12V112.999C175.981 114.678 173.152 116.012 170.415 116.725C170.024 116.058 169.242 115 168.667 114.448C171.243 113.919 173.957 112.953 175.935 111.757H169.334V109.503H178.12V108.491H171.496V106.513H178.12V105.478H170.346V103.339H174.716C174.532 102.764 174.233 102.074 173.934 101.545L174.21 101.499H169.403V99.268H172.485C172.163 98.394 171.565 97.29 171.059 96.416L173.405 95.611C174.072 96.6 174.831 97.957 175.153 98.854L174.026 99.268H176.119V95.519H178.672V99.268H180.374V95.519H182.95V99.268H184.997L184.169 99.015C184.721 98.072 185.296 96.692 185.618 95.68L188.493 96.37C187.849 97.428 187.228 98.463 186.699 99.268H189.689V101.499H185.365C184.997 102.166 184.629 102.787 184.284 103.339H188.792V105.478H180.811V106.513H187.711V108.491H180.811V109.503H189.758V111.757Z" fill="#004677"/>
<circle cx="168" cy="38" r="34" fill="#005794"/>
<path d="M182.583 25.5H176.333V23.4167C176.333 22.3116 175.894 21.2518 175.113 20.4704C174.332 19.689 173.272 19.25 172.167 19.25H163.833C162.728 19.25 161.668 19.689 160.887 20.4704C160.106 21.2518 159.667 22.3116 159.667 23.4167V25.5H153.417C151.759 25.5 150.169 26.1585 148.997 27.3306C147.825 28.5027 147.167 30.0924 147.167 31.75V50.5C147.167 52.1576 147.825 53.7473 148.997 54.9194C150.169 56.0915 151.759 56.75 153.417 56.75H182.583C184.241 56.75 185.831 56.0915 187.003 54.9194C188.175 53.7473 188.833 52.1576 188.833 50.5V31.75C188.833 30.0924 188.175 28.5027 187.003 27.3306C185.831 26.1585 184.241 25.5 182.583 25.5ZM163.833 23.4167H172.167V25.5H163.833V23.4167ZM184.667 50.5C184.667 51.0525 184.447 51.5824 184.056 51.9731C183.666 52.3638 183.136 52.5833 182.583 52.5833H153.417C152.864 52.5833 152.334 52.3638 151.943 51.9731C151.553 51.5824 151.333 51.0525 151.333 50.5V38.8125L161.083 42.1667C161.305 42.1964 161.529 42.1964 161.75 42.1667H174.25C174.476 42.1622 174.7 42.1272 174.917 42.0625L184.667 38.8125V50.5ZM184.667 34.4167L173.917 38H162.083L151.333 34.4167V31.75C151.333 31.1975 151.553 30.6676 151.943 30.2769C152.334 29.8862 152.864 29.6667 153.417 29.6667H182.583C183.136 29.6667 183.666 29.8862 184.056 30.2769C184.447 30.6676 184.667 31.1975 184.667 31.75V34.4167Z" fill="white"/>
<circle cx="298.5" cy="38.5" r="38.5" fill="white"/>
<path d="M284.154 108.928L284.522 111.343C281.624 112.194 278.542 113.091 276.173 113.781L275.483 111.205C276.403 110.998 277.53 110.699 278.772 110.377V105.754H276.219V103.247H278.772V99.245H276.012V96.715H284.062V99.245H281.417V103.247H283.809V105.754H281.417V109.687C282.314 109.434 283.257 109.181 284.154 108.928ZM287.512 105.616V107.042H293.515V105.616H287.512ZM287.512 102.12V103.546H293.515V102.12H287.512ZM287.512 98.624V100.05H293.515V98.624H287.512ZM293.791 114.54H294.734C295.148 114.54 295.24 114.172 295.286 111.872C295.815 112.286 296.873 112.723 297.563 112.884C297.333 116.035 296.735 116.886 295.033 116.886H293.308C291.192 116.886 290.732 116.104 290.732 113.781V109.273H289.329C288.915 113.022 287.857 115.69 282.958 117.139C282.682 116.472 281.992 115.414 281.44 114.885C285.603 113.85 286.339 111.964 286.638 109.273H284.959V96.393H296.183V109.273H293.354V113.781C293.354 114.448 293.4 114.54 293.791 114.54ZM316.147 99.084V97.98H310.213V99.084H316.147ZM316.147 101.982V100.878H310.213V101.982H316.147ZM318.677 96.094V103.868H307.798V96.094H318.677ZM320.241 107.042H311.087C310.903 107.41 310.673 107.778 310.443 108.146H319.781C319.781 108.146 319.758 108.767 319.735 109.089C319.413 113.574 319.045 115.414 318.424 116.081C317.987 116.61 317.481 116.794 316.906 116.863C316.377 116.932 315.503 116.955 314.583 116.909C314.537 116.265 314.307 115.345 313.962 114.77C314.698 114.839 315.296 114.839 315.595 114.839C315.917 114.839 316.101 114.793 316.285 114.586C316.607 114.241 316.883 113.068 317.136 110.285H316.239C315.296 112.861 313.502 115.644 311.639 117.093C311.179 116.564 310.397 115.943 309.707 115.575C311.455 114.471 312.996 112.424 313.985 110.285H312.628C311.386 112.493 309.247 114.793 307.246 116.058C306.809 115.529 306.096 114.839 305.452 114.448C307.154 113.597 308.925 111.987 310.144 110.285H308.764C307.936 111.159 307.039 111.941 306.096 112.539C305.751 112.102 304.877 111.297 304.302 110.929C302.646 111.757 300.99 112.585 299.587 113.275L298.575 110.515C299.357 110.216 300.323 109.825 301.404 109.388V102.902H299.104V100.326H301.404V95.795H303.934V100.326H306.096V102.902H303.934V108.33L305.774 107.525L306.257 109.48C307.085 108.767 307.798 107.939 308.373 107.042H305.774V104.742H320.241V107.042Z" fill="#004677"/>
<circle cx="298" cy="38" r="34" fill="#005794"/>
<path fill-rule="evenodd" clip-rule="evenodd" d="M309.755 24.4117L309.65 24.33C309.449 22.797 308.715 21.1998 307.569 19.8535C305.708 17.666 302.675 16 298.615 16C294.613 16 291.793 17.8247 290.13 20.0868C289.353 21.133 288.799 22.3268 288.5 23.595C288.446 23.8325 288.402 24.0723 288.369 24.3137L288.243 24.4105C286.932 25.4267 285.969 26.6587 286.198 28.0715C286.417 29.4365 287.652 30.2672 288.8 30.7747C289.092 30.9038 289.406 31.0251 289.741 31.1387C289.573 32.4538 289.686 33.7898 290.074 35.0577C290.462 36.3256 291.116 37.4962 291.992 38.4916C292.868 39.487 293.946 40.2844 295.154 40.8306C296.362 41.3768 297.673 41.6593 298.999 41.6593C300.325 41.6593 301.635 41.3768 302.844 40.8306C304.052 40.2844 305.13 39.487 306.006 38.4916C306.882 37.4962 307.535 36.3256 307.923 35.0577C308.311 33.7898 308.425 32.4538 308.256 31.1387C308.592 31.0259 308.905 30.9045 309.198 30.7747C310.346 30.2672 311.579 29.4365 311.799 28.0715C312.028 26.6587 311.066 25.4267 309.754 24.4105M290.768 26.1162C290.616 25.6798 290.577 24.9787 290.774 24.1118C290.967 23.266 291.369 22.3385 291.999 21.4798V24.75C291.999 25.0594 292.122 25.3562 292.341 25.575C292.559 25.7937 292.856 25.9167 293.165 25.9167C293.475 25.9167 293.772 25.7937 293.99 25.575C294.209 25.3562 294.332 25.0594 294.332 24.75V19.395C295.292 18.849 296.453 18.4675 297.832 18.3625V22.4167C297.832 22.7261 297.955 23.0228 298.174 23.2416C298.393 23.4604 298.689 23.5833 298.999 23.5833C299.308 23.5833 299.605 23.4604 299.824 23.2416C300.043 23.0228 300.165 22.7261 300.165 22.4167V18.4348C301.397 18.59 302.587 18.9864 303.665 19.6015V24.75C303.665 25.0594 303.788 25.3562 304.007 25.575C304.226 25.7937 304.523 25.9167 304.832 25.9167C305.142 25.9167 305.438 25.7937 305.657 25.575C305.876 25.3562 305.999 25.0594 305.999 24.75V21.621C307.288 23.273 307.59 25.0557 307.227 26.1255C307.137 26.3903 307.146 26.6785 307.25 26.9378C307.355 27.197 307.55 27.41 307.798 27.5379C308.047 27.6658 308.333 27.7002 308.605 27.6348C308.877 27.5693 309.116 27.4084 309.279 27.1813C309.509 27.5022 309.501 27.6725 309.496 27.6993C309.481 27.7927 309.303 28.1777 308.254 28.642C307.799 28.8427 307.258 29.0235 306.65 29.1833L306.622 29.1903C305.963 29.3607 305.229 29.5053 304.444 29.6243C302.987 29.8342 301.52 29.9549 300.049 29.986C299.038 30.0116 298.026 30.0007 297.015 29.9533C295.853 29.9007 294.695 29.7901 293.543 29.622C292.814 29.5163 292.09 29.3722 291.376 29.1903L291.348 29.1833C290.799 29.0464 290.263 28.8653 289.744 28.642C288.695 28.1777 288.516 27.7927 288.501 27.6993C288.496 27.6725 288.488 27.5022 288.718 27.1813C288.882 27.4094 289.122 27.571 289.395 27.6364C289.668 27.7017 289.955 27.6666 290.204 27.5373C290.453 27.408 290.647 27.1933 290.751 26.9325C290.854 26.6717 290.86 26.3823 290.768 26.1173M292.024 31.7278C292.413 31.8033 292.812 31.8721 293.224 31.9343C294.47 32.121 295.811 32.24 297.176 32.296C298.393 32.3461 299.611 32.3461 300.828 32.296C302.186 32.24 303.523 32.121 304.763 31.9343C305.179 31.8737 305.582 31.8048 305.973 31.7278C306.056 32.694 305.937 33.6669 305.625 34.5848C305.312 35.5027 304.812 36.3456 304.156 37.06C303.5 37.7744 302.703 38.3448 301.815 38.735C300.928 39.1252 299.969 39.3267 298.999 39.3267C298.029 39.3267 297.07 39.1252 296.182 38.735C295.294 38.3448 294.497 37.7744 293.842 37.06C293.186 36.3456 292.686 35.5027 292.373 34.5848C292.06 33.6669 291.942 32.694 292.024 31.7278Z" fill="white"/>
<path fill-rule="evenodd" clip-rule="evenodd" d="M304.833 42.2383C305.601 42.3724 306.383 42.5288 307.167 42.7073C313.517 44.1574 320 47.0566 320 50.9999V57.9999H278V50.9999C278 47.0566 284.483 44.1574 290.833 42.7073C291.607 42.5311 292.385 42.3748 293.167 42.2383V47.4999H304.833V42.2383ZM288.5 45.7383C289.263 45.5049 290.046 45.2938 290.833 45.1036V49.8333H307.167V45.1048C308.349 45.3869 309.517 45.7248 310.667 46.1174V55.6666H313V47.0298C313.339 47.1807 313.665 47.3358 313.978 47.4953C315.304 48.1696 316.288 48.8649 316.911 49.5299C317.523 50.1833 317.667 50.6651 317.667 50.9999V55.6666H280.333V50.9999C280.333 50.6651 280.477 50.1833 281.089 49.5299C281.712 48.8649 282.696 48.1696 284.022 47.4953C284.686 47.1569 285.406 46.8396 286.167 46.5444V55.6666H288.5V45.7383Z" fill="white"/>
</svg>
