<svg width="285" height="123" viewBox="0 0 285 123" fill="none" xmlns="http://www.w3.org/2000/svg">
<path d="M81.66 8.16H76.38C77.37 11.085 79.185 13.44 81.99 14.58C81.54 14.955 80.955 15.75 80.67 16.26C77.955 14.985 76.215 12.795 75.045 9.9C74.235 12.405 72.615 14.745 69.435 16.275C69.15 15.78 68.625 15.135 68.1 14.76C71.535 13.23 72.96 10.74 73.545 8.16H68.385V6.315H73.845C73.995 4.905 73.98 3.54 73.995 2.31H75.945C75.93 3.54 75.915 4.92 75.765 6.315H81.66V8.16ZM96.87 9.975V11.715H90.945V14.16C90.945 15.225 90.675 15.69 89.97 15.975C89.25 16.245 88.17 16.29 86.64 16.275C86.535 15.765 86.19 14.985 85.905 14.505C87.015 14.55 88.275 14.55 88.605 14.55C88.95 14.535 89.085 14.43 89.085 14.13V11.715H83.16V9.975H89.085V8.22H84.18V6.51H89.085V4.755C87.525 4.89 85.95 4.98 84.48 5.04C84.435 4.575 84.21 3.855 84.03 3.465C87.645 3.315 91.755 2.91 94.215 2.265L95.505 3.75C94.17 4.095 92.595 4.35 90.945 4.545V6.51H95.985V8.22H90.945V9.975H96.87ZM99.93 12.195C99.93 10.56 100.935 9.345 102.39 8.28C101.7 7.035 101.445 5.22 101.25 3.405L103.26 3.09C103.365 4.86 103.74 6.18 104.235 7.44C105.51 6.915 106.86 6.54 107.58 6.315C108.15 6.135 108.75 5.97 109.2 5.745L109.71 7.725C109.185 7.83 108.735 7.965 107.955 8.175C106.875 8.475 105.495 8.88 104.13 9.51C102.915 10.065 101.985 10.92 101.985 11.97C101.985 13.035 102.99 13.605 105.06 13.605C106.59 13.605 108.6 13.365 109.92 13.065L109.89 15.21C108.63 15.42 107.055 15.57 105.12 15.57C102.165 15.57 99.93 14.745 99.93 12.195ZM122.115 11.61H118.155C118.665 12.195 119.295 12.675 120.075 13.08C120.87 12.675 121.56 12.195 122.115 11.61ZM123.615 10.14L124.77 10.92C124.095 12.12 123.135 13.08 121.965 13.83C123.405 14.265 125.13 14.52 127.095 14.61C126.72 15.03 126.285 15.795 126.06 16.29C123.63 16.095 121.62 15.645 119.985 14.865C118.155 15.63 116.025 16.08 113.805 16.335C113.67 15.885 113.28 15.12 112.965 14.73C114.885 14.58 116.685 14.295 118.23 13.8C117.72 13.41 117.255 12.96 116.835 12.465C116.16 12.885 115.395 13.275 114.525 13.62C114.3 13.2 113.775 12.57 113.4 12.3C115.095 11.73 116.355 10.98 117.225 10.17C116.955 9.795 116.34 9.24 115.95 8.97C117.78 7.89 118.02 6.39 118.035 5.235H113.385V3.6H119.085V2.31H120.915V3.6H126.66V5.235H122.805V7.935C122.805 8.685 122.685 9.12 122.175 9.375C121.65 9.615 120.96 9.63 120.06 9.63C120 9.165 119.775 8.505 119.565 8.07C120.09 8.085 120.675 8.085 120.84 8.085C121.02 8.085 121.065 8.04 121.065 7.89V5.235H119.7C119.7 6.435 119.535 7.92 118.455 9.165L120.03 9.48C119.85 9.72 119.67 9.96 119.475 10.2H123.3L123.615 10.14ZM115.305 5.73L116.97 6.18C116.355 7.35 115.365 8.55 114.33 9.285C114 8.955 113.43 8.475 113.1 8.25C114.03 7.65 114.915 6.63 115.305 5.73ZM123.225 6.465L124.605 5.67C125.46 6.51 126.51 7.68 126.99 8.475L125.505 9.39C125.085 8.58 124.065 7.35 123.225 6.465ZM128.19 12.405C129.03 11.385 130.53 9.405 131.37 8.16L131.43 7.125C130.71 7.215 129.57 7.365 128.73 7.47L128.55 5.565C128.73 5.565 128.88 5.58 129.045 5.58C129.285 5.58 129.525 5.565 129.84 5.55C130.275 5.52 130.92 5.445 131.55 5.355C131.58 4.8 131.61 4.38 131.61 4.215V3.855C131.61 3.54 131.61 3.21 131.55 2.895L133.725 2.955C133.635 3.375 133.515 4.14 133.395 5.07L133.95 5.775C133.755 6.03 133.44 6.51 133.185 6.9C133.17 7.05 133.17 7.185 133.155 7.335C134.655 6.21 136.185 5.79 137.52 5.79C139.815 5.79 141.615 7.41 141.615 9.795C141.615 12.795 139.74 14.595 136.05 15.33L135.165 13.53C137.775 13.125 139.635 12.075 139.635 9.75C139.635 8.595 138.705 7.545 137.22 7.545C135.645 7.545 134.25 8.295 133.005 9.45C132.99 9.87 132.975 10.29 132.975 10.68C132.975 11.895 132.975 13.14 133.065 14.535C133.08 14.805 133.14 15.345 133.17 15.675H131.13C131.16 15.36 131.175 14.82 131.175 14.58C131.205 13.425 131.205 12.57 131.235 11.31C130.605 12.255 129.87 13.335 129.36 14.055L128.19 12.405ZM144.885 11.88C145.17 10.425 145.53 7.53 145.62 5.685L147.63 5.955C147.435 6.78 147.18 8.565 147.075 9.42C148.425 8.445 149.895 8.01 151.44 8.01C154.05 8.01 155.565 9.615 155.565 11.415C155.565 13.845 153.855 15.765 149.085 15.765C148.515 15.765 147.9 15.735 147.24 15.675L146.67 13.725C147.525 13.845 148.305 13.905 149.01 13.905C151.95 13.905 153.48 12.9 153.48 11.37C153.48 10.41 152.565 9.705 151.26 9.705C149.58 9.705 148.095 10.32 147.165 11.445C146.895 11.775 146.73 12.015 146.61 12.315L144.885 11.88ZM147.06 4.77L147.54 2.97C148.95 3.405 152.175 3.975 153.48 4.125L153.03 5.955C151.53 5.76 148.215 5.07 147.06 4.77ZM158.535 12.21C159.735 10.755 160.905 8.565 161.565 6.96C161.31 6.975 161.055 6.975 160.8 6.975C160.185 6.975 159.585 6.96 158.94 6.93L158.805 5.19C159.45 5.265 160.245 5.295 160.785 5.295C161.22 5.295 161.67 5.28 162.12 5.25C162.33 4.425 162.495 3.525 162.525 2.76L164.58 2.97C164.46 3.45 164.28 4.2 164.07 4.995C164.79 4.875 165.48 4.71 166.065 4.53L166.11 6.255C165.435 6.435 164.52 6.63 163.53 6.765C162.825 8.85 161.55 11.43 160.35 13.125L158.535 12.21ZM162.06 13.425C162.06 11.97 163.275 10.845 165.345 10.845C165.69 10.845 166.035 10.875 166.35 10.905C166.305 9.795 166.23 8.49 166.185 7.59H168.06C168.045 7.83 168.03 8.085 168.03 8.325C168.03 8.7 168.045 9.09 168.06 9.495C168.075 9.915 168.105 10.635 168.15 11.37C169.425 11.85 170.475 12.6 171.225 13.275L170.235 14.865C169.71 14.385 169.035 13.785 168.225 13.29V13.425C168.225 14.805 167.475 15.885 165.36 15.885C163.515 15.885 162.06 15.06 162.06 13.425ZM163.815 13.245C163.815 13.8 164.28 14.175 165.09 14.175C166.095 14.175 166.425 13.59 166.425 12.795V12.51C166.035 12.42 165.645 12.36 165.225 12.36C164.37 12.36 163.815 12.72 163.815 13.245ZM167.04 6.27L168 4.8C169.065 5.265 170.91 6.27 171.66 6.81L170.61 8.385C169.755 7.695 168.06 6.72 167.04 6.27ZM174.15 4.29L176.43 4.32C176.325 4.845 176.25 5.715 176.25 6.12V6.765C176.25 7.56 176.265 8.43 176.34 9.27C176.55 11.415 177 12.87 177.93 12.87C178.635 12.87 179.22 11.13 179.505 9.96L181.005 11.76C180.015 14.34 179.085 15.255 177.885 15.255C176.265 15.255 174.84 13.785 174.42 9.795C174.285 8.43 174.255 6.705 174.255 5.79C174.255 5.37 174.24 4.74 174.15 4.29ZM181.965 5.265L183.855 4.635C185.265 6.36 186.405 9.945 186.57 12.225L184.605 12.975C184.38 10.59 183.585 7.095 181.965 5.265ZM191.04 2.325L192.735 3.015C191.745 4.395 190.23 5.865 188.835 6.765C188.655 6.36 188.235 5.64 187.95 5.25C189.135 4.545 190.425 3.315 191.04 2.325ZM193.41 12.21L194.865 11.445C195.54 12.21 196.305 13.26 196.62 13.995L195.06 14.835C194.79 14.115 194.055 13.005 193.41 12.21ZM202.05 8.55H200.145V9.735H201.915V11.355H200.145V14.415C200.145 15.315 199.98 15.75 199.38 16.02C198.795 16.275 197.955 16.305 196.83 16.305C196.755 15.81 196.5 15.105 196.275 14.625C197.01 14.655 197.835 14.655 198.075 14.64C198.3 14.64 198.375 14.595 198.375 14.385V11.355H192.57V9.735H198.375V8.55H192.42V7.14C192.195 7.455 191.97 7.77 191.715 8.1V16.29H190.005V10.065C189.54 10.53 189.09 10.935 188.64 11.295C188.52 10.89 188.07 9.885 187.815 9.45C189.12 8.52 190.575 7.05 191.415 5.595L192.975 6.27C192.84 6.48 192.705 6.705 192.555 6.93H196.335V5.625H193.26V4.005H196.335V2.37H198.105V4.005H201.33V5.625H198.105V6.93H202.05V8.55ZM209.595 6.54H211.005V5.79H209.595V6.54ZM209.595 3.915V4.665H211.005V3.915H209.595ZM214.125 4.665V3.915H212.58V4.665H214.125ZM214.125 6.54V5.79H212.58V6.54H214.125ZM209.115 9.765V13.725H207.495V8.355H211.005V7.74H208.05V2.73H215.745V7.74H212.58V8.355H216.435V12.585C216.435 13.275 216.285 13.59 215.805 13.785C215.325 13.98 214.65 13.995 213.72 13.995C213.66 13.605 213.45 13.11 213.285 12.765C213.78 12.795 214.365 12.795 214.53 12.795C214.71 12.78 214.77 12.735 214.77 12.585V9.765H212.46V10.785L213.18 10.755C213.12 10.545 213.045 10.335 212.97 10.155L213.99 9.93C214.29 10.65 214.59 11.595 214.695 12.165L213.6 12.45C213.585 12.315 213.555 12.15 213.525 11.985C212.07 12.135 210.615 12.255 209.46 12.375L209.31 10.98C209.79 10.95 210.345 10.92 210.96 10.89V9.765H209.115ZM206.895 4.905L205.425 6.03C205.005 5.295 204.015 4.26 203.175 3.54L204.54 2.52C205.38 3.195 206.415 4.185 206.895 4.905ZM206.49 8.055V12.9C207.075 13.905 208.125 14.325 209.655 14.385C211.455 14.46 214.995 14.415 217.065 14.25C216.855 14.67 216.6 15.495 216.51 15.99C214.65 16.08 211.47 16.11 209.64 16.035C207.855 15.96 206.655 15.525 205.755 14.37C205.155 14.955 204.54 15.525 203.775 16.17L202.935 14.4C203.52 14.025 204.195 13.53 204.795 13.02V9.705H203.115V8.055H206.49Z" fill="#005794"/>
<path d="M2.90945 35.394V36.811H1.47945V34.341H3.27345C3.09145 34.029 2.85745 33.691 2.64945 33.418L4.02745 33.041C4.36545 33.418 4.71645 33.938 4.89845 34.289L4.74245 34.341H6.14645V32.989H7.68045V34.341H9.11045C9.39645 33.951 9.74745 33.405 9.92945 33.002L11.5155 33.379C11.2555 33.743 10.9825 34.068 10.7355 34.341H12.5425V36.811H11.0345V35.394H2.90945ZM4.97645 36.733V37.279H8.91545V36.733H4.97645ZM10.4495 38.137H3.54645V35.875H10.4495V38.137ZM4.26145 41.933V42.401H9.74745V41.933H4.26145ZM4.26145 40.672V41.127H9.74745V40.672H4.26145ZM4.26145 39.411V39.866H9.74745V39.411H4.26145ZM11.2815 43.246H9.37045C10.5925 43.584 11.9185 44.013 12.7375 44.325L11.1255 45.144C10.3455 44.806 8.98045 44.312 7.62845 43.922L8.62945 43.246H4.91145L6.26345 43.753C5.27545 44.429 3.62445 44.923 2.27245 45.222C2.01245 44.897 1.45345 44.325 1.12845 44.065C2.41545 43.909 3.85845 43.623 4.66445 43.246H2.79245V38.579H11.2815V43.246ZM25.8155 40.334V41.816H23.2805C23.0595 43.298 22.7865 44.078 22.4225 44.468C22.0325 44.897 21.6555 45.027 21.0575 45.092C20.5635 45.144 19.7055 45.131 18.8475 45.092C18.8215 44.637 18.6005 43.987 18.3015 43.545C19.1985 43.623 20.0695 43.636 20.4465 43.636C20.7195 43.636 20.9015 43.61 21.0835 43.454C21.3175 43.259 21.5125 42.739 21.6815 41.816H14.1025V40.334H21.8895C21.9415 39.918 21.9805 39.463 22.0195 38.956H17.5215L17.3915 39.502L15.7535 39.372C16.1955 37.721 16.7285 35.03 17.0275 32.976L18.6395 33.119C18.5615 33.6 18.4705 34.107 18.3795 34.627H24.3985V36.109H18.1065C18.0155 36.59 17.9245 37.071 17.8205 37.526H23.7095C23.7095 37.526 23.6835 37.994 23.6575 38.189C23.5925 38.995 23.5275 39.71 23.4625 40.334H25.8155ZM27.7135 40.477C27.7135 38.527 28.0905 36.096 28.2465 35.108C28.2985 34.744 28.3635 34.25 28.3635 33.847L30.1575 34.003C30.0535 34.263 29.8975 34.913 29.8455 35.147C29.6505 36.005 29.2345 38.839 29.2345 40.126C29.2345 40.386 29.2475 40.698 29.2865 40.958C29.4555 40.503 29.6635 40.074 29.8585 39.645L30.6515 40.282C30.2875 41.335 29.8715 42.648 29.7285 43.35C29.6895 43.506 29.6635 43.727 29.6635 43.883C29.6635 44.052 29.6635 44.26 29.6765 44.481L28.2205 44.585C27.9605 43.688 27.7135 42.219 27.7135 40.477ZM31.0935 42.427C31.0935 41.114 32.1985 40.217 33.9535 40.217C34.2525 40.217 34.5385 40.23 34.7985 40.269C34.7595 39.476 34.7205 38.54 34.7075 37.63C34.3955 37.643 34.0835 37.643 33.7845 37.643C33.0305 37.643 32.3025 37.617 31.5355 37.565V36.031C32.2765 36.109 33.0175 36.148 33.7845 36.148C34.0835 36.148 34.3955 36.148 34.6945 36.135C34.6815 35.498 34.6815 34.978 34.6685 34.705C34.6685 34.51 34.6295 34.12 34.5905 33.86H36.4365C36.3975 34.107 36.3715 34.419 36.3585 34.692C36.3455 34.978 36.3195 35.459 36.3195 36.031C37.0215 35.953 37.6975 35.862 38.3085 35.732V37.331C37.6845 37.422 37.0085 37.5 36.3065 37.552C36.3325 38.8 36.3975 39.827 36.4495 40.698C37.5285 41.14 38.3345 41.803 38.9325 42.362L38.0615 43.714C37.5285 43.207 37.0085 42.778 36.5015 42.427C36.4235 43.649 35.7215 44.533 33.9795 44.533C32.2115 44.533 31.0935 43.779 31.0935 42.427ZM32.6015 42.258C32.6015 42.778 33.1215 43.012 33.7975 43.012C34.5905 43.012 34.8635 42.596 34.8635 41.842V41.621C34.5255 41.53 34.1745 41.478 33.8235 41.478C33.0955 41.478 32.6015 41.777 32.6015 42.258ZM43.5995 40.88H45.8485V38.904H43.5995V40.88ZM51.8935 40.88V42.362H47.4475V45.144H45.8485V42.362H39.9985V40.88H42.0525V37.474H45.8485V35.914H43.0665C42.5335 36.837 41.9095 37.669 41.2985 38.28C40.9995 38.02 40.3365 37.5 39.9595 37.279C41.1295 36.291 42.1305 34.627 42.6895 32.95L44.2625 33.353C44.1455 33.717 44.0025 34.068 43.8335 34.419H51.1785V35.914H47.4475V37.474H50.8795V38.904H47.4475V40.88H51.8935ZM52.8165 43.064L53.7005 41.855C54.2855 42.44 55.0265 42.934 56.0535 42.934C57.1715 42.934 57.9905 42.18 57.9905 40.88C57.9905 39.606 57.2495 38.878 56.1315 38.878C55.4945 38.878 55.1435 39.047 54.5325 39.437L53.6485 38.865L53.9475 33.847H59.3945V35.433H55.5725L55.3515 37.838C55.7805 37.63 56.1835 37.526 56.6905 37.526C58.4325 37.526 59.8885 38.553 59.8885 40.828C59.8885 43.142 58.1725 44.481 56.2875 44.481C54.6365 44.481 53.5835 43.818 52.8165 43.064ZM61.1092 39.489C61.9672 37.916 63.2152 37.136 64.6062 37.136C65.8282 37.136 66.7512 37.604 67.6482 38.553C68.2462 39.164 68.7402 39.528 69.6502 39.528C70.5342 39.528 71.3142 38.865 71.8212 37.916L73.1212 38.631C72.2632 40.204 71.0152 40.984 69.6242 40.984C68.4022 40.984 67.4792 40.516 66.5822 39.567C65.9842 38.956 65.5032 38.592 64.5802 38.592C63.6962 38.592 62.9162 39.255 62.4092 40.204L61.1092 39.489ZM73.9922 43.064L74.8762 41.855C75.4612 42.44 76.2022 42.934 77.2292 42.934C78.3472 42.934 79.1662 42.18 79.1662 40.88C79.1662 39.606 78.4252 38.878 77.3072 38.878C76.6702 38.878 76.3192 39.047 75.7082 39.437L74.8242 38.865L75.1232 33.847H80.5702V35.433H76.7482L76.5272 37.838C76.9562 37.63 77.3592 37.526 77.8662 37.526C79.6082 37.526 81.0642 38.553 81.0642 40.828C81.0642 43.142 79.3482 44.481 77.4632 44.481C75.8122 44.481 74.7592 43.818 73.9922 43.064ZM82.805 43.194C82.805 42.453 83.338 41.92 84.014 41.92C84.69 41.92 85.223 42.453 85.223 43.194C85.223 43.922 84.69 44.455 84.014 44.455C83.338 44.455 82.805 43.922 82.805 43.194ZM86.586 43.064L87.47 41.855C88.055 42.44 88.796 42.934 89.823 42.934C90.941 42.934 91.76 42.18 91.76 40.88C91.76 39.606 91.019 38.878 89.901 38.878C89.264 38.878 88.913 39.047 88.302 39.437L87.418 38.865L87.717 33.847H93.164V35.433H89.342L89.121 37.838C89.55 37.63 89.953 37.526 90.46 37.526C92.202 37.526 93.658 38.553 93.658 40.828C93.658 43.142 91.942 44.481 90.057 44.481C88.406 44.481 87.353 43.818 86.586 43.064ZM95.6458 40.672C96.4908 40.035 97.1668 39.164 97.6218 38.462C97.9858 37.903 98.2068 37.318 98.3498 36.798C98.4408 36.499 98.5058 36.122 98.5318 35.849L100.352 36.226C100.235 36.525 100.131 36.759 100.053 36.993C99.9618 37.227 99.8448 37.526 99.7018 37.825H104.46C104.746 37.825 105.266 37.812 105.604 37.76V39.346C105.214 39.307 104.72 39.294 104.46 39.294H102.874C102.653 42.063 101.6 44 99.5328 45.274L97.9208 44.195C98.2848 44.039 98.7788 43.753 99.0908 43.506C100.17 42.622 101.028 41.374 101.236 39.294H98.9608C98.4668 40.1 97.6998 41.088 97.1668 41.556L95.6458 40.672ZM111.35 39.749H116.654V38.163H111.441C111.428 38.657 111.402 39.203 111.35 39.749ZM116.654 35.108H111.441V36.694H116.654V35.108ZM118.292 33.6V43.155C118.292 44.091 118.071 44.533 117.473 44.793C116.849 45.066 115.939 45.092 114.6 45.092C114.509 44.637 114.197 43.896 113.95 43.467C114.86 43.519 115.952 43.506 116.238 43.506C116.55 43.506 116.654 43.402 116.654 43.129V41.244H111.09C110.752 42.7 110.102 44.117 108.893 45.131C108.659 44.806 108.035 44.234 107.697 44.013C109.66 42.336 109.842 39.853 109.842 37.877V33.6H118.292ZM127.795 33.743L129.316 33.132C130.135 34.783 131.76 36.668 133.177 37.76C132.761 38.085 132.163 38.709 131.864 39.151C131.591 38.904 131.318 38.618 131.032 38.319V38.41C130.889 42.336 130.733 43.87 130.278 44.416C129.953 44.832 129.602 44.962 129.095 45.027C128.653 45.092 127.899 45.092 127.132 45.066C127.106 44.598 126.898 43.948 126.625 43.506C127.34 43.558 128.016 43.571 128.341 43.571C128.575 43.571 128.718 43.545 128.861 43.389C129.121 43.116 129.264 41.959 129.381 39.242H126.82C126.495 41.738 125.65 43.961 122.283 45.222C122.088 44.78 121.633 44.143 121.256 43.792C124.194 42.843 124.87 41.14 125.13 39.242H122.933V38.332C122.595 38.683 122.244 38.995 121.893 39.268C121.607 38.917 120.944 38.293 120.567 38.02C122.192 36.928 123.622 35.134 124.402 33.158L126.066 33.639C125.429 35.134 124.519 36.564 123.492 37.734H130.512C129.485 36.538 128.51 35.108 127.795 33.743ZM133.944 41.972L135.166 40.919C136.089 41.673 137.311 42.934 138.013 43.779L136.765 44.845C135.959 43.857 134.854 42.739 133.944 41.972ZM155.095 38.046H153.08C152.95 39.58 152.521 41.4 151.273 42.687C151.065 42.349 150.519 41.816 150.155 41.621C151.481 40.204 151.637 38.254 151.637 36.746V33.782L152.963 34.029C154.497 33.769 156.07 33.405 157.071 33.002L158.345 34.185C156.837 34.718 154.9 35.082 153.132 35.316V36.616H158.8V38.046H156.629V42.895H155.095V38.046ZM150.324 35.251L149.102 36.278C148.699 35.654 147.776 34.796 147.009 34.224L148.153 33.288C148.933 33.834 149.882 34.64 150.324 35.251ZM149.999 38.033V42.115C150.532 42.986 151.507 43.337 152.859 43.389C154.38 43.454 157.305 43.415 159.034 43.285C158.865 43.649 158.631 44.403 158.553 44.845C156.993 44.923 154.38 44.949 152.833 44.884C151.234 44.819 150.168 44.455 149.323 43.441C148.751 43.948 148.179 44.455 147.464 45.001L146.71 43.389C147.269 43.064 147.919 42.635 148.491 42.193V39.45H146.996V38.033H149.999ZM163.545 40.88H165.794V38.904H163.545V40.88ZM171.839 40.88V42.362H167.393V45.144H165.794V42.362H159.944V40.88H161.998V37.474H165.794V35.914H163.012C162.479 36.837 161.855 37.669 161.244 38.28C160.945 38.02 160.282 37.5 159.905 37.279C161.075 36.291 162.076 34.627 162.635 32.95L164.208 33.353C164.091 33.717 163.948 34.068 163.779 34.419H171.124V35.914H167.393V37.474H170.825V38.904H167.393V40.88H171.839ZM173.256 39.892C173.256 36.928 175.843 34.38 179.184 34.38C182.369 34.38 184.384 36.603 184.384 39.411C184.384 42.115 182.72 44.039 179.47 44.533L178.508 43.012C179.002 42.947 179.366 42.882 179.704 42.804C181.355 42.414 182.629 41.231 182.629 39.359C182.629 37.578 181.667 36.252 179.938 35.953C179.756 37.045 179.535 38.241 179.171 39.45C178.404 42.05 177.286 43.636 175.882 43.636C174.465 43.636 173.256 42.063 173.256 39.892ZM174.933 39.723C174.933 41.023 175.453 41.66 175.934 41.66C176.467 41.66 176.987 40.854 177.507 39.112C177.806 38.163 178.04 37.058 178.196 35.992C176.064 36.434 174.933 38.306 174.933 39.723ZM188.765 36.473V37.136H194.901V36.473H188.765ZM188.765 34.692V35.355H194.901V34.692H188.765ZM197.8 40.867V42.219H195.278V45.105H193.692V42.219H190.702C190.442 43.376 189.623 44.468 187.361 45.131C187.192 44.767 186.75 44.169 186.451 43.883C188.011 43.467 188.726 42.869 189.038 42.219H185.983V40.867H189.285V40.191C188.544 40.295 187.816 40.373 187.114 40.425C187.049 40.1 186.867 39.567 186.698 39.268C188.479 39.099 190.468 38.774 191.625 38.345H187.257V33.483H196.487V38.345H191.677L192.808 39.411C192.223 39.619 191.534 39.788 190.819 39.931V40.867H193.692V38.644H195.278V40.867H197.8ZM199.308 40.594L200.582 40.815C200.452 42.037 200.179 43.337 199.802 44.169C199.529 44 198.957 43.727 198.619 43.61C198.996 42.843 199.204 41.686 199.308 40.594ZM202.129 40.828L203.221 40.49C203.546 41.231 203.884 42.18 204.027 42.83L202.883 43.246C202.766 42.596 202.428 41.595 202.129 40.828ZM201.856 37.617L202.883 37.188C203.377 38.072 203.884 39.203 204.027 39.944L202.935 40.438C202.896 40.243 202.844 40.022 202.766 39.775L202.103 39.827V45.144H200.764V39.918L198.879 40.035L198.749 38.696L199.685 38.657C199.88 38.41 200.088 38.124 200.296 37.825C199.919 37.266 199.295 36.577 198.762 36.057L199.503 35.004C199.594 35.082 199.698 35.173 199.802 35.264C200.166 34.549 200.53 33.691 200.751 33.002L202.09 33.496C201.622 34.38 201.102 35.394 200.634 36.109C200.79 36.291 200.946 36.46 201.076 36.629C201.518 35.901 201.934 35.16 202.233 34.523L203.494 35.108C202.779 36.239 201.882 37.552 201.063 38.605L202.311 38.553C202.168 38.228 202.012 37.903 201.856 37.617ZM208.629 41.049H205.769V43.077H208.629V41.049ZM204.339 45.118V39.684H210.111V45.066H208.629V44.429H205.769V45.118H204.339ZM205.262 37.136H208.98C208.239 36.343 207.537 35.459 207.069 34.731C206.627 35.459 206.003 36.343 205.262 37.136ZM206.289 33.171H207.758C208.629 34.536 209.942 36.083 211.203 36.876C210.878 37.266 210.514 37.838 210.254 38.319C209.942 38.072 209.617 37.786 209.305 37.474V38.54H205.028V37.383C204.664 37.76 204.287 38.098 203.897 38.397C203.702 37.994 203.312 37.383 203.013 37.045C204.326 36.096 205.652 34.393 206.289 33.171ZM215.415 39.385L216.104 39.359C216.351 39.125 216.598 38.878 216.845 38.631C216.377 38.228 215.753 37.773 215.207 37.422L214.258 38.215C213.855 37.799 212.997 37.175 212.308 36.785L213.335 35.94C213.933 36.265 214.726 36.772 215.207 37.175L215.805 36.447L216.117 36.642C216.338 36.317 216.546 35.966 216.728 35.641H212.477V34.263H217.053V33.002H218.639V34.263H223.332V35.641H217.95L218.236 35.745C217.833 36.265 217.404 36.798 217.027 37.24C217.261 37.409 217.482 37.565 217.677 37.721C218.132 37.188 218.535 36.668 218.86 36.2L220.069 36.759C219.354 37.604 218.483 38.514 217.651 39.294L218.99 39.229C218.847 38.982 218.678 38.748 218.522 38.527L219.614 38.072C219.822 38.345 220.056 38.657 220.264 38.969L221.057 38.332C221.954 38.774 223.163 39.489 223.774 39.996L222.656 40.919C222.214 40.529 221.382 39.957 220.589 39.502C220.784 39.84 220.94 40.165 221.031 40.438L219.861 40.958C219.796 40.763 219.705 40.542 219.588 40.308C218.015 40.451 216.429 40.568 215.181 40.659L215.025 39.762C214.206 40.165 213.348 40.568 212.646 40.88L211.918 39.632C212.737 39.372 213.985 38.891 215.181 38.423L215.415 39.385ZM221.421 38.072L220.29 37.461C220.875 37.019 221.603 36.343 222.045 35.81L223.423 36.473C222.76 37.084 222.006 37.669 221.421 38.072ZM218.639 40.555V41.387H223.735V42.817H218.639V45.131H217.053V42.817H212.061V41.387H217.053V40.555H218.639ZM225.659 40.477C225.659 38.527 226.036 36.096 226.192 35.108C226.244 34.744 226.309 34.25 226.309 33.847L228.103 34.003C227.999 34.263 227.843 34.913 227.791 35.147C227.596 36.005 227.18 38.839 227.18 40.126C227.18 40.386 227.193 40.698 227.232 40.958C227.401 40.503 227.609 40.074 227.804 39.645L228.597 40.282C228.233 41.335 227.817 42.648 227.674 43.35C227.635 43.506 227.609 43.727 227.609 43.883C227.609 44.052 227.609 44.26 227.622 44.481L226.166 44.585C225.906 43.688 225.659 42.219 225.659 40.477ZM229.039 42.427C229.039 41.114 230.144 40.217 231.899 40.217C232.198 40.217 232.484 40.23 232.744 40.269C232.705 39.476 232.666 38.54 232.653 37.63C232.341 37.643 232.029 37.643 231.73 37.643C230.976 37.643 230.248 37.617 229.481 37.565V36.031C230.222 36.109 230.963 36.148 231.73 36.148C232.029 36.148 232.341 36.148 232.64 36.135C232.627 35.498 232.627 34.978 232.614 34.705C232.614 34.51 232.575 34.12 232.536 33.86H234.382C234.343 34.107 234.317 34.419 234.304 34.692C234.291 34.978 234.265 35.459 234.265 36.031C234.967 35.953 235.643 35.862 236.254 35.732V37.331C235.63 37.422 234.954 37.5 234.252 37.552C234.278 38.8 234.343 39.827 234.395 40.698C235.474 41.14 236.28 41.803 236.878 42.362L236.007 43.714C235.474 43.207 234.954 42.778 234.447 42.427C234.369 43.649 233.667 44.533 231.925 44.533C230.157 44.533 229.039 43.779 229.039 42.427ZM230.547 42.258C230.547 42.778 231.067 43.012 231.743 43.012C232.536 43.012 232.809 42.596 232.809 41.842V41.621C232.471 41.53 232.12 41.478 231.769 41.478C231.041 41.478 230.547 41.777 230.547 42.258ZM237.762 43.064L238.646 41.855C239.231 42.44 239.972 42.934 240.999 42.934C242.117 42.934 242.936 42.18 242.936 40.88C242.936 39.606 242.195 38.878 241.077 38.878C240.44 38.878 240.089 39.047 239.478 39.437L238.594 38.865L238.893 33.847H244.34V35.433H240.518L240.297 37.838C240.726 37.63 241.129 37.526 241.636 37.526C243.378 37.526 244.834 38.553 244.834 40.828C244.834 43.142 243.118 44.481 241.233 44.481C239.582 44.481 238.529 43.818 237.762 43.064ZM246.302 37.097C246.302 35.173 247.238 34.068 248.603 34.068C249.968 34.068 250.904 35.173 250.904 37.097C250.904 39.034 249.968 40.165 248.603 40.165C247.238 40.165 246.302 39.034 246.302 37.097ZM247.524 37.097C247.524 38.54 247.992 39.164 248.603 39.164C249.227 39.164 249.682 38.54 249.682 37.097C249.682 35.654 249.227 35.056 248.603 35.056C247.992 35.056 247.524 35.654 247.524 37.097ZM248.915 44.052L254.167 34.068H255.22L249.955 44.052H248.915ZM253.218 40.997C253.218 39.073 254.18 37.955 255.532 37.955C256.884 37.955 257.833 39.073 257.833 40.997C257.833 42.921 256.884 44.052 255.532 44.052C254.18 44.052 253.218 42.921 253.218 40.997ZM254.453 40.997C254.453 42.44 254.908 43.064 255.532 43.064C256.156 43.064 256.611 42.44 256.611 40.997C256.611 39.541 256.156 38.943 255.532 38.943C254.908 38.943 254.453 39.541 254.453 40.997ZM262.981 40.971V43.025C263.683 43.259 264.567 43.324 265.633 43.324C266.621 43.337 270.092 43.337 271.262 43.272C271.041 43.636 270.781 44.338 270.677 44.806H265.633C263.215 44.806 261.668 44.481 260.641 43.025C260.498 43.831 260.303 44.533 260.043 45.131C259.783 44.949 259.133 44.585 258.808 44.455C259.458 43.168 259.562 41.075 259.575 38.865L260.927 38.956C260.927 39.554 260.901 40.152 260.875 40.724C261.07 41.309 261.304 41.764 261.603 42.102V38.215H259.159V36.85H261.356V35.654H259.458V34.315H261.356V33.002H262.786V34.315H264.632V35.654H262.786V36.85H264.853V37.175C265.711 36.629 266.179 35.836 266.4 34.757H265.009V33.47H270.742C270.742 33.47 270.742 33.821 270.729 34.003C270.638 36.161 270.521 37.11 270.209 37.474C269.975 37.76 269.689 37.864 269.338 37.916C269.013 37.955 268.48 37.968 267.895 37.942C267.882 37.552 267.726 36.993 267.518 36.642C267.973 36.694 268.376 36.694 268.571 36.694C268.727 36.694 268.844 36.668 268.948 36.564C269.065 36.395 269.156 35.914 269.221 34.757H267.843C267.544 36.395 266.842 37.526 265.659 38.28C265.49 38.111 265.152 37.838 264.853 37.617V38.215H262.981V39.632H264.697V40.971H262.981ZM266.79 39.684V41.296H268.896V39.684H266.79ZM265.347 42.531V38.436H270.43V42.531H265.347ZM272.016 42.856C272.016 41.712 272.939 40.789 274.07 40.789C275.214 40.789 276.15 41.712 276.15 42.856C276.15 44 275.214 44.936 274.07 44.936C272.939 44.936 272.016 44 272.016 42.856ZM272.874 42.856C272.874 43.532 273.42 44.065 274.07 44.065C274.746 44.065 275.279 43.532 275.279 42.856C275.279 42.193 274.746 41.66 274.07 41.66C273.42 41.66 272.874 42.193 272.874 42.856ZM92.357 53.19C92.357 51.55 92.787 49.92 93.667 48.48H94.847C93.957 49.99 93.517 51.6 93.517 53.2C93.517 54.8 93.967 56.41 94.847 57.92H93.667C92.787 56.48 92.357 54.83 92.357 53.19ZM95.7613 50.25C96.4813 49.49 97.1913 49.04 98.2713 49.04C99.7713 49.04 100.751 50.01 100.751 51.49C100.751 52.98 99.5313 54.56 97.9613 56.08C98.3713 56.03 98.8813 55.99 99.2613 55.99H101.131V57.22H95.8313V56.38C98.0913 54.37 99.3513 52.83 99.3513 51.56C99.3513 50.73 98.9013 50.19 98.0813 50.19C97.4813 50.19 96.9713 50.57 96.5613 51.04L95.7613 50.25ZM102.14 53.17C102.14 50.39 103.2 49.04 104.81 49.04C106.41 49.04 107.47 50.41 107.47 53.17C107.47 55.95 106.41 57.37 104.81 57.37C103.2 57.37 102.14 55.95 102.14 53.17ZM103.52 53.17C103.52 55.45 104.06 56.23 104.81 56.23C105.55 56.23 106.1 55.45 106.1 53.17C106.1 50.9 105.55 50.17 104.81 50.17C104.06 50.17 103.52 50.9 103.52 53.17ZM108.339 50.25C109.059 49.49 109.769 49.04 110.849 49.04C112.349 49.04 113.329 50.01 113.329 51.49C113.329 52.98 112.109 54.56 110.539 56.08C110.949 56.03 111.459 55.99 111.839 55.99H113.709V57.22H108.409V56.38C110.669 54.37 111.929 52.83 111.929 51.56C111.929 50.73 111.479 50.19 110.659 50.19C110.059 50.19 109.549 50.57 109.139 51.04L108.339 50.25ZM114.629 50.25C115.349 49.49 116.059 49.04 117.139 49.04C118.639 49.04 119.619 50.01 119.619 51.49C119.619 52.98 118.399 54.56 116.829 56.08C117.239 56.03 117.749 55.99 118.129 55.99H119.999V57.22H114.699V56.38C116.959 54.37 118.219 52.83 118.219 51.56C118.219 50.73 117.769 50.19 116.949 50.19C116.349 50.19 115.839 50.57 115.429 51.04L114.629 50.25ZM123.718 54.6H125.448V53.08H123.718V54.6ZM130.098 54.6V55.74H126.678V57.88H125.448V55.74H120.948V54.6H122.528V51.98H125.448V50.78H123.308C122.898 51.49 122.418 52.13 121.948 52.6C121.718 52.4 121.208 52 120.918 51.83C121.818 51.07 122.588 49.79 123.018 48.5L124.228 48.81C124.138 49.09 124.028 49.36 123.898 49.63H129.548V50.78H126.678V51.98H129.318V53.08H126.678V54.6H130.098ZM131.048 53.82V52.77H133.978V53.82H131.048ZM134.882 50.25C135.602 49.49 136.312 49.04 137.392 49.04C138.892 49.04 139.872 50.01 139.872 51.49C139.872 52.98 138.652 54.56 137.082 56.08C137.492 56.03 138.002 55.99 138.382 55.99H140.252V57.22H134.952V56.38C137.212 54.37 138.472 52.83 138.472 51.56C138.472 50.73 138.022 50.19 137.202 50.19C136.602 50.19 136.092 50.57 135.682 51.04L134.882 50.25ZM141.261 53.17C141.261 50.39 142.321 49.04 143.931 49.04C145.531 49.04 146.591 50.41 146.591 53.17C146.591 55.95 145.531 57.37 143.931 57.37C142.321 57.37 141.261 55.95 141.261 53.17ZM142.641 53.17C142.641 55.45 143.181 56.23 143.931 56.23C144.671 56.23 145.221 55.45 145.221 53.17C145.221 50.9 144.671 50.17 143.931 50.17C143.181 50.17 142.641 50.9 142.641 53.17ZM147.461 50.25C148.181 49.49 148.891 49.04 149.971 49.04C151.471 49.04 152.451 50.01 152.451 51.49C152.451 52.98 151.231 54.56 149.661 56.08C150.071 56.03 150.581 55.99 150.961 55.99H152.831V57.22H147.531V56.38C149.791 54.37 151.051 52.83 151.051 51.56C151.051 50.73 150.601 50.19 149.781 50.19C149.181 50.19 148.671 50.57 148.261 51.04L147.461 50.25ZM153.57 55.1V54.12L156.65 49.19H158.36V53.99H159.35V55.1H158.36V57.22H157.01V55.1H153.57ZM155 53.99H157.01V52.15C157.01 51.7 157.06 50.99 157.08 50.54H157.03C156.83 50.96 156.62 51.39 156.39 51.81L155 53.99ZM162.839 54.6H164.569V53.08H162.839V54.6ZM169.219 54.6V55.74H165.799V57.88H164.569V55.74H160.069V54.6H161.649V51.98H164.569V50.78H162.429C162.019 51.49 161.539 52.13 161.069 52.6C160.839 52.4 160.329 52 160.039 51.83C160.939 51.07 161.709 49.79 162.139 48.5L163.349 48.81C163.259 49.09 163.149 49.36 163.019 49.63H168.669V50.78H165.799V51.98H168.439V53.08H165.799V54.6H169.219ZM171.549 51.24H173.989V50.67H175.179V51.24H177.669V50.45H171.549V51.24ZM179.039 55.42H175.759C176.469 56.22 177.589 56.68 179.169 56.85C178.929 57.1 178.619 57.57 178.469 57.89C176.569 57.59 175.379 56.88 174.589 55.64C173.999 56.53 172.889 57.32 170.849 57.87C170.709 57.61 170.369 57.16 170.109 56.91C171.789 56.53 172.749 56.01 173.299 55.42H170.289V54.39H173.879C173.929 54.18 173.959 53.97 173.979 53.76H171.419V52.8H173.989V52.2H171.259V51.54H170.369V49.41H174.019V48.54H175.239V49.41H178.899V51.54H178.099V52.2H175.179V52.8H177.899V53.76H175.169C175.159 53.97 175.139 54.18 175.089 54.39H179.039V55.42ZM185.789 50.05V49.71H183.779V48.99H185.789V48.54H186.979V48.99H189.059V49.71H186.979V50.05H188.819V50.74H186.979V51.08H189.249V51.82H183.529V51.08H185.789V50.74H184.019V50.05H185.789ZM180.309 54.38L181.259 54.54C181.169 55.49 180.949 56.48 180.669 57.12C180.469 56.98 180.039 56.79 179.799 56.7C180.089 56.11 180.229 55.22 180.309 54.38ZM182.969 53.69L182.419 53.74V57.87H181.399V53.82L179.969 53.92L179.889 52.89L180.609 52.85C180.759 52.67 180.909 52.47 181.059 52.26C180.779 51.81 180.319 51.27 179.919 50.86L180.499 50.06C180.569 50.13 180.649 50.2 180.729 50.27C181.009 49.72 181.289 49.05 181.449 48.54L182.479 48.9C182.129 49.59 181.719 50.38 181.349 50.94C181.469 51.07 181.579 51.21 181.669 51.33C182.019 50.77 182.339 50.2 182.569 49.71L183.539 50.16C182.989 51 182.309 51.99 181.679 52.79L182.609 52.73C182.509 52.5 182.399 52.28 182.289 52.07L183.139 51.73C183.509 52.4 183.889 53.27 183.999 53.83L183.109 54.23C183.079 54.07 183.029 53.89 182.969 53.69ZM182.529 54.55L183.359 54.3C183.599 54.86 183.809 55.58 183.869 56.06L182.989 56.35C182.949 55.86 182.759 55.12 182.529 54.55ZM185.209 55.1V55.52H187.639V55.1H185.209ZM185.209 53.99V54.42H187.639V53.99H185.209ZM185.209 52.89V53.31H187.639V52.89H185.209ZM188.769 56.26H187.699C188.309 56.62 188.999 57.04 189.399 57.32L188.359 57.88C187.989 57.57 187.299 57.08 186.709 56.71L187.329 56.26H185.509L186.179 56.7C185.569 57.17 184.579 57.65 183.779 57.91C183.599 57.7 183.269 57.38 183.049 57.17C183.729 56.97 184.519 56.6 185.019 56.26H184.149V52.16H188.769V56.26ZM190.169 57.92C191.059 56.41 191.499 54.8 191.499 53.2C191.499 51.6 191.059 49.99 190.169 48.48H191.349C192.239 49.93 192.679 51.56 192.679 53.19C192.679 54.83 192.239 56.47 191.349 57.92H190.169ZM23.3667 72.658V71.462H32.7787C32.1937 71.033 31.4527 70.279 30.9457 69.577L32.0117 68.979C32.8957 70.123 34.2217 71.306 35.3917 72.06C34.2217 72.814 32.8957 73.997 32.0117 75.141L30.9457 74.543C31.4527 73.841 32.1937 73.087 32.7787 72.658H23.3667ZM40.6958 68.225C41.6318 67.237 42.5548 66.652 43.9588 66.652C45.9088 66.652 47.1828 67.913 47.1828 69.837C47.1828 71.774 45.5968 73.828 43.5558 75.804C44.0888 75.739 44.7518 75.687 45.2458 75.687H47.6768V77.286H40.7868V76.194C43.7248 73.581 45.3628 71.579 45.3628 69.928C45.3628 68.849 44.7778 68.147 43.7118 68.147C42.9318 68.147 42.2688 68.641 41.7358 69.252L40.6958 68.225ZM48.9886 72.021C48.9886 68.407 50.3666 66.652 52.4596 66.652C54.5396 66.652 55.9176 68.433 55.9176 72.021C55.9176 75.635 54.5396 77.481 52.4596 77.481C50.3666 77.481 48.9886 75.635 48.9886 72.021ZM50.7826 72.021C50.7826 74.985 51.4846 75.999 52.4596 75.999C53.4216 75.999 54.1366 74.985 54.1366 72.021C54.1366 69.07 53.4216 68.121 52.4596 68.121C51.4846 68.121 50.7826 69.07 50.7826 72.021ZM57.0473 68.225C57.9833 67.237 58.9063 66.652 60.3103 66.652C62.2603 66.652 63.5343 67.913 63.5343 69.837C63.5343 71.774 61.9483 73.828 59.9073 75.804C60.4403 75.739 61.1033 75.687 61.5973 75.687H64.0283V77.286H57.1383V76.194C60.0763 73.581 61.7143 71.579 61.7143 69.928C61.7143 68.849 61.1293 68.147 60.0633 68.147C59.2833 68.147 58.6203 68.641 58.0873 69.252L57.0473 68.225ZM64.9891 74.53V73.256L68.9931 66.847H71.2161V73.087H72.5031V74.53H71.2161V77.286H69.4611V74.53H64.9891ZM66.8481 73.087H69.4611V70.695C69.4611 70.11 69.5261 69.187 69.5521 68.602H69.4871C69.2271 69.148 68.9541 69.707 68.6551 70.253L66.8481 73.087ZM77.0389 73.88H79.2879V71.904H77.0389V73.88ZM85.3329 73.88V75.362H80.8869V78.144H79.2879V75.362H73.4379V73.88H75.4919V70.474H79.2879V68.914H76.5059C75.9729 69.837 75.3489 70.669 74.7379 71.28C74.4389 71.02 73.7759 70.5 73.3989 70.279C74.5689 69.291 75.5699 67.627 76.1289 65.95L77.7019 66.353C77.5849 66.717 77.4419 67.068 77.2729 67.419H84.6179V68.914H80.8869V70.474H84.3189V71.904H80.8869V73.88H85.3329ZM88.8299 68.537V70.799C88.8299 72.905 88.6349 76.09 87.4519 78.092C87.1919 77.832 86.5419 77.403 86.1909 77.247C87.2699 75.401 87.3479 72.697 87.3479 70.799V67.159H91.9759V66.002H93.5879V67.159H98.2029V68.537H88.8299ZM94.7319 70.851H92.3659V71.709H94.7319V70.851ZM96.2659 72.879H90.9099V70.851H89.1549V69.629H90.9099V68.771H92.3659V69.629H94.7319V68.771H96.2659V69.629H98.1379V70.851H96.2659V72.879ZM95.2129 74.608H92.1319C92.5219 75.024 93.0419 75.375 93.6529 75.674C94.2509 75.388 94.7839 75.024 95.2129 74.608ZM96.5259 73.334L97.4879 73.815C96.9679 74.855 96.2009 75.661 95.2649 76.285C96.2139 76.558 97.2929 76.74 98.4629 76.844C98.1509 77.169 97.7479 77.767 97.5529 78.17C96.0579 77.988 94.7319 77.65 93.6009 77.143C92.3269 77.65 90.8709 77.962 89.3239 78.157C89.2069 77.767 88.9339 77.182 88.6999 76.857C89.8959 76.753 91.0399 76.571 92.0669 76.272C91.4949 75.869 90.9879 75.388 90.5719 74.829L91.1829 74.608H89.2459V73.399H96.2529L96.5259 73.334ZM99.4119 71.098H111.372V72.775H99.4119V71.098ZM117.365 66.002H119.146C119.133 66.548 119.107 67.25 119.055 68.03C119.237 69.785 120.03 74.686 124.567 76.688C124.086 77.065 123.644 77.585 123.436 78.027C120.55 76.649 119.107 74.114 118.353 71.878C117.638 74.166 116.273 76.519 113.569 78.105C113.296 77.689 112.802 77.195 112.282 76.844C117.56 74.023 117.313 68.199 117.365 66.002ZM137.294 72.268V73.841H132.185V78.131H130.573V73.841H125.516V72.268H130.573V68.329H126.192V66.795H136.54V68.329H132.185V72.268H137.294ZM126.985 69.161L128.402 68.745C128.831 69.577 129.299 70.669 129.442 71.397L127.934 71.865C127.804 71.176 127.401 70.032 126.985 69.161ZM134.577 71.839L133.225 71.449C133.641 70.695 134.109 69.551 134.356 68.706L136.007 69.122C135.539 70.123 135.006 71.176 134.577 71.839ZM147.538 73.113L147.798 74.413C146.342 75.024 144.756 75.661 143.521 76.155L142.91 74.699C144.054 74.348 145.848 73.724 147.538 73.113ZM145.211 68.056H150.229C150.229 68.056 150.216 68.589 150.216 68.797C150.047 74.582 149.865 76.662 149.345 77.351C148.994 77.845 148.656 77.988 148.123 78.079C147.655 78.157 146.901 78.144 146.16 78.118C146.134 77.663 145.926 77 145.64 76.545C146.394 76.61 147.083 76.61 147.421 76.61C147.642 76.61 147.798 76.571 147.954 76.376C148.331 75.973 148.513 74.088 148.656 69.525H144.535C144.301 69.954 144.067 70.344 143.82 70.708H147.395V72.086H143.599V71.007C143.469 71.176 143.352 71.332 143.222 71.475C142.936 71.202 142.273 70.708 141.896 70.487L142.039 70.344H141.376V73.347C141.818 73.165 142.26 72.996 142.689 72.814L143.027 74.244C141.571 74.894 139.985 75.57 138.75 76.09L138.204 74.517C138.672 74.361 139.257 74.153 139.881 73.919V70.344H138.49V68.888H139.881V66.145H141.376V68.888H142.598V69.642C143.313 68.628 143.885 67.302 144.236 65.963L145.809 66.314C145.64 66.912 145.445 67.497 145.211 68.056ZM151.581 68.862V67.692C152.595 67.51 153.31 67.237 153.947 66.847H155.351V77.286H153.466V68.797L151.581 68.862ZM157.857 76.064L158.741 74.855C159.326 75.44 160.067 75.934 161.094 75.934C162.212 75.934 163.031 75.18 163.031 73.88C163.031 72.606 162.29 71.878 161.172 71.878C160.535 71.878 160.184 72.047 159.573 72.437L158.689 71.865L158.988 66.847H164.435V68.433H160.613L160.392 70.838C160.821 70.63 161.224 70.526 161.731 70.526C163.473 70.526 164.929 71.553 164.929 73.828C164.929 76.142 163.213 77.481 161.328 77.481C159.677 77.481 158.624 76.818 157.857 76.064ZM169.27 75.57H175.042V72.658H169.27V75.57ZM175.042 68.329H169.27V71.124H175.042V68.329ZM167.671 66.769H176.706V77.949H175.042V77.13H169.27V77.975H167.671V66.769ZM178.838 78.196L182.556 65.625H183.817L180.112 78.196H178.838ZM188.313 73.88H190.562V71.904H188.313V73.88ZM196.607 73.88V75.362H192.161V78.144H190.562V75.362H184.712V73.88H186.766V70.474H190.562V68.914H187.78C187.247 69.837 186.623 70.669 186.012 71.28C185.713 71.02 185.05 70.5 184.673 70.279C185.843 69.291 186.844 67.627 187.403 65.95L188.976 66.353C188.859 66.717 188.716 67.068 188.547 67.419H195.892V68.914H192.161V70.474H195.593V71.904H192.161V73.88H196.607ZM206.474 72.216V71.384H201.781V72.216H206.474ZM201.781 74.348H206.474V73.503H201.781V74.348ZM209.438 69.005H202.483C202.327 69.356 202.158 69.694 201.963 70.032H207.982V76.454C207.982 77.221 207.839 77.637 207.306 77.871C206.799 78.118 206.058 78.131 205.005 78.131C204.94 77.702 204.732 77.052 204.537 76.636C205.2 76.675 205.954 76.675 206.175 76.675C206.396 76.662 206.474 76.597 206.474 76.415V75.635H201.781V78.118H200.247V72.463C199.727 73.035 199.168 73.555 198.531 73.984C198.31 73.646 197.816 73.087 197.517 72.801C198.895 71.878 199.974 70.513 200.754 69.005H197.907V67.549H201.404C201.612 67.016 201.781 66.496 201.911 65.976L203.51 66.34C203.38 66.743 203.25 67.146 203.094 67.549H209.438V69.005ZM222.568 70.643H219.851C220.592 72.489 221.723 74.283 222.958 75.349C222.581 75.622 222.061 76.181 221.801 76.584C220.787 75.583 219.877 74.088 219.175 72.45V78.131H217.641V72.71C216.887 74.283 215.925 75.674 214.872 76.649C214.625 76.311 214.17 75.817 213.819 75.505V78.105H212.298V71.501C211.947 71.93 211.596 72.333 211.232 72.671C211.076 72.294 210.608 71.423 210.335 71.046C211.648 69.863 212.896 67.991 213.624 66.054L215.158 66.548C214.794 67.458 214.339 68.407 213.819 69.291V75.349C215.106 74.296 216.276 72.489 217.03 70.643H214.339V69.135H217.641V66.197H219.175V69.135H222.568V70.643ZM229.445 68.147V76.701C230.303 76.22 231.057 75.518 231.694 74.634C230.901 73.191 230.342 71.449 229.939 69.486L231.421 69.187C231.681 70.578 232.071 71.891 232.617 73.035C233.124 71.917 233.514 70.617 233.735 69.161H229.9V68.147H229.445ZM226.104 73.451V74.868C226.702 74.79 227.326 74.699 227.95 74.621V73.451H226.104ZM226.104 70.773V72.073H227.95V70.773H226.104ZM227.95 68.147H226.104V69.382H227.95V68.147ZM234.424 67.601L235.438 67.848C235.165 70.682 234.541 72.918 233.566 74.66C234.203 75.531 234.983 76.259 235.919 76.766C235.568 77.052 235.087 77.637 234.853 78.04C233.969 77.507 233.241 76.844 232.617 76.051C231.954 76.857 231.187 77.507 230.303 78.04C230.108 77.702 229.757 77.221 229.445 76.909V78.131H227.95V76.051C226.455 76.311 224.934 76.545 223.738 76.727L223.439 75.18C223.79 75.141 224.193 75.102 224.635 75.05V68.147H223.751V66.717H230.277V67.64H234.164L234.424 67.601ZM246.293 68.095V67.445H242.913V68.095H246.293ZM246.293 69.785V69.109H242.913V69.785H246.293ZM247.853 66.366V70.864H241.418V66.366H247.853ZM239.182 66.002L240.651 66.6C239.793 67.796 238.467 69.07 237.245 69.863C237.089 69.512 236.712 68.875 236.478 68.55C237.492 67.926 238.636 66.873 239.182 66.002ZM239.52 68.836L240.872 69.421C240.56 69.967 240.17 70.513 239.741 71.059V78.118H238.246V72.723C237.856 73.113 237.466 73.477 237.076 73.776C236.959 73.438 236.569 72.554 236.335 72.177C237.492 71.371 238.766 70.11 239.52 68.836ZM248.542 73.438L248.555 74.751H246.774V76.597C246.774 77.312 246.644 77.676 246.137 77.897C245.656 78.118 245.006 78.118 244.122 78.118C244.057 77.702 243.836 77.13 243.641 76.74C244.187 76.766 244.798 76.766 244.967 76.766C245.149 76.753 245.201 76.701 245.201 76.558V74.751H242.471C242.991 75.245 243.628 75.921 243.953 76.376L242.796 77.195C242.51 76.701 241.847 75.934 241.301 75.388L242.263 74.751H240.443V73.438H245.201V72.697H240.755V71.436H248.282V72.697H246.774V73.438H248.542ZM249.712 74.972L250.934 73.919C251.857 74.673 253.079 75.934 253.781 76.779L252.533 77.845C251.727 76.857 250.622 75.739 249.712 74.972ZM45.3641 88.42V89.915H43.8431V87.016H48.5231V86.002H50.1091V87.016H54.8671V89.915H53.2811V88.42H45.3641ZM53.6581 90.643L54.8671 91.683C54.1261 92.242 53.2291 92.827 52.4751 93.256C53.1901 94.4 54.1521 95.323 55.3741 95.869C55.0361 96.168 54.5421 96.779 54.2951 97.208C51.9811 95.973 50.6941 93.581 49.9531 90.552H49.9271C49.6021 90.825 49.2381 91.072 48.8481 91.306C51.3051 93.438 51.2011 96.675 49.9141 97.611C49.4331 98.027 49.0041 98.157 48.3281 98.157C48.0031 98.17 47.6001 98.157 47.2231 98.131C47.1971 97.702 47.0671 97.078 46.7811 96.649C47.2751 96.688 47.6911 96.714 48.0291 96.714C48.3541 96.714 48.6011 96.675 48.8091 96.441C49.1081 96.207 49.2901 95.674 49.2381 94.985C47.8211 96.025 45.8971 97 44.2721 97.559C44.0901 97.169 43.7521 96.61 43.4661 96.272C45.3381 95.804 47.6001 94.738 48.8871 93.646C48.8091 93.49 48.7311 93.334 48.6401 93.191C47.5351 93.932 45.9361 94.712 44.7011 95.141C44.5321 94.803 44.2071 94.27 43.9211 93.971C45.2341 93.659 46.9631 92.944 47.9381 92.281C47.8341 92.177 47.7301 92.073 47.6131 91.969C46.6251 92.424 45.5591 92.801 44.5321 93.074C44.3761 92.775 43.9861 92.164 43.7391 91.865C45.1301 91.592 46.5731 91.137 47.7171 90.552H45.8191V89.252H52.8001V90.552H51.3181C51.4611 91.072 51.6431 91.579 51.8511 92.06C52.5011 91.618 53.1901 91.085 53.6581 90.643ZM63.3041 87.952V87.432C62.5761 87.471 61.8611 87.484 61.1851 87.497C61.1461 87.237 61.0161 86.808 60.8861 86.548C62.9011 86.483 65.2541 86.314 66.6451 86.054L67.4251 87.003C66.6581 87.146 65.7481 87.25 64.7861 87.328V87.952H68.0881V89.031H64.7861V89.629H67.6591V90.695H60.6781V89.629H63.3041V89.031H60.2491V87.952H63.3041ZM58.2081 90.786V88.966C57.8571 89.226 57.5061 89.46 57.1681 89.655C56.9211 89.356 56.3881 88.784 56.0501 88.524C57.3111 87.939 58.6241 86.99 59.3911 85.989L60.7951 86.509C60.4701 86.938 60.0931 87.354 59.6641 87.757V90.786H58.2081ZM59.6121 94.738V95.271H65.2151V94.738H59.6121ZM59.6121 93.386V93.906H65.2151V93.386H59.6121ZM59.6121 92.047V92.554H65.2151V92.047H59.6121ZM66.7881 96.155H64.7471C66.0081 96.558 67.3861 97.078 68.2311 97.442L66.3721 98.131C65.6441 97.741 64.3441 97.195 63.0441 96.766L64.1621 96.155H60.5611L61.5881 96.623C60.5091 97.26 58.8581 97.845 57.5321 98.17C57.2851 97.871 56.7391 97.325 56.4141 97.065C57.6231 96.857 58.9491 96.532 59.8591 96.155H58.1171V91.163H66.7881V96.155ZM79.6191 91.293H78.3971V92.216H79.6191V91.293ZM78.3971 94.348H79.6191V93.412H78.3971V94.348ZM75.7451 94.348H76.9281V93.412H75.7451V94.348ZM76.9281 91.293H75.7451V92.216H76.9281V91.293ZM81.3741 89.148H78.3971V89.993H81.0751V96.675C81.0751 97.286 80.9711 97.65 80.5941 97.884C80.2301 98.105 79.7491 98.144 79.1121 98.144C79.0471 97.767 78.8391 97.169 78.6441 96.818C78.9821 96.831 79.3331 96.831 79.4501 96.831C79.5801 96.831 79.6191 96.792 79.6191 96.649V95.57H78.3971V98.066H76.9281V95.57H75.7451V98.105H74.3281V91.657C74.0291 92.047 73.7301 92.45 73.4701 92.775L74.1201 93.594L73.2231 94.621C73.0281 94.244 72.6901 93.711 72.3391 93.191V98.118H70.9091V93.971C70.5581 94.387 70.1941 94.764 69.8301 95.076C69.6871 94.686 69.3361 93.932 69.1021 93.685C70.2201 92.788 71.3381 91.28 72.0141 89.733H69.4531V88.355H70.8961V86.028H72.3261V88.355H72.6901L72.9631 88.303L73.7431 88.797C73.4441 89.759 73.0151 90.721 72.5211 91.605L72.8721 92.034C73.1321 91.644 73.4051 91.176 73.5611 90.825L74.3281 91.397V89.993H76.9281V89.148H73.9251V87.783H76.9281V86.015H78.3971V87.783H79.9831C79.6061 87.458 79.0991 87.107 78.6701 86.847L79.5151 86.041C80.1001 86.353 80.8671 86.847 81.2311 87.224L80.6721 87.783H81.3741V89.148ZM84.4551 93.269V94.842C85.0011 94.738 85.5731 94.608 86.1711 94.491V93.269H84.4551ZM86.1711 87.913H84.4551V89.226H86.1711V87.913ZM86.1711 91.917V90.578H84.4551V91.917H86.1711ZM93.9841 88.784V89.473C93.8671 94.803 93.7501 96.714 93.3211 97.312C93.0221 97.754 92.7101 97.897 92.2421 97.975C91.8261 98.053 91.1501 98.04 90.4741 98.014C90.4481 97.598 90.2921 96.948 90.0191 96.545C90.6561 96.584 91.2411 96.597 91.5271 96.597C91.7351 96.597 91.8651 96.558 91.9821 96.376C92.2811 96.025 92.3981 94.413 92.4761 90.24H91.0981C90.9031 93.672 90.2011 96.402 87.6921 98.131C87.4581 97.754 86.9771 97.234 86.6131 96.961C87.2501 96.532 87.7571 96.051 88.1471 95.492C86.1581 95.986 84.0261 96.48 82.4401 96.857L82.1931 95.271C82.4531 95.219 82.7651 95.167 83.0901 95.102V86.522H87.6011V94.179L88.1601 94.062L88.3031 95.284C89.1741 93.932 89.4861 92.255 89.6031 90.24H87.9521V88.784H89.6551C89.6681 87.9 89.6681 86.977 89.6681 85.989H91.1891C91.1891 86.964 91.1891 87.9 91.1631 88.784H93.9841ZM99.6651 92.06C99.6651 91.15 100.419 90.396 101.329 90.396C102.239 90.396 102.993 91.15 102.993 92.06C102.993 92.97 102.239 93.724 101.329 93.724C100.419 93.724 99.6651 92.97 99.6651 92.06ZM114.004 93.334L113.068 94.595C112.795 94.231 112.353 93.711 111.911 93.23V98.131H110.377V93.646C109.857 94.127 109.311 94.556 108.765 94.894C108.635 94.478 108.271 93.724 108.037 93.425C109.454 92.658 110.819 91.293 111.677 89.785H108.531V88.394H110.377V86.002H111.911V88.394H112.496L112.769 88.329L113.64 88.888C113.25 89.876 112.73 90.812 112.106 91.67C112.73 92.177 113.731 93.074 114.004 93.334ZM117.748 96.246H120.517V97.754H113.159V96.246H116.162V91.488H113.692V89.993H116.162V86.106H117.748V89.993H120.205V91.488H117.748V96.246ZM123.351 88.589V90.188H121.778V87.133H126.471V86.002H128.109V87.133H132.893V90.188H131.242V88.589H123.351ZM128.577 96.519H130.787C131.489 96.519 131.606 96.246 131.71 94.725C132.061 94.998 132.776 95.258 133.244 95.362C133.036 97.455 132.555 98.04 130.917 98.04H128.408C126.51 98.04 125.99 97.546 125.99 95.882V94.27L121.687 94.725L121.505 93.23L125.99 92.788V91.475C125.067 91.618 124.144 91.735 123.26 91.826C123.208 91.436 122.987 90.825 122.805 90.474C125.34 90.175 128.07 89.668 129.734 88.953L130.943 90.227C129.994 90.604 128.876 90.916 127.693 91.163V92.619L132.932 92.099L133.114 93.529L127.693 94.101V95.856C127.693 96.441 127.81 96.519 128.577 96.519ZM138.665 92.06C138.665 91.15 139.419 90.396 140.329 90.396C141.239 90.396 141.993 91.15 141.993 92.06C141.993 92.97 141.239 93.724 140.329 93.724C139.419 93.724 138.665 92.97 138.665 92.06ZM151.314 87.12L150.612 88.29C150.014 87.965 148.792 87.497 147.895 87.237L148.571 86.184C149.429 86.392 150.664 86.808 151.314 87.12ZM150.573 94.452V95.024H156.202V94.452H150.573ZM150.573 93.022V93.581H156.202V93.022H150.573ZM150.573 91.592V92.151H156.202V91.592H150.573ZM152.692 90.669H157.047C156.046 90.305 155.448 89.824 155.058 89.265C154.603 89.876 153.875 90.331 152.692 90.669ZM157.775 95.947H155.526C156.852 96.415 158.347 97.039 159.231 97.468L157.437 98.157C156.696 97.728 155.37 97.117 154.057 96.623L155.227 95.947H151.431L152.614 96.467C151.535 97.169 149.871 97.806 148.558 98.17C148.285 97.871 147.739 97.312 147.414 97.039C148.675 96.805 150.092 96.389 150.989 95.947H149.078V90.669H151.795C151.639 90.357 151.392 89.98 151.184 89.772L151.197 89.824C150.079 90.149 148.87 90.5 147.895 90.773L147.323 89.421C148.285 89.239 149.676 88.914 151.054 88.589L151.184 89.759C153.251 89.421 153.94 88.862 154.226 87.939H153.29C152.991 88.303 152.653 88.654 152.25 88.979C151.977 88.706 151.444 88.394 151.093 88.251C152.029 87.601 152.666 86.743 153.004 85.989L154.369 86.21C154.265 86.431 154.161 86.639 154.031 86.847H157.866L158.1 86.808L159.127 87.068C158.789 87.77 158.321 88.55 157.892 89.031L156.696 88.654C156.852 88.459 157.034 88.212 157.203 87.939H155.76C156.046 88.784 156.774 89.486 159.4 89.798C159.114 90.084 158.776 90.682 158.633 91.059C158.321 91.007 158.035 90.955 157.775 90.89V95.947ZM167.135 93.282H170.19C169.618 92.97 169.098 92.606 168.63 92.216C168.162 92.619 167.668 92.97 167.135 93.282ZM167.213 96.35H169.93V94.582H167.213V96.35ZM165.159 92.229L164.717 92.84C165.757 92.45 166.745 91.904 167.59 91.202C167.226 90.786 166.901 90.357 166.615 89.928C166.303 90.305 165.978 90.643 165.653 90.929C165.458 90.721 165.055 90.357 164.717 90.084H163.612V90.396C163.963 90.773 164.938 91.93 165.159 92.229ZM169.683 88.667H167.551L167.46 88.797C167.759 89.291 168.123 89.785 168.578 90.253C169.007 89.772 169.384 89.239 169.683 88.667ZM170.671 87.302L171.633 87.757C171.191 89.109 170.515 90.253 169.657 91.215C170.476 91.839 171.464 92.346 172.595 92.658C172.283 92.957 171.854 93.568 171.659 93.945L171.425 93.854V98.092H169.93V97.676H167.213V98.131H165.77V93.971C165.549 94.075 165.328 94.166 165.107 94.244C164.964 93.945 164.691 93.529 164.444 93.217L164.327 93.386C164.171 93.061 163.898 92.58 163.612 92.125V98.118H162.156V93.191C161.792 94.231 161.35 95.193 160.856 95.856C160.713 95.427 160.375 94.829 160.141 94.452C160.934 93.425 161.675 91.631 162.039 90.084H160.453V88.654H162.156V85.989H163.612V88.654H165.068V89.356C165.991 88.459 166.797 87.224 167.265 85.976L168.734 86.379C168.604 86.704 168.461 87.029 168.305 87.354H170.398L170.671 87.302ZM181.643 92.255H177.171C177.691 93.204 178.419 93.997 179.355 94.647C180.304 94.023 181.084 93.243 181.643 92.255ZM182.787 90.682L183.866 91.293C183.216 93.074 182.15 94.439 180.811 95.479C182.098 96.064 183.632 96.454 185.426 96.649C185.101 97.013 184.659 97.702 184.438 98.157C182.371 97.858 180.655 97.312 179.264 96.48C177.743 97.286 175.975 97.806 174.077 98.131C173.934 97.715 173.531 96.987 173.232 96.636C174.935 96.415 176.508 96.038 177.847 95.453C176.976 94.686 176.261 93.75 175.663 92.645L176.807 92.255H174.402V90.734H178.484V89.226H173.752V87.692H178.484V86.002H180.083V87.692H184.841V89.226H180.083V90.734H182.514L182.787 90.682ZM190.223 91.878L190.418 93.256C189.989 93.386 189.56 93.516 189.131 93.633V96.493C189.131 97.208 189.001 97.598 188.611 97.845C188.221 98.092 187.662 98.144 186.817 98.131C186.778 97.754 186.609 97.117 186.414 96.701C186.895 96.727 187.337 96.727 187.493 96.714C187.649 96.714 187.714 96.662 187.714 96.493V94.036L186.414 94.426L186.18 92.918C186.622 92.827 187.142 92.697 187.714 92.541V89.876H186.349V88.446H187.714V86.002H189.131V88.446H190.301V89.876H189.131V92.164L190.223 91.878ZM195.826 94.231H193.564C193.889 94.725 194.318 95.154 194.864 95.531C195.254 95.167 195.592 94.738 195.826 94.231ZM196.71 93.074L197.542 93.412C197.217 94.569 196.723 95.466 196.047 96.181C196.788 96.506 197.62 96.74 198.543 96.883C198.218 97.182 197.828 97.754 197.633 98.144C196.606 97.923 195.683 97.585 194.89 97.143C194.175 97.585 193.33 97.923 192.433 98.157C192.277 97.832 191.861 97.26 191.601 97.013C192.381 96.857 193.096 96.623 193.72 96.298C193.343 95.999 193.018 95.635 192.732 95.245C192.225 96.337 191.484 97.351 190.327 98.105C190.119 97.741 189.677 97.247 189.326 96.987C191.042 95.934 191.705 94.27 192.004 92.606H190.444V91.358H192.173C192.186 91.15 192.199 90.942 192.225 90.747H190.691V89.538H191.497C191.393 89.135 191.198 88.563 191.029 88.134L192.186 87.809C192.394 88.29 192.667 88.914 192.784 89.304L192.056 89.538H193.551C193.512 89.109 193.395 88.433 193.265 87.9L194.474 87.692C194.617 88.199 194.773 88.862 194.825 89.265L193.616 89.538H195.241C195.605 88.927 196.021 88.082 196.255 87.445C194.526 87.666 192.524 87.783 190.782 87.809C190.756 87.471 190.6 86.977 190.457 86.665C192.732 86.587 195.397 86.392 196.996 86.041L197.867 87.198C197.373 87.289 196.84 87.367 196.255 87.445L197.685 87.861C197.334 88.433 196.957 89.031 196.619 89.538H197.854V90.747H193.694C193.681 90.955 193.668 91.15 193.642 91.358H198.231V92.606H193.486C193.447 92.775 193.421 92.944 193.382 93.113H196.463L196.71 93.074ZM199.973 92.97L200.064 91.41C200.896 91.696 201.767 91.839 202.599 91.917C202.677 91.345 202.742 90.747 202.82 90.162C201.923 90.071 201.013 89.915 200.259 89.707L200.35 88.212C201.091 88.459 202.053 88.615 202.989 88.693C203.041 88.303 203.067 87.952 203.093 87.666C203.106 87.419 203.132 87.172 203.132 86.886C203.132 86.769 203.132 86.652 203.119 86.522L204.926 86.626C204.822 87.094 204.757 87.432 204.705 87.77C204.666 87.991 204.627 88.329 204.562 88.745C205.485 88.732 206.317 88.68 206.928 88.589L206.876 90.123C206.109 90.201 205.407 90.24 204.367 90.24C204.289 90.812 204.211 91.423 204.146 91.995H204.237C205.03 91.995 205.979 91.93 206.824 91.839L206.785 93.373C206.057 93.438 205.303 93.49 204.51 93.49H203.99C203.964 93.867 203.938 94.192 203.938 94.426C203.938 95.479 204.588 96.064 205.862 96.064C207.656 96.064 208.644 95.245 208.644 94.179C208.644 93.308 208.15 92.476 207.318 91.683L209.125 91.293C209.983 92.385 210.373 93.295 210.373 94.387C210.373 96.324 208.631 97.728 205.81 97.728C203.782 97.728 202.352 96.844 202.352 94.699C202.352 94.387 202.391 93.932 202.443 93.399C201.507 93.308 200.662 93.165 199.973 92.97ZM214.351 88.693V90.318H212.778V87.25H217.471V86.002H219.109V87.25H223.88V90.318H222.229V88.693H214.351ZM221.644 91.059H214.949V89.655H221.644V91.059ZM221.111 96.532H222.398C222.827 96.532 222.892 96.311 222.944 94.972C223.256 95.206 223.932 95.453 224.335 95.557C224.166 97.442 223.776 97.936 222.541 97.936H220.877C219.369 97.936 219.005 97.494 219.005 96.09V93.451H217.315C217.055 95.687 216.34 97.299 213.077 98.157C212.921 97.754 212.518 97.117 212.18 96.779C214.962 96.181 215.43 95.063 215.625 93.451H212.544V91.995H224.127V93.451H220.565V96.064C220.565 96.48 220.643 96.532 221.111 96.532ZM228.95 87.016H230.783V86.067H232.213V87.016H234.137V86.067H235.593V87.016H237.335V88.342H235.593V89.213H234.137V88.342H232.213V89.213H230.783V88.342H228.95V87.016ZM234.553 95.115H235.788V94.4H234.553V95.115ZM232.161 95.115H233.331V94.4H232.161V95.115ZM233.331 92.658H232.161V93.399H233.331V92.658ZM235.788 92.658H234.553V93.399H235.788V92.658ZM237.101 91.54V96.818C237.101 97.403 237.023 97.715 236.659 97.923C236.308 98.118 235.84 98.144 235.164 98.131C235.138 97.78 234.982 97.299 234.826 96.961C235.19 96.974 235.515 96.974 235.645 96.961C235.762 96.961 235.788 96.935 235.788 96.805V96.129H234.553V98.079H233.331V96.129H232.161V98.105H230.874V91.54H237.101ZM237.4 89.551V90.89H230.419V92.424C230.419 94.114 230.224 96.597 229.119 98.17C228.898 97.91 228.326 97.416 228.027 97.234V98.118H226.558V91.618C226.298 92.008 226.025 92.372 225.752 92.684C225.635 92.32 225.258 91.423 225.011 91.02C226.051 89.811 227.013 87.913 227.585 86.002L229.015 86.431C228.742 87.263 228.404 88.121 228.027 88.953V97.182C228.937 95.791 229.015 93.828 229.015 92.398V89.551H237.4ZM238.284 95.856C238.284 94.712 239.207 93.789 240.338 93.789C241.482 93.789 242.418 94.712 242.418 95.856C242.418 97 241.482 97.936 240.338 97.936C239.207 97.936 238.284 97 238.284 95.856ZM239.142 95.856C239.142 96.532 239.688 97.065 240.338 97.065C241.014 97.065 241.547 96.532 241.547 95.856C241.547 95.193 241.014 94.66 240.338 94.66C239.688 94.66 239.142 95.193 239.142 95.856Z" fill="black"/>
</svg>
