<svg width="398" height="72" viewBox="0 0 398 72" fill="none" xmlns="http://www.w3.org/2000/svg">
<path d="M127.99 13.89H135.115V12.33H127.99V13.89ZM135.115 9.135H127.99V10.68H135.115V9.135ZM135.115 5.94H127.99V7.485H135.115V5.94ZM131.875 4.23H137.02V16.275H135.115V15.54H127.99V16.29H126.175V4.23H130.015C130.18 3.585 130.345 2.865 130.42 2.265L132.58 2.505C132.355 3.105 132.115 3.69 131.875 4.23ZM147.355 13.74H150.64V11.19H147.355V13.74ZM142.33 11.19V13.74H145.51V11.19H142.33ZM145.51 6.945H142.33V9.45H145.51V6.945ZM150.64 6.945H147.355V9.45H150.64V6.945ZM147.355 5.145H152.515V16.29H150.64V15.51H142.33V16.305H140.545V5.145H145.51V2.31H147.355V5.145ZM156.43 12.195C156.43 10.56 157.435 9.345 158.89 8.28C158.2 7.035 157.945 5.22 157.75 3.405L159.76 3.09C159.865 4.86 160.24 6.18 160.735 7.44C162.01 6.915 163.36 6.54 164.08 6.315C164.65 6.135 165.25 5.97 165.7 5.745L166.21 7.725C165.685 7.83 165.235 7.965 164.455 8.175C163.375 8.475 161.995 8.88 160.63 9.51C159.415 10.065 158.485 10.92 158.485 11.97C158.485 13.035 159.49 13.605 161.56 13.605C163.09 13.605 165.1 13.365 166.42 13.065L166.39 15.21C165.13 15.42 163.555 15.57 161.62 15.57C158.665 15.57 156.43 14.745 156.43 12.195ZM183.175 4.53L181.825 5.58C181.465 4.965 180.535 4.02 179.755 3.405L181 2.445C181.78 3.045 182.74 3.885 183.175 4.53ZM172.855 11.685V13.92C173.41 13.755 173.995 13.56 174.58 13.38L174.835 14.79C173.5 15.27 172.06 15.735 170.92 16.11L170.245 14.67C170.56 14.595 170.92 14.49 171.295 14.385V12.975C171.025 13.155 170.755 13.335 170.485 13.485C170.245 13.17 169.705 12.525 169.375 12.225C170.35 11.76 171.34 11.085 172.09 10.305H169.87V8.82H172.705V7.785H174.385V8.82H177.175V10.305H174.055C173.71 10.785 173.305 11.25 172.855 11.685ZM177.1 13.245L175.945 14.325C175.39 13.62 174.19 12.51 173.23 11.73L174.31 10.77C174.565 10.98 174.865 11.205 175.15 11.445C175.48 11.115 175.795 10.725 176.005 10.41L177.325 11.22C176.965 11.61 176.56 12.015 176.185 12.345C176.545 12.675 176.875 12.99 177.1 13.245ZM181.21 8.235L182.845 8.79C182.215 10.395 181.39 11.82 180.4 13.05C180.76 14.01 181.18 14.565 181.66 14.565C181.96 14.565 182.125 13.92 182.2 12.285C182.575 12.66 183.175 13.05 183.595 13.23C183.34 15.69 182.815 16.305 181.495 16.305C180.475 16.305 179.695 15.615 179.11 14.445C178.36 15.165 177.55 15.795 176.665 16.335C176.38 15.885 175.87 15.285 175.42 14.91C176.53 14.325 177.55 13.56 178.435 12.645C178.045 11.265 177.79 9.57 177.64 7.725H169.69V6.135H172.705V5.07H170.275V3.555H172.705V2.31H174.385V3.555H176.8V5.07H174.385V6.135H177.535C177.46 4.89 177.43 3.6 177.43 2.31H179.23C179.2 3.615 179.215 4.905 179.275 6.135H183.325V7.725H179.395C179.5 8.895 179.65 9.975 179.83 10.92C180.385 10.095 180.85 9.195 181.21 8.235ZM194.56 4.155V3.675H188.335V4.155H194.56ZM194.56 5.535V5.04H188.335V5.535H194.56ZM196.36 2.745V6.45H186.61V2.745H196.36ZM198.31 6.9V8.175H184.735V6.9H198.31ZM188.02 11.505H190.63V10.98H188.02V11.505ZM188.02 9.57V10.095H190.63V9.57H188.02ZM194.965 10.095V9.57H192.34V10.095H194.965ZM194.965 11.505V10.98H192.34V11.505H194.965ZM192.34 14.64H198.34V15.93H184.705V14.64H190.63V14.1H186.04V12.945H190.63V12.465H186.34V8.625H196.705V12.465H192.34V12.945H196.99V14.1H192.34V14.64ZM200.005 10.26C200.005 6.84 202.99 3.9 206.845 3.9C210.52 3.9 212.845 6.465 212.845 9.705C212.845 12.825 210.925 15.045 207.175 15.615L206.065 13.86C206.635 13.785 207.055 13.71 207.445 13.62C209.35 13.17 210.82 11.805 210.82 9.645C210.82 7.59 209.71 6.06 207.715 5.715C207.505 6.975 207.25 8.355 206.83 9.75C205.945 12.75 204.655 14.58 203.035 14.58C201.4 14.58 200.005 12.765 200.005 10.26ZM201.94 10.065C201.94 11.565 202.54 12.3 203.095 12.3C203.71 12.3 204.31 11.37 204.91 9.36C205.255 8.265 205.525 6.99 205.705 5.76C203.245 6.27 201.94 8.43 201.94 10.065ZM215.425 12.96C215.425 11.07 217 9.06 219.07 8.085C219.115 7.455 219.16 6.825 219.22 6.225H218.74C217.96 6.225 216.805 6.165 216.115 6.135L216.055 4.41C216.58 4.485 217.885 4.605 218.8 4.605H219.37L219.46 3.81C219.49 3.585 219.505 3.315 219.505 3.075V2.925L221.455 2.97C221.35 3.27 221.29 3.54 221.245 3.765C221.185 4.005 221.14 4.275 221.095 4.56C222.895 4.5 224.5 4.32 226.135 3.93L226.15 5.64C224.695 5.91 222.7 6.09 220.87 6.18C220.825 6.615 220.78 7.065 220.765 7.515C221.47 7.35 222.25 7.245 222.985 7.245H223.24C223.3 6.945 223.36 6.57 223.375 6.36L225.205 6.78C225.13 6.945 225.025 7.26 224.935 7.545C226.66 8.115 227.8 9.45 227.8 11.19C227.8 13.275 226.555 15.33 222.91 15.87L221.92 14.31C224.785 13.995 225.955 12.555 225.955 11.1C225.955 10.2 225.43 9.405 224.425 9.015C223.6 11.04 222.415 12.585 221.29 13.515C221.395 13.905 221.515 14.265 221.635 14.625L219.925 15.135C219.865 14.955 219.79 14.745 219.73 14.535C219.01 14.895 218.215 15.135 217.435 15.135C216.34 15.135 215.425 14.475 215.425 12.96ZM217.18 12.6C217.18 13.065 217.39 13.32 217.87 13.32C218.29 13.32 218.8 13.155 219.355 12.84C219.19 11.91 219.07 10.89 219.04 9.87C217.93 10.62 217.18 11.76 217.18 12.6ZM220.705 9.12C220.705 10.035 220.765 10.845 220.87 11.58C221.59 10.86 222.25 9.96 222.745 8.76C221.965 8.775 221.275 8.91 220.705 9.09V9.12ZM230.38 10.935C231.43 10.08 233.215 8.565 234.1 7.845C234.925 7.155 236.47 5.91 237.205 5.265C236.44 5.28 234.4 5.37 233.62 5.43C233.215 5.445 232.75 5.49 232.405 5.55L232.345 3.615C232.765 3.66 233.275 3.69 233.695 3.69C234.475 3.69 237.655 3.615 238.495 3.54C239.11 3.495 239.455 3.435 239.635 3.39L240.595 4.71C240.235 4.935 239.89 5.16 239.56 5.385C238.765 5.94 237.205 7.26 236.275 8.01C236.77 7.875 237.19 7.845 237.67 7.845C240.19 7.845 242.11 9.42 242.11 11.58C242.11 13.92 240.325 15.78 236.74 15.78C234.67 15.78 233.11 14.835 233.11 13.35C233.11 12.15 234.205 11.04 235.78 11.04C237.61 11.04 238.72 12.165 238.945 13.575C239.755 13.14 240.16 12.45 240.16 11.55C240.16 10.215 238.81 9.315 237.085 9.315C234.805 9.315 233.32 10.53 231.73 12.33L230.38 10.935ZM234.865 13.17C234.865 13.725 235.495 14.1 236.365 14.1C236.68 14.1 236.965 14.085 237.235 14.055C237.145 13.095 236.59 12.465 235.78 12.465C235.225 12.465 234.865 12.795 234.865 13.17ZM254.095 6.405H248.845C249.475 8.025 250.36 9.465 251.515 10.68C252.595 9.51 253.45 8.085 254.095 6.405ZM258.355 6.405H256.195C255.385 8.61 254.29 10.44 252.91 11.94C254.455 13.125 256.345 14.01 258.625 14.52C258.19 14.955 257.62 15.795 257.35 16.305C254.935 15.69 252.985 14.685 251.41 13.35C249.775 14.655 247.84 15.63 245.56 16.35C245.35 15.885 244.795 15.045 244.435 14.61C246.655 14.025 248.53 13.17 250.045 12.015C248.695 10.47 247.66 8.595 246.85 6.405H244.705V4.665H250.585V2.295H252.4V4.665H258.355V6.405ZM263.275 2.49L265.045 3.075C264.61 4.095 264.085 5.115 263.485 6.105V16.275H261.7V8.625C261.22 9.21 260.71 9.75 260.215 10.215C260.02 9.765 259.51 8.775 259.18 8.325C260.8 6.96 262.375 4.755 263.275 2.49ZM268.795 14.46H271C271.72 14.46 271.84 13.95 271.96 11.835C272.38 12.15 273.13 12.495 273.61 12.6C273.4 15.18 272.935 16.125 271.165 16.125H268.6C266.71 16.125 266.17 15.525 266.17 13.41V2.685H267.97V7.815C269.38 7.005 270.76 6.045 271.75 5.19L273.07 6.75C271.585 7.8 269.725 8.805 267.97 9.645V13.425C267.97 14.31 268.075 14.46 268.795 14.46Z" fill="#005794"/>
<path d="M28.492 40.462L28.674 41.866C28.167 42.009 27.66 42.152 27.14 42.295V45.454C27.14 46.221 27.01 46.585 26.568 46.832C26.139 47.066 25.515 47.105 24.605 47.105C24.566 46.715 24.358 46.091 24.176 45.688C24.683 45.714 25.203 45.714 25.372 45.714C25.554 45.701 25.619 45.649 25.619 45.467V42.698L24.176 43.062L23.812 41.593C24.332 41.476 24.956 41.333 25.619 41.177V38.863H24.007V37.433H25.619V35.002H27.14V37.433H28.466V38.863H27.14V40.813C27.595 40.696 28.05 40.579 28.492 40.462ZM33.9 42.477H30.585V43.27H33.9V42.477ZM30.585 45.337H33.9V44.479H30.585V45.337ZM29.116 47.131V41.203H35.434V47.079H33.9V46.572H30.585V47.131H29.116ZM31.56 39.071H33.822C34.472 39.071 34.576 38.863 34.667 37.576C34.992 37.81 35.642 38.057 36.071 38.135C35.876 39.968 35.421 40.462 33.939 40.462H31.417C29.61 40.462 29.142 40.02 29.142 38.525V35.002H30.689V36.705C31.989 36.38 33.289 35.964 34.147 35.561L35.291 36.679C33.965 37.212 32.236 37.654 30.689 37.966V38.512C30.689 39.006 30.819 39.071 31.56 39.071ZM47.576 35.821V37.355H38.411V35.821H47.576ZM39.074 41.437L40.712 41.866C40.14 43.387 39.165 44.96 38.242 45.935C37.917 45.662 37.215 45.207 36.812 45.012C37.748 44.154 38.619 42.776 39.074 41.437ZM48.785 40.488H43.884V45.311C43.884 46.182 43.702 46.611 43.091 46.858C42.493 47.105 41.635 47.131 40.504 47.131C40.426 46.65 40.192 45.948 39.958 45.48C40.699 45.519 41.609 45.532 41.856 45.519C42.103 45.519 42.194 45.454 42.194 45.272V40.488H37.228V38.941H48.785V40.488ZM45.21 41.996L46.666 41.385C47.524 42.581 48.46 44.154 48.824 45.259L47.212 45.974C46.926 44.908 46.042 43.231 45.21 41.996ZM52.568 35.015L54.037 35.613C53.179 36.809 51.866 38.083 50.657 38.863C50.501 38.512 50.137 37.888 49.89 37.55C50.917 36.939 52.035 35.873 52.568 35.015ZM54.622 43.582L55.883 42.919C56.468 43.582 57.131 44.492 57.404 45.129L56.052 45.857C55.818 45.233 55.181 44.271 54.622 43.582ZM62.11 40.41H60.459V41.437H61.993V42.841H60.459V45.493C60.459 46.273 60.316 46.65 59.796 46.884C59.289 47.105 58.561 47.131 57.586 47.131C57.521 46.702 57.3 46.091 57.105 45.675C57.742 45.701 58.457 45.701 58.665 45.688C58.86 45.688 58.925 45.649 58.925 45.467V42.841H53.894V41.437H58.925V40.41H53.764V39.188C53.569 39.461 53.374 39.734 53.153 40.02V47.118H51.671V41.723C51.268 42.126 50.878 42.477 50.488 42.789C50.384 42.438 49.994 41.567 49.773 41.19C50.904 40.384 52.165 39.11 52.893 37.849L54.245 38.434C54.128 38.616 54.011 38.811 53.881 39.006H57.157V37.875H54.492V36.471H57.157V35.054H58.691V36.471H61.486V37.875H58.691V39.006H62.11V40.41ZM63.904 38.772V37.173C64.671 37.303 65.646 37.407 66.426 37.42C66.452 37.225 66.491 37.056 66.504 36.9C66.556 36.471 66.569 36.185 66.569 35.873V35.6L68.389 35.678C68.246 36.133 68.181 36.562 68.09 36.991L68.012 37.381C69.481 37.303 71.223 37.108 72.77 36.77L72.796 38.33C71.457 38.538 69.416 38.785 67.687 38.876C67.518 39.656 67.31 40.475 67.102 41.099C68.142 40.527 69.117 40.293 70.3 40.293C72.38 40.293 73.758 41.411 73.758 43.049C73.758 45.519 71.73 46.65 68.545 46.65C67.999 46.65 67.427 46.611 66.816 46.546L66.361 44.882C67.076 44.999 67.804 45.064 68.48 45.064C70.456 45.064 72.029 44.518 72.029 43.101C72.029 42.334 71.353 41.684 70.105 41.684C68.623 41.684 67.31 42.217 66.543 43.205C66.4 43.374 66.309 43.543 66.179 43.764L64.658 43.218C65.269 42.035 65.789 40.319 66.127 38.902C65.308 38.889 64.554 38.837 63.904 38.772ZM76.449 37.082C76.969 37.069 77.463 37.043 77.71 37.017C78.789 36.926 80.921 36.731 83.274 36.523C84.6 36.419 86.004 36.341 86.914 36.302L86.927 37.966C86.238 37.966 85.133 37.979 84.444 38.135C82.884 38.551 81.727 40.215 81.727 41.736C81.727 43.855 83.703 44.622 85.887 44.726L85.289 46.507C82.585 46.338 80.037 44.882 80.037 42.087C80.037 40.228 81.064 38.772 81.935 38.122C80.817 38.239 78.113 38.525 76.618 38.85L76.449 37.082ZM84.158 39.617L85.12 39.214C85.432 39.682 85.913 40.462 86.16 40.982L85.172 41.424C84.847 40.709 84.574 40.202 84.158 39.617ZM85.627 39.058L86.576 38.616C86.901 39.071 87.395 39.838 87.668 40.345L86.693 40.813C86.342 40.111 86.043 39.63 85.627 39.058ZM89.774 42.477C89.774 40.527 90.151 38.096 90.307 37.108C90.359 36.744 90.424 36.25 90.424 35.847L92.218 36.003C92.114 36.263 91.958 36.913 91.906 37.147C91.711 38.005 91.295 40.839 91.295 42.126C91.295 42.386 91.308 42.698 91.347 42.958C91.516 42.503 91.724 42.074 91.919 41.645L92.712 42.282C92.348 43.335 91.932 44.648 91.789 45.35C91.75 45.506 91.724 45.727 91.724 45.883C91.724 46.052 91.724 46.26 91.737 46.481L90.281 46.585C90.021 45.688 89.774 44.219 89.774 42.477ZM93.154 44.427C93.154 43.114 94.259 42.217 96.014 42.217C96.313 42.217 96.599 42.23 96.859 42.269C96.82 41.476 96.781 40.54 96.768 39.63C96.456 39.643 96.144 39.643 95.845 39.643C95.091 39.643 94.363 39.617 93.596 39.565V38.031C94.337 38.109 95.078 38.148 95.845 38.148C96.144 38.148 96.456 38.148 96.755 38.135C96.742 37.498 96.742 36.978 96.729 36.705C96.729 36.51 96.69 36.12 96.651 35.86H98.497C98.458 36.107 98.432 36.419 98.419 36.692C98.406 36.978 98.38 37.459 98.38 38.031C99.082 37.953 99.758 37.862 100.369 37.732V39.331C99.745 39.422 99.069 39.5 98.367 39.552C98.393 40.8 98.458 41.827 98.51 42.698C99.589 43.14 100.395 43.803 100.993 44.362L100.122 45.714C99.589 45.207 99.069 44.778 98.562 44.427C98.484 45.649 97.782 46.533 96.04 46.533C94.272 46.533 93.154 45.779 93.154 44.427ZM94.662 44.258C94.662 44.778 95.182 45.012 95.858 45.012C96.651 45.012 96.924 44.596 96.924 43.842V43.621C96.586 43.53 96.235 43.478 95.884 43.478C95.156 43.478 94.662 43.777 94.662 44.258ZM102.397 43.582C103.437 42.321 104.451 40.423 105.023 39.032C104.802 39.045 104.581 39.045 104.36 39.045C103.827 39.045 103.307 39.032 102.748 39.006L102.631 37.498C103.19 37.563 103.879 37.589 104.347 37.589C104.724 37.589 105.114 37.576 105.504 37.55C105.686 36.835 105.829 36.055 105.855 35.392L107.636 35.574C107.532 35.99 107.376 36.64 107.194 37.329C107.818 37.225 108.416 37.082 108.923 36.926L108.962 38.421C108.377 38.577 107.584 38.746 106.726 38.863C106.115 40.67 105.01 42.906 103.97 44.375L102.397 43.582ZM105.452 44.635C105.452 43.374 106.505 42.399 108.299 42.399C108.598 42.399 108.897 42.425 109.17 42.451C109.131 41.489 109.066 40.358 109.027 39.578H110.652C110.639 39.786 110.626 40.007 110.626 40.215C110.626 40.54 110.639 40.878 110.652 41.229C110.665 41.593 110.691 42.217 110.73 42.854C111.835 43.27 112.745 43.92 113.395 44.505L112.537 45.883C112.082 45.467 111.497 44.947 110.795 44.518V44.635C110.795 45.831 110.145 46.767 108.312 46.767C106.713 46.767 105.452 46.052 105.452 44.635ZM106.973 44.479C106.973 44.96 107.376 45.285 108.078 45.285C108.949 45.285 109.235 44.778 109.235 44.089V43.842C108.897 43.764 108.559 43.712 108.195 43.712C107.454 43.712 106.973 44.024 106.973 44.479ZM109.768 38.434L110.6 37.16C111.523 37.563 113.122 38.434 113.772 38.902L112.862 40.267C112.121 39.669 110.652 38.824 109.768 38.434ZM116.853 40.995C116.853 40.527 117.204 40.072 117.88 39.513C118.881 38.694 120.649 37.264 121.52 36.406C121.884 36.055 122.3 35.626 122.508 35.327L124.016 36.666C123.613 36.965 123.184 37.303 122.885 37.537C122.053 38.213 120.35 39.526 119.492 40.267C119.154 40.553 118.985 40.735 118.985 40.917C118.985 41.099 119.167 41.294 119.518 41.593C120.48 42.412 122.963 44.375 124.237 45.61L122.742 46.988C122.378 46.585 121.975 46.182 121.611 45.792C120.909 45.051 118.946 43.374 117.763 42.373C117.152 41.853 116.853 41.424 116.853 40.995ZM128.059 43.972L129.281 42.919C130.204 43.673 131.426 44.934 132.128 45.779L130.88 46.845C130.074 45.857 128.969 44.739 128.059 43.972ZM148.859 44.934V34.95H153.11V36.224H150.25V44.934H148.859ZM155.359 43.569C155.359 42.152 156.23 41.099 157.491 40.176C156.893 39.097 156.672 37.524 156.503 35.951L158.245 35.678C158.336 37.212 158.661 38.356 159.09 39.448C160.195 38.993 161.365 38.668 161.989 38.473C162.483 38.317 163.003 38.174 163.393 37.979L163.835 39.695C163.38 39.786 162.99 39.903 162.314 40.085C161.378 40.345 160.182 40.696 158.999 41.242C157.946 41.723 157.14 42.464 157.14 43.374C157.14 44.297 158.011 44.791 159.805 44.791C161.131 44.791 162.873 44.583 164.017 44.323L163.991 46.182C162.899 46.364 161.534 46.494 159.857 46.494C157.296 46.494 155.359 45.779 155.359 43.569ZM161.456 35.899L162.483 35.483C162.808 35.964 163.276 36.783 163.523 37.264L162.47 37.719C162.197 37.186 161.807 36.406 161.456 35.899ZM162.99 35.314L164.03 34.898C164.368 35.392 164.849 36.211 165.083 36.666L164.043 37.108C163.77 36.562 163.354 35.808 162.99 35.314ZM168.424 39.422C168.853 39.383 169.412 39.292 169.828 39.201C170.777 38.993 172.22 38.616 173.715 38.616C175.756 38.616 177.186 39.773 177.186 41.788C177.186 44.544 174.638 46.26 171.063 46.754L170.127 45.142C173.325 44.778 175.366 43.738 175.366 41.723C175.366 40.891 174.729 40.189 173.546 40.189H173.507C172.09 40.189 170.816 40.618 170.153 40.813C169.776 40.93 169.282 41.125 168.905 41.255L168.424 39.422ZM170.062 37.095L170.322 35.535C171.817 35.86 174.742 36.12 176.107 36.12L175.847 37.706C174.339 37.602 171.544 37.355 170.062 37.095ZM187.508 38.967V38.148H185.818V38.967H187.508ZM187.508 41.073V40.215H185.818V41.073H187.508ZM187.508 43.205V42.321H185.818V43.205H187.508ZM184.323 44.505V39.526C184.089 39.773 183.855 39.994 183.621 40.202C183.387 39.89 182.815 39.266 182.49 38.98C183.686 38.07 184.765 36.575 185.363 35.028L186.897 35.47C186.702 35.938 186.481 36.393 186.234 36.848H187.716C187.937 36.276 188.132 35.639 188.262 35.132L189.965 35.457C189.731 35.925 189.497 36.406 189.263 36.848H191.564V38.148H188.99V38.967H191.213V40.215H188.99V41.073H191.161V42.321H188.99V43.205H191.785V44.505H184.323ZM183.309 37.381L182.035 38.356C181.671 37.719 180.813 36.822 180.085 36.198L181.268 35.314C181.996 35.899 182.893 36.757 183.309 37.381ZM182.958 40.033V44.18C183.465 45.051 184.375 45.415 185.701 45.467C187.261 45.532 190.329 45.493 192.123 45.35C191.941 45.714 191.72 46.429 191.642 46.858C190.03 46.936 187.274 46.962 185.688 46.897C184.141 46.832 183.101 46.455 182.321 45.454C181.801 45.961 181.268 46.455 180.605 47.014L179.877 45.48C180.384 45.155 180.969 44.726 181.489 44.284V41.45H180.033V40.033H182.958ZM193.397 43.244C193.397 41.762 194.138 40.202 195.295 39.175C195.178 38.837 195.061 38.486 194.957 38.135C194.814 37.667 194.658 37.264 194.437 36.796L196.127 36.276C196.205 36.692 196.309 37.121 196.413 37.498C196.478 37.745 196.556 38.018 196.647 38.291C197.622 37.784 198.571 37.563 199.559 37.524C199.611 37.303 199.65 37.095 199.689 36.9C199.741 36.575 199.78 36.12 199.78 35.808V35.678L201.561 35.847C201.457 36.198 201.34 36.822 201.262 37.147L201.145 37.641C203.16 38.096 204.525 39.721 204.525 41.983C204.525 44.713 202.575 46.273 199.884 46.676L198.896 45.194C201.73 44.947 202.835 43.504 202.835 41.892C202.835 40.462 202.055 39.409 200.755 39.058C200.313 40.553 199.754 42.035 199.013 43.153C199.247 43.426 199.481 43.686 199.715 43.92L198.428 44.947C198.272 44.778 198.116 44.609 197.986 44.44C197.115 45.376 196.4 45.818 195.451 45.818C194.385 45.818 193.397 44.908 193.397 43.244ZM194.918 43.114C194.918 43.738 195.178 44.141 195.646 44.141C196.101 44.141 196.582 43.751 197.05 43.166C196.647 42.542 196.231 41.671 195.854 40.696C195.256 41.411 194.918 42.321 194.918 43.114ZM197.115 39.695C197.401 40.488 197.726 41.229 198.025 41.736C198.48 40.917 198.87 39.929 199.169 38.98C198.389 39.071 197.713 39.331 197.115 39.695ZM206.696 42.477C207.606 41.736 209.153 40.423 209.92 39.799C210.635 39.201 211.974 38.122 212.611 37.563C211.948 37.576 210.18 37.654 209.504 37.706C209.153 37.719 208.75 37.758 208.451 37.81L208.399 36.133C208.763 36.172 209.205 36.198 209.569 36.198C210.245 36.198 213.001 36.133 213.729 36.068C214.262 36.029 214.561 35.977 214.717 35.938L215.549 37.082C215.237 37.277 214.938 37.472 214.652 37.667C213.963 38.148 212.611 39.292 211.805 39.942C212.234 39.825 212.598 39.799 213.014 39.799C215.198 39.799 216.862 41.164 216.862 43.036C216.862 45.064 215.315 46.676 212.208 46.676C210.414 46.676 209.062 45.857 209.062 44.57C209.062 43.53 210.011 42.568 211.376 42.568C212.962 42.568 213.924 43.543 214.119 44.765C214.821 44.388 215.172 43.79 215.172 43.01C215.172 41.853 214.002 41.073 212.507 41.073C210.531 41.073 209.244 42.126 207.866 43.686L206.696 42.477ZM210.583 44.414C210.583 44.895 211.129 45.22 211.883 45.22C212.156 45.22 212.403 45.207 212.637 45.181C212.559 44.349 212.078 43.803 211.376 43.803C210.895 43.803 210.583 44.089 210.583 44.414ZM219.293 38.408C219.475 38.421 219.644 38.434 219.826 38.434C220.099 38.434 220.372 38.421 220.658 38.408C221.061 38.395 221.672 38.356 222.322 38.304C222.491 37.368 222.595 36.497 222.595 35.717V35.574L224.506 35.769C224.428 36.107 224.337 36.51 224.272 36.835C224.207 37.225 224.103 37.693 224.012 38.161C224.441 38.135 224.831 38.109 225.091 38.109C226.456 38.109 227.418 38.72 227.418 40.566C227.418 42.087 227.236 44.141 226.69 45.259C226.261 46.156 225.546 46.442 224.571 46.442C224.077 46.442 223.466 46.364 223.037 46.26L222.751 44.557C223.245 44.7 223.986 44.83 224.324 44.83C224.753 44.83 225.091 44.7 225.286 44.271C225.65 43.556 225.819 42.022 225.819 40.748C225.819 39.721 225.377 39.578 224.558 39.578C224.35 39.578 224.038 39.604 223.674 39.63C223.18 41.58 222.244 44.609 221.061 46.507L219.371 45.831C220.632 44.141 221.503 41.567 221.971 39.812C221.516 39.864 221.113 39.916 220.866 39.955C220.502 39.994 219.839 40.085 219.436 40.15L219.293 38.408ZM227.392 37.628L228.952 36.978C229.732 38.083 230.811 40.54 231.201 41.762L229.576 42.529C229.238 41.099 228.315 38.772 227.392 37.628ZM231.89 45.896H234.75V37.186H236.141V47.17H231.89V45.896ZM245.475 41.931C246.827 40.683 247.737 39.539 248.309 38.395H248.153C247.633 38.395 246.684 38.369 245.982 38.304V36.796C246.632 36.9 247.594 36.939 248.244 36.939H248.868C249.024 36.354 249.115 35.834 249.128 35.47L250.818 35.613C250.753 35.925 250.662 36.367 250.506 36.887C251.715 36.822 253.015 36.718 254.146 36.51L254.133 38.018C252.898 38.2 251.312 38.304 249.934 38.356C249.726 38.811 249.466 39.279 249.193 39.656C249.531 39.487 250.22 39.396 250.649 39.396C251.429 39.396 252.079 39.734 252.365 40.397C253.028 40.085 253.574 39.864 254.107 39.63C254.601 39.409 255.056 39.188 255.524 38.967L256.174 40.462C255.758 40.566 255.082 40.826 254.64 41.008C254.068 41.229 253.34 41.515 252.547 41.879C252.56 42.594 252.586 43.543 252.599 44.128H251.052C251.078 43.751 251.091 43.153 251.104 42.594C250.155 43.114 249.635 43.621 249.635 44.258C249.635 44.973 250.246 45.168 251.507 45.168C252.599 45.168 254.029 45.025 255.16 44.791L255.108 46.468C254.25 46.572 252.677 46.676 251.468 46.676C249.453 46.676 247.932 46.195 247.932 44.531C247.932 42.893 249.492 41.853 250.961 41.099C250.753 40.774 250.415 40.657 250.064 40.657C249.336 40.657 248.543 41.073 248.049 41.541C247.659 41.931 247.295 42.399 246.853 42.958L245.475 41.931ZM260.958 45.038H267.133V43.686H260.958V45.038ZM267.133 40.917H260.958V42.256H267.133V40.917ZM267.133 38.148H260.958V39.487H267.133V38.148ZM264.325 36.666H268.784V47.105H267.133V46.468H260.958V47.118H259.385V36.666H262.713C262.856 36.107 262.999 35.483 263.064 34.963L264.936 35.171C264.741 35.691 264.533 36.198 264.325 36.666ZM277.91 35.743L279.431 35.132C280.25 36.783 281.875 38.668 283.292 39.76C282.876 40.085 282.278 40.709 281.979 41.151C281.706 40.904 281.433 40.618 281.147 40.319V40.41C281.004 44.336 280.848 45.87 280.393 46.416C280.068 46.832 279.717 46.962 279.21 47.027C278.768 47.092 278.014 47.092 277.247 47.066C277.221 46.598 277.013 45.948 276.74 45.506C277.455 45.558 278.131 45.571 278.456 45.571C278.69 45.571 278.833 45.545 278.976 45.389C279.236 45.116 279.379 43.959 279.496 41.242H276.935C276.61 43.738 275.765 45.961 272.398 47.222C272.203 46.78 271.748 46.143 271.371 45.792C274.309 44.843 274.985 43.14 275.245 41.242H273.048V40.332C272.71 40.683 272.359 40.995 272.008 41.268C271.722 40.917 271.059 40.293 270.682 40.02C272.307 38.928 273.737 37.134 274.517 35.158L276.181 35.639C275.544 37.134 274.634 38.564 273.607 39.734H280.627C279.6 38.538 278.625 37.108 277.91 35.743ZM284.449 37.082C284.969 37.069 285.463 37.043 285.71 37.017C286.789 36.926 288.921 36.731 291.274 36.523C292.6 36.419 294.004 36.341 294.914 36.302L294.927 37.966C294.238 37.966 293.133 37.979 292.444 38.135C290.884 38.551 289.727 40.215 289.727 41.736C289.727 43.855 291.703 44.622 293.887 44.726L293.289 46.507C290.585 46.338 288.037 44.882 288.037 42.087C288.037 40.228 289.064 38.772 289.935 38.122C288.817 38.239 286.113 38.525 284.618 38.85L284.449 37.082ZM292.158 39.617L293.12 39.214C293.432 39.682 293.913 40.462 294.16 40.982L293.172 41.424C292.847 40.709 292.574 40.202 292.158 39.617ZM293.627 39.058L294.576 38.616C294.901 39.071 295.395 39.838 295.668 40.345L294.693 40.813C294.342 40.111 294.043 39.63 293.627 39.058ZM300.842 36.328L299.945 37.602C299.477 37.147 298.463 36.549 297.644 36.198L298.489 35.041C299.282 35.353 300.322 35.899 300.842 36.328ZM300.127 39.786L299.243 41.073C298.749 40.631 297.722 40.059 296.903 39.708L297.722 38.551C298.528 38.837 299.607 39.344 300.127 39.786ZM299.555 41.84L300.738 42.802C300.088 44.18 299.334 45.675 298.606 46.949L297.254 45.987C297.904 44.999 298.827 43.361 299.555 41.84ZM304.963 38.434V39.513C304.963 39.942 304.95 40.358 304.924 40.787H306.575V38.434H304.963ZM309.058 42.243H305.886C306.51 43.842 307.615 45.155 309.201 45.805C308.837 46.117 308.356 46.728 308.122 47.157C306.432 46.325 305.327 44.882 304.586 42.997C304.157 44.596 303.208 46.078 301.219 47.17C300.946 46.845 300.348 46.312 299.932 46.078C301.908 45.038 302.779 43.699 303.156 42.243H300.621V40.787H303.39C303.416 40.358 303.429 39.929 303.429 39.5V38.434H301.258V36.978H303.429V35.002H304.963V36.978H308.083V40.787H309.058V42.243ZM310.397 43.244C310.397 41.762 311.138 40.202 312.295 39.175C312.178 38.837 312.061 38.486 311.957 38.135C311.814 37.667 311.658 37.264 311.437 36.796L313.127 36.276C313.205 36.692 313.309 37.121 313.413 37.498C313.478 37.745 313.556 38.018 313.647 38.291C314.622 37.784 315.571 37.563 316.559 37.524C316.611 37.303 316.65 37.095 316.689 36.9C316.741 36.575 316.78 36.12 316.78 35.808V35.678L318.561 35.847C318.457 36.198 318.34 36.822 318.262 37.147L318.145 37.641C320.16 38.096 321.525 39.721 321.525 41.983C321.525 44.713 319.575 46.273 316.884 46.676L315.896 45.194C318.73 44.947 319.835 43.504 319.835 41.892C319.835 40.462 319.055 39.409 317.755 39.058C317.313 40.553 316.754 42.035 316.013 43.153C316.247 43.426 316.481 43.686 316.715 43.92L315.428 44.947C315.272 44.778 315.116 44.609 314.986 44.44C314.115 45.376 313.4 45.818 312.451 45.818C311.385 45.818 310.397 44.908 310.397 43.244ZM311.918 43.114C311.918 43.738 312.178 44.141 312.646 44.141C313.101 44.141 313.582 43.751 314.05 43.166C313.647 42.542 313.231 41.671 312.854 40.696C312.256 41.411 311.918 42.321 311.918 43.114ZM314.115 39.695C314.401 40.488 314.726 41.229 315.025 41.736C315.48 40.917 315.87 39.929 316.169 38.98C315.389 39.071 314.713 39.331 314.115 39.695ZM324.567 43.296C324.814 42.035 325.126 39.526 325.204 37.927L326.946 38.161C326.777 38.876 326.556 40.423 326.465 41.164C327.635 40.319 328.909 39.942 330.248 39.942C332.51 39.942 333.823 41.333 333.823 42.893C333.823 44.999 332.341 46.663 328.207 46.663C327.713 46.663 327.18 46.637 326.608 46.585L326.114 44.895C326.855 44.999 327.531 45.051 328.142 45.051C330.69 45.051 332.016 44.18 332.016 42.854C332.016 42.022 331.223 41.411 330.092 41.411C328.636 41.411 327.349 41.944 326.543 42.919C326.309 43.205 326.166 43.413 326.062 43.673L324.567 43.296ZM326.452 37.134L326.868 35.574C328.09 35.951 330.885 36.445 332.016 36.575L331.626 38.161C330.326 37.992 327.453 37.394 326.452 37.134ZM336.098 43.751C336.826 42.867 338.126 41.151 338.854 40.072L338.906 39.175C338.282 39.253 337.294 39.383 336.566 39.474L336.41 37.823C336.566 37.823 336.696 37.836 336.839 37.836C337.047 37.836 337.255 37.823 337.528 37.81C337.905 37.784 338.464 37.719 339.01 37.641C339.036 37.16 339.062 36.796 339.062 36.653V36.341C339.062 36.068 339.062 35.782 339.01 35.509L340.895 35.561C340.817 35.925 340.713 36.588 340.609 37.394L341.09 38.005C340.921 38.226 340.648 38.642 340.427 38.98C340.427 39.071 340.414 39.162 340.401 39.253C341.415 38.369 342.897 37.342 344.145 37.342C345.523 37.342 346.173 38.161 346.173 39.24C346.173 40.579 345.744 42.464 345.744 43.803C345.744 44.141 345.913 44.362 346.238 44.362C346.706 44.362 347.317 44.037 347.889 43.452L348.11 45.259C347.525 45.818 346.732 46.234 345.692 46.234C344.73 46.234 344.08 45.519 344.08 44.284C344.08 42.88 344.535 40.995 344.535 39.825C344.535 39.188 344.21 38.876 343.677 38.876C342.715 38.876 341.311 40.059 340.271 41.216C340.258 41.58 340.245 41.931 340.245 42.256C340.245 43.309 340.245 44.388 340.323 45.597C340.336 45.831 340.388 46.299 340.414 46.585H338.646C338.672 46.312 338.685 45.844 338.685 45.636C338.711 44.635 338.711 43.894 338.737 42.802C338.178 43.621 337.554 44.57 337.112 45.181L336.098 43.751ZM349.696 42.477C350.606 41.736 352.153 40.423 352.92 39.799C353.635 39.201 354.974 38.122 355.611 37.563C354.948 37.576 353.18 37.654 352.504 37.706C352.153 37.719 351.75 37.758 351.451 37.81L351.399 36.133C351.763 36.172 352.205 36.198 352.569 36.198C353.245 36.198 356.001 36.133 356.729 36.068C357.262 36.029 357.561 35.977 357.717 35.938L358.549 37.082C358.237 37.277 357.938 37.472 357.652 37.667C356.963 38.148 355.611 39.292 354.805 39.942C355.234 39.825 355.598 39.799 356.014 39.799C358.198 39.799 359.862 41.164 359.862 43.036C359.862 45.064 358.315 46.676 355.208 46.676C353.414 46.676 352.062 45.857 352.062 44.57C352.062 43.53 353.011 42.568 354.376 42.568C355.962 42.568 356.924 43.543 357.119 44.765C357.821 44.388 358.172 43.79 358.172 43.01C358.172 41.853 357.002 41.073 355.507 41.073C353.531 41.073 352.244 42.126 350.866 43.686L349.696 42.477ZM353.583 44.414C353.583 44.895 354.129 45.22 354.883 45.22C355.156 45.22 355.403 45.207 355.637 45.181C355.559 44.349 355.078 43.803 354.376 43.803C353.895 43.803 353.583 44.089 353.583 44.414ZM361.955 44.856C361.955 43.712 362.878 42.789 364.009 42.789C365.153 42.789 366.089 43.712 366.089 44.856C366.089 46 365.153 46.936 364.009 46.936C362.878 46.936 361.955 46 361.955 44.856ZM362.813 44.856C362.813 45.532 363.359 46.065 364.009 46.065C364.685 46.065 365.218 45.532 365.218 44.856C365.218 44.193 364.685 43.66 364.009 43.66C363.359 43.66 362.813 44.193 362.813 44.856ZM5.04051 61.658V60.462H14.4525C13.8675 60.033 13.1265 59.279 12.6195 58.577L13.6855 57.979C14.5695 59.123 15.8955 60.306 17.0655 61.06C15.8955 61.814 14.5695 62.997 13.6855 64.141L12.6195 63.543C13.1265 62.841 13.8675 62.087 14.4525 61.658H5.04051ZM29.9746 56.874H26.7506C26.8806 57.173 26.9976 57.498 27.0626 57.719L26.8936 57.758H29.7796L29.5976 57.719C29.7146 57.472 29.8706 57.147 29.9746 56.874ZM33.9916 57.758V58.954H22.7466V57.758H25.5286C25.4506 57.485 25.3206 57.16 25.2036 56.887L25.2686 56.874H23.3836V55.678H27.5696V54.989H29.1036V55.678H33.3026V56.874H31.4696L31.6646 56.913C31.4696 57.251 31.2746 57.524 31.1186 57.758H33.9916ZM23.4486 66.871L22.2396 66.052C23.0456 65.545 23.6436 64.713 23.9426 63.855L25.2426 64.31C24.8916 65.298 24.3586 66.26 23.4486 66.871ZM25.5806 61.892V62.477H31.1966V61.892H25.5806ZM25.5806 60.436V60.995H31.1966V60.436H25.5806ZM27.7776 65.753H29.5716C30.0526 65.753 30.1306 65.61 30.1956 64.687C30.4946 64.895 31.1056 65.103 31.5086 65.181C31.3396 66.624 30.9236 66.988 29.7146 66.988H27.6216C25.9836 66.988 25.5806 66.611 25.5806 65.376V64.011H26.9846L26.8286 63.946L27.3616 63.426H24.1116V59.487H32.7306V63.426H28.5056C29.0256 63.673 29.5326 63.972 29.8576 64.219L28.9216 65.181C28.5316 64.83 27.7776 64.375 27.0886 64.063V65.363C27.0886 65.714 27.1926 65.753 27.7776 65.753ZM31.1316 64.362L32.3276 63.699C33.1206 64.362 34.0566 65.311 34.4466 66.052L33.1726 66.793C32.8086 66.104 31.9246 65.077 31.1316 64.362ZM38.6326 60.865V61.671H44.0666V60.865H38.6326ZM38.6326 58.798V59.604H44.0666V58.798H38.6326ZM38.6326 56.744V57.55H44.0666V56.744H38.6326ZM44.0926 65.558H45.4446C45.8866 65.558 45.9646 65.337 46.0296 63.829C46.3546 64.076 47.0436 64.336 47.4466 64.44C47.2776 66.494 46.8746 67.027 45.5876 67.027H43.8716C42.3246 67.027 41.9606 66.559 41.9606 65.103V63.023H40.3876C40.1146 65.09 39.3476 66.455 36.1366 67.183C35.9936 66.767 35.5776 66.13 35.2786 65.805C37.9436 65.311 38.5026 64.44 38.7236 63.023H37.1376V55.392H45.6396V63.023H43.5206V65.09C43.5206 65.506 43.5986 65.558 44.0926 65.558ZM48.5516 58.408C48.7336 58.421 48.9026 58.434 49.0846 58.434C49.3576 58.434 49.6306 58.421 49.9166 58.408C50.3196 58.395 50.9306 58.356 51.5806 58.304C51.7496 57.368 51.8536 56.497 51.8536 55.717V55.574L53.7646 55.769C53.6866 56.107 53.6086 56.51 53.5436 56.835C53.4656 57.225 53.3616 57.693 53.2706 58.161C53.6996 58.135 54.0896 58.109 54.3496 58.109C55.7146 58.109 56.6766 58.72 56.6766 60.566C56.6766 62.087 56.4946 64.141 55.9486 65.259C55.5196 66.156 54.8176 66.442 53.8296 66.442C53.3486 66.442 52.7246 66.364 52.2956 66.26L52.0096 64.557C52.5036 64.7 53.2576 64.83 53.5956 64.83C54.0246 64.83 54.3496 64.7 54.5576 64.271C54.9086 63.556 55.0776 62.022 55.0776 60.748C55.0776 59.721 54.6356 59.578 53.8296 59.578C53.6216 59.578 53.3096 59.604 52.9456 59.63C52.4386 61.58 51.5026 64.609 50.3196 66.507L48.6426 65.831C49.8906 64.141 50.7746 61.567 51.2296 59.812C50.7746 59.864 50.3716 59.916 50.1246 59.955C49.7606 59.994 49.0976 60.085 48.6946 60.15L48.5516 58.408ZM56.6636 57.706L57.8596 57.199C57.5996 56.705 57.2746 56.081 56.9756 55.665L58.0026 55.236C58.3276 55.717 58.7826 56.536 59.0426 57.017L58.3796 57.303C59.1336 58.486 60.0956 60.657 60.4726 61.788L58.8346 62.555C58.4966 61.125 57.5866 58.85 56.6636 57.706ZM58.5096 55.08L59.5366 54.651C59.8876 55.145 60.3686 55.964 60.5896 56.419L59.5626 56.874C59.2896 56.328 58.8736 55.561 58.5096 55.08ZM68.4936 59.357H66.9986V60.059H68.4936V59.357ZM71.4056 60.059V59.357H69.8716V60.059H71.4056ZM69.8716 61.866H71.4056V61.138H69.8716V61.866ZM66.9986 61.866H68.4936V61.138H66.9986V61.866ZM66.9986 62.984V64.934H65.5426V58.239H68.4546C67.8696 57.966 67.2456 57.706 66.7126 57.498L67.7136 56.666C68.1686 56.835 68.7146 57.043 69.2476 57.277C69.6116 57.069 69.9626 56.822 70.2876 56.588H65.6596V55.418H71.6266L71.9256 55.34L72.8486 56.081C72.1986 56.692 71.3796 57.316 70.5346 57.836C70.8206 57.979 71.0936 58.109 71.3146 58.239H72.8876V63.595C72.8876 64.219 72.7706 64.544 72.3546 64.752C71.9386 64.973 71.3796 64.973 70.5996 64.973C70.5476 64.596 70.3916 64.089 70.2226 63.764C70.6256 63.777 71.0806 63.777 71.2106 63.777C71.3666 63.764 71.4056 63.712 71.4056 63.582V62.984H69.8716V64.882H68.4936V62.984H66.9986ZM64.8276 57.264L63.6706 58.369C63.2676 57.745 62.2926 56.848 61.4996 56.25L62.5656 55.262C63.3586 55.808 64.3596 56.64 64.8276 57.264ZM64.4376 60.033V64.18C64.9446 65.051 65.8416 65.415 67.1676 65.467C68.7146 65.532 71.7956 65.493 73.5766 65.35C73.3946 65.714 73.1606 66.429 73.0956 66.858C71.4966 66.936 68.7406 66.962 67.1546 66.897C65.5946 66.832 64.5676 66.455 63.7876 65.454C63.1896 65.961 62.5786 66.468 61.8506 67.014L61.1356 65.467C61.6946 65.155 62.3576 64.726 62.9556 64.284V61.45H61.3046V60.033H64.4376ZM76.3326 60.995C76.3326 59.799 76.5016 58.2 76.6966 56.874C76.7616 56.406 76.7876 55.886 76.8006 55.522L78.5686 55.6C78.3866 56.237 78.1266 57.55 78.0486 58.265C78.6596 57.277 79.7776 56.185 81.2336 56.185C83.0276 56.185 84.4186 57.94 84.4186 60.774C84.4186 64.414 82.1826 66.156 78.7766 66.78L77.8016 65.285C80.6616 64.843 82.6636 63.907 82.6636 60.787C82.6636 58.798 82.0006 57.693 80.9346 57.693C79.4136 57.693 78.0876 59.981 78.0226 61.671V61.996C78.0226 62.282 78.0356 62.607 78.0876 63.036L76.4886 63.14C76.4236 62.646 76.3326 61.853 76.3326 60.995ZM87.4086 60.137C87.9026 60.02 88.4746 59.825 88.6826 59.721C89.0596 59.578 89.4496 59.409 89.8396 59.24C89.6446 58.85 89.4626 58.486 89.2676 58.148C89.0856 57.823 88.7736 57.355 88.5136 57.017L90.1776 56.38C90.2946 56.614 90.5546 57.147 90.6976 57.381C90.8926 57.758 91.1006 58.174 91.2956 58.603C92.8556 57.914 94.4156 57.303 95.7286 57.303C97.7306 57.303 98.9266 58.512 98.9266 60.007C98.9266 61.814 97.6916 62.945 95.7156 62.945C95.0266 62.945 94.2206 62.763 93.7396 62.581L93.7786 60.969C94.3506 61.216 95.0006 61.398 95.5466 61.398C96.5346 61.398 97.2236 60.878 97.2236 59.955C97.2236 59.292 96.6646 58.759 95.6896 58.759C94.6886 58.759 93.2846 59.292 91.9066 59.929L92.2706 60.722C92.8686 62.126 93.8566 64.882 94.2986 66.325L92.5176 66.78C92.1146 65.168 91.4516 62.971 90.7886 61.437L90.4506 60.644C89.5276 61.099 88.7086 61.541 88.1626 61.788L87.4086 60.137ZM91.8416 56.042L93.0246 55.21C93.4926 55.561 94.2856 56.237 94.7406 56.692L93.5186 57.576C93.0636 57.121 92.3486 56.419 91.8416 56.042ZM101.046 57.16C102.515 57.16 104.855 57.095 106.584 57.069C106.584 56.913 106.584 56.77 106.571 56.679C106.545 56.263 106.506 55.769 106.454 55.561H108.326C108.287 55.769 108.248 56.458 108.235 56.666C108.235 56.77 108.222 56.9 108.222 57.056H110.978H111.953L111.94 58.577C111.16 58.538 109.951 58.512 108.209 58.512C108.222 59.162 108.222 59.864 108.222 60.423C108.547 60.904 108.703 61.528 108.703 62.204C108.703 63.881 107.715 66.013 104.569 66.897L103.204 65.519C104.504 65.246 105.635 64.817 106.35 64.05C106.168 64.089 105.973 64.115 105.765 64.115C104.764 64.115 103.542 63.322 103.542 61.749C103.542 60.293 104.712 59.344 106.116 59.344C106.298 59.344 106.467 59.357 106.623 59.383L106.61 58.525C104.66 58.551 102.671 58.629 101.085 58.72L101.046 57.16ZM105.089 61.723C105.089 62.321 105.57 62.685 106.077 62.685C106.532 62.685 106.961 62.386 106.961 61.593C106.961 61.463 106.948 61.32 106.922 61.164C106.74 60.852 106.441 60.709 106.077 60.709C105.583 60.709 105.089 61.047 105.089 61.723ZM115.203 60.995C115.203 60.527 115.554 60.072 116.23 59.513C117.231 58.694 118.999 57.264 119.87 56.406C120.234 56.055 120.65 55.626 120.858 55.327L122.366 56.666C121.963 56.965 121.534 57.303 121.235 57.537C120.403 58.213 118.7 59.526 117.842 60.267C117.504 60.553 117.335 60.735 117.335 60.917C117.335 61.099 117.517 61.294 117.868 61.593C118.83 62.412 121.313 64.375 122.587 65.61L121.092 66.988C120.728 66.585 120.325 66.182 119.961 65.792C119.259 65.051 117.296 63.374 116.113 62.373C115.502 61.853 115.203 61.424 115.203 60.995ZM126.409 63.972L127.631 62.919C128.554 63.673 129.776 64.934 130.478 65.779L129.23 66.845C128.424 65.857 127.319 64.739 126.409 63.972ZM145.87 56.237V57.576H139.604V56.237H141.983V55.08H143.478V56.237H145.87ZM143.933 63.439H141.502V65.155H143.933V63.439ZM140.072 67.144V62.1H145.441V67.092H143.933V66.494H141.502V67.144H140.072ZM143.816 57.615L145.272 57.927C144.986 58.642 144.726 59.357 144.505 59.851H146.013V61.255H139.331V59.851H140.813C140.774 59.331 140.579 58.525 140.358 57.927L141.619 57.667C141.892 58.252 142.1 59.032 142.152 59.565L140.93 59.851H144.388L143.283 59.578C143.478 59.032 143.712 58.213 143.816 57.615ZM150.316 55.665L151.447 56.367C150.992 57.628 150.42 59.123 149.9 60.228C151.005 61.398 151.2 62.412 151.2 63.27C151.2 64.219 150.992 64.856 150.498 65.207C150.251 65.376 149.939 65.48 149.614 65.532C149.315 65.571 148.938 65.571 148.574 65.558C148.574 65.142 148.444 64.479 148.197 64.037C148.483 64.063 148.73 64.076 148.925 64.063C149.107 64.05 149.276 64.024 149.406 63.959C149.64 63.816 149.718 63.517 149.718 63.075C149.718 62.373 149.432 61.437 148.392 60.423C148.769 59.5 149.185 58.174 149.497 57.186H147.924V67.131H146.416V55.73H150.082L150.316 55.665ZM158.701 60.111V60.748H159.793C160.144 60.54 160.495 60.332 160.82 60.111H158.701ZM161.561 63.621H156.634L156.595 63.634V64.141H161.561V63.621ZM156.595 65.688H161.561V65.103H156.595V65.688ZM156.166 57.277V56.471H154.723V57.277H156.166ZM157.583 56.471V57.277H159.052V56.471H157.583ZM160.469 56.471V57.277H161.977V56.471H160.469ZM164.161 61.957H160.339C159.988 62.152 159.637 62.347 159.26 62.529H163.069V67.066H161.561V66.78H156.595V67.092H155.165V64.102C154.437 64.323 153.696 64.518 152.942 64.7C152.799 64.362 152.461 63.712 152.214 63.387C153.943 63.062 155.659 62.581 157.258 61.957H152.565V60.748H157.206V60.111H153.956V58.941H157.206V58.343H153.254V55.418H163.524V58.343H158.701V58.941H161.353V59.721C161.808 59.37 162.237 58.993 162.601 58.603L163.823 59.344C163.342 59.838 162.796 60.319 162.211 60.748H164.161V61.957ZM165.825 61.931C167.177 60.683 168.087 59.539 168.659 58.395H168.503C167.983 58.395 167.034 58.369 166.332 58.304V56.796C166.982 56.9 167.944 56.939 168.594 56.939H169.218C169.374 56.354 169.465 55.834 169.478 55.47L171.168 55.613C171.103 55.925 171.012 56.367 170.856 56.887C172.065 56.822 173.365 56.718 174.496 56.51L174.483 58.018C173.248 58.2 171.662 58.304 170.284 58.356C170.076 58.811 169.816 59.279 169.543 59.656C169.881 59.487 170.57 59.396 170.999 59.396C171.779 59.396 172.429 59.734 172.715 60.397C173.378 60.085 173.924 59.864 174.457 59.63C174.951 59.409 175.406 59.188 175.874 58.967L176.524 60.462C176.108 60.566 175.432 60.826 174.99 61.008C174.418 61.229 173.69 61.515 172.897 61.879C172.91 62.594 172.936 63.543 172.949 64.128H171.402C171.428 63.751 171.441 63.153 171.454 62.594C170.505 63.114 169.985 63.621 169.985 64.258C169.985 64.973 170.596 65.168 171.857 65.168C172.949 65.168 174.379 65.025 175.51 64.791L175.458 66.468C174.6 66.572 173.027 66.676 171.818 66.676C169.803 66.676 168.282 66.195 168.282 64.531C168.282 62.893 169.842 61.853 171.311 61.099C171.103 60.774 170.765 60.657 170.414 60.657C169.686 60.657 168.893 61.073 168.399 61.541C168.009 61.931 167.645 62.399 167.203 62.958L165.825 61.931ZM184.298 62.685V57.056H186.508C186.482 56.38 186.456 55.691 186.443 55.002H187.873C187.873 55.691 187.886 56.38 187.912 57.056H189.069C188.861 56.627 188.445 56.029 188.068 55.6L189.108 55.054C189.524 55.509 190.018 56.133 190.226 56.549L189.303 57.056H190.369V58.343H187.99C188.055 59.24 188.159 60.072 188.276 60.8C188.588 60.189 188.848 59.526 189.043 58.863L190.226 59.175C189.862 60.449 189.342 61.632 188.692 62.646C188.887 63.205 189.082 63.53 189.29 63.53C189.472 63.53 189.576 63.023 189.615 61.905C189.901 62.217 190.317 62.516 190.668 62.659C190.46 64.453 190.07 64.934 189.134 64.934C188.588 64.934 188.133 64.544 187.782 63.868C187.353 64.349 186.898 64.765 186.404 65.103C186.209 64.778 185.78 64.284 185.494 64.037C186.131 63.647 186.716 63.088 187.236 62.438C186.924 61.32 186.716 59.89 186.599 58.343H185.663V61.892L186.56 61.359L186.989 62.464C185.975 63.153 184.87 63.894 183.947 64.466L183.297 63.231C183.583 63.088 183.921 62.893 184.298 62.685ZM182.283 62.945V64.921C183.076 65.233 184.064 65.311 185.273 65.311C186.196 65.311 189.459 65.311 190.564 65.272C190.317 65.623 190.07 66.338 189.966 66.793H185.26C182.699 66.793 181.022 66.442 179.917 64.752C179.735 65.584 179.462 66.39 179.033 67.092C178.838 66.78 178.344 66.312 178.032 66.156C178.864 64.687 178.942 62.672 178.877 60.917L180.177 60.995C180.19 61.489 180.19 61.996 180.177 62.503C180.372 63.075 180.606 63.53 180.892 63.894V60.163H178.383V58.811H180.632V57.719H178.825V56.367H180.632V55.002H182.049V56.367H183.804V57.719H182.049V58.811H183.999V60.163H182.283V61.606H183.83V62.945H182.283ZM192.202 65.623C192.436 65.441 192.761 65.168 193.099 64.83C193.762 64.154 196.388 61.541 197.571 60.293C196.661 60.332 195.127 60.462 194.386 60.527C193.944 60.566 193.554 60.631 193.281 60.683L193.125 58.902C193.424 58.928 193.892 58.941 194.36 58.941C194.971 58.941 197.896 58.811 198.962 58.668C199.196 58.642 199.547 58.564 199.69 58.512L200.639 59.591C200.301 59.825 200.028 60.059 199.794 60.241C199.209 60.748 198 61.853 197.701 62.178C197.818 62.178 198.052 62.217 198.182 62.282C198.559 62.399 198.793 62.672 198.975 63.153C199.092 63.504 199.209 63.998 199.326 64.323C199.443 64.726 199.729 64.921 200.236 64.921C201.224 64.921 202.108 64.83 202.758 64.7L202.654 66.39C202.121 66.494 200.795 66.572 200.132 66.572C198.91 66.572 198.247 66.312 197.935 65.467C197.792 65.09 197.649 64.492 197.558 64.167C197.402 63.712 197.129 63.543 196.869 63.543C196.609 63.543 196.336 63.751 196.037 64.063C195.582 64.518 194.62 65.558 193.736 66.689L192.202 65.623ZM194.685 56.991L194.932 55.496C196.375 55.769 198.845 56.042 200.184 56.12L199.976 57.641C198.624 57.524 196.219 57.251 194.685 56.991ZM204.19 57.082C204.697 57.069 205.191 57.043 205.451 57.017C206.517 56.913 208.649 56.731 211.002 56.523C212.328 56.419 213.745 56.341 214.642 56.302L214.655 57.966C213.966 57.966 212.861 57.979 212.172 58.135C210.625 58.551 209.455 60.215 209.455 61.736C209.455 63.855 211.444 64.609 213.615 64.726L213.017 66.507C210.313 66.325 207.765 64.869 207.765 62.087C207.765 60.228 208.805 58.772 209.663 58.122C208.558 58.239 205.841 58.525 204.346 58.85L204.19 57.082ZM221.155 55.392V56.562H217.32V55.392H221.155ZM219.894 63.907H218.503V65.389H219.894V63.907ZM221.207 62.685V66.611H218.503V67.118H217.203V62.685H221.207ZM217.242 62.022V60.852H221.142V62.022H217.242ZM221.142 59.045V60.202H217.242V59.045H221.142ZM216.631 58.408V57.186H221.571V58.408H216.631ZM226.758 65.116V63.296H223.807V65.116H226.758ZM228.825 60.189H226.03V61.905H228.305V67.079H226.758V66.507H223.807V67.131H222.338V61.905H224.457V60.189H221.662V58.746H224.457V57.16C223.729 57.251 222.988 57.316 222.299 57.368C222.247 56.991 222.052 56.406 221.883 56.068C223.833 55.899 226.017 55.561 227.395 55.119L228.487 56.406C227.746 56.627 226.914 56.796 226.03 56.939V58.746H228.825V60.189ZM231.971 55.704L234.051 55.73C233.96 56.276 233.895 56.926 233.882 57.446C233.817 58.824 233.726 61.71 233.726 63.309C233.726 64.609 234.506 65.025 235.494 65.025C237.626 65.025 238.978 63.803 239.901 62.399L241.071 63.842C240.239 65.064 238.419 66.78 235.481 66.78C233.375 66.78 232.01 65.857 232.01 63.66C232.01 61.931 232.14 58.551 232.14 57.446C232.14 56.835 232.088 56.211 231.971 55.704ZM251.289 63.179H246.154V65.298H251.289V63.179ZM244.633 67.144V61.814H252.875V67.144H251.289V66.663H246.154V67.144H244.633ZM246.076 59.162H251.328C250.249 58.317 249.287 57.381 248.663 56.523C248.052 57.394 247.142 58.317 246.076 59.162ZM247.792 55.002H249.391C250.782 56.991 252.888 58.642 254.955 59.474C254.578 59.877 254.227 60.384 253.954 60.865C253.291 60.527 252.615 60.098 251.965 59.63V60.527H245.491V59.617C244.854 60.085 244.165 60.514 243.476 60.891C243.268 60.514 242.839 59.955 242.501 59.63C244.737 58.551 246.817 56.588 247.792 55.002ZM256.554 65.623C256.788 65.441 257.113 65.168 257.451 64.83C258.114 64.154 260.74 61.541 261.923 60.293C261.013 60.332 259.479 60.462 258.738 60.527C258.296 60.566 257.906 60.631 257.633 60.683L257.477 58.902C257.776 58.928 258.244 58.941 258.712 58.941C259.323 58.941 262.248 58.811 263.314 58.668C263.548 58.642 263.899 58.564 264.042 58.512L264.991 59.591C264.653 59.825 264.38 60.059 264.146 60.241C263.561 60.748 262.352 61.853 262.053 62.178C262.17 62.178 262.404 62.217 262.534 62.282C262.911 62.399 263.145 62.672 263.327 63.153C263.444 63.504 263.561 63.998 263.678 64.323C263.795 64.726 264.081 64.921 264.588 64.921C265.576 64.921 266.46 64.83 267.11 64.7L267.006 66.39C266.473 66.494 265.147 66.572 264.484 66.572C263.262 66.572 262.599 66.312 262.287 65.467C262.144 65.09 262.001 64.492 261.91 64.167C261.754 63.712 261.481 63.543 261.221 63.543C260.961 63.543 260.688 63.751 260.389 64.063C259.934 64.518 258.972 65.558 258.088 66.689L256.554 65.623ZM259.037 56.991L259.284 55.496C260.727 55.769 263.197 56.042 264.536 56.12L264.328 57.641C262.976 57.524 260.571 57.251 259.037 56.991ZM269.005 62.477C269.915 61.736 271.462 60.423 272.229 59.799C272.944 59.201 274.283 58.122 274.92 57.563C274.257 57.576 272.489 57.654 271.813 57.706C271.462 57.719 271.059 57.758 270.76 57.81L270.708 56.133C271.072 56.172 271.514 56.198 271.878 56.198C272.554 56.198 275.31 56.133 276.038 56.068C276.571 56.029 276.87 55.977 277.026 55.938L277.858 57.082C277.546 57.277 277.247 57.472 276.961 57.667C276.272 58.148 274.92 59.292 274.114 59.942C274.543 59.825 274.907 59.799 275.323 59.799C277.507 59.799 279.171 61.164 279.171 63.036C279.171 65.064 277.624 66.676 274.517 66.676C272.723 66.676 271.371 65.857 271.371 64.57C271.371 63.53 272.32 62.568 273.685 62.568C275.271 62.568 276.233 63.543 276.428 64.765C277.13 64.388 277.481 63.79 277.481 63.01C277.481 61.853 276.311 61.073 274.816 61.073C272.84 61.073 271.553 62.126 270.175 63.686L269.005 62.477ZM272.892 64.414C272.892 64.895 273.438 65.22 274.192 65.22C274.465 65.22 274.712 65.207 274.946 65.181C274.868 64.349 274.387 63.803 273.685 63.803C273.204 63.803 272.892 64.089 272.892 64.414ZM282.499 58.356V56.523C282.889 56.562 283.63 56.627 284.059 56.627H290.065C290.325 56.627 290.741 56.614 291.092 56.523L292.366 57.342C292.249 57.602 292.145 57.966 292.08 58.252C291.781 59.526 291.209 61.541 290.13 62.984C288.947 64.544 287.218 65.831 284.904 66.572L283.487 65.012C286.061 64.414 287.53 63.283 288.583 61.97C289.441 60.891 289.935 59.409 290.104 58.304H284.046C283.461 58.304 282.837 58.33 282.499 58.356ZM295.512 60.826V59.136C296.058 59.188 296.617 59.214 297.02 59.214H303.455C303.871 59.214 304.222 59.162 304.404 59.084L305.561 59.799C305.47 59.968 305.366 60.202 305.314 60.345C304.924 61.606 304.365 62.867 303.39 63.946C302.077 65.402 300.413 66.286 298.749 66.754L297.449 65.285C299.412 64.882 300.972 64.024 301.96 63.01C302.662 62.295 303.065 61.489 303.299 60.761H297.02C296.708 60.761 296.058 60.774 295.512 60.826ZM296.708 57.706V56.029C297.072 56.081 297.618 56.094 298.06 56.094H303.065C303.468 56.094 304.105 56.081 304.469 56.029V57.706C304.118 57.68 303.507 57.667 303.039 57.667H298.06C297.644 57.667 297.085 57.68 296.708 57.706ZM308.798 59.513L310.358 58.954C310.683 59.617 311.307 61.19 311.567 61.918L309.981 62.516C309.76 61.814 309.11 60.085 308.798 59.513ZM310.371 65.805C311.801 65.428 313.608 64.44 314.687 63.088C315.571 61.983 316.195 60.254 316.338 58.629L318.171 59.214C318.015 59.63 317.937 59.903 317.859 60.163C317.521 61.476 316.975 62.828 316.091 63.972C314.882 65.532 313.257 66.624 311.736 67.196L310.371 65.805ZM311.827 58.772L313.374 58.265C313.621 58.824 314.258 60.514 314.44 61.112L312.88 61.658C312.724 61.021 312.152 59.448 311.827 58.772ZM323.761 66.559C323.839 66.052 323.891 65.272 323.891 64.752V57.29C323.891 56.822 323.852 56.172 323.761 55.717H325.789C325.737 56.172 325.672 56.744 325.672 57.29V59.201C327.414 59.708 329.91 60.631 331.106 61.216L330.365 63.01C329.026 62.308 327.076 61.554 325.672 61.073V64.752C325.672 65.129 325.737 66.039 325.789 66.559H323.761ZM333.706 63.582C334.746 62.321 335.76 60.423 336.332 59.032C336.111 59.045 335.89 59.045 335.669 59.045C335.136 59.045 334.616 59.032 334.057 59.006L333.94 57.498C334.499 57.563 335.188 57.589 335.656 57.589C336.033 57.589 336.423 57.576 336.813 57.55C336.995 56.835 337.138 56.055 337.164 55.392L338.945 55.574C338.841 55.99 338.685 56.64 338.503 57.329C339.127 57.225 339.725 57.082 340.232 56.926L340.271 58.421C339.686 58.577 338.893 58.746 338.035 58.863C337.424 60.67 336.319 62.906 335.279 64.375L333.706 63.582ZM336.761 64.635C336.761 63.374 337.814 62.399 339.608 62.399C339.907 62.399 340.206 62.425 340.479 62.451C340.44 61.489 340.375 60.358 340.336 59.578H341.961C341.948 59.786 341.935 60.007 341.935 60.215C341.935 60.54 341.948 60.878 341.961 61.229C341.974 61.593 342 62.217 342.039 62.854C343.144 63.27 344.054 63.92 344.704 64.505L343.846 65.883C343.391 65.467 342.806 64.947 342.104 64.518V64.635C342.104 65.831 341.454 66.767 339.621 66.767C338.022 66.767 336.761 66.052 336.761 64.635ZM338.282 64.479C338.282 64.96 338.685 65.285 339.387 65.285C340.258 65.285 340.544 64.778 340.544 64.089V63.842C340.206 63.764 339.868 63.712 339.504 63.712C338.763 63.712 338.282 64.024 338.282 64.479ZM341.077 58.434L341.909 57.16C342.832 57.563 344.431 58.434 345.081 58.902L344.171 60.267C343.43 59.669 341.961 58.824 341.077 58.434ZM350.411 56.549H348.37V57.186H350.411V56.549ZM348.37 58.824H350.411V58.148H348.37V58.824ZM351.867 59.877H348.37V67.131H346.862V55.483H351.867V59.877ZM354.194 58.85H356.3V58.148H354.194V58.85ZM356.3 56.549H354.194V57.186H356.3V56.549ZM357.821 55.483V65.493C357.821 66.208 357.704 66.598 357.288 66.845C356.872 67.092 356.3 67.131 355.494 67.131C355.468 66.806 355.338 66.312 355.182 65.922C355.026 66.13 354.87 66.364 354.779 66.546C353.7 66.247 352.894 65.688 352.322 64.908C351.867 65.532 351.074 66.091 349.722 66.533C349.54 66.247 349.137 65.779 348.825 65.532C350.281 65.142 350.97 64.583 351.282 64.011H349.059V62.88H351.516V62.204H349.241V61.125H350.255C350.138 60.839 349.995 60.54 349.826 60.28L351.009 59.955C351.269 60.293 351.516 60.761 351.633 61.125H352.985C353.141 60.735 353.323 60.267 353.427 59.942L354.844 60.306C354.649 60.592 354.454 60.878 354.285 61.125H355.416V62.204H352.894V62.88H355.546V64.011H353.128C353.648 64.713 354.506 65.22 355.611 65.428C355.533 65.506 355.442 65.597 355.364 65.701C355.676 65.714 355.975 65.714 356.092 65.701C356.248 65.701 356.3 65.636 356.3 65.48V59.916H352.725V55.483H357.821ZM361.786 55.028L363.216 55.47C362.93 56.25 362.579 57.056 362.189 57.836V67.131H360.694V60.332C360.382 60.774 360.057 61.177 359.732 61.528C359.602 61.164 359.186 60.293 358.939 59.929C360.07 58.733 361.149 56.887 361.786 55.028ZM364.191 63.478L365.621 63.92C365.127 64.869 364.438 65.935 363.762 66.637C363.463 66.39 362.943 66.052 362.605 65.87C363.229 65.233 363.866 64.232 364.191 63.478ZM369.937 62.646L367.701 62.763V67.131H366.167V62.828L362.917 62.984L362.696 61.528L365.127 61.463C365.257 61.333 365.387 61.216 365.517 61.073C364.893 60.488 363.905 59.773 363.112 59.253L364.009 58.252C364.23 58.382 364.464 58.525 364.698 58.681C364.984 58.291 365.283 57.836 365.556 57.394C364.867 57.459 364.178 57.524 363.528 57.576C363.476 57.212 363.294 56.653 363.125 56.315C365.465 56.12 368.117 55.73 369.768 55.249L370.782 56.484C369.794 56.757 368.637 56.965 367.441 57.147L367.493 57.173C366.908 57.914 366.258 58.746 365.712 59.37C366.024 59.591 366.297 59.812 366.531 60.007C367.246 59.201 367.935 58.343 368.442 57.602L369.859 58.252C369.001 59.318 367.974 60.449 366.999 61.411C367.727 61.385 368.481 61.359 369.235 61.333C369.04 60.995 368.819 60.67 368.611 60.371L369.898 59.864C370.6 60.774 371.341 62.022 371.653 62.867L370.262 63.465C370.184 63.231 370.08 62.945 369.937 62.646ZM368.338 64.011L369.599 63.413C370.223 64.154 370.977 65.181 371.276 65.87L369.924 66.559C369.664 65.857 368.962 64.791 368.338 64.011ZM381.247 65.246H384.315V66.715H376.229V65.246H379.7V62.646H377.191V61.203H379.7V59.071H378.27C378.075 59.747 377.815 60.371 377.542 60.865C377.23 60.67 376.528 60.319 376.164 60.163C376.294 59.929 376.424 59.682 376.554 59.409L375.813 59.747C375.735 59.357 375.54 58.785 375.319 58.252V67.131H373.772V57.836C373.694 58.928 373.486 60.358 373.187 61.281L372.043 60.865C372.355 60.007 372.589 58.551 372.68 57.485L373.772 57.641V54.989H375.319V57.446L376.073 57.134C376.333 57.641 376.606 58.265 376.788 58.772C377.113 57.823 377.347 56.705 377.477 55.6L378.985 55.808C378.894 56.419 378.79 57.03 378.66 57.615H379.7V55.067H381.247V57.615H383.899V59.071H381.247V61.203H383.626V62.646H381.247V65.246ZM385.264 64.856C385.264 63.712 386.187 62.789 387.318 62.789C388.462 62.789 389.398 63.712 389.398 64.856C389.398 66 388.462 66.936 387.318 66.936C386.187 66.936 385.264 66 385.264 64.856ZM386.122 64.856C386.122 65.532 386.668 66.065 387.318 66.065C387.994 66.065 388.527 65.532 388.527 64.856C388.527 64.193 387.994 63.66 387.318 63.66C386.668 63.66 386.122 64.193 386.122 64.856Z" fill="black"/>
</svg>
