<svg width="351" height="65" viewBox="0 0 351 65" fill="none" xmlns="http://www.w3.org/2000/svg">
<path d="M101.1 3.735V5.28H93.87V3.735H96.615V2.4H98.34V3.735H101.1ZM98.865 12.045H96.06V14.025H98.865V12.045ZM94.41 16.32V10.5H100.605V16.26H98.865V15.57H96.06V16.32H94.41ZM98.73 5.325L100.41 5.685C100.08 6.51 99.78 7.335 99.525 7.905H101.265V9.525H93.555V7.905H95.265C95.22 7.305 94.995 6.375 94.74 5.685L96.195 5.385C96.51 6.06 96.75 6.96 96.81 7.575L95.4 7.905H99.39L98.115 7.59C98.34 6.96 98.61 6.015 98.73 5.325ZM106.23 3.075L107.535 3.885C107.01 5.34 106.35 7.065 105.75 8.34C107.025 9.69 107.25 10.86 107.25 11.85C107.25 12.945 107.01 13.68 106.44 14.085C106.155 14.28 105.795 14.4 105.42 14.46C105.075 14.505 104.64 14.505 104.22 14.49C104.22 14.01 104.07 13.245 103.785 12.735C104.115 12.765 104.4 12.78 104.625 12.765C104.835 12.75 105.03 12.72 105.18 12.645C105.45 12.48 105.54 12.135 105.54 11.625C105.54 10.815 105.21 9.735 104.01 8.565C104.445 7.5 104.925 5.97 105.285 4.83H103.47V16.305H101.73V3.15H105.96L106.23 3.075ZM115.905 8.205V8.94H117.165C117.57 8.7 117.975 8.46 118.35 8.205H115.905ZM119.205 12.255H113.52L113.475 12.27V12.855H119.205V12.255ZM113.475 14.64H119.205V13.965H113.475V14.64ZM112.98 4.935V4.005H111.315V4.935H112.98ZM114.615 4.005V4.935H116.31V4.005H114.615ZM117.945 4.005V4.935H119.685V4.005H117.945ZM122.205 10.335H117.795C117.39 10.56 116.985 10.785 116.55 10.995H120.945V16.23H119.205V15.9H113.475V16.26H111.825V12.81C110.985 13.065 110.13 13.29 109.26 13.5C109.095 13.11 108.705 12.36 108.42 11.985C110.415 11.61 112.395 11.055 114.24 10.335H108.825V8.94H114.18V8.205H110.43V6.855H114.18V6.165H109.62V2.79H121.47V6.165H115.905V6.855H118.965V7.755C119.49 7.35 119.985 6.915 120.405 6.465L121.815 7.32C121.26 7.89 120.63 8.445 119.955 8.94H122.205V10.335ZM124.875 15.255C124.89 15.18 124.92 13.875 124.92 13.155V5.82C124.92 5.4 124.92 4.785 124.89 4.365C125.505 4.38 126.075 4.395 126.48 4.395H134.73C135.105 4.395 135.675 4.395 136.215 4.365C136.185 4.815 136.185 5.37 136.185 5.82V13.17C136.185 13.755 136.215 15.195 136.215 15.255H134.145L134.16 14.43H126.93L126.945 15.255H124.875ZM126.93 12.525H134.175V6.3H126.93V12.525ZM139.38 10.41V8.055C139.92 8.1 141.015 8.145 141.795 8.145H149.85C150.54 8.145 151.215 8.085 151.605 8.055V10.41C151.245 10.395 150.48 10.335 149.85 10.335H141.795C140.94 10.335 139.935 10.365 139.38 10.41ZM154.275 9.3V7.335C154.725 7.38 155.25 7.425 155.715 7.425H165.54C165.855 7.425 166.5 7.395 166.905 7.335V9.285C166.53 9.255 165.96 9.24 165.54 9.24H161.925C161.835 10.785 161.505 12.045 160.965 13.095C160.44 14.13 159.285 15.3 157.95 15.975L156.195 14.7C157.26 14.295 158.31 13.425 158.91 12.555C159.525 11.625 159.78 10.5 159.84 9.24H155.715C155.28 9.24 154.695 9.27 154.275 9.3ZM156.03 5.43V3.495C156.51 3.57 157.125 3.6 157.62 3.6H163.65C164.16 3.6 164.76 3.57 165.27 3.495V5.43C164.745 5.4 164.175 5.37 163.65 5.37H157.635C157.11 5.37 156.48 5.4 156.03 5.43ZM169.38 10.41V8.055C169.92 8.1 171.015 8.145 171.795 8.145H179.85C180.54 8.145 181.215 8.085 181.605 8.055V10.41C181.245 10.395 180.48 10.335 179.85 10.335H171.795C170.94 10.335 169.935 10.365 169.38 10.41ZM183.937 8.205L185.032 6.54C186.037 7.08 187.687 8.115 188.452 8.655L187.357 10.335C186.502 9.75 184.957 8.73 183.937 8.205ZM184.552 13.77C186.232 13.485 188.032 12.975 189.667 12.09C192.217 10.665 194.302 8.61 195.502 6.465L196.657 8.505C195.262 10.575 193.147 12.48 190.687 13.89C189.157 14.76 187.012 15.51 185.677 15.75L184.552 13.77ZM186.247 4.77L187.342 3.12C188.332 3.675 189.982 4.725 190.762 5.265L189.637 6.93C188.797 6.345 187.237 5.325 186.247 4.77ZM200.737 15.57V13.725C200.992 13.755 201.502 13.785 202.042 13.785H207.712V11.79H202.927C202.357 11.79 201.637 11.805 201.292 11.82V10.05C201.682 10.08 202.357 10.095 202.927 10.095H207.712V8.28H202.762C202.207 8.28 201.262 8.31 200.902 8.34V6.525C201.292 6.57 202.207 6.6 202.762 6.6H208.432C208.792 6.6 209.347 6.585 209.587 6.57C209.572 6.765 209.572 7.26 209.572 7.575V15.105C209.572 15.345 209.587 15.855 209.587 16.125H207.697C207.712 15.99 207.712 15.75 207.712 15.525H202.027C201.607 15.525 200.992 15.555 200.737 15.57ZM214.447 13.59C216.787 13.26 218.737 12.495 220.192 11.625C222.742 10.11 224.707 7.815 225.652 5.79L226.822 7.905C225.682 9.93 223.687 12 221.272 13.455C219.757 14.37 217.822 15.21 215.707 15.57L214.447 13.59ZM214.912 5.1L216.322 3.6C217.372 4.305 219.322 5.865 220.192 6.765L218.662 8.34C217.882 7.5 216.007 5.865 214.912 5.1ZM229.672 7.02H231.697V5.895H230.182C230.017 6.315 229.837 6.69 229.672 7.02ZM233.392 5.895V7.02H236.677V8.625H233.392V9.72H236.317V13.545C236.317 14.235 236.212 14.655 235.777 14.91C235.357 15.165 234.787 15.195 234.037 15.18C233.992 14.73 233.797 14.1 233.602 13.665C234.022 13.695 234.382 13.695 234.532 13.68C234.667 13.68 234.712 13.65 234.712 13.5V11.31H233.392V16.29H231.697V11.31H230.467V15.105H228.877V9.72H231.697V8.625H228.292V7.02H229.417C229.027 6.825 228.412 6.57 228.067 6.45C228.682 5.505 229.177 3.99 229.447 2.565L231.082 2.91C230.992 3.375 230.872 3.825 230.737 4.275H231.697V2.385H233.392V4.275H236.077V5.895H233.392ZM239.017 3.525V11.97H237.352V3.525H239.017ZM240.037 2.55H241.747V14.19C241.747 15.15 241.552 15.63 241.012 15.93C240.457 16.215 239.587 16.275 238.432 16.275C238.372 15.78 238.132 15 237.907 14.475C238.672 14.505 239.452 14.505 239.707 14.505C239.947 14.49 240.037 14.43 240.037 14.175V2.55ZM246.112 5.235V7.845C246.112 10.275 245.887 13.95 244.522 16.26C244.222 15.96 243.472 15.465 243.067 15.285C244.312 13.155 244.402 10.035 244.402 7.845V3.645H249.742V2.31H251.602V3.645H256.927V5.235H246.112ZM252.922 7.905H250.192V8.895H252.922V7.905ZM254.692 10.245H248.512V7.905H246.487V6.495H248.512V5.505H250.192V6.495H252.922V5.505H254.692V6.495H256.852V7.905H254.692V10.245ZM253.477 12.24H249.922C250.372 12.72 250.972 13.125 251.677 13.47C252.367 13.14 252.982 12.72 253.477 12.24ZM254.992 10.77L256.102 11.325C255.502 12.525 254.617 13.455 253.537 14.175C254.632 14.49 255.877 14.7 257.227 14.82C256.867 15.195 256.402 15.885 256.177 16.35C254.452 16.14 252.922 15.75 251.617 15.165C250.147 15.75 248.467 16.11 246.682 16.335C246.547 15.885 246.232 15.21 245.962 14.835C247.342 14.715 248.662 14.505 249.847 14.16C249.187 13.695 248.602 13.14 248.122 12.495L248.827 12.24H246.592V10.845H254.677L254.992 10.77Z" fill="#005794"/>
<path d="M3.835 37.206V33.956H2.665V37.206H3.835ZM5.317 30.004H3.406C3.237 30.875 3.003 31.759 2.717 32.591H5.148V38.571H2.665V39.52H1.378V35.477C1.209 35.724 1.027 35.971 0.845 36.192C0.793 35.776 0.533 34.788 0.325 34.346C1.118 33.28 1.651 31.707 1.976 30.004H0.598V28.6H5.317V30.004ZM8.281 33.28H9.737V30.069H8.281V33.28ZM12.571 33.28V34.736H11.206V40.144H9.737V34.736H8.255C8.177 36.647 7.8 38.818 6.461 40.235C6.201 39.962 5.642 39.533 5.291 39.338C6.409 38.129 6.734 36.322 6.812 34.736H5.603V33.28H6.838V30.069H5.941V28.639H12.311V30.069H11.206V33.28H12.571ZM20.189 30.485H18.759C18.473 32.487 17.732 33.722 14.495 34.359C14.365 33.969 13.988 33.397 13.702 33.111C16.393 32.669 16.926 31.863 17.121 30.485H15.509V31.759H13.949V29.107H18.733V27.989H20.319V29.107H25.181V31.642H23.556V30.485H21.723V32.227C21.723 32.578 21.775 32.617 22.165 32.617H23.205C23.517 32.617 23.582 32.5 23.634 31.733C23.92 31.941 24.557 32.175 24.973 32.266C24.804 33.618 24.401 33.982 23.374 33.982H21.918C20.501 33.982 20.189 33.553 20.189 32.253V30.485ZM23.127 38.519H23.842C24.115 38.519 24.167 38.298 24.219 36.673C24.531 36.946 25.259 37.206 25.675 37.323C25.532 39.468 25.129 40.04 24.011 40.04H22.841C21.567 40.04 21.177 39.598 21.177 38.077V36.257H19.344C19.019 37.765 17.914 39.325 14.534 40.196C14.313 39.806 13.832 39.26 13.507 38.922C16.211 38.246 17.277 37.245 17.68 36.257H14.482V34.827H17.888V33.397H19.448V34.827H22.802V38.064C22.802 38.467 22.854 38.519 23.127 38.519ZM30.836 34.06C30.836 33.15 31.59 32.396 32.5 32.396C33.41 32.396 34.164 33.15 34.164 34.06C34.164 34.97 33.41 35.724 32.5 35.724C31.59 35.724 30.836 34.97 30.836 34.06ZM50.869 28.08V33.28C50.869 33.943 50.739 34.268 50.271 34.463C49.816 34.658 49.179 34.671 48.282 34.671C48.217 34.307 48.009 33.787 47.827 33.449C48.412 33.475 49.036 33.475 49.218 33.462C49.413 33.462 49.465 33.41 49.465 33.241V28.08H50.869ZM48.048 28.509V32.838H46.67V28.509H48.048ZM49.569 36.205H46.8C47.047 36.621 47.359 36.998 47.723 37.323C48.334 37.011 49.049 36.582 49.569 36.205ZM40.755 30.329H42.315V29.809H41.08C40.976 29.991 40.872 30.173 40.755 30.329ZM50.037 36.205L50.908 36.855C50.245 37.297 49.452 37.726 48.763 38.051C49.543 38.467 50.479 38.753 51.584 38.922C51.285 39.221 50.921 39.78 50.739 40.157C48.035 39.637 46.41 38.415 45.435 36.348C44.98 36.686 44.46 36.998 43.901 37.271V38.402C44.746 38.298 45.63 38.181 46.501 38.064L46.553 39.273C44.72 39.533 42.783 39.793 41.353 40.001L41.132 38.74C41.509 38.701 41.951 38.649 42.419 38.597V37.869C41.73 38.103 41.002 38.285 40.274 38.415C40.092 38.09 39.728 37.583 39.455 37.297C40.885 37.102 42.354 36.725 43.472 36.205H39.676V34.983H44.733V34.32H44.213C44.148 34.021 43.966 33.67 43.836 33.423C44.135 33.436 44.447 33.436 44.538 33.436C44.655 33.436 44.694 33.397 44.694 33.293V32.76H43.628V34.658H42.315V32.76H41.34V34.372H40.17V31.824H42.315V31.369H39.65V30.329H40.443C40.183 30.173 39.845 29.978 39.637 29.874C40.066 29.38 40.43 28.678 40.651 28.002L41.782 28.288C41.717 28.47 41.652 28.639 41.574 28.821H42.315V27.989H43.628V28.821H45.786V29.809H43.628V30.329H46.137V31.369H43.628V31.824H45.929V33.293C45.929 33.787 45.838 34.021 45.5 34.177C45.331 34.255 45.123 34.294 44.889 34.307H46.267V34.983H51.337V36.205H50.037ZM59.501 30.758H57.876C57.603 31.174 57.317 31.551 57.018 31.863H59.501V30.758ZM56.043 31.863H56.992C56.68 31.629 56.056 31.304 55.705 31.135C56.511 30.42 57.174 29.276 57.551 28.106L58.994 28.444C58.877 28.782 58.747 29.12 58.591 29.445H59.501V28.002H61.035V29.445H63.869V30.758H61.035V31.863H64.402V33.15H56.043V31.863ZM58.591 35.087V36.413H62.01V35.087H58.591ZM63.622 37.648H57.083V33.865H63.622V37.648ZM55.939 30.251L54.717 31.278C54.314 30.654 53.391 29.796 52.624 29.224L53.768 28.288C54.548 28.834 55.497 29.64 55.939 30.251ZM55.614 33.033V37.115C56.147 37.986 57.122 38.337 58.474 38.389C59.995 38.454 62.92 38.415 64.649 38.285C64.48 38.649 64.246 39.403 64.168 39.845C62.608 39.923 59.995 39.949 58.448 39.884C56.849 39.819 55.783 39.455 54.938 38.441C54.366 38.948 53.794 39.455 53.079 40.001L52.325 38.389C52.884 38.064 53.534 37.635 54.106 37.193V34.45H52.611V33.033H55.614ZM69.836 34.06C69.836 33.15 70.59 32.396 71.5 32.396C72.41 32.396 73.164 33.15 73.164 34.06C73.164 34.97 72.41 35.724 71.5 35.724C70.59 35.724 69.836 34.97 69.836 34.06ZM87.62 38.389V37.258H81.523V38.389H87.62ZM82.576 33.098V34.008H86.437V33.098H82.576ZM87.932 35.139H85.189C85.085 35.425 84.968 35.685 84.851 35.932H89.154V40.157H87.62V39.728H81.523V40.157H80.054V35.932H83.317C83.382 35.672 83.46 35.399 83.512 35.139H81.146V31.954H87.932V35.139ZM88.27 30.004H90.09V32.773H88.595V31.317H80.47V32.773H79.066V30.004H80.639C80.405 29.588 80.08 29.12 79.781 28.73L81.12 28.158C81.549 28.652 82.056 29.341 82.277 29.822L81.861 30.004H83.863C83.681 29.536 83.33 28.899 83.018 28.405L84.37 27.95C84.747 28.457 85.176 29.198 85.358 29.666L84.448 30.004H86.58C86.996 29.445 87.49 28.652 87.737 28.041L89.401 28.561C89.024 29.055 88.634 29.575 88.27 30.004ZM99.099 31.369H95.992C96.174 31.707 96.343 32.084 96.434 32.37L96.213 32.409H98.644C98.8 32.097 98.956 31.72 99.099 31.369ZM103.298 37.167H99.528C100.633 37.843 102.141 38.35 103.649 38.584C103.298 38.922 102.843 39.572 102.609 39.988C101.01 39.585 99.437 38.805 98.241 37.791V40.131H96.72V37.869C95.511 38.818 93.912 39.572 92.365 39.975C92.144 39.598 91.702 39 91.377 38.688C92.833 38.389 94.367 37.843 95.485 37.167H91.754V35.893H96.72V35.321H92.976V34.203H96.72V33.618H92.326V32.409H94.796C94.692 32.084 94.523 31.694 94.354 31.395L94.51 31.369H91.793V30.108H93.535C93.353 29.614 93.015 28.99 92.729 28.496L94.055 28.041C94.432 28.6 94.861 29.367 95.043 29.874L94.406 30.108H95.589V27.989H97.032V30.108H97.994V27.989H99.45V30.108H100.607L100.139 29.965C100.451 29.432 100.776 28.652 100.958 28.08L102.583 28.47C102.219 29.068 101.868 29.653 101.569 30.108H103.259V31.369H100.815C100.607 31.746 100.399 32.097 100.204 32.409H102.752V33.618H98.241V34.203H102.141V35.321H98.241V35.893H103.298V37.167ZM108.836 34.06C108.836 33.15 109.59 32.396 110.5 32.396C111.41 32.396 112.164 33.15 112.164 34.06C112.164 34.97 111.41 35.724 110.5 35.724C109.59 35.724 108.836 34.97 108.836 34.06ZM121.602 29.588H119.561V30.251H121.602V29.588ZM119.561 31.967H121.602V31.252H119.561V31.967ZM123.058 33.085H119.561V40.131H118.053V28.483H123.058V33.085ZM122.85 35.945H124.059V34.97H122.85V35.945ZM126.841 37.206H125.411V39.884H124.059V37.206H122.811C122.681 38.103 122.252 39.364 121.147 40.118C120.926 39.845 120.458 39.442 120.159 39.234C120.991 38.714 121.355 37.869 121.485 37.206H120.172V35.945H121.537V34.97H120.354V33.748H126.633V34.97H125.411V35.945H126.841V37.206ZM125.385 31.993H127.491V31.252H125.385V31.993ZM127.491 29.588H125.385V30.251H127.491V29.588ZM129.012 28.483V38.324C129.012 39.117 128.869 39.546 128.401 39.793C127.933 40.053 127.257 40.092 126.269 40.092C126.217 39.663 126.009 38.961 125.801 38.558C126.386 38.584 127.023 38.584 127.218 38.571C127.426 38.571 127.491 38.493 127.491 38.311V33.111H123.916V28.483H129.012ZM137.241 35.308V33.839H135.642V35.308H137.241ZM140.036 33.839H138.853V35.308H141.622V36.725H138.853V38.129C138.853 38.597 138.905 38.675 139.269 38.675H140.27C140.608 38.675 140.673 38.415 140.725 37.193C141.05 37.453 141.674 37.713 142.116 37.804C141.96 39.52 141.557 40.04 140.413 40.04H138.996C137.592 40.04 137.241 39.585 137.241 38.142V36.725H135.525C135.239 38.09 134.381 39.377 131.976 40.183C131.781 39.832 131.313 39.234 130.988 38.948C132.782 38.402 133.562 37.596 133.887 36.725H131.313V35.308H134.095V33.839H133.003V33.41C132.457 33.813 131.872 34.151 131.274 34.437C131.066 34.086 130.637 33.553 130.338 33.267C131.092 32.955 131.833 32.5 132.496 31.928C132.158 31.59 131.638 31.148 131.209 30.823L132.184 30.017C132.574 30.29 133.068 30.667 133.432 30.979C133.744 30.615 134.017 30.225 134.251 29.809H131.599V28.483H134.992L135.265 28.431L136.305 28.912C135.85 30.277 135.109 31.434 134.186 32.37H138.892C137.878 31.278 137.098 29.926 136.526 28.392L137.917 28.002C138.099 28.483 138.307 28.951 138.567 29.393C138.996 29.003 139.425 28.548 139.724 28.184L140.894 29.016C140.361 29.497 139.763 30.004 139.23 30.394C139.412 30.628 139.607 30.849 139.815 31.07C140.335 30.628 140.907 30.108 141.271 29.666L142.402 30.472C141.869 30.953 141.245 31.473 140.686 31.876C141.284 32.357 141.96 32.76 142.701 33.059C142.337 33.371 141.869 33.982 141.635 34.398C141.063 34.125 140.53 33.8 140.036 33.423V33.839ZM143.897 36.582C144.937 35.321 145.951 33.423 146.523 32.032C146.302 32.045 146.081 32.045 145.86 32.045C145.327 32.045 144.807 32.032 144.248 32.006L144.131 30.498C144.69 30.563 145.379 30.589 145.847 30.589C146.224 30.589 146.614 30.576 147.004 30.55C147.186 29.835 147.329 29.055 147.355 28.392L149.136 28.574C149.032 28.99 148.876 29.64 148.694 30.329C149.318 30.225 149.916 30.082 150.423 29.926L150.462 31.421C149.877 31.577 149.084 31.746 148.226 31.863C147.615 33.67 146.51 35.906 145.47 37.375L143.897 36.582ZM146.952 37.635C146.952 36.374 148.005 35.399 149.799 35.399C150.098 35.399 150.397 35.425 150.67 35.451C150.631 34.489 150.566 33.358 150.527 32.578H152.152C152.139 32.786 152.126 33.007 152.126 33.215C152.126 33.54 152.139 33.878 152.152 34.229C152.165 34.593 152.191 35.217 152.23 35.854C153.335 36.27 154.245 36.92 154.895 37.505L154.037 38.883C153.582 38.467 152.997 37.947 152.295 37.518V37.635C152.295 38.831 151.645 39.767 149.812 39.767C148.213 39.767 146.952 39.052 146.952 37.635ZM148.473 37.479C148.473 37.96 148.876 38.285 149.578 38.285C150.449 38.285 150.735 37.778 150.735 37.089V36.842C150.397 36.764 150.059 36.712 149.695 36.712C148.954 36.712 148.473 37.024 148.473 37.479ZM151.268 31.434L152.1 30.16C153.023 30.563 154.622 31.434 155.272 31.902L154.362 33.267C153.621 32.669 152.152 31.824 151.268 31.434ZM157.859 36.569C157.859 35.152 158.73 34.099 159.991 33.176C159.393 32.097 159.172 30.524 159.003 28.951L160.745 28.678C160.836 30.212 161.161 31.356 161.59 32.448C162.695 31.993 163.865 31.668 164.489 31.473C164.983 31.317 165.503 31.174 165.893 30.979L166.335 32.695C165.88 32.786 165.49 32.903 164.814 33.085C163.878 33.345 162.682 33.696 161.499 34.242C160.446 34.723 159.64 35.464 159.64 36.374C159.64 37.297 160.511 37.791 162.305 37.791C163.631 37.791 165.373 37.583 166.517 37.323L166.491 39.182C165.399 39.364 164.034 39.494 162.357 39.494C159.796 39.494 157.859 38.779 157.859 36.569ZM163.956 28.899L164.983 28.483C165.308 28.964 165.776 29.783 166.023 30.264L164.97 30.719C164.697 30.186 164.307 29.406 163.956 28.899ZM165.49 28.314L166.53 27.898C166.868 28.392 167.349 29.211 167.583 29.666L166.543 30.108C166.27 29.562 165.854 28.808 165.49 28.314ZM178.724 36.582H176.696C176.982 36.907 177.32 37.193 177.71 37.44C178.1 37.193 178.438 36.907 178.724 36.582ZM176.384 33.345V33.891H179.244V33.345H176.384ZM176.384 31.928V32.461H179.244V31.928H176.384ZM179.894 35.399L180.804 35.919C180.401 36.816 179.803 37.544 179.075 38.129C179.868 38.441 180.778 38.649 181.779 38.779C181.441 39.104 181.038 39.715 180.83 40.131C179.634 39.91 178.581 39.546 177.684 39.026C176.644 39.559 175.461 39.91 174.213 40.144C174.083 39.767 173.693 39.117 173.446 38.831C174.512 38.688 175.513 38.454 176.397 38.103C176.111 37.843 175.838 37.57 175.604 37.258C175.292 37.479 174.954 37.687 174.59 37.882C174.369 37.557 173.914 37.076 173.589 36.868C174.824 36.309 175.721 35.568 176.293 34.84H174.98V31.577C174.863 31.72 174.733 31.85 174.603 31.98C174.408 31.733 174.018 31.395 173.693 31.187C173.407 32.019 173.03 32.851 172.601 33.631L172.926 34.034C173.173 33.631 173.446 33.137 173.602 32.799L174.473 33.41C174.135 33.904 173.797 34.398 173.498 34.788C173.771 35.139 174.005 35.451 174.109 35.594L173.251 36.608C173.069 36.231 172.744 35.685 172.406 35.165V40.131H171.028V35.958C170.677 36.387 170.313 36.764 169.949 37.089C169.832 36.712 169.481 35.984 169.247 35.724C170.365 34.827 171.47 33.28 172.146 31.707H169.637V30.368H171.015V28.054H172.393V30.368H172.809L173.043 30.316L173.823 30.81C174.655 29.939 175.227 28.886 175.552 27.989L176.982 28.223C176.852 28.535 176.709 28.834 176.566 29.146H181.428V30.42H175.851C175.734 30.615 175.604 30.797 175.461 30.979H180.713V34.84H178.009C177.866 35.048 177.723 35.256 177.554 35.451H179.621L179.894 35.399ZM188.968 35.984H187.954C187.811 36.712 187.59 37.323 187.265 37.83C187.668 38.064 188.045 38.298 188.344 38.519C189.306 38.012 190.06 37.362 190.632 36.556C190.268 35.789 189.982 34.931 189.748 33.995C189.566 34.333 189.358 34.645 189.15 34.931C189.098 34.879 189.046 34.814 188.968 34.736V35.984ZM185.237 35.984L184.86 36.673C185.25 36.829 185.627 36.985 186.004 37.167C186.212 36.842 186.381 36.452 186.498 35.984H185.237ZM192.231 31.759H190.736C190.918 32.851 191.178 33.878 191.529 34.814C191.854 33.93 192.088 32.903 192.231 31.759ZM194.558 31.759H193.83C193.557 33.683 193.115 35.295 192.413 36.608C193.011 37.531 193.765 38.272 194.714 38.766C194.363 39.078 193.882 39.676 193.648 40.105C192.764 39.572 192.049 38.883 191.464 38.038C190.749 38.896 189.852 39.598 188.721 40.17C188.63 39.949 188.435 39.598 188.227 39.286L187.642 39.884C187.291 39.585 186.823 39.247 186.29 38.909C185.523 39.481 184.483 39.858 183.092 40.144C183.001 39.702 182.728 39.182 182.481 38.857C183.521 38.727 184.34 38.506 184.951 38.168C184.717 38.038 184.47 37.921 184.223 37.817L184.08 38.064L182.728 37.648C183.014 37.193 183.339 36.608 183.664 35.984H182.429V34.736H184.314C184.47 34.411 184.626 34.099 184.756 33.813L185.042 33.878V32.63C184.444 33.228 183.742 33.774 183.092 34.138C182.923 33.8 182.598 33.293 182.312 33.02C183.105 32.695 183.976 32.071 184.6 31.395H182.572V30.173H183.56C183.443 29.731 183.157 29.133 182.884 28.665L184.002 28.197C184.34 28.691 184.678 29.354 184.782 29.809L183.95 30.173H185.042V27.989H186.459V30.173H187.486L186.628 29.796C186.927 29.328 187.291 28.639 187.499 28.145L188.799 28.665C188.396 29.224 187.993 29.77 187.681 30.173H188.916V31.395H186.784C187.408 31.746 188.331 32.292 188.617 32.487L187.798 33.553C187.512 33.28 186.966 32.825 186.459 32.422V33.995H185.627L186.186 34.112L185.874 34.736H188.968C188.669 34.437 188.201 34.034 187.915 33.839C189.02 32.513 189.644 30.303 189.956 27.989L191.516 28.197C191.412 28.925 191.269 29.64 191.1 30.329H194.558V31.759ZM205.569 32.617V31.798H202.67V32.617H205.569ZM205.569 34.502V33.67H202.67V34.502H205.569ZM205.569 36.4V35.568H202.67V36.4H205.569ZM201.266 30.654H203.164C203.216 30.368 203.255 30.082 203.294 29.796H200.824V28.496H207.415V29.796H204.984C204.893 30.095 204.802 30.381 204.711 30.654H207.051V37.531H201.266V30.654ZM196.833 32.682V31.954C196.586 32.227 196.313 32.513 196.027 32.773C195.858 32.422 195.455 31.85 195.169 31.603C196.391 30.55 197.197 29.146 197.639 28.002H198.874C199.719 28.678 200.85 29.705 201.357 30.459L200.408 31.824C200.018 31.2 199.238 30.238 198.497 29.562C198.185 30.134 197.795 30.771 197.301 31.395H200.109V32.682H196.833ZM200.707 33.527V37.128C200.707 37.713 200.629 38.103 200.252 38.311C199.875 38.532 199.42 38.545 198.77 38.545C198.731 38.155 198.588 37.609 198.419 37.245C198.783 37.258 199.108 37.258 199.225 37.245C199.342 37.245 199.368 37.206 199.368 37.089V34.866H198.289V40.105H196.911V34.866H195.832V33.527H200.707ZM202.527 37.544L203.788 38.363C203.073 39.052 201.851 39.78 200.85 40.17C200.603 39.871 200.148 39.429 199.81 39.156C200.824 38.805 201.968 38.116 202.527 37.544ZM204.412 38.402L205.556 37.635C206.271 38.103 207.259 38.805 207.766 39.299L206.544 40.17C206.102 39.676 205.14 38.922 204.412 38.402ZM211.991 35.243L212.433 36.608C211.289 37.284 210.028 37.999 208.962 38.571L208.377 37.011C208.741 36.855 209.183 36.647 209.664 36.426V32.539H208.494V31.07H209.664V28.158H211.107V31.07H212.082V32.552H211.107V35.685L211.991 35.243ZM218.868 32.019L220.246 32.292C219.843 33.995 219.271 35.516 218.517 36.816C218.738 37.973 219.037 38.675 219.349 38.675C219.531 38.675 219.635 38.194 219.674 37.037C219.96 37.401 220.389 37.726 220.714 37.895C220.493 39.624 220.116 40.118 219.141 40.118C218.413 40.118 217.867 39.429 217.464 38.324C216.931 38.987 216.32 39.559 215.644 40.04C215.436 39.78 214.864 39.286 214.539 39.065C215.163 38.675 215.709 38.207 216.203 37.687C214.825 38.051 213.369 38.441 212.251 38.727L211.887 37.284C213.018 37.076 214.721 36.686 216.359 36.322L216.476 37.349C216.671 37.115 216.853 36.881 217.022 36.634C216.723 35.087 216.554 33.189 216.476 31.174H212.277V29.77H216.424C216.411 29.172 216.398 28.587 216.398 27.989H217.867C217.854 28.587 217.854 29.172 217.867 29.77H219.245C218.92 29.432 218.491 29.042 218.114 28.743L218.985 27.989C219.492 28.353 220.116 28.873 220.415 29.25L219.856 29.77H220.428V31.174H217.906C217.958 32.357 218.036 33.462 218.153 34.45C218.452 33.696 218.673 32.89 218.868 32.019ZM214.786 34.814V33.228H213.785V34.814H214.786ZM212.654 32.045H215.995V35.997H212.654V32.045ZM221.975 34.931C223.327 33.683 224.237 32.539 224.809 31.395H224.653C224.133 31.395 223.184 31.369 222.482 31.304V29.796C223.132 29.9 224.094 29.939 224.744 29.939H225.368C225.524 29.354 225.615 28.834 225.628 28.47L227.318 28.613C227.253 28.925 227.162 29.367 227.006 29.887C228.215 29.822 229.515 29.718 230.646 29.51L230.633 31.018C229.398 31.2 227.812 31.304 226.434 31.356C226.226 31.811 225.966 32.279 225.693 32.656C226.031 32.487 226.72 32.396 227.149 32.396C227.929 32.396 228.579 32.734 228.865 33.397C229.528 33.085 230.074 32.864 230.607 32.63C231.101 32.409 231.556 32.188 232.024 31.967L232.674 33.462C232.258 33.566 231.582 33.826 231.14 34.008C230.568 34.229 229.84 34.515 229.047 34.879C229.06 35.594 229.086 36.543 229.099 37.128H227.552C227.578 36.751 227.591 36.153 227.604 35.594C226.655 36.114 226.135 36.621 226.135 37.258C226.135 37.973 226.746 38.168 228.007 38.168C229.099 38.168 230.529 38.025 231.66 37.791L231.608 39.468C230.75 39.572 229.177 39.676 227.968 39.676C225.953 39.676 224.432 39.195 224.432 37.531C224.432 35.893 225.992 34.853 227.461 34.099C227.253 33.774 226.915 33.657 226.564 33.657C225.836 33.657 225.043 34.073 224.549 34.541C224.159 34.931 223.795 35.399 223.353 35.958L221.975 34.931ZM240.968 35.984H239.954C239.811 36.712 239.59 37.323 239.265 37.83C239.668 38.064 240.045 38.298 240.344 38.519C241.306 38.012 242.06 37.362 242.632 36.556C242.268 35.789 241.982 34.931 241.748 33.995C241.566 34.333 241.358 34.645 241.15 34.931C241.098 34.879 241.046 34.814 240.968 34.736V35.984ZM237.237 35.984L236.86 36.673C237.25 36.829 237.627 36.985 238.004 37.167C238.212 36.842 238.381 36.452 238.498 35.984H237.237ZM244.231 31.759H242.736C242.918 32.851 243.178 33.878 243.529 34.814C243.854 33.93 244.088 32.903 244.231 31.759ZM246.558 31.759H245.83C245.557 33.683 245.115 35.295 244.413 36.608C245.011 37.531 245.765 38.272 246.714 38.766C246.363 39.078 245.882 39.676 245.648 40.105C244.764 39.572 244.049 38.883 243.464 38.038C242.749 38.896 241.852 39.598 240.721 40.17C240.63 39.949 240.435 39.598 240.227 39.286L239.642 39.884C239.291 39.585 238.823 39.247 238.29 38.909C237.523 39.481 236.483 39.858 235.092 40.144C235.001 39.702 234.728 39.182 234.481 38.857C235.521 38.727 236.34 38.506 236.951 38.168C236.717 38.038 236.47 37.921 236.223 37.817L236.08 38.064L234.728 37.648C235.014 37.193 235.339 36.608 235.664 35.984H234.429V34.736H236.314C236.47 34.411 236.626 34.099 236.756 33.813L237.042 33.878V32.63C236.444 33.228 235.742 33.774 235.092 34.138C234.923 33.8 234.598 33.293 234.312 33.02C235.105 32.695 235.976 32.071 236.6 31.395H234.572V30.173H235.56C235.443 29.731 235.157 29.133 234.884 28.665L236.002 28.197C236.34 28.691 236.678 29.354 236.782 29.809L235.95 30.173H237.042V27.989H238.459V30.173H239.486L238.628 29.796C238.927 29.328 239.291 28.639 239.499 28.145L240.799 28.665C240.396 29.224 239.993 29.77 239.681 30.173H240.916V31.395H238.784C239.408 31.746 240.331 32.292 240.617 32.487L239.798 33.553C239.512 33.28 238.966 32.825 238.459 32.422V33.995H237.627L238.186 34.112L237.874 34.736H240.968C240.669 34.437 240.201 34.034 239.915 33.839C241.02 32.513 241.644 30.303 241.956 27.989L243.516 28.197C243.412 28.925 243.269 29.64 243.1 30.329H246.558V31.759ZM251.16 35.88H253.409V33.904H251.16V35.88ZM259.454 35.88V37.362H255.008V40.144H253.409V37.362H247.559V35.88H249.613V32.474H253.409V30.914H250.627C250.094 31.837 249.47 32.669 248.859 33.28C248.56 33.02 247.897 32.5 247.52 32.279C248.69 31.291 249.691 29.627 250.25 27.95L251.823 28.353C251.706 28.717 251.563 29.068 251.394 29.419H258.739V30.914H255.008V32.474H258.44V33.904H255.008V35.88H259.454ZM261.729 36.738C261.729 35.984 261.963 35.256 262.665 34.424L264.043 35.048C263.705 35.412 263.458 35.893 263.458 36.335C263.458 37.154 264.225 37.752 266.084 37.752C267.826 37.752 269.464 37.557 270.608 37.245L270.621 39.052C269.503 39.325 267.956 39.494 266.149 39.494C263.198 39.494 261.729 38.506 261.729 36.738ZM262.587 31.291V29.575C263.536 29.679 264.732 29.731 266.084 29.731C267.319 29.731 268.762 29.653 269.737 29.562C269.542 29.211 269.334 28.86 269.165 28.613L270.192 28.197C270.517 28.678 270.985 29.497 271.232 29.978L270.179 30.433C270.075 30.225 269.958 29.978 269.815 29.718V31.278C268.58 31.642 267.657 32.188 266.578 32.916L265.46 32.071C265.603 31.967 266.175 31.603 266.76 31.408C266.617 31.421 266.253 31.434 266.097 31.434C264.745 31.434 263.64 31.369 262.587 31.291ZM270.699 28.028L271.739 27.612C272.077 28.106 272.558 28.925 272.792 29.38L271.752 29.822C271.479 29.276 271.063 28.522 270.699 28.028ZM275.106 36.569C275.106 35.152 275.977 34.099 277.238 33.176C276.64 32.097 276.419 30.524 276.25 28.951L277.992 28.678C278.083 30.212 278.408 31.356 278.837 32.448C279.942 31.993 281.112 31.668 281.736 31.473C282.23 31.317 282.75 31.174 283.14 30.979L283.582 32.695C283.127 32.786 282.737 32.903 282.061 33.085C281.125 33.345 279.929 33.696 278.746 34.242C277.693 34.723 276.887 35.464 276.887 36.374C276.887 37.297 277.758 37.791 279.552 37.791C280.878 37.791 282.62 37.583 283.764 37.323L283.738 39.182C282.646 39.364 281.281 39.494 279.604 39.494C277.043 39.494 275.106 38.779 275.106 36.569ZM287.378 35.282C287.378 33.345 287.768 31.174 287.911 30.186C287.963 29.822 288.041 29.328 288.041 28.925L289.848 29.081C289.744 29.341 289.588 29.991 289.536 30.225C289.354 31.083 288.912 33.657 288.912 34.944C288.912 35.191 288.925 35.503 288.964 35.776C289.146 35.321 289.354 34.892 289.536 34.476L290.342 35.1C289.978 36.179 289.549 37.57 289.419 38.259C289.38 38.441 289.341 38.727 289.341 38.857C289.354 39 289.354 39.208 289.367 39.39L287.885 39.494C287.625 38.597 287.378 37.024 287.378 35.282ZM291.161 36.972C291.161 36.439 291.252 35.893 291.382 35.295L292.864 35.438C292.76 35.854 292.708 36.166 292.708 36.517C292.708 37.089 293.202 37.427 294.502 37.427C295.659 37.427 296.608 37.323 297.726 37.089L297.765 38.831C296.933 38.987 295.893 39.091 294.437 39.091C292.214 39.091 291.161 38.285 291.161 36.972ZM291.824 29.926C292.565 30.03 293.514 30.069 294.463 30.069C295.542 30.069 296.621 30.017 297.362 29.926V31.59C296.569 31.668 295.594 31.694 294.606 31.694C293.618 31.694 292.643 31.668 291.837 31.59L291.824 29.926ZM299.923 35.594L301.197 35.815C301.067 37.037 300.794 38.337 300.417 39.169C300.144 39 299.572 38.727 299.234 38.61C299.611 37.843 299.819 36.686 299.923 35.594ZM302.744 35.828L303.836 35.49C304.161 36.231 304.499 37.18 304.642 37.83L303.498 38.246C303.381 37.596 303.043 36.595 302.744 35.828ZM308.698 36.894V38.415H311.545V39.767H304.2V38.415H307.177V36.894H304.967V35.529H307.177V33.982H308.698V35.529H311.012V36.894H308.698ZM309.101 29.913H306.579C306.891 30.485 307.32 31.005 307.827 31.46C308.334 31.005 308.763 30.485 309.101 29.913ZM310.154 28.522L311.194 28.99C310.726 30.368 309.998 31.473 309.075 32.357C309.855 32.799 310.752 33.137 311.74 33.345C311.415 33.644 310.999 34.229 310.791 34.593C309.699 34.294 308.724 33.865 307.892 33.293C307.008 33.878 306.007 34.32 304.928 34.658C304.759 34.307 304.408 33.735 304.109 33.41C304.356 33.969 304.564 34.528 304.642 34.944L303.55 35.438C303.511 35.243 303.459 35.022 303.381 34.775L302.718 34.827V40.144H301.379V34.918L299.494 35.035L299.364 33.696L300.3 33.657C300.495 33.41 300.703 33.124 300.911 32.825C300.534 32.266 299.91 31.577 299.377 31.057L300.118 30.004C300.209 30.082 300.313 30.173 300.417 30.264C300.781 29.549 301.145 28.691 301.366 28.002L302.705 28.496C302.237 29.38 301.717 30.381 301.249 31.109C301.418 31.291 301.561 31.473 301.691 31.629C302.133 30.901 302.549 30.16 302.848 29.523L304.109 30.108C303.394 31.239 302.497 32.552 301.678 33.605L302.926 33.553C302.783 33.228 302.627 32.903 302.471 32.617L303.498 32.188C303.706 32.552 303.914 32.968 304.096 33.384C305.032 33.137 305.903 32.773 306.683 32.305C306.072 31.694 305.565 30.992 305.149 30.186L305.981 29.913H304.499V28.587H309.881L310.154 28.522ZM313.066 39.403L312.286 38.974C312.728 38.311 312.884 37.219 312.936 36.114L313.794 36.283C313.729 37.466 313.599 38.675 313.066 39.403ZM313.911 36.387L314.574 36.322C314.691 37.076 314.743 38.077 314.704 38.701L314.002 38.792C314.041 38.142 314.002 37.154 313.911 36.387ZM314.795 36.322L315.445 36.192C315.653 36.868 315.835 37.726 315.874 38.285L315.198 38.428C315.172 37.869 315.003 36.998 314.795 36.322ZM316.433 34.359H318.071C318.071 34.359 318.071 34.697 318.058 34.866C317.967 37.011 317.889 38.259 317.746 38.948C319.085 38.272 319.787 37.414 320.138 36.504H318.292V33.072H320.502V32.37H319.176V31.668C318.851 31.941 318.526 32.201 318.175 32.409C318.032 32.071 317.785 31.616 317.564 31.291V31.603H316.433V32.383H317.564V33.553H316.433V34.359ZM314.314 33.553V34.359H315.198V33.553H314.314ZM315.198 31.603H314.314V32.383H315.198V31.603ZM315.198 29.718H314.314V30.433H315.198V29.718ZM319.683 31.187H322.634C322.023 30.615 321.477 29.939 321.113 29.341C320.775 29.926 320.268 30.589 319.683 31.187ZM322.881 34.19H321.867V34.242C321.867 34.619 321.854 34.996 321.815 35.386H322.881V34.19ZM319.553 35.386H320.424C320.489 34.996 320.502 34.606 320.502 34.229V34.19H319.553V35.386ZM324.194 36.504H322.283C322.803 37.557 323.622 38.428 324.714 38.896C324.402 39.182 323.96 39.728 323.739 40.118C322.66 39.559 321.867 38.584 321.308 37.375C320.84 38.428 319.969 39.403 318.422 40.157C318.266 39.897 317.941 39.507 317.668 39.247C317.616 39.416 317.564 39.533 317.499 39.611C317.278 39.91 317.044 40.027 316.719 40.066C316.459 40.118 316.043 40.131 315.575 40.105C315.562 39.741 315.445 39.234 315.263 38.909C315.601 38.948 315.887 38.961 316.056 38.961C316.212 38.961 316.303 38.922 316.407 38.792C316.498 38.662 316.563 38.337 316.628 37.661L316.212 37.817C316.134 37.362 315.874 36.66 315.627 36.14L316.238 35.932C316.407 36.257 316.563 36.634 316.68 36.985C316.706 36.595 316.732 36.114 316.758 35.555H313.04V28.47H317.824V29.718H316.433V30.433H317.564V31.122C318.734 30.42 319.865 29.081 320.398 28.002H321.724C322.504 29.198 323.635 30.381 324.779 30.927C324.506 31.291 324.207 31.85 324.012 32.253C323.726 32.084 323.44 31.889 323.167 31.655V32.37H321.867V33.072H324.194V36.504ZM330.837 33.345H328.367V35.425H330.837V33.345ZM332.371 36.907H328.367V37.895H326.859V31.876H332.371V36.907ZM337.376 28.86V30.42H335.881V38.168C335.881 39.104 335.66 39.559 335.049 39.819C334.399 40.079 333.437 40.105 332.111 40.105C332.02 39.65 331.708 38.883 331.474 38.467C332.397 38.519 333.528 38.506 333.84 38.506C334.139 38.506 334.256 38.415 334.256 38.142V30.42H325.663V28.86H337.376ZM348.803 33.826H347.009C345.488 33.826 345.124 33.371 345.124 31.941V28.028H346.658V29.887C347.529 29.549 348.387 29.146 348.998 28.808L349.986 29.926C349.011 30.394 347.789 30.81 346.658 31.148V31.915C346.658 32.383 346.736 32.435 347.23 32.435H348.647C349.063 32.435 349.154 32.24 349.206 31.109C349.518 31.343 350.155 31.59 350.571 31.681C350.402 33.345 349.999 33.826 348.803 33.826ZM340.626 36.517H342.576V35.75H340.626V36.517ZM342.576 33.93H340.626V34.606H342.576V33.93ZM344.097 32.656V38.558C344.097 39.234 343.967 39.611 343.538 39.832C343.096 40.079 342.498 40.092 341.718 40.092C341.64 39.689 341.419 39.091 341.224 38.727C341.679 38.753 342.199 38.74 342.368 38.727C342.524 38.727 342.576 38.688 342.576 38.532V37.661H340.626V40.118H339.196V32.656H344.097ZM342.147 29.341L343.447 28.847C344.084 29.783 344.773 31.018 345.02 31.863L343.603 32.435C343.551 32.227 343.473 31.993 343.369 31.746C341.653 31.863 339.885 31.967 338.559 32.045L338.429 30.576C338.741 30.576 339.079 30.563 339.443 30.55C339.807 29.731 340.171 28.73 340.392 27.937L342.004 28.262C341.705 29.016 341.354 29.796 341.029 30.485L342.758 30.407C342.563 30.043 342.355 29.679 342.147 29.341ZM347.243 38.688H348.725C349.167 38.688 349.258 38.441 349.323 37.128C349.648 37.362 350.272 37.596 350.675 37.7C350.506 39.533 350.116 40.04 348.868 40.04H347.022C345.501 40.04 345.124 39.598 345.124 38.168V34.086H346.645V35.841C347.568 35.464 348.465 35.035 349.089 34.619L350.116 35.75C349.115 36.296 347.828 36.764 346.645 37.128V38.168C346.645 38.623 346.736 38.688 347.243 38.688ZM40.1738 54.658V53.462H49.5858C49.0008 53.033 48.2598 52.279 47.7528 51.577L48.8188 50.979C49.7028 52.123 51.0288 53.306 52.1988 54.06C51.0288 54.814 49.7028 55.997 48.8188 57.141L47.7528 56.543C48.2598 55.841 49.0008 55.087 49.5858 54.658H40.1738ZM61.0128 57.934V47.95H65.2638V49.224H62.4038V57.934H61.0128ZM66.1868 53.098H78.1468V54.775H66.1868V53.098ZM85.9858 58.246H91.0298V59.767H79.3428V58.246H84.3608V55.633H80.8378V54.138H84.3608V51.85H81.6698C81.2928 52.565 80.8898 53.228 80.4608 53.735C80.1488 53.488 79.4598 53.02 79.0698 52.812C80.0838 51.72 80.9288 49.926 81.3708 48.158L82.9698 48.509C82.7878 49.133 82.5798 49.744 82.3588 50.342H84.3608V48.002H85.9858V50.342H90.3668V51.85H85.9858V54.138H89.8728V55.633H85.9858V58.246ZM92.8628 49.874C93.0838 49.874 93.3438 49.861 93.5908 49.835C94.9428 49.731 97.1008 49.38 97.9458 49.094L98.4268 50.524C98.2448 50.602 97.9718 50.693 97.7898 50.81C96.9058 51.499 95.1248 53.774 95.1248 55.945C95.1248 57.362 96.0478 58.012 97.1658 58.012C99.1028 58.012 100.39 56.231 100.39 53.241C100.39 52.37 100.273 51.395 100.039 50.329C99.9478 50.082 99.8568 49.835 99.7658 49.575L101.326 49.094C101.677 50.706 102.405 52.721 104.095 54.424L102.899 55.711C102.496 55.191 102.106 54.619 101.729 53.969C101.729 54.086 101.742 54.19 101.742 54.307C101.742 57.141 100.312 59.754 97.0878 59.754C94.9428 59.754 93.4738 58.376 93.4738 56.166C93.4738 54.229 94.4748 52.279 95.5018 51.109C95.0078 51.174 94.2928 51.291 93.8378 51.382C93.5908 51.434 93.3828 51.486 93.0838 51.551L92.8628 49.874ZM106.366 56.569C106.366 55.152 107.237 54.099 108.498 53.176C107.9 52.097 107.679 50.524 107.51 48.951L109.252 48.678C109.343 50.212 109.668 51.356 110.097 52.448C111.202 51.993 112.372 51.668 112.996 51.473C113.49 51.317 114.01 51.174 114.4 50.979L114.842 52.695C114.387 52.786 113.997 52.903 113.321 53.085C112.385 53.345 111.189 53.696 110.006 54.242C108.953 54.723 108.147 55.464 108.147 56.374C108.147 57.297 109.018 57.791 110.812 57.791C112.138 57.791 113.88 57.583 115.024 57.323L114.998 59.182C113.906 59.364 112.541 59.494 110.864 59.494C108.303 59.494 106.366 58.779 106.366 56.569ZM117.507 51.876C117.975 51.798 118.612 51.629 119.08 51.486C120.081 51.187 122.694 50.264 124.579 50.264C126.906 50.264 128.739 51.603 128.739 53.982C128.739 56.894 125.957 58.766 121.42 59L120.679 57.284C124.163 57.206 126.893 56.192 126.893 53.956C126.893 52.747 126.061 51.824 124.514 51.824C122.616 51.824 119.574 53.098 118.235 53.696L117.507 51.876ZM130.611 54.892C130.611 51.928 133.198 49.38 136.539 49.38C139.724 49.38 141.739 51.603 141.739 54.411C141.739 57.115 140.075 59.039 136.825 59.533L135.863 58.012C136.357 57.947 136.721 57.882 137.059 57.804C138.71 57.414 139.984 56.231 139.984 54.359C139.984 52.578 139.022 51.252 137.293 50.953C137.111 52.045 136.89 53.241 136.526 54.45C135.759 57.05 134.641 58.636 133.237 58.636C131.82 58.636 130.611 57.063 130.611 54.892ZM132.288 54.723C132.288 56.023 132.808 56.66 133.289 56.66C133.822 56.66 134.342 55.854 134.862 54.112C135.161 53.163 135.395 52.058 135.551 50.992C133.419 51.434 132.288 53.306 132.288 54.723ZM150.839 51.369H147.732C147.914 51.707 148.083 52.084 148.174 52.37L147.953 52.409H150.384C150.54 52.097 150.696 51.72 150.839 51.369ZM155.038 57.167H151.268C152.373 57.843 153.881 58.35 155.389 58.584C155.038 58.922 154.583 59.572 154.349 59.988C152.75 59.585 151.177 58.805 149.981 57.791V60.131H148.46V57.869C147.251 58.818 145.652 59.572 144.105 59.975C143.884 59.598 143.442 59 143.117 58.688C144.573 58.389 146.107 57.843 147.225 57.167H143.494V55.893H148.46V55.321H144.716V54.203H148.46V53.618H144.066V52.409H146.536C146.432 52.084 146.263 51.694 146.094 51.395L146.25 51.369H143.533V50.108H145.275C145.093 49.614 144.755 48.99 144.469 48.496L145.795 48.041C146.172 48.6 146.601 49.367 146.783 49.874L146.146 50.108H147.329V47.989H148.772V50.108H149.734V47.989H151.19V50.108H152.347L151.879 49.965C152.191 49.432 152.516 48.652 152.698 48.08L154.323 48.47C153.959 49.068 153.608 49.653 153.309 50.108H154.999V51.369H152.555C152.347 51.746 152.139 52.097 151.944 52.409H154.492V53.618H149.981V54.203H153.881V55.321H149.981V55.893H155.038V57.167ZM165.074 55.23H167.973C167.973 55.23 167.947 55.633 167.921 55.815C167.713 58.064 167.479 59.065 167.102 59.481C166.816 59.78 166.543 59.884 166.153 59.936C165.828 59.975 165.295 59.988 164.697 59.962C164.684 59.533 164.515 58.922 164.281 58.532C164.749 58.584 165.191 58.597 165.399 58.597C165.581 58.597 165.685 58.571 165.815 58.454C165.997 58.285 166.166 57.726 166.309 56.517H164.801C164.359 58.064 163.436 59.325 161.382 60.131C161.213 59.767 160.81 59.221 160.485 58.935C162.045 58.363 162.799 57.531 163.202 56.517H161.629V55.23H163.527C163.592 54.853 163.631 54.476 163.657 54.073H165.204C165.165 54.463 165.126 54.853 165.074 55.23ZM165.646 50.576H163.709C163.995 50.979 164.359 51.356 164.788 51.681C165.139 51.369 165.425 50.992 165.646 50.576ZM168.116 50.576H167.362C167.024 51.317 166.595 51.941 166.062 52.474C166.777 52.812 167.583 53.072 168.454 53.241C168.116 53.553 167.687 54.164 167.479 54.554C166.491 54.307 165.607 53.917 164.827 53.436C164.06 53.904 163.163 54.255 162.175 54.528C162.097 54.385 161.967 54.19 161.811 53.982C161.629 54.788 161.408 55.568 161.174 56.153L160.134 55.672C160.277 55.191 160.433 54.541 160.55 53.878H159.861V58.454C159.861 59.156 159.757 59.572 159.302 59.806C158.86 60.053 158.275 60.079 157.469 60.079C157.43 59.65 157.222 59.026 157.027 58.61C157.508 58.623 158.028 58.623 158.197 58.623C158.353 58.61 158.405 58.584 158.405 58.428V55.646C157.95 56.608 157.404 57.479 156.78 58.051C156.65 57.609 156.312 56.972 156.078 56.556C156.793 55.919 157.469 54.905 157.924 53.878H156.299V52.526H159.276C158.548 52.084 157.573 51.59 156.767 51.265L157.742 50.277C158.054 50.394 158.418 50.537 158.769 50.693C159.055 50.446 159.341 50.16 159.588 49.874H156.468V48.574H160.667L160.901 48.522L161.889 49.146C161.447 49.874 160.719 50.667 159.991 51.291C160.368 51.486 160.693 51.681 160.94 51.863L160.303 52.526H160.927L161.135 52.461L162.071 52.773L162.019 53.072C162.591 52.916 163.137 52.721 163.605 52.474C163.267 52.149 162.955 51.785 162.682 51.395C162.487 51.603 162.292 51.785 162.097 51.954C161.798 51.707 161.2 51.291 160.836 51.083C161.85 50.355 162.812 49.185 163.319 47.989L164.762 48.379C164.619 48.691 164.463 48.99 164.281 49.289H168.116V50.576ZM169.559 58.987C170.326 57.687 171.301 54.996 171.782 53.189C171.873 52.838 171.977 52.474 172.055 52.11C171.756 52.123 171.47 52.136 171.21 52.136C170.586 52.136 170.105 52.11 169.65 52.084L169.611 50.485C170.274 50.563 170.703 50.576 171.236 50.576C171.613 50.576 171.99 50.563 172.38 50.537C172.432 50.264 172.471 50.004 172.497 49.809C172.536 49.484 172.562 49.133 172.562 48.847C172.562 48.717 172.562 48.6 172.549 48.496L174.512 48.652C174.421 49.016 174.304 49.588 174.239 49.874L174.135 50.355C174.863 50.251 175.591 50.108 176.293 49.939V51.551C175.526 51.733 174.655 51.876 173.797 51.98C173.68 52.526 173.55 53.098 173.407 53.631C172.939 55.438 172.068 58.064 171.366 59.585L169.559 58.987ZM174.265 57.362C174.265 56.764 174.382 56.14 174.486 55.646L176.033 55.776C175.929 56.153 175.851 56.569 175.851 56.855C175.851 57.414 176.176 57.843 177.554 57.843C178.412 57.843 179.309 57.739 180.232 57.583L180.167 59.234C179.439 59.325 178.568 59.416 177.541 59.416C175.37 59.416 174.265 58.662 174.265 57.362ZM175.279 54.06V52.552C175.994 52.474 176.917 52.422 177.749 52.422C178.477 52.422 179.257 52.448 180.011 52.526L179.972 54.086C179.335 54.008 178.542 53.917 177.762 53.917C176.865 53.917 176.085 53.969 175.279 54.06ZM177.645 49.419L178.672 48.99C178.997 49.471 179.465 50.29 179.699 50.771L178.659 51.226C178.399 50.693 177.996 49.913 177.645 49.419ZM179.179 48.821L180.206 48.405C180.557 48.899 181.038 49.718 181.259 50.173L180.232 50.615C179.959 50.069 179.543 49.315 179.179 48.821ZM183.001 54.983C183.001 52.877 183.261 50.888 183.43 49.848C183.495 49.484 183.508 49.055 183.508 48.73L185.419 48.925C185.315 49.237 185.172 49.692 185.12 49.965C184.886 51.031 184.574 52.825 184.574 54.32C184.574 54.814 184.613 55.282 184.691 55.685C184.86 55.295 185.081 54.671 185.289 54.203L186.108 54.71C185.731 55.828 185.393 57.128 185.237 57.856C185.185 58.051 185.146 58.337 185.146 58.48C185.159 58.61 185.172 58.831 185.185 59.013L183.742 59.156C183.469 58.376 183.001 56.582 183.001 54.983ZM186.745 52.851V51.213C187.382 51.304 188.006 51.343 188.695 51.343C189.163 51.343 189.657 51.33 190.151 51.317C190.138 50.602 190.112 49.939 190.086 49.588C190.06 49.315 190.008 48.925 189.943 48.704H191.828C191.776 48.99 191.776 49.289 191.763 49.575C191.75 49.861 191.75 50.524 191.75 51.226C192.478 51.174 193.154 51.096 193.687 50.992L193.674 52.669C193.154 52.734 192.491 52.786 191.763 52.825V53.358C191.763 56.4 191.529 58.259 188.968 59.897L187.473 58.727C187.967 58.506 188.617 58.103 188.981 57.7C189.969 56.673 190.177 55.529 190.177 53.358V52.89C189.696 52.903 189.202 52.916 188.734 52.916C188.175 52.916 187.382 52.877 186.745 52.851ZM195.13 58.896H197.99V50.186H199.381V60.17H195.13V58.896ZM209.118 55.282C209.118 53.345 209.508 51.174 209.651 50.186C209.703 49.822 209.781 49.328 209.781 48.925L211.588 49.081C211.484 49.341 211.328 49.991 211.276 50.225C211.094 51.083 210.652 53.657 210.652 54.944C210.652 55.191 210.665 55.503 210.704 55.776C210.886 55.321 211.094 54.892 211.276 54.476L212.082 55.1C211.718 56.179 211.289 57.57 211.159 58.259C211.12 58.441 211.081 58.727 211.081 58.857C211.094 59 211.094 59.208 211.107 59.39L209.625 59.494C209.365 58.597 209.118 57.024 209.118 55.282ZM212.901 56.972C212.901 56.439 212.992 55.893 213.122 55.295L214.604 55.438C214.5 55.854 214.448 56.166 214.448 56.517C214.448 57.089 214.942 57.427 216.242 57.427C217.399 57.427 218.348 57.323 219.466 57.089L219.505 58.831C218.673 58.987 217.633 59.091 216.177 59.091C213.954 59.091 212.901 58.285 212.901 56.972ZM213.564 49.926C214.305 50.03 215.254 50.069 216.203 50.069C217.282 50.069 218.361 50.017 219.102 49.926V51.59C218.309 51.668 217.334 51.694 216.346 51.694C215.358 51.694 214.383 51.668 213.577 51.59L213.564 49.926ZM222.014 55.477C222.014 53.527 222.391 51.096 222.547 50.108C222.599 49.744 222.664 49.25 222.664 48.847L224.458 49.003C224.354 49.263 224.198 49.913 224.146 50.147C223.951 51.005 223.535 53.839 223.535 55.126C223.535 55.386 223.548 55.698 223.587 55.958C223.756 55.503 223.964 55.074 224.159 54.645L224.952 55.282C224.588 56.335 224.172 57.648 224.029 58.35C223.99 58.506 223.964 58.727 223.964 58.883C223.964 59.052 223.964 59.26 223.977 59.481L222.521 59.585C222.261 58.688 222.014 57.219 222.014 55.477ZM225.394 57.427C225.394 56.114 226.499 55.217 228.254 55.217C228.553 55.217 228.839 55.23 229.099 55.269C229.06 54.476 229.021 53.54 229.008 52.63C228.696 52.643 228.384 52.643 228.085 52.643C227.331 52.643 226.603 52.617 225.836 52.565V51.031C226.577 51.109 227.318 51.148 228.085 51.148C228.384 51.148 228.696 51.148 228.995 51.135C228.982 50.498 228.982 49.978 228.969 49.705C228.969 49.51 228.93 49.12 228.891 48.86H230.737C230.698 49.107 230.672 49.419 230.659 49.692C230.646 49.978 230.62 50.459 230.62 51.031C231.322 50.953 231.998 50.862 232.609 50.732V52.331C231.985 52.422 231.309 52.5 230.607 52.552C230.633 53.8 230.698 54.827 230.75 55.698C231.829 56.14 232.635 56.803 233.233 57.362L232.362 58.714C231.829 58.207 231.309 57.778 230.802 57.427C230.724 58.649 230.022 59.533 228.28 59.533C226.512 59.533 225.394 58.779 225.394 57.427ZM226.902 57.258C226.902 57.778 227.422 58.012 228.098 58.012C228.891 58.012 229.164 57.596 229.164 56.842V56.621C228.826 56.53 228.475 56.478 228.124 56.478C227.396 56.478 226.902 56.777 226.902 57.258ZM234.637 56.582C235.677 55.321 236.691 53.423 237.263 52.032C237.042 52.045 236.821 52.045 236.6 52.045C236.067 52.045 235.547 52.032 234.988 52.006L234.871 50.498C235.43 50.563 236.119 50.589 236.587 50.589C236.964 50.589 237.354 50.576 237.744 50.55C237.926 49.835 238.069 49.055 238.095 48.392L239.876 48.574C239.772 48.99 239.616 49.64 239.434 50.329C240.058 50.225 240.656 50.082 241.163 49.926L241.202 51.421C240.617 51.577 239.824 51.746 238.966 51.863C238.355 53.67 237.25 55.906 236.21 57.375L234.637 56.582ZM237.692 57.635C237.692 56.374 238.745 55.399 240.539 55.399C240.838 55.399 241.137 55.425 241.41 55.451C241.371 54.489 241.306 53.358 241.267 52.578H242.892C242.879 52.786 242.866 53.007 242.866 53.215C242.866 53.54 242.879 53.878 242.892 54.229C242.905 54.593 242.931 55.217 242.97 55.854C244.075 56.27 244.985 56.92 245.635 57.505L244.777 58.883C244.322 58.467 243.737 57.947 243.035 57.518V57.635C243.035 58.831 242.385 59.767 240.552 59.767C238.953 59.767 237.692 59.052 237.692 57.635ZM239.213 57.479C239.213 57.96 239.616 58.285 240.318 58.285C241.189 58.285 241.475 57.778 241.475 57.089V56.842C241.137 56.764 240.799 56.712 240.435 56.712C239.694 56.712 239.213 57.024 239.213 57.479ZM242.008 51.434L242.84 50.16C243.763 50.563 245.362 51.434 246.012 51.902L245.102 53.267C244.361 52.669 242.892 51.824 242.008 51.434ZM249.223 53.995C249.223 52.799 249.392 51.2 249.587 49.874C249.652 49.406 249.678 48.886 249.691 48.522L251.459 48.6C251.277 49.237 251.017 50.55 250.939 51.265C251.55 50.277 252.668 49.185 254.124 49.185C255.918 49.185 257.309 50.94 257.309 53.774C257.309 57.414 255.073 59.156 251.667 59.78L250.692 58.285C253.552 57.843 255.554 56.907 255.554 53.787C255.554 51.798 254.891 50.693 253.825 50.693C252.304 50.693 250.978 52.981 250.913 54.671V54.996C250.913 55.282 250.926 55.607 250.978 56.036L249.379 56.14C249.314 55.646 249.223 54.853 249.223 53.995ZM261.898 57.544C261.898 56.244 263.094 55.334 265.083 55.334C265.343 55.334 265.603 55.36 265.863 55.386C265.863 55.217 265.824 54.359 265.824 54.203H265.161C264.407 54.203 262.925 54.138 262.067 54.034L262.08 52.513C262.821 52.669 264.498 52.747 265.187 52.747H265.798C265.798 52.578 265.811 51.59 265.811 51.408H265.122C264.303 51.408 262.665 51.291 261.924 51.174L261.911 49.692C262.717 49.848 264.316 49.991 265.109 49.991H265.811V49.406C265.811 49.172 265.785 48.769 265.746 48.522H267.501C267.462 48.782 267.423 49.107 267.41 49.432C267.41 49.471 267.397 49.848 267.397 49.939C268.398 49.887 269.789 49.744 270.894 49.575L270.933 51.07C270.075 51.161 268.593 51.304 267.384 51.356C267.384 51.525 267.371 52.539 267.371 52.708C268.658 52.643 269.75 52.539 270.803 52.396L270.816 53.917C269.659 54.047 268.632 54.125 267.41 54.164C267.436 54.671 267.462 55.191 267.488 55.672C269.1 56.14 270.348 57.011 271.089 57.622L270.166 59.065C269.49 58.428 268.619 57.765 267.592 57.31C267.592 57.414 267.605 57.609 267.605 57.739C267.605 58.857 266.734 59.702 265.044 59.702C262.99 59.702 261.898 58.909 261.898 57.544ZM263.471 57.453C263.471 57.947 263.926 58.246 264.81 58.246C265.499 58.246 265.941 58.038 265.941 57.297C265.941 57.154 265.941 56.985 265.928 56.764C265.59 56.699 265.226 56.66 264.862 56.66C263.965 56.66 263.471 57.011 263.471 57.453ZM272.892 52.123C273.256 52.123 273.854 52.097 274.504 52.045L275.479 51.954V50.654C275.479 50.121 275.44 49.679 275.375 49.224H277.195C277.143 49.653 277.117 50.017 277.117 50.563C277.117 50.862 277.117 51.291 277.104 51.798C278.196 51.694 279.444 51.577 280.614 51.473V50.017C280.614 49.692 280.562 49.081 280.523 48.847H282.265C282.226 49.042 282.2 49.601 282.187 49.952C282.174 50.459 282.161 50.914 282.148 51.343C282.499 51.317 282.824 51.291 283.123 51.278C283.474 51.252 283.981 51.213 284.358 51.187V52.773H284.072C283.773 52.773 283.357 52.773 283.11 52.786C282.837 52.799 282.499 52.812 282.122 52.838C282.083 53.813 282.031 54.866 281.927 55.412C281.797 56.088 281.472 56.257 280.809 56.257C280.354 56.257 279.327 56.14 278.872 56.062L278.911 54.645C279.314 54.723 279.834 54.801 280.094 54.801C280.354 54.801 280.458 54.749 280.497 54.502C280.549 54.151 280.575 53.566 280.588 52.955C279.457 53.046 278.196 53.163 277.091 53.28C277.078 53.969 277.078 54.645 277.078 55.204C277.078 55.62 277.078 55.958 277.091 56.192C277.13 57.453 277.234 57.739 279.171 57.739C280.432 57.739 282.057 57.583 283.019 57.401L282.954 59.169C282.083 59.273 280.51 59.377 279.288 59.377C275.947 59.377 275.544 58.675 275.492 56.452C275.479 55.906 275.479 54.658 275.479 53.449L274.608 53.54C274.205 53.592 273.399 53.722 273.061 53.774L272.892 52.123ZM286.113 59C287.062 56.426 289.779 51.018 290.455 49.796C290.624 49.445 290.858 49.029 291.092 48.483L292.925 49.224C292.795 49.38 292.652 49.614 292.509 49.822C291.872 50.745 290.897 52.539 290.26 53.67C290.741 53.397 291.235 53.28 291.729 53.28C292.691 53.28 293.276 53.904 293.328 54.97C293.354 55.542 293.315 56.582 293.393 57.115C293.432 57.622 293.783 57.817 294.212 57.817C295.317 57.817 296.019 56.374 296.383 54.775L297.774 55.906C297.111 58.129 295.915 59.585 293.926 59.585C292.522 59.585 291.846 58.727 291.794 57.791C291.742 57.102 291.755 56.049 291.716 55.529C291.677 55.074 291.43 54.814 290.962 54.814C290.078 54.814 289.363 55.698 288.908 56.751C288.557 57.505 288.128 58.935 287.933 59.611L286.113 59ZM298.801 57.856C298.801 56.712 299.724 55.789 300.855 55.789C301.999 55.789 302.935 56.712 302.935 57.856C302.935 59 301.999 59.936 300.855 59.936C299.724 59.936 298.801 59 298.801 57.856ZM299.659 57.856C299.659 58.532 300.205 59.065 300.855 59.065C301.531 59.065 302.064 58.532 302.064 57.856C302.064 57.193 301.531 56.66 300.855 56.66C300.205 56.66 299.659 57.193 299.659 57.856Z" fill="black"/>
</svg>
