<svg width="373" height="90" viewBox="0 0 373 90" fill="none" xmlns="http://www.w3.org/2000/svg">
<path d="M33.31 8.55V9.315H36.07V8.55H33.31ZM33.31 6.645V7.41H36.07V6.645H33.31ZM40.675 6.645H37.81V7.41H40.675V6.645ZM40.675 9.315V8.55H37.81V9.315H40.675ZM43.795 11.325V12.825H40.57V14.58C40.57 15.435 40.39 15.84 39.76 16.08C39.145 16.305 38.245 16.32 37.045 16.32C36.97 15.84 36.715 15.21 36.49 14.76C37.285 14.79 38.23 14.79 38.485 14.79C38.725 14.775 38.815 14.715 38.815 14.52V12.825H33.94C34.69 13.365 35.515 14.1 35.92 14.64L34.495 15.69C34.09 15.09 33.145 14.19 32.35 13.59L33.43 12.825H30.22V11.325H38.815V10.53H31.66V5.43H36.07V4.755H30.565V3.3H36.07V2.31H37.81V3.3H43.435V4.755H37.81V5.43H42.415V10.53H40.57V11.325H43.795ZM49.78 4.335H47.5V5.115H49.78V4.335ZM47.5 7.245H49.78V6.39H47.5V7.245ZM51.445 2.895V8.67H47.5V16.305H45.73V2.895H51.445ZM54.19 7.275H56.56V6.39H54.19V7.275ZM56.56 4.335H54.19V5.115H56.56V4.335ZM58.36 2.895V14.145C58.36 15.165 58.15 15.69 57.49 15.96C56.845 16.26 55.855 16.29 54.4 16.29C54.325 15.78 54.04 14.94 53.77 14.46C54.715 14.52 55.825 14.505 56.14 14.505C56.455 14.505 56.56 14.4 56.56 14.115V8.715H52.495V2.895H58.36ZM66.91 13.2H68.29V12.3H66.91V13.2ZM68.29 10.245H66.91V11.145H68.29V10.245ZM68.245 4.98H66.76C66.985 5.55 67.12 6.315 67.15 6.81L66.475 6.975H68.635L67.855 6.795C68.005 6.285 68.17 5.52 68.245 4.98ZM63.235 6.045V4.425H62.245V6.045H63.235ZM62.245 12.36L63.235 12.18V10.545H62.245V12.36ZM63.235 9.105V7.485H62.245V9.105H63.235ZM72.445 8.91L73.87 9.225C73.465 10.665 72.91 11.955 72.205 13.08C72.34 13.8 72.505 14.205 72.685 14.22C72.865 14.22 72.985 13.53 73.045 12.345C73.3 12.705 73.945 13.17 74.2 13.335C73.825 15.765 73.12 16.29 72.61 16.29C71.935 16.275 71.44 15.675 71.08 14.58C70.495 15.255 69.835 15.84 69.115 16.335C68.92 16.035 68.41 15.45 68.095 15.165C68.47 14.94 68.83 14.685 69.16 14.415H66.91V15.285H65.545V9.015H69.67V13.95C70.03 13.605 70.36 13.215 70.66 12.795C70.465 11.58 70.33 10.08 70.255 8.355H64.99V6.975H65.935C65.905 6.48 65.785 5.745 65.605 5.19L66.475 4.98H65.29V4.425H64.72V16.305H63.235V13.74C62.17 13.965 61.105 14.19 60.205 14.37L59.905 12.735C60.175 12.705 60.475 12.66 60.79 12.6V4.425H60.205V2.865H65.35V3.675H66.82V2.325H68.335V3.675H69.865V4.98H68.575L69.595 5.175C69.37 5.82 69.16 6.495 68.995 6.975H70.195C70.15 5.535 70.12 3.975 70.105 2.31H71.665V3.435L72.625 2.925C73.24 3.66 73.825 4.635 74.095 5.31L72.85 6C72.64 5.4 72.16 4.515 71.665 3.81C71.665 4.92 71.68 5.97 71.71 6.975H74.02V8.355H71.77C71.8 9.15 71.845 9.885 71.905 10.56C72.115 10.035 72.295 9.48 72.445 8.91ZM75.595 4.71C76.195 4.695 76.765 4.665 77.05 4.635C78.295 4.53 80.755 4.305 83.47 4.065C85 3.945 86.62 3.855 87.67 3.81L87.685 5.73C86.89 5.73 85.615 5.745 84.82 5.925C83.02 6.405 81.685 8.325 81.685 10.08C81.685 12.525 83.965 13.41 86.485 13.53L85.795 15.585C82.675 15.39 79.735 13.71 79.735 10.485C79.735 8.34 80.92 6.66 81.925 5.91C80.635 6.045 77.515 6.375 75.79 6.75L75.595 4.71ZM84.49 7.635L85.6 7.17C85.96 7.71 86.515 8.61 86.8 9.21L85.66 9.72C85.285 8.895 84.97 8.31 84.49 7.635ZM86.185 6.99L87.28 6.48C87.655 7.005 88.225 7.89 88.54 8.475L87.415 9.015C87.01 8.205 86.665 7.65 86.185 6.99ZM90.505 10.26C90.505 6.84 93.49 3.9 97.345 3.9C101.02 3.9 103.345 6.465 103.345 9.705C103.345 12.825 101.425 15.045 97.675 15.615L96.565 13.86C97.135 13.785 97.555 13.71 97.945 13.62C99.85 13.17 101.32 11.805 101.32 9.645C101.32 7.59 100.21 6.06 98.215 5.715C98.005 6.975 97.75 8.355 97.33 9.75C96.445 12.75 95.155 14.58 93.535 14.58C91.9 14.58 90.505 12.765 90.505 10.26ZM92.44 10.065C92.44 11.565 93.04 12.3 93.595 12.3C94.21 12.3 94.81 11.37 95.41 9.36C95.755 8.265 96.025 6.99 96.205 5.76C93.745 6.27 92.44 8.43 92.44 10.065ZM117.34 2.4L118.525 3.795C116.215 4.44 112.99 4.8 110.26 4.95C110.2 4.545 109.975 3.9 109.795 3.525C112.465 3.345 115.51 2.94 117.34 2.4ZM116.89 8.805L115.51 8.25C116.095 7.305 116.86 5.775 117.235 4.635L118.93 5.25C118.285 6.525 117.505 7.92 116.89 8.805ZM115.06 7.62L113.485 7.935C113.47 7.215 113.215 6.075 112.885 5.175L114.37 4.89C114.73 5.76 115.03 6.87 115.06 7.62ZM112.435 8.07L110.92 8.505C110.8 7.755 110.425 6.555 110.005 5.625L111.415 5.265C111.865 6.135 112.3 7.305 112.435 8.07ZM109.51 8.58L109.735 10.185C109.255 10.335 108.775 10.485 108.295 10.62V14.415C108.295 15.24 108.16 15.69 107.71 15.975C107.245 16.26 106.615 16.32 105.625 16.305C105.58 15.87 105.385 15.135 105.175 14.655C105.715 14.685 106.24 14.685 106.42 14.67C106.6 14.67 106.675 14.61 106.675 14.415V11.1C106.18 11.25 105.685 11.385 105.25 11.505L104.86 9.795C105.37 9.69 106 9.525 106.675 9.36V6.765H105.1V5.13H106.675V2.31H108.295V5.13H109.66V6.765H108.295V8.925L109.51 8.58ZM118.81 11.295H116.05C116.83 12.48 118.03 13.605 119.23 14.235C118.84 14.55 118.33 15.165 118.06 15.585C117.025 14.91 116.005 13.83 115.195 12.645V16.2H113.515V12.57C112.63 13.845 111.445 14.97 110.215 15.66C109.93 15.24 109.42 14.595 109.03 14.265C110.395 13.65 111.73 12.525 112.57 11.295H109.99V9.75H113.515V8.235H115.195V9.75H118.81V11.295ZM128.05 10.245H131.215V8.4H128.05V10.245ZM123.385 10.245H126.25V8.4H123.43V8.67C123.43 9.15 123.415 9.69 123.385 10.245ZM126.25 4.995H123.43V6.735H126.25V4.995ZM131.215 6.735V4.995H128.05V6.735H131.215ZM132.985 3.3V14.19C132.985 15.15 132.775 15.63 132.175 15.9C131.56 16.2 130.645 16.23 129.295 16.215C129.235 15.735 128.95 14.97 128.725 14.505C129.565 14.55 130.555 14.535 130.825 14.535C131.11 14.535 131.215 14.445 131.215 14.175V11.925H128.05V16.11H126.25V11.925H123.19C122.92 13.56 122.38 15.21 121.3 16.38C121.015 16.05 120.295 15.435 119.89 15.225C121.525 13.425 121.66 10.755 121.66 8.655V3.3H132.985ZM135.82 10.35L135.925 8.55C136.885 8.88 137.89 9.045 138.85 9.135C138.94 8.475 139.015 7.785 139.105 7.11C138.07 7.005 137.02 6.825 136.15 6.585L136.255 4.86C137.11 5.145 138.22 5.325 139.3 5.415C139.36 4.965 139.39 4.56 139.42 4.23C139.435 3.945 139.465 3.66 139.465 3.33C139.465 3.195 139.465 3.06 139.45 2.91L141.535 3.03C141.415 3.57 141.34 3.96 141.28 4.35C141.235 4.605 141.19 4.995 141.115 5.475C142.18 5.46 143.14 5.4 143.845 5.295L143.785 7.065C142.9 7.155 142.09 7.2 140.89 7.2C140.8 7.86 140.71 8.565 140.635 9.225H140.74C141.655 9.225 142.75 9.15 143.725 9.045L143.68 10.815C142.84 10.89 141.97 10.95 141.055 10.95H140.455C140.425 11.385 140.395 11.76 140.395 12.03C140.395 13.245 141.145 13.92 142.615 13.92C144.685 13.92 145.825 12.975 145.825 11.745C145.825 10.74 145.255 9.78 144.295 8.865L146.38 8.415C147.37 9.675 147.82 10.725 147.82 11.985C147.82 14.22 145.81 15.84 142.555 15.84C140.215 15.84 138.565 14.82 138.565 12.345C138.565 11.985 138.61 11.46 138.67 10.845C137.59 10.74 136.615 10.575 135.82 10.35ZM156.235 8.475H153.385V10.875H156.235V8.475ZM158.005 12.585H153.385V13.725H151.645V6.78H158.005V12.585ZM163.78 3.3V5.1H162.055V14.04C162.055 15.12 161.8 15.645 161.095 15.945C160.345 16.245 159.235 16.275 157.705 16.275C157.6 15.75 157.24 14.865 156.97 14.385C158.035 14.445 159.34 14.43 159.7 14.43C160.045 14.43 160.18 14.325 160.18 14.01V5.1H150.265V3.3H163.78ZM176.965 9.03H174.895C173.14 9.03 172.72 8.505 172.72 6.855V2.34H174.49V4.485C175.495 4.095 176.485 3.63 177.19 3.24L178.33 4.53C177.205 5.07 175.795 5.55 174.49 5.94V6.825C174.49 7.365 174.58 7.425 175.15 7.425H176.785C177.265 7.425 177.37 7.2 177.43 5.895C177.79 6.165 178.525 6.45 179.005 6.555C178.81 8.475 178.345 9.03 176.965 9.03ZM167.53 12.135H169.78V11.25H167.53V12.135ZM169.78 9.15H167.53V9.93H169.78V9.15ZM171.535 7.68V14.49C171.535 15.27 171.385 15.705 170.89 15.96C170.38 16.245 169.69 16.26 168.79 16.26C168.7 15.795 168.445 15.105 168.22 14.685C168.745 14.715 169.345 14.7 169.54 14.685C169.72 14.685 169.78 14.64 169.78 14.46V13.455H167.53V16.29H165.88V7.68H171.535ZM169.285 3.855L170.785 3.285C171.52 4.365 172.315 5.79 172.6 6.765L170.965 7.425C170.905 7.185 170.815 6.915 170.695 6.63C168.715 6.765 166.675 6.885 165.145 6.975L164.995 5.28C165.355 5.28 165.745 5.265 166.165 5.25C166.585 4.305 167.005 3.15 167.26 2.235L169.12 2.61C168.775 3.48 168.37 4.38 167.995 5.175L169.99 5.085C169.765 4.665 169.525 4.245 169.285 3.855ZM175.165 14.64H176.875C177.385 14.64 177.49 14.355 177.565 12.84C177.94 13.11 178.66 13.38 179.125 13.5C178.93 15.615 178.48 16.2 177.04 16.2H174.91C173.155 16.2 172.72 15.69 172.72 14.04V9.33H174.475V11.355C175.54 10.92 176.575 10.425 177.295 9.945L178.48 11.25C177.325 11.88 175.84 12.42 174.475 12.84V14.04C174.475 14.565 174.58 14.64 175.165 14.64ZM180.595 4.71C181.195 4.695 181.765 4.665 182.05 4.635C183.295 4.53 185.755 4.305 188.47 4.065C190 3.945 191.62 3.855 192.67 3.81L192.685 5.73C191.89 5.73 190.615 5.745 189.82 5.925C188.02 6.405 186.685 8.325 186.685 10.08C186.685 12.525 188.965 13.41 191.485 13.53L190.795 15.585C187.675 15.39 184.735 13.71 184.735 10.485C184.735 8.34 185.92 6.66 186.925 5.91C185.635 6.045 182.515 6.375 180.79 6.75L180.595 4.71ZM189.49 7.635L190.6 7.17C190.96 7.71 191.515 8.61 191.8 9.21L190.66 9.72C190.285 8.895 189.97 8.31 189.49 7.635ZM191.185 6.99L192.28 6.48C192.655 7.005 193.225 7.89 193.54 8.475L192.415 9.015C192.01 8.205 191.665 7.65 191.185 6.99ZM195.88 4.8C197.575 4.8 200.275 4.725 202.27 4.695C202.27 4.515 202.27 4.35 202.255 4.245C202.225 3.765 202.18 3.195 202.12 2.955H204.28C204.235 3.195 204.19 3.99 204.175 4.23C204.175 4.35 204.16 4.5 204.16 4.68H207.34H208.465L208.45 6.435C207.55 6.39 206.155 6.36 204.145 6.36C204.16 7.11 204.16 7.92 204.16 8.565C204.535 9.12 204.715 9.84 204.715 10.62C204.715 12.555 203.575 15.015 199.945 16.035L198.37 14.445C199.87 14.13 201.175 13.635 202 12.75C201.79 12.795 201.565 12.825 201.325 12.825C200.17 12.825 198.76 11.91 198.76 10.095C198.76 8.415 200.11 7.32 201.73 7.32C201.94 7.32 202.135 7.335 202.315 7.365L202.3 6.375C200.05 6.405 197.755 6.495 195.925 6.6L195.88 4.8ZM200.545 10.065C200.545 10.755 201.1 11.175 201.685 11.175C202.21 11.175 202.705 10.83 202.705 9.915C202.705 9.765 202.69 9.6 202.66 9.42C202.45 9.06 202.105 8.895 201.685 8.895C201.115 8.895 200.545 9.285 200.545 10.065ZM208.531 13.68C208.531 12.36 209.596 11.295 210.901 11.295C212.221 11.295 213.301 12.36 213.301 13.68C213.301 15 212.221 16.08 210.901 16.08C209.596 16.08 208.531 15 208.531 13.68ZM209.521 13.68C209.521 14.46 210.151 15.075 210.901 15.075C211.681 15.075 212.296 14.46 212.296 13.68C212.296 12.915 211.681 12.3 210.901 12.3C210.151 12.3 209.521 12.915 209.521 13.68ZM30.925 32.96C30.925 31.07 32.5 29.06 34.57 28.085C34.615 27.455 34.66 26.825 34.72 26.225H34.24C33.46 26.225 32.305 26.165 31.615 26.135L31.555 24.41C32.08 24.485 33.385 24.605 34.3 24.605H34.87L34.96 23.81C34.99 23.585 35.005 23.315 35.005 23.075V22.925L36.955 22.97C36.85 23.27 36.79 23.54 36.745 23.765C36.685 24.005 36.64 24.275 36.595 24.56C38.395 24.5 40 24.32 41.635 23.93L41.65 25.64C40.195 25.91 38.2 26.09 36.37 26.18C36.325 26.615 36.28 27.065 36.265 27.515C36.97 27.35 37.75 27.245 38.485 27.245H38.74C38.8 26.945 38.86 26.57 38.875 26.36L40.705 26.78C40.63 26.945 40.525 27.26 40.435 27.545C42.16 28.115 43.3 29.45 43.3 31.19C43.3 33.275 42.055 35.33 38.41 35.87L37.42 34.31C40.285 33.995 41.455 32.555 41.455 31.1C41.455 30.2 40.93 29.405 39.925 29.015C39.1 31.04 37.915 32.585 36.79 33.515C36.895 33.905 37.015 34.265 37.135 34.625L35.425 35.135C35.365 34.955 35.29 34.745 35.23 34.535C34.51 34.895 33.715 35.135 32.935 35.135C31.84 35.135 30.925 34.475 30.925 32.96ZM32.68 32.6C32.68 33.065 32.89 33.32 33.37 33.32C33.79 33.32 34.3 33.155 34.855 32.84C34.69 31.91 34.57 30.89 34.54 29.87C33.43 30.62 32.68 31.76 32.68 32.6ZM36.205 29.12C36.205 30.035 36.265 30.845 36.37 31.58C37.09 30.86 37.75 29.96 38.245 28.76C37.465 28.775 36.775 28.91 36.205 29.09V29.12ZM45.535 32.21C46.735 30.755 47.905 28.565 48.565 26.96C48.31 26.975 48.055 26.975 47.8 26.975C47.185 26.975 46.585 26.96 45.94 26.93L45.805 25.19C46.45 25.265 47.245 25.295 47.785 25.295C48.22 25.295 48.67 25.28 49.12 25.25C49.33 24.425 49.495 23.525 49.525 22.76L51.58 22.97C51.46 23.45 51.28 24.2 51.07 24.995C51.79 24.875 52.48 24.71 53.065 24.53L53.11 26.255C52.435 26.435 51.52 26.63 50.53 26.765C49.825 28.85 48.55 31.43 47.35 33.125L45.535 32.21ZM49.06 33.425C49.06 31.97 50.275 30.845 52.345 30.845C52.69 30.845 53.035 30.875 53.35 30.905C53.305 29.795 53.23 28.49 53.185 27.59H55.06C55.045 27.83 55.03 28.085 55.03 28.325C55.03 28.7 55.045 29.09 55.06 29.495C55.075 29.915 55.105 30.635 55.15 31.37C56.425 31.85 57.475 32.6 58.225 33.275L57.235 34.865C56.71 34.385 56.035 33.785 55.225 33.29V33.425C55.225 34.805 54.475 35.885 52.36 35.885C50.515 35.885 49.06 35.06 49.06 33.425ZM50.815 33.245C50.815 33.8 51.28 34.175 52.09 34.175C53.095 34.175 53.425 33.59 53.425 32.795V32.51C53.035 32.42 52.645 32.36 52.225 32.36C51.37 32.36 50.815 32.72 50.815 33.245ZM54.04 26.27L55 24.8C56.065 25.265 57.91 26.27 58.66 26.81L57.61 28.385C56.755 27.695 55.06 26.72 54.04 26.27ZM60.895 34.985C61.78 33.5 62.905 30.38 63.46 28.295C63.565 27.905 63.67 27.485 63.775 27.065C63.43 27.08 63.1 27.095 62.8 27.095C62.08 27.095 61.525 27.065 61 27.035L60.955 25.175C61.72 25.265 62.215 25.295 62.83 25.295C63.265 25.295 63.7 25.28 64.15 25.25C64.21 24.92 64.255 24.635 64.285 24.395C64.33 24.02 64.36 23.615 64.36 23.285C64.36 23.135 64.36 23 64.345 22.895L66.61 23.075C66.505 23.48 66.37 24.14 66.295 24.47L66.175 25.04C67.015 24.905 67.855 24.74 68.665 24.545V26.42C67.78 26.615 66.775 26.78 65.785 26.9C65.65 27.545 65.5 28.205 65.335 28.805C64.795 30.89 63.79 33.935 62.98 35.675L60.895 34.985ZM66.325 33.11C66.325 32.435 66.46 31.715 66.58 31.13L68.365 31.295C68.245 31.715 68.155 32.21 68.155 32.54C68.155 33.185 68.53 33.665 70.12 33.665C71.11 33.665 72.145 33.56 73.21 33.365L73.135 35.27C72.295 35.375 71.29 35.48 70.105 35.48C67.6 35.48 66.325 34.61 66.325 33.11ZM67.495 29.315V27.56C68.32 27.485 69.385 27.41 70.345 27.41C71.185 27.41 72.085 27.455 72.955 27.545L72.91 29.33C72.175 29.24 71.26 29.15 70.36 29.15C69.325 29.15 68.425 29.195 67.495 29.315ZM75.31 26.24C75.52 26.255 75.715 26.27 75.925 26.27C76.24 26.27 76.555 26.255 76.885 26.24C77.35 26.225 78.055 26.18 78.805 26.12C79 25.04 79.12 24.035 79.12 23.135V22.97L81.325 23.195C81.235 23.585 81.145 24.05 81.07 24.425C80.98 24.875 80.86 25.415 80.755 25.955C81.25 25.925 81.7 25.895 82 25.895C83.575 25.895 84.685 26.6 84.685 28.73C84.685 30.485 84.475 32.855 83.845 34.145C83.35 35.18 82.54 35.51 81.4 35.51C80.845 35.51 80.125 35.42 79.63 35.3L79.3 33.335C79.87 33.5 80.74 33.65 81.13 33.65C81.625 33.65 82 33.5 82.24 33.005C82.645 32.18 82.84 30.41 82.84 28.94C82.84 27.755 82.33 27.59 81.4 27.59C81.16 27.59 80.8 27.62 80.38 27.65C79.795 29.9 78.715 33.395 77.35 35.585L75.415 34.805C76.855 32.855 77.875 29.885 78.4 27.86C77.875 27.92 77.41 27.98 77.125 28.025C76.705 28.07 75.94 28.175 75.475 28.25L75.31 26.24ZM84.67 25.43L86.05 24.845C85.75 24.275 85.375 23.555 85.03 23.075L86.215 22.58C86.59 23.135 87.115 24.08 87.415 24.635L86.65 24.965C87.52 26.33 88.63 28.835 89.065 30.14L87.175 31.025C86.785 29.375 85.735 26.75 84.67 25.43ZM86.8 22.4L87.985 21.905C88.39 22.475 88.945 23.42 89.2 23.945L88.015 24.47C87.7 23.84 87.22 22.955 86.8 22.4ZM96.625 27.86V29.195H97.27V27.86H96.625ZM95.905 30.215V26.825H98.005V30.215H95.905ZM98.08 25.055V26.15H95.86V25.055H98.08ZM92.875 29.855L92.92 31.265H94.285V23.975C93.76 24.215 93.235 24.425 92.74 24.62L92.77 25.745H93.925V27.17H92.8L92.845 28.445H93.925V29.855H92.875ZM98.44 24.305H95.53V31.265H98.44V24.305ZM103.855 32.9H99.595C101.14 33.605 102.85 34.49 103.87 35.075L102.13 36.305C101.17 35.675 99.49 34.67 97.96 33.95L99.145 32.9H94.51L95.95 33.92C94.78 34.775 92.965 35.75 91.6 36.305C91.255 35.945 90.625 35.39 90.19 35.045C91.555 34.535 93.22 33.635 94.195 32.9H90.16V31.265H91.42L91.18 23.03L92.38 23.255C92.875 22.955 93.385 22.625 93.745 22.325L94.285 22.97H99.73V31.265H101.155C101.185 30.83 101.2 30.35 101.23 29.855H100.09V28.445H101.29C101.305 28.025 101.32 27.605 101.335 27.17H100.09V25.745H101.365C101.365 25.31 101.38 24.86 101.38 24.44H100.045V23H102.94C102.91 25.64 102.805 28.925 102.655 31.265H103.855V32.9ZM108.355 25.31H107.095V30.815H108.355V25.31ZM109.96 32.555H107.095V33.755H105.46V23.6H109.96V32.555ZM118.945 29.795H115.84C116.62 31.43 117.835 33.035 119.125 33.935C118.72 34.28 118.12 34.94 117.805 35.42C116.92 34.625 116.095 33.47 115.39 32.18V36.275H113.59V32.075C112.735 33.455 111.67 34.625 110.455 35.39C110.185 34.97 109.63 34.325 109.24 33.98C110.86 33.14 112.27 31.535 113.11 29.795H110.365V28.1H113.59V26.24H110.845V24.545H113.59V22.415H115.39V24.545H118.465V26.24H115.39V28.1H118.945V29.795ZM120.925 32.96C120.925 31.07 122.5 29.06 124.57 28.085C124.615 27.455 124.66 26.825 124.72 26.225H124.24C123.46 26.225 122.305 26.165 121.615 26.135L121.555 24.41C122.08 24.485 123.385 24.605 124.3 24.605H124.87L124.96 23.81C124.99 23.585 125.005 23.315 125.005 23.075V22.925L126.955 22.97C126.85 23.27 126.79 23.54 126.745 23.765C126.685 24.005 126.64 24.275 126.595 24.56C128.395 24.5 130 24.32 131.635 23.93L131.65 25.64C130.195 25.91 128.2 26.09 126.37 26.18C126.325 26.615 126.28 27.065 126.265 27.515C126.97 27.35 127.75 27.245 128.485 27.245H128.74C128.8 26.945 128.86 26.57 128.875 26.36L130.705 26.78C130.63 26.945 130.525 27.26 130.435 27.545C132.16 28.115 133.3 29.45 133.3 31.19C133.3 33.275 132.055 35.33 128.41 35.87L127.42 34.31C130.285 33.995 131.455 32.555 131.455 31.1C131.455 30.2 130.93 29.405 129.925 29.015C129.1 31.04 127.915 32.585 126.79 33.515C126.895 33.905 127.015 34.265 127.135 34.625L125.425 35.135C125.365 34.955 125.29 34.745 125.23 34.535C124.51 34.895 123.715 35.135 122.935 35.135C121.84 35.135 120.925 34.475 120.925 32.96ZM122.68 32.6C122.68 33.065 122.89 33.32 123.37 33.32C123.79 33.32 124.3 33.155 124.855 32.84C124.69 31.91 124.57 30.89 124.54 29.87C123.43 30.62 122.68 31.76 122.68 32.6ZM126.205 29.12C126.205 30.035 126.265 30.845 126.37 31.58C127.09 30.86 127.75 29.96 128.245 28.76C127.465 28.775 126.775 28.91 126.205 29.09V29.12ZM135.88 30.935C136.93 30.08 138.715 28.565 139.6 27.845C140.425 27.155 141.97 25.91 142.705 25.265C141.94 25.28 139.9 25.37 139.12 25.43C138.715 25.445 138.25 25.49 137.905 25.55L137.845 23.615C138.265 23.66 138.775 23.69 139.195 23.69C139.975 23.69 143.155 23.615 143.995 23.54C144.61 23.495 144.955 23.435 145.135 23.39L146.095 24.71C145.735 24.935 145.39 25.16 145.06 25.385C144.265 25.94 142.705 27.26 141.775 28.01C142.27 27.875 142.69 27.845 143.17 27.845C145.69 27.845 147.61 29.42 147.61 31.58C147.61 33.92 145.825 35.78 142.24 35.78C140.17 35.78 138.61 34.835 138.61 33.35C138.61 32.15 139.705 31.04 141.28 31.04C143.11 31.04 144.22 32.165 144.445 33.575C145.255 33.14 145.66 32.45 145.66 31.55C145.66 30.215 144.31 29.315 142.585 29.315C140.305 29.315 138.82 30.53 137.23 32.33L135.88 30.935ZM140.365 33.17C140.365 33.725 140.995 34.1 141.865 34.1C142.18 34.1 142.465 34.085 142.735 34.055C142.645 33.095 142.09 32.465 141.28 32.465C140.725 32.465 140.365 32.795 140.365 33.17ZM156.91 33.2H158.29V32.3H156.91V33.2ZM158.29 30.245H156.91V31.145H158.29V30.245ZM158.245 24.98H156.76C156.985 25.55 157.12 26.315 157.15 26.81L156.475 26.975H158.635L157.855 26.795C158.005 26.285 158.17 25.52 158.245 24.98ZM153.235 26.045V24.425H152.245V26.045H153.235ZM152.245 32.36L153.235 32.18V30.545H152.245V32.36ZM153.235 29.105V27.485H152.245V29.105H153.235ZM162.445 28.91L163.87 29.225C163.465 30.665 162.91 31.955 162.205 33.08C162.34 33.8 162.505 34.205 162.685 34.22C162.865 34.22 162.985 33.53 163.045 32.345C163.3 32.705 163.945 33.17 164.2 33.335C163.825 35.765 163.12 36.29 162.61 36.29C161.935 36.275 161.44 35.675 161.08 34.58C160.495 35.255 159.835 35.84 159.115 36.335C158.92 36.035 158.41 35.45 158.095 35.165C158.47 34.94 158.83 34.685 159.16 34.415H156.91V35.285H155.545V29.015H159.67V33.95C160.03 33.605 160.36 33.215 160.66 32.795C160.465 31.58 160.33 30.08 160.255 28.355H154.99V26.975H155.935C155.905 26.48 155.785 25.745 155.605 25.19L156.475 24.98H155.29V24.425H154.72V36.305H153.235V33.74C152.17 33.965 151.105 34.19 150.205 34.37L149.905 32.735C150.175 32.705 150.475 32.66 150.79 32.6V24.425H150.205V22.865H155.35V23.675H156.82V22.325H158.335V23.675H159.865V24.98H158.575L159.595 25.175C159.37 25.82 159.16 26.495 158.995 26.975H160.195C160.15 25.535 160.12 23.975 160.105 22.31H161.665V23.435L162.625 22.925C163.24 23.66 163.825 24.635 164.095 25.31L162.85 26C162.64 25.4 162.16 24.515 161.665 23.81C161.665 24.92 161.68 25.97 161.71 26.975H164.02V28.355H161.77C161.8 29.15 161.845 29.885 161.905 30.56C162.115 30.035 162.295 29.48 162.445 28.91ZM172.465 30.695H173.8V29.93H172.465V30.695ZM172.465 28.145V28.88H173.8V28.145H172.465ZM176.89 28.145H175.51V28.88H176.89V28.145ZM176.89 30.695V29.93H175.51V30.695H176.89ZM175.51 34.64H179.05V36.05H169.975V34.64H173.8V33.965H170.815V32.615H173.8V31.925H170.92V30.605L169.93 31.955C169.75 31.565 169.39 30.98 169.03 30.44V36.29H167.305V30.905C166.825 32.06 166.255 33.125 165.67 33.875C165.505 33.365 165.13 32.63 164.845 32.18C165.685 31.205 166.51 29.615 167.065 28.16H165.16V26.495H167.305V24.755C166.675 24.875 166.06 24.98 165.475 25.055C165.385 24.65 165.175 24.05 164.98 23.69C166.63 23.405 168.475 22.97 169.63 22.445L170.815 23.81C170.275 24.02 169.675 24.215 169.03 24.38V26.495H170.635V28.16H169.03V28.595C169.42 28.925 170.59 30.14 170.92 30.53V26.9H173.8V26.285H170.425V24.905H173.8V24.275C172.825 24.32 171.865 24.35 170.965 24.365C170.935 23.975 170.74 23.39 170.575 23.03C173.035 22.955 175.93 22.76 177.685 22.415L178.705 23.75C177.775 23.93 176.665 24.065 175.51 24.155V24.905H178.735V26.285H175.51V26.9H178.495V31.925H175.51V32.615H178.495V33.965H175.51V34.64ZM180.625 30.305C182.185 28.865 183.235 27.545 183.895 26.225H183.715C183.115 26.225 182.02 26.195 181.21 26.12V24.38C181.96 24.5 183.07 24.545 183.82 24.545H184.54C184.72 23.87 184.825 23.27 184.84 22.85L186.79 23.015C186.715 23.375 186.61 23.885 186.43 24.485C187.825 24.41 189.325 24.29 190.63 24.05L190.615 25.79C189.19 26 187.36 26.12 185.77 26.18C185.53 26.705 185.23 27.245 184.915 27.68C185.305 27.485 186.1 27.38 186.595 27.38C187.495 27.38 188.245 27.77 188.575 28.535C189.34 28.175 189.97 27.92 190.585 27.65C191.155 27.395 191.68 27.14 192.22 26.885L192.97 28.61C192.49 28.73 191.71 29.03 191.2 29.24C190.54 29.495 189.7 29.825 188.785 30.245C188.8 31.07 188.83 32.165 188.845 32.84H187.06C187.09 32.405 187.105 31.715 187.12 31.07C186.025 31.67 185.425 32.255 185.425 32.99C185.425 33.815 186.13 34.04 187.585 34.04C188.845 34.04 190.495 33.875 191.8 33.605L191.74 35.54C190.75 35.66 188.935 35.78 187.54 35.78C185.215 35.78 183.46 35.225 183.46 33.305C183.46 31.415 185.26 30.215 186.955 29.345C186.715 28.97 186.325 28.835 185.92 28.835C185.08 28.835 184.165 29.315 183.595 29.855C183.145 30.305 182.725 30.845 182.215 31.49L180.625 30.305ZM194.845 27.05C195.265 27.05 195.955 27.02 196.705 26.96L197.83 26.855V25.355C197.83 24.74 197.785 24.23 197.71 23.72H199.81C199.75 24.2 199.72 24.62 199.72 25.25C199.72 25.595 199.72 26.09 199.705 26.675C200.965 26.555 202.405 26.42 203.755 26.3V24.635C203.755 24.245 203.695 23.555 203.65 23.27H205.66C205.615 23.495 205.585 24.155 205.57 24.545C205.555 25.13 205.54 25.655 205.525 26.15C205.93 26.12 206.305 26.09 206.65 26.075C207.055 26.045 207.64 26.015 208.075 25.97V27.8H207.865C207.52 27.8 206.965 27.815 206.635 27.815C206.32 27.83 205.93 27.845 205.495 27.875C205.45 29.015 205.39 30.23 205.27 30.86C205.12 31.64 204.745 31.835 203.98 31.835C203.455 31.835 202.27 31.685 201.745 31.595L201.79 29.96C202.255 30.05 202.855 30.14 203.155 30.14C203.455 30.14 203.575 30.095 203.62 29.81C203.68 29.39 203.71 28.73 203.725 28.01C202.42 28.115 200.965 28.265 199.69 28.4C199.675 29.18 199.675 29.96 199.675 30.605C199.675 31.07 199.675 31.475 199.69 31.745C199.735 33.215 199.855 33.53 202.09 33.53C203.545 33.53 205.42 33.35 206.53 33.155L206.455 35.195C205.45 35.3 203.635 35.435 202.225 35.435C198.37 35.435 197.905 34.625 197.845 32.045C197.83 31.415 197.83 29.975 197.83 28.595L196.825 28.7C196.36 28.76 195.43 28.895 195.04 28.955L194.845 27.05ZM205.84 23.6L206.86 23.27C207.13 23.87 207.475 24.74 207.64 25.325L206.605 25.67C206.395 25.025 206.14 24.2 205.84 23.6ZM207.385 23.075L208.405 22.76C208.69 23.345 209.035 24.23 209.215 24.8L208.195 25.13C207.97 24.485 207.685 23.675 207.385 23.075ZM210.895 24.47C211.15 24.47 211.45 24.455 211.735 24.425C213.295 24.305 215.785 23.9 216.76 23.57L217.315 25.22C217.105 25.31 216.79 25.415 216.58 25.55C215.56 26.345 213.505 28.97 213.505 31.475C213.505 33.11 214.57 33.86 215.86 33.86C218.095 33.86 219.58 31.805 219.58 28.355C219.58 27.35 219.445 26.225 219.175 24.995C219.07 24.71 218.965 24.425 218.86 24.125L220.66 23.57C221.065 25.43 221.905 27.755 223.855 29.72L222.475 31.205C222.01 30.605 221.56 29.945 221.125 29.195C221.125 29.33 221.14 29.45 221.14 29.585C221.14 32.855 219.49 35.87 215.77 35.87C213.295 35.87 211.6 34.28 211.6 31.73C211.6 29.495 212.755 27.245 213.94 25.895C213.37 25.97 212.545 26.105 212.02 26.21C211.735 26.27 211.495 26.33 211.15 26.405L210.895 24.47ZM236.275 26.675H234.565C234.775 27.92 235.075 29.09 235.48 30.17C235.855 29.15 236.11 27.98 236.275 26.675ZM230.545 28.445L230.86 28.355L231.385 28.775C231.64 28.46 231.88 28.1 232.105 27.695H230.32C230.11 27.95 229.9 28.205 229.675 28.445H230.545ZM228.925 25.16V26.165H229.42C229.66 25.835 229.885 25.505 230.095 25.16H228.925ZM239.005 26.675H238.12C237.805 28.895 237.295 30.725 236.5 32.255C237.175 33.32 238.045 34.19 239.155 34.76C238.75 35.12 238.195 35.825 237.925 36.32C236.89 35.705 236.065 34.895 235.39 33.905C234.565 34.895 233.53 35.705 232.225 36.365C232.06 35.945 231.535 35.12 231.205 34.745C232.615 34.115 233.65 33.275 234.43 32.18C234.01 31.265 233.68 30.245 233.41 29.135C233.185 29.51 232.96 29.855 232.72 30.17C232.525 29.945 232.105 29.555 231.73 29.255C231.13 29.96 230.365 30.725 229.63 31.31V31.61C230.53 31.55 231.445 31.46 232.345 31.385V32.915C231.445 33.005 230.53 33.08 229.63 33.155V34.625C229.63 35.39 229.495 35.795 228.955 36.05C228.415 36.29 227.725 36.305 226.795 36.305C226.72 35.84 226.495 35.21 226.285 34.79C226.855 34.805 227.515 34.805 227.695 34.79C227.89 34.79 227.95 34.745 227.95 34.58V33.305C226.915 33.395 225.955 33.485 225.13 33.56L224.95 31.97C225.79 31.91 226.825 31.835 227.95 31.745V30.575H228.535C228.79 30.35 229.06 30.095 229.315 29.825H228.25C227.515 30.44 226.75 30.98 225.925 31.445C225.685 31.1 225.085 30.41 224.725 30.08C225.28 29.81 225.805 29.495 226.3 29.165V28.445H227.26C227.545 28.205 227.815 27.95 228.085 27.695H225.07V26.165H227.26V25.16H225.565V23.66H227.26V22.295H228.925V23.66H230.38V24.68C230.74 24.05 231.055 23.36 231.325 22.655L232.975 23.12C232.54 24.215 232.015 25.22 231.415 26.165H232.36V27.185C233.02 25.79 233.47 24.065 233.74 22.295L235.555 22.565C235.405 23.405 235.225 24.23 235.015 25.025H239.005V26.675ZM241.06 34.565C241.33 34.355 241.705 34.04 242.095 33.65C242.86 32.87 245.89 29.855 247.255 28.415C246.205 28.46 244.435 28.61 243.58 28.685C243.07 28.73 242.62 28.805 242.305 28.865L242.125 26.81C242.47 26.84 243.01 26.855 243.55 26.855C244.255 26.855 247.63 26.705 248.86 26.54C249.13 26.51 249.535 26.42 249.7 26.36L250.795 27.605C250.405 27.875 250.09 28.145 249.82 28.355C249.145 28.94 247.75 30.215 247.405 30.59C247.54 30.59 247.81 30.635 247.96 30.71C248.395 30.845 248.665 31.16 248.875 31.715C249.01 32.12 249.145 32.69 249.28 33.065C249.415 33.53 249.745 33.755 250.33 33.755C251.47 33.755 252.49 33.65 253.24 33.5L253.12 35.45C252.505 35.57 250.975 35.66 250.21 35.66C248.8 35.66 248.035 35.36 247.675 34.385C247.51 33.95 247.345 33.26 247.24 32.885C247.06 32.36 246.745 32.165 246.445 32.165C246.145 32.165 245.83 32.405 245.485 32.765C244.96 33.29 243.85 34.49 242.83 35.795L241.06 34.565ZM243.925 24.605L244.21 22.88C245.875 23.195 248.725 23.51 250.27 23.6L250.03 25.355C248.47 25.22 245.695 24.905 243.925 24.605ZM254.893 24.71C255.478 24.695 256.048 24.665 256.348 24.635C257.578 24.515 260.038 24.305 262.753 24.065C264.283 23.945 265.918 23.855 266.953 23.81L266.968 25.73C266.173 25.73 264.898 25.745 264.103 25.925C262.318 26.405 260.968 28.325 260.968 30.08C260.968 32.525 263.263 33.395 265.768 33.53L265.078 35.585C261.958 35.375 259.018 33.695 259.018 30.485C259.018 28.34 260.218 26.66 261.208 25.91C259.933 26.045 256.798 26.375 255.073 26.75L254.893 24.71ZM271.014 29.225C271.014 28.685 271.419 28.16 272.199 27.515C273.354 26.57 275.394 24.92 276.399 23.93C276.819 23.525 277.299 23.03 277.539 22.685L279.279 24.23C278.814 24.575 278.319 24.965 277.974 25.235C277.014 26.015 275.049 27.53 274.059 28.385C273.669 28.715 273.474 28.925 273.474 29.135C273.474 29.345 273.684 29.57 274.089 29.915C275.199 30.86 278.064 33.125 279.534 34.55L277.809 36.14C277.389 35.675 276.924 35.21 276.504 34.76C275.694 33.905 273.429 31.97 272.064 30.815C271.359 30.215 271.014 29.72 271.014 29.225ZM284.244 34.985C285.129 33.485 286.254 30.38 286.809 28.295C286.914 27.89 287.034 27.47 287.124 27.05C286.779 27.065 286.449 27.08 286.149 27.08C285.429 27.08 284.874 27.05 284.349 27.02L284.304 25.175C285.069 25.265 285.564 25.28 286.179 25.28C286.614 25.28 287.049 25.265 287.499 25.235C287.559 24.92 287.604 24.62 287.634 24.395C287.679 24.02 287.709 23.615 287.709 23.285C287.709 23.135 287.709 23 287.694 22.88L289.959 23.06C289.854 23.48 289.719 24.14 289.644 24.47L289.524 25.025C290.364 24.905 291.204 24.74 292.014 24.545V26.405C291.129 26.615 290.124 26.78 289.134 26.9C288.999 27.53 288.849 28.19 288.684 28.805C288.144 30.89 287.139 33.92 286.329 35.675L284.244 34.985ZM289.674 33.11C289.674 32.42 289.809 31.7 289.929 31.13L291.714 31.28C291.594 31.715 291.504 32.195 291.504 32.525C291.504 33.17 291.879 33.665 293.469 33.665C294.459 33.665 295.494 33.545 296.559 33.365L296.484 35.27C295.644 35.375 294.639 35.48 293.454 35.48C290.949 35.48 289.674 34.61 289.674 33.11ZM290.844 29.3V27.56C291.669 27.47 292.734 27.41 293.694 27.41C294.534 27.41 295.434 27.44 296.304 27.53L296.259 29.33C295.524 29.24 294.609 29.135 293.709 29.135C292.674 29.135 291.774 29.195 290.844 29.3ZM293.574 23.945L294.759 23.45C295.134 24.005 295.674 24.95 295.944 25.505L294.744 26.03C294.444 25.415 293.979 24.515 293.574 23.945ZM295.344 23.255L296.529 22.775C296.934 23.345 297.489 24.29 297.744 24.815L296.559 25.325C296.244 24.695 295.764 23.825 295.344 23.255ZM300.459 25.16C301.749 25.325 302.934 25.4 304.029 25.4C304.734 25.4 305.394 25.37 306.009 25.31C305.679 24.56 305.379 23.855 304.959 23.18L307.074 22.775C307.329 23.585 307.614 24.245 307.929 25.04C308.949 24.86 309.879 24.605 310.839 24.29L311.184 26.165C310.404 26.375 309.549 26.585 308.664 26.75C309.204 27.92 309.924 29.375 310.584 30.56L309.534 31.685C307.509 31.055 306.279 30.8 305.154 30.8C303.429 30.8 302.514 31.355 302.514 32.24C302.514 33.14 303.504 33.875 305.349 33.875C307.419 33.875 308.709 33.635 309.789 33.38L309.744 35.345C308.904 35.54 307.299 35.765 305.349 35.765C302.139 35.765 300.579 34.43 300.579 32.405C300.579 30.065 302.259 28.895 304.974 28.895C305.949 28.895 306.864 29.045 307.884 29.3C307.524 28.55 307.194 27.95 306.789 27.065C305.859 27.155 304.884 27.215 303.834 27.215C302.784 27.215 301.689 27.155 300.519 27.065L300.459 25.16ZM314.949 24.29L317.229 24.32C317.124 24.845 317.049 25.715 317.049 26.12V26.765C317.049 27.56 317.064 28.43 317.139 29.27C317.349 31.415 317.799 32.87 318.729 32.87C319.434 32.87 320.019 31.13 320.304 29.96L321.804 31.76C320.814 34.34 319.884 35.255 318.684 35.255C317.064 35.255 315.639 33.785 315.219 29.795C315.084 28.43 315.054 26.705 315.054 25.79C315.054 25.37 315.039 24.74 314.949 24.29ZM322.764 25.265L324.654 24.635C326.064 26.36 327.204 29.945 327.369 32.225L325.404 32.975C325.179 30.59 324.384 27.095 322.764 25.265ZM328.824 33.68C328.824 32.36 329.889 31.295 331.194 31.295C332.514 31.295 333.594 32.36 333.594 33.68C333.594 35 332.514 36.08 331.194 36.08C329.889 36.08 328.824 35 328.824 33.68ZM329.814 33.68C329.814 34.46 330.444 35.075 331.194 35.075C331.974 35.075 332.589 34.46 332.589 33.68C332.589 32.915 331.974 32.3 331.194 32.3C330.444 32.3 329.814 32.915 329.814 33.68Z" fill="black"/>
<path d="M2.822 84.096C2.822 82.396 4.386 81.206 6.987 81.206C7.327 81.206 7.667 81.24 8.007 81.274C8.007 81.053 7.956 79.931 7.956 79.727H7.089C6.103 79.727 4.165 79.642 3.043 79.506L3.06 77.517C4.029 77.721 6.222 77.823 7.123 77.823H7.922C7.922 77.602 7.939 76.31 7.939 76.072H7.038C5.967 76.072 3.825 75.919 2.856 75.766L2.839 73.828C3.893 74.032 5.984 74.219 7.021 74.219H7.939V73.454C7.939 73.148 7.905 72.621 7.854 72.298H10.149C10.098 72.638 10.047 73.063 10.03 73.488C10.03 73.539 10.013 74.032 10.013 74.151C11.322 74.083 13.141 73.896 14.586 73.675L14.637 75.63C13.515 75.749 11.577 75.936 9.996 76.004C9.996 76.225 9.979 77.551 9.979 77.772C11.662 77.687 13.09 77.551 14.467 77.364L14.484 79.353C12.971 79.523 11.628 79.625 10.03 79.676C10.064 80.339 10.098 81.019 10.132 81.648C12.24 82.26 13.872 83.399 14.841 84.198L13.634 86.085C12.75 85.252 11.611 84.385 10.268 83.79C10.268 83.926 10.285 84.181 10.285 84.351C10.285 85.813 9.146 86.918 6.936 86.918C4.25 86.918 2.822 85.881 2.822 84.096ZM4.879 83.977C4.879 84.623 5.474 85.014 6.63 85.014C7.531 85.014 8.109 84.742 8.109 83.773C8.109 83.586 8.109 83.365 8.092 83.076C7.65 82.991 7.174 82.94 6.698 82.94C5.525 82.94 4.879 83.399 4.879 83.977ZM18.071 74.44C20.009 74.44 23.052 74.355 25.33 74.321C25.33 74.117 25.313 73.947 25.313 73.811C25.262 73.267 25.211 72.638 25.143 72.349H27.591C27.54 72.621 27.489 73.522 27.472 73.794C27.472 73.93 27.455 74.1 27.455 74.304H29.512C29.172 73.641 28.815 72.978 28.407 72.383L29.801 71.805C30.226 72.4 30.685 73.182 30.991 73.794L29.818 74.304H31.705H32.334L32.317 76.31C31.297 76.259 29.716 76.208 27.438 76.208C27.455 77.058 27.455 77.976 27.455 78.707C27.88 79.336 28.084 80.152 28.084 81.036C28.084 83.246 26.792 86.017 22.695 87.173L20.893 85.371C22.593 85.014 24.089 84.453 25.007 83.45C24.769 83.501 24.514 83.535 24.242 83.535C22.95 83.535 21.335 82.498 21.335 80.458C21.335 78.537 22.865 77.296 24.701 77.296C24.939 77.296 25.16 77.313 25.381 77.347L25.364 76.225C22.814 76.259 20.196 76.361 18.122 76.48L18.071 74.44ZM23.358 80.407C23.358 81.189 23.987 81.682 24.667 81.682C25.262 81.682 25.806 81.291 25.806 80.237C25.806 80.067 25.789 79.863 25.755 79.659C25.517 79.268 25.109 79.081 24.65 79.081C24.021 79.081 23.358 79.523 23.358 80.407ZM30.668 71.89L32.079 71.312C32.504 71.941 32.963 72.672 33.286 73.301L31.858 73.896C31.518 73.216 31.11 72.502 30.668 71.89ZM35.666 81.393C35.666 78.843 36.159 75.664 36.363 74.372C36.431 73.896 36.516 73.25 36.516 72.723L38.862 72.927C38.726 73.267 38.522 74.117 38.454 74.423C38.199 75.545 37.655 79.251 37.655 80.934C37.655 81.274 37.672 81.682 37.723 82.022C37.944 81.427 38.216 80.866 38.471 80.305L39.508 81.138C39.032 82.515 38.488 84.232 38.301 85.15C38.25 85.354 38.216 85.643 38.216 85.847C38.216 86.068 38.216 86.34 38.233 86.629L36.329 86.765C35.989 85.592 35.666 83.671 35.666 81.393ZM40.086 83.943C40.086 82.226 41.531 81.053 43.826 81.053C44.217 81.053 44.591 81.07 44.931 81.121C44.88 80.084 44.829 78.86 44.812 77.67C44.404 77.687 43.996 77.687 43.605 77.687C42.619 77.687 41.667 77.653 40.664 77.585V75.579C41.633 75.681 42.602 75.732 43.605 75.732C43.996 75.732 44.404 75.732 44.795 75.715C44.778 74.882 44.778 74.202 44.761 73.845C44.761 73.59 44.71 73.08 44.659 72.74H47.073C47.022 73.063 46.988 73.471 46.971 73.828C46.954 74.202 46.92 74.831 46.92 75.579C47.838 75.477 48.722 75.358 49.521 75.188V77.279C48.705 77.398 47.821 77.5 46.903 77.568C46.937 79.2 47.022 80.543 47.09 81.682C48.501 82.26 49.555 83.127 50.337 83.858L49.198 85.626C48.501 84.963 47.821 84.402 47.158 83.943C47.056 85.541 46.138 86.697 43.86 86.697C41.548 86.697 40.086 85.711 40.086 83.943ZM42.058 83.722C42.058 84.402 42.738 84.708 43.622 84.708C44.659 84.708 45.016 84.164 45.016 83.178V82.889C44.574 82.77 44.115 82.702 43.656 82.702C42.704 82.702 42.058 83.093 42.058 83.722ZM58.174 71.618H60.503C60.486 72.332 60.452 73.25 60.384 74.27C60.622 76.565 61.659 82.974 67.592 85.592C66.963 86.085 66.385 86.765 66.113 87.343C62.339 85.541 60.452 82.226 59.466 79.302C58.531 82.294 56.746 85.371 53.21 87.445C52.853 86.901 52.207 86.255 51.527 85.796C58.429 82.107 58.106 74.491 58.174 71.618ZM80.529 83.552V82.753H77.469V83.552H80.529ZM77.469 80.475V81.206H80.529V80.475H77.469ZM72.743 77.092H75.412V76.276H72.743V77.092ZM80.223 76.276H77.469V77.092H80.223V76.276ZM84.354 81.206V82.753H82.586V85.711H80.529V85.014H77.469V85.541C77.469 86.544 77.231 86.952 76.568 87.241C75.922 87.496 75.004 87.53 73.559 87.53C73.457 87.054 73.151 86.357 72.896 85.932C73.712 85.966 74.715 85.966 74.987 85.966C75.31 85.949 75.412 85.847 75.412 85.541V85.014H70.244V83.552H75.412V82.753H68.68V81.206H75.412V80.475H70.38V79.115H75.412V78.367H70.805V75.001H75.412V74.304H69.071V72.706H75.412V71.601H77.469V72.706H83.963V74.304H77.469V75.001H82.297V78.367H77.469V79.115H82.586V81.206H84.354ZM98.294 77.041V74.559H94.027V77.041H98.294ZM98.294 81.495V78.928H94.027V81.495H98.294ZM100.317 72.689V83.365H92.089V72.689H100.317ZM91.443 78.775L91.681 80.628C91.052 80.798 90.423 80.985 89.777 81.155V85.201C89.777 86.187 89.59 86.68 89.029 86.969C88.468 87.292 87.635 87.343 86.445 87.343C86.394 86.816 86.122 86.017 85.884 85.507C86.547 85.524 87.261 85.524 87.482 85.524C87.72 85.524 87.805 85.439 87.805 85.201V81.665L86.003 82.141L85.476 80.203C86.139 80.067 86.955 79.88 87.805 79.676V76.701H85.697V74.831H87.805V71.618H89.777V74.831H91.562V76.701H89.777V79.2L91.443 78.775ZM90.916 85.031H101.354V86.918H90.916V85.031ZM115.056 72.111L117.317 72.774C116.569 74.287 115.702 75.902 114.971 76.973L113.203 76.361C113.866 75.188 114.648 73.437 115.056 72.111ZM107.78 76.089L105.825 76.905C105.502 75.834 104.669 74.185 103.836 72.995L105.672 72.264C106.573 73.437 107.406 75.001 107.78 76.089ZM111.622 71.584V77.466H117.028V87.479H114.869V86.782H103.853V84.776H114.869V83.008H104.822V81.053H114.869V79.489H104.244V77.466H109.395V71.584H111.622ZM121.754 82.821C121.754 80.968 122.893 79.591 124.542 78.384C123.76 76.973 123.471 74.916 123.25 72.859L125.528 72.502C125.647 74.508 126.072 76.004 126.633 77.432C128.078 76.837 129.608 76.412 130.424 76.157C131.07 75.953 131.75 75.766 132.26 75.511L132.838 77.755C132.243 77.874 131.733 78.027 130.849 78.265C129.625 78.605 128.061 79.064 126.514 79.778C125.137 80.407 124.083 81.376 124.083 82.566C124.083 83.773 125.222 84.419 127.568 84.419C129.302 84.419 131.58 84.147 133.076 83.807L133.042 86.238C131.614 86.476 129.829 86.646 127.636 86.646C124.287 86.646 121.754 85.711 121.754 82.821ZM144.245 79.982L146.2 80.628C145.69 81.563 145.095 82.447 144.398 83.263C145.469 83.994 146.421 84.759 147.084 85.422L145.469 86.952C144.874 86.289 143.973 85.541 142.953 84.759C141.61 85.983 140.097 86.986 138.533 87.751C138.21 87.326 137.462 86.544 137.02 86.17C138.601 85.558 140.063 84.674 141.321 83.603C140.352 82.957 139.366 82.362 138.465 81.852L139.91 80.526C140.794 80.985 141.78 81.563 142.749 82.175C143.344 81.495 143.837 80.764 144.245 79.982ZM138.72 78.197H149.6C149.566 82.277 149.787 85.49 150.773 85.49C151.028 85.473 151.096 84.589 151.13 83.212C151.521 83.671 152.031 84.181 152.439 84.47C152.286 86.595 151.929 87.496 150.62 87.496C148.138 87.496 147.645 84.249 147.543 79.897H138.431V78.486L138.278 78.622C137.887 78.282 136.935 77.636 136.442 77.347C138.125 76.072 139.4 73.879 140.063 71.533L142.171 71.975C142.035 72.4 141.899 72.825 141.746 73.233H151.793V74.916H140.998C140.862 75.188 140.709 75.46 140.556 75.715H150.246V77.347H140.437V75.919C139.91 76.786 139.332 77.551 138.72 78.197ZM166.073 83.195V85.32H169.456V87.105H160.599V85.32H164.067V83.195H161.5V81.495H164.067V79.608H166.073V81.495H168.691V83.195H166.073ZM166.515 74.1H163.625C163.982 74.882 164.458 75.613 165.036 76.242C165.631 75.613 166.141 74.899 166.515 74.1ZM159.222 78.299V77.279H157.964V78.299H159.222ZM159.222 80.628V79.591H157.964V80.628H159.222ZM155.38 79.591V80.628H156.587V79.591H155.38ZM155.38 77.279V78.299H156.587V77.279H155.38ZM167.739 72.298L169.031 72.791C168.504 74.712 167.637 76.242 166.498 77.449C167.416 78.044 168.487 78.486 169.694 78.775C169.269 79.166 168.742 79.914 168.487 80.407C167.161 80.033 166.022 79.455 165.053 78.707C163.999 79.472 162.792 80.05 161.466 80.475C161.313 80.135 161.007 79.659 160.735 79.268V82.022H158.185V83.042H160.99V84.81H158.185V87.479H156.383V84.81H153.561V83.042H156.383V82.022H153.935V75.885H156.383V74.95H153.765V73.199H156.383V71.601H158.185V73.199H160.854V74.95H158.185V75.885H160.735V78.775C161.806 78.469 162.809 77.993 163.676 77.398C162.962 76.548 162.384 75.562 161.925 74.457L163.268 74.1H161.296V72.366H167.399L167.739 72.298ZM171.802 81.138C171.802 78.605 172.312 75.766 172.499 74.474C172.567 73.998 172.669 73.352 172.669 72.825L175.032 73.029C174.896 73.369 174.692 74.219 174.624 74.525C174.386 75.647 173.808 79.013 173.808 80.696C173.808 81.019 173.825 81.427 173.876 81.784C174.114 81.189 174.386 80.628 174.624 80.084L175.678 80.9C175.202 82.311 174.641 84.13 174.471 85.031C174.42 85.269 174.369 85.643 174.369 85.813C174.386 86 174.386 86.272 174.403 86.51L172.465 86.646C172.125 85.473 171.802 83.416 171.802 81.138ZM176.749 83.348C176.749 82.651 176.868 81.937 177.038 81.155L178.976 81.342C178.84 81.886 178.772 82.294 178.772 82.753C178.772 83.501 179.418 83.943 181.118 83.943C182.631 83.943 183.872 83.807 185.334 83.501L185.385 85.779C184.297 85.983 182.937 86.119 181.033 86.119C178.126 86.119 176.749 85.065 176.749 83.348ZM177.616 74.134C178.585 74.27 179.826 74.321 181.067 74.321C182.478 74.321 183.889 74.253 184.858 74.134V76.31C183.821 76.412 182.546 76.446 181.254 76.446C179.962 76.446 178.687 76.412 177.633 76.31L177.616 74.134ZM188.428 83.569C188.428 82.09 190.145 80.577 192.202 79.676C192.185 79.285 192.185 78.894 192.185 78.503V77.092C191.862 77.109 191.556 77.126 191.284 77.126C190.519 77.126 189.669 77.109 188.938 77.041L188.904 75.001C189.89 75.12 190.621 75.137 191.233 75.137C191.539 75.137 191.862 75.12 192.202 75.103C192.219 74.508 192.219 74.015 192.219 73.726C192.219 73.369 192.151 72.553 192.1 72.247H194.412C194.378 72.553 194.31 73.284 194.276 73.709C194.259 74.083 194.242 74.491 194.225 74.916C195.33 74.763 196.435 74.542 197.319 74.287L197.37 76.395C196.418 76.616 195.262 76.786 194.157 76.922C194.14 77.432 194.14 77.942 194.14 78.435V79.03C195.279 78.741 196.435 78.588 197.37 78.588C199.954 78.588 201.994 79.965 201.994 82.277C201.994 84.266 200.957 85.762 198.288 86.425C197.506 86.595 196.741 86.663 196.078 86.697L195.296 84.538C196.061 84.538 196.775 84.521 197.37 84.419C198.73 84.181 199.818 83.484 199.818 82.26C199.818 81.121 198.798 80.458 197.336 80.458C196.299 80.458 195.211 80.628 194.174 80.917C194.208 82.26 194.259 83.552 194.259 84.13C194.259 86.221 193.494 86.765 192.406 86.765C190.757 86.765 188.428 85.354 188.428 83.569ZM190.519 83.501C190.519 84.011 191.301 84.487 191.743 84.487C192.049 84.487 192.287 84.334 192.287 83.756C192.287 83.331 192.27 82.566 192.236 81.682C191.199 82.209 190.519 82.906 190.519 83.501ZM198.288 75.715L199.223 74.066C200.515 74.695 202.47 75.8 203.354 76.429L202.334 78.163C201.535 77.466 199.342 76.225 198.288 75.715ZM210.477 72.128V73.658H205.462V72.128H210.477ZM208.828 83.263H207.009V85.201H208.828V83.263ZM210.545 81.665V86.799H207.009V87.462H205.309V81.665H210.545ZM205.36 80.798V79.268H210.46V80.798H205.36ZM210.46 76.905V78.418H205.36V76.905H210.46ZM204.561 76.072V74.474H211.021V76.072H204.561ZM217.804 84.844V82.464H213.945V84.844H217.804ZM220.507 78.401H216.852V80.645H219.827V87.411H217.804V86.663H213.945V87.479H212.024V80.645H214.795V78.401H211.14V76.514H214.795V74.44C213.843 74.559 212.874 74.644 211.973 74.712C211.905 74.219 211.65 73.454 211.429 73.012C213.979 72.791 216.835 72.349 218.637 71.771L220.065 73.454C219.096 73.743 218.008 73.964 216.852 74.151V76.514H220.507V78.401ZM224.621 72.536L227.341 72.57C227.222 73.284 227.137 74.134 227.12 74.814C227.035 76.616 226.916 80.39 226.916 82.481C226.916 84.181 227.936 84.725 229.228 84.725C232.016 84.725 233.784 83.127 234.991 81.291L236.521 83.178C235.433 84.776 233.053 87.02 229.211 87.02C226.457 87.02 224.672 85.813 224.672 82.94C224.672 80.679 224.842 76.259 224.842 74.814C224.842 74.015 224.774 73.199 224.621 72.536ZM241.621 72.536L244.341 72.57C244.222 73.284 244.137 74.134 244.12 74.814C244.035 76.616 243.916 80.39 243.916 82.481C243.916 84.181 244.936 84.725 246.228 84.725C249.016 84.725 250.784 83.127 251.991 81.291L253.521 83.178C252.433 84.776 250.053 87.02 246.211 87.02C243.457 87.02 241.672 85.813 241.672 82.94C241.672 80.679 241.842 76.259 241.842 74.814C241.842 74.015 241.774 73.199 241.621 72.536ZM255.777 74.338C256.44 74.321 257.086 74.287 257.426 74.253C258.82 74.117 261.608 73.879 264.685 73.607C266.419 73.471 268.272 73.369 269.445 73.318L269.462 75.494C268.561 75.494 267.116 75.511 266.215 75.715C264.192 76.259 262.662 78.435 262.662 80.424C262.662 83.195 265.263 84.181 268.102 84.334L267.32 86.663C263.784 86.425 260.452 84.521 260.452 80.883C260.452 78.452 261.812 76.548 262.934 75.698C261.489 75.851 257.936 76.225 255.981 76.65L255.777 74.338ZM272.42 82.872C272.42 80.271 274.783 78.265 278.166 78.112C278.642 77.024 279.118 75.885 279.509 75.086C278.846 75.103 277.401 75.154 276.636 75.205C276.279 75.222 275.684 75.29 275.259 75.358L275.174 73.182C275.616 73.233 276.194 73.25 276.568 73.25C277.52 73.25 279.322 73.182 280.104 73.114C280.512 73.08 280.954 72.978 281.243 72.859L282.586 73.913C282.348 74.168 282.161 74.389 282.025 74.627C281.583 75.341 280.971 76.803 280.376 78.231C281.685 78.435 282.909 78.843 283.997 79.319C284.014 79.115 284.031 78.928 284.048 78.741C284.065 78.418 284.082 78.095 284.082 77.789C284.082 77.483 284.065 77.177 284.031 76.905L286.241 77.16C286.173 78.282 286.088 79.336 285.918 80.288C286.615 80.679 287.227 81.087 287.72 81.41L286.751 83.739C286.309 83.348 285.816 82.94 285.306 82.566C284.558 84.47 283.283 85.949 281.039 87.122L279.237 85.66C281.787 84.572 282.96 82.957 283.521 81.427C282.331 80.781 281.005 80.271 279.577 80.067C278.948 81.512 278.217 83.178 277.622 84.113C276.959 85.133 276.16 85.592 275.004 85.592C273.525 85.592 272.42 84.572 272.42 82.872ZM274.409 82.532C274.409 83.008 274.698 83.331 275.038 83.331C275.378 83.331 275.616 83.178 275.922 82.753C276.347 82.124 276.823 81.087 277.299 80.05C275.429 80.339 274.409 81.478 274.409 82.532ZM291.307 84.096C291.307 82.396 292.871 81.206 295.472 81.206C295.812 81.206 296.152 81.24 296.492 81.274C296.492 81.053 296.441 79.931 296.441 79.727H295.574C294.588 79.727 292.65 79.642 291.528 79.506L291.545 77.517C292.514 77.721 294.707 77.823 295.608 77.823H296.407C296.407 77.602 296.424 76.31 296.424 76.072H295.523C294.452 76.072 292.31 75.919 291.341 75.766L291.324 73.828C292.378 74.032 294.469 74.219 295.506 74.219H296.424V73.454C296.424 73.148 296.39 72.621 296.339 72.298H298.634C298.583 72.638 298.532 73.063 298.515 73.488C298.515 73.539 298.498 74.032 298.498 74.151C299.807 74.083 301.626 73.896 303.071 73.675L303.122 75.63C302 75.749 300.062 75.936 298.481 76.004C298.481 76.225 298.464 77.551 298.464 77.772C300.147 77.687 301.575 77.551 302.952 77.364L302.969 79.353C301.456 79.523 300.113 79.625 298.515 79.676C298.549 80.339 298.583 81.019 298.617 81.648C300.725 82.26 302.357 83.399 303.326 84.198L302.119 86.085C301.235 85.252 300.096 84.385 298.753 83.79C298.753 83.926 298.77 84.181 298.77 84.351C298.77 85.813 297.631 86.918 295.421 86.918C292.735 86.918 291.307 85.881 291.307 84.096ZM293.364 83.977C293.364 84.623 293.959 85.014 295.115 85.014C296.016 85.014 296.594 84.742 296.594 83.773C296.594 83.586 296.594 83.365 296.577 83.076C296.135 82.991 295.659 82.94 295.183 82.94C294.01 82.94 293.364 83.399 293.364 83.977ZM305.685 77.007C306.161 77.007 306.943 76.973 307.793 76.905L309.068 76.786V75.086C309.068 74.389 309.017 73.811 308.932 73.216H311.312C311.244 73.777 311.21 74.253 311.21 74.967C311.21 75.358 311.21 75.919 311.193 76.582C312.621 76.446 314.253 76.293 315.783 76.157V74.253C315.783 73.828 315.715 73.029 315.664 72.723H317.942C317.891 72.978 317.857 73.709 317.84 74.168C317.823 74.831 317.806 75.426 317.789 75.987C318.248 75.953 318.673 75.919 319.064 75.902C319.523 75.868 320.186 75.817 320.679 75.783V77.857H320.305C319.914 77.857 319.37 77.857 319.047 77.874C318.69 77.891 318.248 77.908 317.755 77.942C317.704 79.217 317.636 80.594 317.5 81.308C317.33 82.192 316.905 82.413 316.038 82.413C315.443 82.413 314.1 82.26 313.505 82.158L313.556 80.305C314.083 80.407 314.763 80.509 315.103 80.509C315.443 80.509 315.579 80.441 315.63 80.118C315.698 79.659 315.732 78.894 315.749 78.095C314.27 78.214 312.621 78.367 311.176 78.52C311.159 79.421 311.159 80.305 311.159 81.036C311.159 81.58 311.159 82.022 311.176 82.328C311.227 83.977 311.363 84.351 313.896 84.351C315.545 84.351 317.67 84.147 318.928 83.909L318.843 86.221C317.704 86.357 315.647 86.493 314.049 86.493C309.68 86.493 309.153 85.575 309.085 82.668C309.068 81.954 309.068 80.322 309.068 78.741L307.929 78.86C307.402 78.928 306.348 79.098 305.906 79.166L305.685 77.007ZM322.974 86C324.215 82.634 327.768 75.562 328.652 73.964C328.873 73.505 329.179 72.961 329.485 72.247L331.882 73.216C331.712 73.42 331.525 73.726 331.338 73.998C330.505 75.205 329.23 77.551 328.397 79.03C329.026 78.673 329.672 78.52 330.318 78.52C331.576 78.52 332.341 79.336 332.409 80.73C332.443 81.478 332.392 82.838 332.494 83.535C332.545 84.198 333.004 84.453 333.565 84.453C335.01 84.453 335.928 82.566 336.404 80.475L338.223 81.954C337.356 84.861 335.792 86.765 333.191 86.765C331.355 86.765 330.471 85.643 330.403 84.419C330.335 83.518 330.352 82.141 330.301 81.461C330.25 80.866 329.927 80.526 329.315 80.526C328.159 80.526 327.224 81.682 326.629 83.059C326.17 84.045 325.609 85.915 325.354 86.799L322.974 86ZM340.008 76.072C340.246 76.089 340.467 76.106 340.705 76.106C341.062 76.106 341.419 76.089 341.793 76.072C342.32 76.055 343.119 76.004 343.969 75.936C344.19 74.712 344.326 73.573 344.326 72.553V72.366L346.825 72.621C346.723 73.063 346.604 73.59 346.519 74.015C346.434 74.525 346.298 75.137 346.179 75.749C346.74 75.715 347.25 75.681 347.59 75.681C349.375 75.681 350.633 76.48 350.633 78.894C350.633 80.883 350.395 83.569 349.681 85.031C349.12 86.204 348.185 86.578 346.91 86.578C346.264 86.578 345.465 86.476 344.904 86.34L344.53 84.113C345.176 84.3 346.145 84.47 346.587 84.47C347.148 84.47 347.59 84.3 347.845 83.739C348.321 82.804 348.542 80.798 348.542 79.132C348.542 77.789 347.964 77.602 346.893 77.602C346.621 77.602 346.213 77.636 345.737 77.67C345.091 80.22 343.867 84.181 342.32 86.663L340.11 85.779C341.759 83.569 342.898 80.203 343.51 77.908C342.915 77.976 342.388 78.044 342.065 78.095C341.589 78.146 340.722 78.265 340.195 78.35L340.008 76.072ZM350.599 75.052L352.639 74.202C353.659 75.647 355.07 78.86 355.58 80.458L353.455 81.461C353.013 79.591 351.806 76.548 350.599 75.052ZM360.289 76.735C360.306 73.913 361.955 72.451 364.658 72.451C367.174 72.451 368.959 73.658 368.959 76.157C368.959 77.653 368.211 78.452 367.412 79.2C366.562 79.982 365.576 80.526 365.576 82.124H363.332C363.332 80.305 364.267 79.421 365.219 78.554C365.882 77.976 366.579 77.33 366.579 76.259C366.579 75.154 365.729 74.508 364.658 74.508C363.468 74.508 362.669 75.324 362.669 76.735H360.289ZM362.907 85.235C362.907 84.3 363.57 83.569 364.471 83.569C365.372 83.569 366.052 84.3 366.052 85.235C366.052 86.17 365.372 86.884 364.471 86.884C363.57 86.884 362.907 86.17 362.907 85.235Z" fill="black"/>
</svg>
