<svg width="382" height="27" viewBox="0 0 382 27" fill="none" xmlns="http://www.w3.org/2000/svg">
<path d="M-8.76188e-06 12.8201H22.08V15.9161H-8.76188e-06V12.8201ZM33.144 3.41206H36.432C36.408 4.42006 36.36 5.71606 36.264 7.15606C36.6 10.3961 38.064 19.4441 46.44 23.1401C45.552 23.8361 44.736 24.7961 44.352 25.6121C39.024 23.0681 36.36 18.3881 34.968 14.2601C33.648 18.4841 31.128 22.8281 26.136 25.7561C25.632 24.9881 24.72 24.0761 23.76 23.4281C33.504 18.2201 33.048 7.46806 33.144 3.41206ZM49.248 6.86806C49.656 6.86806 50.136 6.84406 50.592 6.79606C53.088 6.60406 57.072 5.95606 58.632 5.42806L59.52 8.06806C59.184 8.21206 58.68 8.38006 58.344 8.59606C56.712 9.86806 53.424 14.0681 53.424 18.0761C53.424 20.6921 55.128 21.8921 57.192 21.8921C60.768 21.8921 63.144 18.6041 63.144 13.0841C63.144 11.4761 62.928 9.67606 62.496 7.70806C62.328 7.25206 62.16 6.79606 61.992 6.31606L64.872 5.42806C65.52 8.40406 66.864 12.1241 69.984 15.2681L67.776 17.6441C67.032 16.6841 66.312 15.6281 65.616 14.4281C65.616 14.6441 65.64 14.8361 65.64 15.0521C65.64 20.2841 63 25.1081 57.048 25.1081C53.088 25.1081 50.376 22.5641 50.376 18.4841C50.376 14.9081 52.224 11.3081 54.12 9.14806C53.208 9.26806 51.888 9.48406 51.048 9.65206C50.592 9.74806 50.208 9.84406 49.656 9.96406L49.248 6.86806ZM74.1774 19.2281C74.1774 16.6121 75.7854 14.6681 78.1134 12.9641C77.0094 10.9721 76.6014 8.06806 76.2894 5.16406L79.5054 4.66006C79.6734 7.49206 80.2734 9.60406 81.0654 11.6201C83.1054 10.7801 85.2654 10.1801 86.4174 9.82006C87.3294 9.53206 88.2894 9.26806 89.0094 8.90806L89.8254 12.0761C88.9854 12.2441 88.2654 12.4601 87.0174 12.7961C85.2894 13.2761 83.0814 13.9241 80.8974 14.9321C78.9534 15.8201 77.4654 17.1881 77.4654 18.8681C77.4654 20.5721 79.0734 21.4841 82.3854 21.4841C84.8334 21.4841 88.0494 21.1001 90.1614 20.6201L90.1134 24.0521C88.0974 24.3881 85.5774 24.6281 82.4814 24.6281C77.7534 24.6281 74.1774 23.3081 74.1774 19.2281ZM98.8734 14.4761C98.8734 12.2681 99.1854 9.31606 99.5454 6.86806C99.6654 6.00406 99.7134 5.04406 99.7374 4.37206L103.001 4.51606C102.665 5.69206 102.185 8.11606 102.041 9.43606C103.169 7.61206 105.233 5.59606 107.921 5.59606C111.233 5.59606 113.801 8.83606 113.801 14.0681C113.801 20.7881 109.673 24.0041 103.385 25.1561L101.585 22.3961C106.865 21.5801 110.561 19.8521 110.561 14.0921C110.561 10.4201 109.337 8.38006 107.369 8.38006C104.561 8.38006 102.113 12.6041 101.993 15.7241V16.3241C101.993 16.8521 102.017 17.4521 102.113 18.2441L99.1614 18.4361C99.0414 17.5241 98.8734 16.0601 98.8734 14.4761ZM119.585 9.70006C119.921 9.72406 120.233 9.74806 120.569 9.74806C121.073 9.74806 121.577 9.72406 122.105 9.70006C122.849 9.67606 123.977 9.60406 125.177 9.50806C125.489 7.78006 125.681 6.17206 125.681 4.73206V4.46806L129.209 4.82806C129.065 5.45206 128.921 6.19606 128.801 6.79606C128.657 7.51606 128.465 8.38006 128.297 9.24406C129.089 9.19606 129.809 9.14806 130.289 9.14806C132.809 9.14806 134.585 10.2761 134.585 13.6841C134.585 16.4921 134.249 20.2841 133.241 22.3481C132.449 24.0041 131.153 24.5321 129.329 24.5321C128.441 24.5321 127.289 24.3881 126.497 24.1961L125.969 21.0521C126.881 21.3161 128.273 21.5561 128.897 21.5561C129.689 21.5561 130.289 21.3161 130.673 20.5241C131.321 19.2041 131.633 16.3721 131.633 14.0201C131.633 12.1241 130.817 11.8601 129.329 11.8601C128.945 11.8601 128.369 11.9081 127.697 11.9561C126.761 15.5561 125.033 21.1481 122.849 24.6521L119.753 23.4041C122.057 20.2841 123.689 15.5321 124.529 12.2921C123.689 12.3881 122.945 12.4841 122.489 12.5561C121.817 12.6281 120.593 12.7961 119.849 12.9161L119.585 9.70006ZM134.561 8.40406L136.769 7.46806C136.289 6.55606 135.689 5.40406 135.137 4.63606L137.033 3.84406C137.633 4.73206 138.473 6.24406 138.953 7.13206L137.729 7.66006C139.121 9.84406 140.897 13.8521 141.593 15.9401L138.569 17.3561C137.945 14.7161 136.265 10.5161 134.561 8.40406ZM137.969 3.55606L139.865 2.76406C140.513 3.67606 141.401 5.18806 141.809 6.02806L139.913 6.86806C139.409 5.86006 138.641 4.44406 137.969 3.55606ZM143.921 7.78006C143.921 5.18806 145.169 3.26806 147.641 1.94806L148.505 3.50806C146.849 4.42006 146.009 5.47606 146.009 7.20406C146.105 7.18006 146.201 7.18006 146.297 7.18006C147.329 7.18006 148.241 7.90006 148.241 9.02806C148.241 10.3241 147.449 11.0921 146.297 11.0921C144.761 11.0921 143.921 9.89206 143.921 7.78006ZM150.113 7.78006C150.113 5.18806 151.361 3.26806 153.833 1.94806L154.673 3.50806C153.041 4.42006 152.201 5.47606 152.201 7.20406C152.273 7.18006 152.393 7.18006 152.465 7.18006C153.521 7.18006 154.409 7.90006 154.409 9.02806C154.409 10.3241 153.617 11.0921 152.465 11.0921C150.953 11.0921 150.113 9.89206 150.113 7.78006ZM298.625 9.31606C300.257 8.40406 301.097 7.32406 301.097 5.64406C301.001 5.66806 300.905 5.66806 300.809 5.66806C299.777 5.66806 298.865 4.92406 298.865 3.79606C298.865 2.50006 299.681 1.73206 300.809 1.73206C302.345 1.73206 303.185 2.93206 303.185 5.04406C303.185 7.63606 301.913 9.58006 299.441 10.8761L298.625 9.31606ZM304.793 9.31606C306.449 8.40406 307.289 7.34806 307.289 5.64406C307.193 5.66806 307.097 5.66806 307.001 5.66806C305.945 5.66806 305.057 4.92406 305.057 3.79606C305.057 2.50006 305.873 1.73206 307.001 1.73206C308.513 1.73206 309.353 2.93206 309.353 5.04406C309.353 7.63606 308.105 9.58006 305.633 10.8761L304.793 9.31606ZM317.529 3.43606L320.313 4.32406C319.641 6.00406 318.801 7.68406 317.841 9.34006V25.7801H315.009V13.4681C314.385 14.2601 313.737 14.9561 313.089 15.6041C312.801 14.9081 311.961 13.3721 311.433 12.6761C313.857 10.4681 316.185 6.98806 317.529 3.43606ZM334.209 13.4201H328.137V22.1561H333.801V24.8921H319.449V22.1561H325.209V13.4201H318.849V10.6361H325.209V3.86806H328.137V10.6361H334.209V13.4201ZM336.681 17.4281L339.033 17.8361C338.793 20.0921 338.289 22.4921 337.593 24.0281C337.089 23.7161 336.033 23.2121 335.409 22.9961C336.105 21.5801 336.489 19.4441 336.681 17.4281ZM343.353 15.8681L341.985 15.9641V25.8281H339.465V16.1561L335.913 16.3961L335.673 13.9001L337.449 13.8281C337.809 13.3721 338.193 12.8681 338.553 12.3401C337.857 11.3081 336.681 10.0121 335.673 9.05206L337.017 7.08406L337.593 7.58806C338.265 6.26806 338.937 4.66006 339.345 3.41206L341.865 4.30006C341.001 5.95606 340.017 7.80406 339.153 9.14806C339.465 9.48406 339.753 9.84406 339.993 10.1561C340.857 8.81206 341.625 7.42006 342.201 6.22006L344.625 7.22806C343.281 9.34006 341.601 11.7881 340.041 13.7321L342.465 13.6361C342.201 13.0601 341.913 12.4841 341.625 11.9801L343.641 11.0921C344.601 12.7001 345.561 14.7881 345.849 16.1561L343.689 17.1641C343.617 16.7801 343.497 16.3481 343.353 15.8681ZM342.033 17.9561L344.145 17.2841C344.793 18.7001 345.417 20.5721 345.705 21.7961L343.449 22.5881C343.257 21.3641 342.633 19.4201 342.033 17.9561ZM349.185 19.0361V22.5881H353.769V19.0361H349.185ZM353.769 7.15606H349.185V10.4921H353.769V7.15606ZM353.769 16.4681V13.0361H349.185V16.4681H353.769ZM356.649 22.5881H358.257V25.1561H344.217V22.5881H346.425V4.58806H356.649V22.5881ZM360.297 19.3001C360.297 15.6281 363.633 12.7961 368.409 12.5801C369.081 11.0441 369.753 9.43606 370.305 8.30806C369.369 8.33206 367.329 8.40406 366.249 8.47606C365.745 8.50006 364.905 8.59606 364.305 8.69206L364.185 5.62006C364.809 5.69206 365.625 5.71606 366.153 5.71606C367.497 5.71606 370.041 5.62006 371.145 5.52406C371.721 5.47606 372.345 5.33206 372.753 5.16406L374.649 6.65206C374.313 7.01206 374.049 7.32406 373.857 7.66006C373.233 8.66806 372.369 10.7321 371.529 12.7481C373.377 13.0361 375.105 13.6121 376.641 14.2841C376.665 13.9961 376.689 13.7321 376.713 13.4681C376.737 13.0121 376.761 12.5561 376.761 12.1241C376.761 11.6921 376.737 11.2601 376.689 10.8761L379.809 11.2361C379.713 12.8201 379.593 14.3081 379.353 15.6521C380.337 16.2041 381.201 16.7801 381.897 17.2361L380.529 20.5241C379.905 19.9721 379.209 19.3961 378.489 18.8681C377.433 21.5561 375.633 23.6441 372.465 25.3001L369.921 23.2361C373.521 21.7001 375.177 19.4201 375.969 17.2601C374.289 16.3481 372.417 15.6281 370.401 15.3401C369.513 17.3801 368.481 19.7321 367.641 21.0521C366.705 22.4921 365.577 23.1401 363.945 23.1401C361.857 23.1401 360.297 21.7001 360.297 19.3001ZM363.105 18.8201C363.105 19.4921 363.513 19.9481 363.993 19.9481C364.473 19.9481 364.809 19.7321 365.241 19.1321C365.841 18.2441 366.513 16.7801 367.185 15.3161C364.545 15.7241 363.105 17.3321 363.105 18.8201Z" fill="black"/>
<path d="M166.097 3.16406L164.109 5.85206C163.017 5.01206 160.637 3.69606 159.013 2.77206L160.889 0.364063C162.457 1.14806 164.893 2.38006 166.097 3.16406ZM164.753 10.7241L162.905 13.4961C161.757 12.6841 159.349 11.3681 157.697 10.4721L159.489 8.00806C161.029 8.76406 163.521 9.96806 164.753 10.7241ZM160.889 25.8441L158.089 23.5761C159.573 21.4761 161.729 18.0041 163.409 14.7561L165.845 16.9961C164.361 19.9361 162.597 23.1281 160.889 25.8441ZM179.061 21.9801V17.8641H170.633V21.9801H179.061ZM183.625 11.3121H176.513V14.8401H182.225V26.0121H179.061V25.0041H170.633V26.1521H167.637V14.8401H173.349V11.3121H165.901V8.12006H173.349V4.84406C171.501 5.12406 169.653 5.32006 167.889 5.48806C167.777 4.67606 167.329 3.38806 166.965 2.63206C171.725 2.15606 176.961 1.23206 180.041 6.27041e-05L182.617 2.63206C180.797 3.33206 178.725 3.86406 176.513 4.28406V8.12006H183.625V11.3121ZM186.341 7.36406C186.733 7.39206 187.097 7.42006 187.489 7.42006C188.077 7.42006 188.665 7.39206 189.281 7.36406C190.149 7.33606 191.465 7.25206 192.865 7.14006C193.229 5.12406 193.453 3.24806 193.453 1.56806V1.26006L197.569 1.68006C197.401 2.40806 197.205 3.27606 197.065 3.97606C196.925 4.81606 196.701 5.82406 196.505 6.83206C197.429 6.77606 198.269 6.72006 198.829 6.72006C201.769 6.72006 203.841 8.03606 203.841 12.0121C203.841 15.2881 203.449 19.7121 202.273 22.1201C201.349 24.0521 199.809 24.6681 197.709 24.6681C196.645 24.6681 195.329 24.5001 194.405 24.2761L193.789 20.6081C194.853 20.9161 196.449 21.1961 197.177 21.1961C198.101 21.1961 198.829 20.9161 199.249 19.9921C200.033 18.4521 200.397 15.1481 200.397 12.4041C200.397 10.1921 199.445 9.88406 197.681 9.88406C197.233 9.88406 196.561 9.94006 195.777 9.99606C194.713 14.1961 192.697 20.7201 190.149 24.8081L186.509 23.3521C189.225 19.7121 191.101 14.1681 192.109 10.3881C191.129 10.5001 190.261 10.6121 189.729 10.6961C188.945 10.7801 187.517 10.9761 186.649 11.1161L186.341 7.36406ZM203.785 5.68406L207.145 4.28406C208.825 6.66406 211.149 11.9561 211.989 14.5881L208.489 16.2401C207.761 13.1601 205.773 8.14806 203.785 5.68406ZM216.665 5.34806C219.073 5.65606 221.285 5.79606 223.329 5.79606C224.645 5.79606 225.877 5.74006 227.025 5.62806C226.409 4.22806 225.849 2.91206 225.065 1.65206L229.013 0.896063C229.489 2.40806 230.021 3.64006 230.609 5.12406C232.513 4.78806 234.249 4.31206 236.041 3.72406L236.685 7.22406C235.229 7.61606 233.633 8.00806 231.981 8.31606C232.989 10.5001 234.333 13.2161 235.565 15.4281L233.605 17.5281C229.825 16.3521 227.529 15.8761 225.429 15.8761C222.209 15.8761 220.501 16.9121 220.501 18.5641C220.501 20.2441 222.349 21.6161 225.793 21.6161C229.657 21.6161 232.065 21.1681 234.081 20.6921L233.997 24.3601C232.429 24.7241 229.433 25.1441 225.793 25.1441C219.801 25.1441 216.889 22.6521 216.889 18.8721C216.889 14.5041 220.025 12.3201 225.093 12.3201C226.913 12.3201 228.621 12.6001 230.525 13.0761C229.853 11.6761 229.237 10.5561 228.481 8.90406C226.745 9.07206 224.925 9.18406 222.965 9.18406C221.005 9.18406 218.961 9.07206 216.777 8.90406L216.665 5.34806ZM241.921 18.8721C243.489 16.9681 246.289 13.2721 247.857 10.9481L247.969 9.01606C246.625 9.18406 244.497 9.46406 242.929 9.66006L242.593 6.10406C242.929 6.10406 243.209 6.13206 243.517 6.13206C243.965 6.13206 244.413 6.10406 245.001 6.07606C245.813 6.02006 247.017 5.88006 248.193 5.71206C248.249 4.67606 248.305 3.89206 248.305 3.58406V2.91206C248.305 2.32406 248.305 1.70806 248.193 1.12006L252.253 1.23206C252.085 2.01606 251.861 3.44406 251.637 5.18006L252.673 6.49606C252.309 6.97206 251.721 7.86806 251.245 8.59606C251.245 8.79206 251.217 8.98806 251.189 9.18406C253.373 7.28006 256.565 5.06806 259.253 5.06806C262.221 5.06806 263.621 6.83206 263.621 9.15606C263.621 12.0401 262.697 16.1001 262.697 18.9841C262.697 19.7121 263.061 20.1881 263.761 20.1881C264.769 20.1881 266.085 19.4881 267.317 18.2281L267.793 22.1201C266.533 23.3241 264.825 24.2201 262.585 24.2201C260.513 24.2201 259.113 22.6801 259.113 20.0201C259.113 16.9961 260.093 12.9361 260.093 10.4161C260.093 9.04406 259.393 8.37206 258.245 8.37206C256.173 8.37206 253.149 10.9201 250.909 13.4121C250.881 14.1961 250.853 14.9521 250.853 15.6521C250.853 17.9201 250.853 20.2441 251.021 22.8481C251.049 23.3521 251.161 24.3601 251.217 24.9761H247.409C247.465 24.3881 247.493 23.3801 247.493 22.9321C247.549 20.7761 247.549 19.1801 247.605 16.8281C246.401 18.5921 245.057 20.6361 244.105 21.9521L241.921 18.8721ZM271.209 16.1281C273.169 14.5321 276.501 11.7041 278.153 10.3601C279.693 9.07206 282.577 6.74806 283.949 5.54406C282.521 5.57206 278.713 5.74006 277.257 5.85206C276.501 5.88006 275.633 5.96406 274.989 6.07606L274.877 2.46406C275.661 2.54806 276.613 2.60406 277.397 2.60406C278.853 2.60406 284.789 2.46406 286.357 2.32406C287.505 2.24006 288.149 2.12806 288.485 2.04406L290.277 4.50806C289.605 4.92806 288.961 5.34806 288.345 5.76806C286.861 6.80406 283.949 9.26806 282.213 10.6681C283.137 10.4161 283.921 10.3601 284.817 10.3601C289.521 10.3601 293.105 13.3001 293.105 17.3321C293.105 21.7001 289.773 25.1721 283.081 25.1721C279.217 25.1721 276.305 23.4081 276.305 20.6361C276.305 18.3961 278.349 16.3241 281.289 16.3241C284.705 16.3241 286.777 18.4241 287.197 21.0561C288.709 20.2441 289.465 18.9561 289.465 17.2761C289.465 14.7841 286.945 13.1041 283.725 13.1041C279.469 13.1041 276.697 15.3721 273.729 18.7321L271.209 16.1281ZM279.581 20.3001C279.581 21.3361 280.757 22.0361 282.381 22.0361C282.969 22.0361 283.501 22.0081 284.005 21.9521C283.837 20.1601 282.801 18.9841 281.289 18.9841C280.253 18.9841 279.581 19.6001 279.581 20.3001Z" fill="#005794"/>
</svg>
